<svg width="1518" height="341" viewBox="0 0 1518 341" fill="none" xmlns="http://www.w3.org/2000/svg">
<path d="M2522.16 165.585C2521.13 84.728 2455.49 19.5 2374.67 19.5C2293.84 19.5 2228.2 84.728 2227.18 165.585L2227.16 169.411C2226.13 250.27 2160.04 315.5 2078.67 315.5C1997.3 315.5 1931.21 250.27 1930.18 169.411L1930.16 165.585C1929.13 84.728 1863.49 19.5 1782.67 19.5C1701.84 19.5 1636.2 84.728 1635.18 165.585L1635.16 169.411C1634.13 250.27 1568.04 315.5 1486.67 315.5C1405.3 315.5 1339.21 250.27 1338.18 169.411L1338.16 165.585C1337.13 84.728 1271.49 19.5 1190.67 19.5C1109.84 19.5 1044.2 84.728 1043.18 165.585L1043.16 169.411C1042.13 250.27 976.039 315.5 894.667 315.5C813.295 315.5 747.206 250.27 746.179 169.411L746.155 165.585C745.134 84.728 679.491 19.5 598.667 19.5C517.843 19.5 452.2 84.728 451.179 165.585L451.155 169.411C450.128 250.27 384.039 315.5 302.667 315.5C221.295 315.5 155.206 250.27 154.179 169.411L154.155 165.585C153.134 84.728 87.4908 19.5 6.66699 19.5C-73.9231 19.5 -139.418 84.3513 -140.809 164.884C-139.587 165.127 -138.666 166.205 -138.666 167.498C-138.666 168.971 -139.86 170.165 -141.333 170.165C-142.806 170.165 -144 168.971 -144 167.498C-144 166.188 -143.054 165.1 -141.808 164.876C-140.413 83.7978 -74.4759 18.5 6.66699 18.5C88.6828 18.5 155.167 85.2103 155.167 167.498C155.167 248.683 221.203 314.5 302.667 314.5C384.131 314.5 450.167 248.683 450.167 167.498C450.167 85.2103 516.651 18.5 598.667 18.5C680.683 18.5 747.167 85.2103 747.167 167.498C747.167 248.683 813.203 314.5 894.667 314.5C976.131 314.5 1042.17 248.683 1042.17 167.498C1042.17 85.2103 1108.65 18.5 1190.67 18.5C1272.68 18.5 1339.17 85.2103 1339.17 167.498C1339.17 248.683 1405.2 314.5 1486.67 314.5C1568.13 314.5 1634.17 248.683 1634.17 167.498C1634.17 85.2103 1700.65 18.5 1782.67 18.5C1864.68 18.5 1931.17 85.2103 1931.17 167.498C1931.17 248.683 1997.2 314.5 2078.67 314.5C2160.13 314.5 2226.17 248.683 2226.17 167.498C2226.17 85.2103 2292.65 18.5 2374.67 18.5C2456.68 18.5 2523.17 85.2103 2523.17 167.498C2523.17 248.683 2589.2 314.5 2670.67 314.5C2752.13 314.5 2818.17 248.683 2818.17 167.498H2819.17C2819.17 249.239 2752.68 315.5 2670.67 315.5C2589.3 315.5 2523.21 250.27 2522.18 169.411L2522.16 165.585Z" fill="#978BD8"/>
<circle cx="6.66797" cy="19" r="19" fill="url(#paint0_linear_569_1069)"/>
<circle cx="6.66797" cy="19" r="18.5" stroke="url(#paint1_linear_569_1069)" stroke-opacity="0.5"/>
<path d="M6.66357 20.668H6.67107M6.66357 24.0013H6.67107M9.99315 20.668H10.0007M3.33398 20.668H3.34146M3.33398 24.0013H3.34146" stroke="white" stroke-width="2" stroke-linecap="round" stroke-linejoin="round"/>
<path d="M10.418 10.668V14.0013M2.91797 10.668V14.0013" stroke="white" stroke-width="1.5" stroke-linecap="round" stroke-linejoin="round"/>
<path d="M12.5013 12.332H0.834635C-0.0858396 12.332 -0.832031 13.0782 -0.832031 13.9987V25.6654C-0.832031 26.5859 -0.0858396 27.332 0.834635 27.332H12.5013C13.4218 27.332 14.168 26.5859 14.168 25.6654V13.9987C14.168 13.0782 13.4218 12.332 12.5013 12.332Z" stroke="white" stroke-width="1.5" stroke-linecap="round" stroke-linejoin="round"/>
<path d="M-0.832031 17.332H14.168" stroke="white" stroke-width="1.5" stroke-linecap="round" stroke-linejoin="round"/>
<circle cx="598.668" cy="19" r="19" fill="url(#paint2_linear_569_1069)"/>
<circle cx="598.668" cy="19" r="18.5" stroke="url(#paint3_linear_569_1069)" stroke-opacity="0.5"/>
<path d="M598.667 27.3346C603.27 27.3346 607.001 23.6036 607.001 19.0013C607.001 14.3989 603.27 10.668 598.667 10.668C594.065 10.668 590.334 14.3989 590.334 19.0013C590.334 23.6036 594.065 27.3346 598.667 27.3346Z" stroke="white" stroke-width="1.5"/>
<path d="M598.668 15.668V19.0013L600.335 20.668" stroke="white" stroke-width="1.5" stroke-linecap="round" stroke-linejoin="round"/>
<g filter="url(#filter0_d_569_1069)">
<circle cx="154.668" cy="167" r="19" fill="white" shape-rendering="crispEdges"/>
<circle cx="154.668" cy="167" r="19" stroke="url(#paint4_linear_569_1069)" stroke-opacity="0.3" shape-rendering="crispEdges"/>
</g>
<path d="M154.664 168.668H154.671M154.664 172.001H154.671M157.993 168.668H158.001M151.334 168.668H151.341M151.334 172.001H151.341" stroke="#898792" stroke-width="2" stroke-linecap="round" stroke-linejoin="round"/>
<path d="M158.418 158.668V162.001M150.918 158.668V162.001" stroke="#898792" stroke-width="1.5" stroke-linecap="round" stroke-linejoin="round"/>
<path d="M160.501 160.332C155.945 160.332 153.391 160.332 148.835 160.332C147.914 160.332 147.168 161.078 147.168 161.999V173.665C147.168 174.586 147.914 175.332 148.835 175.332H160.501C161.422 175.332 162.168 174.586 162.168 173.665V161.999C162.168 161.078 161.422 160.332 160.501 160.332Z" stroke="#898792" stroke-width="1.5" stroke-linecap="round" stroke-linejoin="round"/>
<path d="M147.168 165.332H162.168" stroke="#898792" stroke-width="1.5" stroke-linecap="round" stroke-linejoin="round"/>
<g filter="url(#filter1_d_569_1069)">
<circle cx="302.668" cy="315" r="19" fill="white" shape-rendering="crispEdges"/>
<circle cx="302.668" cy="315" r="19" stroke="url(#paint5_linear_569_1069)" stroke-opacity="0.3" shape-rendering="crispEdges"/>
</g>
<path d="M302.667 323.335C307.27 323.335 311.001 319.604 311.001 315.001C311.001 310.399 307.27 306.668 302.667 306.668C298.065 306.668 294.334 310.399 294.334 315.001C294.334 319.604 298.065 323.335 302.667 323.335Z" stroke="#898792" stroke-width="1.5"/>
<path d="M302.668 311.668V315.001L304.335 316.668" stroke="#898792" stroke-width="1.5" stroke-linecap="round" stroke-linejoin="round"/>
<circle cx="450.668" cy="167" r="19" fill="url(#paint6_linear_569_1069)"/>
<circle cx="450.668" cy="167" r="18.5" stroke="url(#paint7_linear_569_1069)" stroke-opacity="0.5"/>
<path d="M450.664 168.668H450.671M450.664 172.001H450.671M453.993 168.668H454.001M447.334 168.668H447.341M447.334 172.001H447.341" stroke="white" stroke-width="2" stroke-linecap="round" stroke-linejoin="round"/>
<path d="M454.418 158.668V162.001M446.918 158.668V162.001" stroke="white" stroke-width="1.5" stroke-linecap="round" stroke-linejoin="round"/>
<path d="M456.501 160.332H444.835C443.914 160.332 443.168 161.078 443.168 161.999V173.665C443.168 174.586 443.914 175.332 444.835 175.332H456.501C457.422 175.332 458.168 174.586 458.168 173.665V161.999C458.168 161.078 457.422 160.332 456.501 160.332Z" stroke="white" stroke-width="1.5" stroke-linecap="round" stroke-linejoin="round"/>
<path d="M443.168 165.332H458.168" stroke="white" stroke-width="1.5" stroke-linecap="round" stroke-linejoin="round"/>
<circle cx="746.668" cy="167" r="19" fill="url(#paint8_linear_569_1069)"/>
<circle cx="746.668" cy="167" r="18.5" stroke="url(#paint9_linear_569_1069)" stroke-opacity="0.5"/>
<path d="M746.664 168.668H746.671M746.664 172.001H746.671M749.993 168.668H750.001M743.334 168.668H743.341M743.334 172.001H743.341" stroke="white" stroke-width="2" stroke-linecap="round" stroke-linejoin="round"/>
<path d="M750.418 158.668V162.001M742.918 158.668V162.001" stroke="white" stroke-width="1.5" stroke-linecap="round" stroke-linejoin="round"/>
<path d="M752.501 160.332H740.835C739.914 160.332 739.168 161.078 739.168 161.999V173.665C739.168 174.586 739.914 175.332 740.835 175.332H752.501C753.422 175.332 754.168 174.586 754.168 173.665V161.999C754.168 161.078 753.422 160.332 752.501 160.332Z" stroke="white" stroke-width="1.5" stroke-linecap="round" stroke-linejoin="round"/>
<path d="M739.168 165.332H754.168" stroke="white" stroke-width="1.5" stroke-linecap="round" stroke-linejoin="round"/>
<circle cx="894.668" cy="315" r="19" fill="url(#paint10_linear_569_1069)"/>
<circle cx="894.668" cy="315" r="18.5" stroke="url(#paint11_linear_569_1069)" stroke-opacity="0.5"/>
<path d="M894.667 323.335C899.27 323.335 903.001 319.604 903.001 315.001C903.001 310.399 899.27 306.668 894.667 306.668C890.065 306.668 886.334 310.399 886.334 315.001C886.334 319.604 890.065 323.335 894.667 323.335Z" stroke="white" stroke-width="1.5"/>
<path d="M894.668 311.668V315.001L896.335 316.668" stroke="white" stroke-width="1.5" stroke-linecap="round" stroke-linejoin="round"/>
<circle cx="1042.67" cy="167" r="19" fill="url(#paint12_linear_569_1069)"/>
<circle cx="1042.67" cy="167" r="18.5" stroke="url(#paint13_linear_569_1069)" stroke-opacity="0.5"/>
<path d="M1042.66 168.668H1042.67M1042.66 172.001H1042.67M1045.99 168.668H1046M1039.33 168.668H1039.34M1039.33 172.001H1039.34" stroke="white" stroke-width="2" stroke-linecap="round" stroke-linejoin="round"/>
<path d="M1046.42 158.668V162.001M1038.92 158.668V162.001" stroke="white" stroke-width="1.5" stroke-linecap="round" stroke-linejoin="round"/>
<path d="M1048.5 160.332H1036.83C1035.91 160.332 1035.17 161.078 1035.17 161.999V173.665C1035.17 174.586 1035.91 175.332 1036.83 175.332H1048.5C1049.42 175.332 1050.17 174.586 1050.17 173.665V161.999C1050.17 161.078 1049.42 160.332 1048.5 160.332Z" stroke="white" stroke-width="1.5" stroke-linecap="round" stroke-linejoin="round"/>
<path d="M1035.17 165.332H1050.17" stroke="white" stroke-width="1.5" stroke-linecap="round" stroke-linejoin="round"/>
<circle cx="1190.67" cy="19" r="19" fill="url(#paint14_linear_569_1069)"/>
<circle cx="1190.67" cy="19" r="18.5" stroke="url(#paint15_linear_569_1069)" stroke-opacity="0.5"/>
<path d="M1190.67 27.3346C1195.27 27.3346 1199 23.6036 1199 19.0013C1199 14.3989 1195.27 10.668 1190.67 10.668C1186.06 10.668 1182.33 14.3989 1182.33 19.0013C1182.33 23.6036 1186.06 27.3346 1190.67 27.3346Z" stroke="white" stroke-width="1.5"/>
<path d="M1190.67 15.668V19.0013L1192.33 20.668" stroke="white" stroke-width="1.5" stroke-linecap="round" stroke-linejoin="round"/>
<circle cx="1486.67" cy="315" r="19" fill="url(#paint16_linear_569_1069)"/>
<circle cx="1486.67" cy="315" r="18.5" stroke="url(#paint17_linear_569_1069)" stroke-opacity="0.5"/>
<path d="M1486.67 323.335C1491.27 323.335 1495 319.604 1495 315.001C1495 310.399 1491.27 306.668 1486.67 306.668C1482.06 306.668 1478.33 310.399 1478.33 315.001C1478.33 319.604 1482.06 323.335 1486.67 323.335Z" stroke="white" stroke-width="1.5"/>
<path d="M1486.67 311.668V315.001L1488.33 316.668" stroke="white" stroke-width="1.5" stroke-linecap="round" stroke-linejoin="round"/>
<defs>
<filter id="filter0_d_569_1069" x="129.168" y="141.5" width="51" height="51" filterUnits="userSpaceOnUse" color-interpolation-filters="sRGB">
<feFlood flood-opacity="0" result="BackgroundImageFix"/>
<feColorMatrix in="SourceAlpha" type="matrix" values="0 0 0 0 0 0 0 0 0 0 0 0 0 0 0 0 0 0 127 0" result="hardAlpha"/>
<feMorphology radius="2" operator="erode" in="SourceAlpha" result="effect1_dropShadow_569_1069"/>
<feOffset/>
<feGaussianBlur stdDeviation="4"/>
<feComposite in2="hardAlpha" operator="out"/>
<feColorMatrix type="matrix" values="0 0 0 0 0.161964 0 0 0 0 0.0839035 0 0 0 0 0.528846 0 0 0 0.2 0"/>
<feBlend mode="normal" in2="BackgroundImageFix" result="effect1_dropShadow_569_1069"/>
<feBlend mode="normal" in="SourceGraphic" in2="effect1_dropShadow_569_1069" result="shape"/>
</filter>
<filter id="filter1_d_569_1069" x="277.168" y="289.5" width="51" height="51" filterUnits="userSpaceOnUse" color-interpolation-filters="sRGB">
<feFlood flood-opacity="0" result="BackgroundImageFix"/>
<feColorMatrix in="SourceAlpha" type="matrix" values="0 0 0 0 0 0 0 0 0 0 0 0 0 0 0 0 0 0 127 0" result="hardAlpha"/>
<feMorphology radius="2" operator="erode" in="SourceAlpha" result="effect1_dropShadow_569_1069"/>
<feOffset/>
<feGaussianBlur stdDeviation="4"/>
<feComposite in2="hardAlpha" operator="out"/>
<feColorMatrix type="matrix" values="0 0 0 0 0.161964 0 0 0 0 0.0839035 0 0 0 0 0.528846 0 0 0 0.2 0"/>
<feBlend mode="normal" in2="BackgroundImageFix" result="effect1_dropShadow_569_1069"/>
<feBlend mode="normal" in="SourceGraphic" in2="effect1_dropShadow_569_1069" result="shape"/>
</filter>
<linearGradient id="paint0_linear_569_1069" x1="0.881605" y1="54.0769" x2="-62.6256" y2="22.6425" gradientUnits="userSpaceOnUse">
<stop stop-color="#5B40D8"/>
<stop offset="1" stop-color="#BBADFF"/>
</linearGradient>
<linearGradient id="paint1_linear_569_1069" x1="-21.6982" y1="17.9589" x2="19.1162" y2="40.2524" gradientUnits="userSpaceOnUse">
<stop stop-color="#5B41D8"/>
<stop offset="1" stop-color="white"/>
</linearGradient>
<linearGradient id="paint2_linear_569_1069" x1="592.882" y1="54.0769" x2="529.374" y2="22.6425" gradientUnits="userSpaceOnUse">
<stop stop-color="#5B40D8"/>
<stop offset="1" stop-color="#BBADFF"/>
</linearGradient>
<linearGradient id="paint3_linear_569_1069" x1="570.302" y1="17.9589" x2="611.116" y2="40.2524" gradientUnits="userSpaceOnUse">
<stop stop-color="#5B41D8"/>
<stop offset="1" stop-color="white"/>
</linearGradient>
<linearGradient id="paint4_linear_569_1069" x1="138.668" y1="154.5" x2="145.548" y2="192.784" gradientUnits="userSpaceOnUse">
<stop stop-color="#5B41D8"/>
<stop offset="1" stop-color="#5B41D8" stop-opacity="0.3"/>
</linearGradient>
<linearGradient id="paint5_linear_569_1069" x1="286.668" y1="302.5" x2="293.548" y2="340.784" gradientUnits="userSpaceOnUse">
<stop stop-color="#5B41D8"/>
<stop offset="1" stop-color="#5B41D8" stop-opacity="0.3"/>
</linearGradient>
<linearGradient id="paint6_linear_569_1069" x1="444.882" y1="202.077" x2="381.374" y2="170.643" gradientUnits="userSpaceOnUse">
<stop stop-color="#5B40D8"/>
<stop offset="1" stop-color="#BBADFF"/>
</linearGradient>
<linearGradient id="paint7_linear_569_1069" x1="422.302" y1="165.959" x2="463.116" y2="188.252" gradientUnits="userSpaceOnUse">
<stop stop-color="#5B41D8"/>
<stop offset="1" stop-color="white"/>
</linearGradient>
<linearGradient id="paint8_linear_569_1069" x1="740.882" y1="202.077" x2="677.374" y2="170.643" gradientUnits="userSpaceOnUse">
<stop stop-color="#F84B4E"/>
<stop offset="1" stop-color="#F84B4E"/>
</linearGradient>
<linearGradient id="paint9_linear_569_1069" x1="718.302" y1="165.959" x2="759.116" y2="188.252" gradientUnits="userSpaceOnUse">
<stop stop-color="white"/>
<stop offset="1" stop-color="white"/>
</linearGradient>
<linearGradient id="paint10_linear_569_1069" x1="888.882" y1="350.077" x2="825.374" y2="318.643" gradientUnits="userSpaceOnUse">
<stop stop-color="#5B40D8"/>
<stop offset="1" stop-color="#BBADFF"/>
</linearGradient>
<linearGradient id="paint11_linear_569_1069" x1="866.302" y1="313.959" x2="907.116" y2="336.252" gradientUnits="userSpaceOnUse">
<stop stop-color="#5B41D8"/>
<stop offset="1" stop-color="white"/>
</linearGradient>
<linearGradient id="paint12_linear_569_1069" x1="1036.88" y1="202.077" x2="973.374" y2="170.643" gradientUnits="userSpaceOnUse">
<stop stop-color="#F84B4E"/>
<stop offset="1" stop-color="#F84B4E"/>
</linearGradient>
<linearGradient id="paint13_linear_569_1069" x1="1014.3" y1="165.959" x2="1055.12" y2="188.252" gradientUnits="userSpaceOnUse">
<stop stop-color="white"/>
<stop offset="1" stop-color="white"/>
</linearGradient>
<linearGradient id="paint14_linear_569_1069" x1="1184.88" y1="54.0769" x2="1121.37" y2="22.6425" gradientUnits="userSpaceOnUse">
<stop stop-color="#5B40D8"/>
<stop offset="1" stop-color="#BBADFF"/>
</linearGradient>
<linearGradient id="paint15_linear_569_1069" x1="1162.3" y1="17.9589" x2="1203.12" y2="40.2524" gradientUnits="userSpaceOnUse">
<stop stop-color="#5B41D8"/>
<stop offset="1" stop-color="white"/>
</linearGradient>
<linearGradient id="paint16_linear_569_1069" x1="1480.88" y1="350.077" x2="1417.37" y2="318.643" gradientUnits="userSpaceOnUse">
<stop stop-color="#5B40D8"/>
<stop offset="1" stop-color="#BBADFF"/>
</linearGradient>
<linearGradient id="paint17_linear_569_1069" x1="1458.3" y1="313.959" x2="1499.12" y2="336.252" gradientUnits="userSpaceOnUse">
<stop stop-color="#5B41D8"/>
<stop offset="1" stop-color="white"/>
</linearGradient>
</defs>
</svg>
