<svg width="22" height="22" viewBox="0 0 22 22" fill="none" xmlns="http://www.w3.org/2000/svg">
<path d="M0.25 11C0.25 16.937 5.06293 21.75 11 21.75C16.937 21.75 21.75 16.937 21.75 11C21.75 8.8896 21.1418 6.92124 20.0912 5.26059C19.9466 5.03196 19.8743 4.91764 19.7456 4.8937C19.6169 4.86976 19.5078 4.95084 19.2895 5.11299C18.8488 5.4403 18.4011 5.81511 17.9513 6.22836C16.7865 7.29852 15.6641 8.57354 14.6793 9.81023C13.6965 11.0444 12.8631 12.2249 12.275 13.0976C11.9814 13.5334 11.7498 13.8912 11.5923 14.1388C11.5136 14.2627 11.4535 14.3589 11.4134 14.4234L11.3686 14.4961L11.3578 14.5137L11.3554 14.5176C11.1717 14.8204 10.8411 15.0043 10.487 14.9997C10.1328 14.9951 9.80754 14.8034 9.63174 14.4959C8.68252 12.8347 7.89836 12.0868 7.42653 11.7565C7.19207 11.5924 7.03257 11.5297 6.96242 11.5074C6.95822 11.506 6.95613 11.5054 6.94819 11.5033C6.94119 11.5015 6.92946 11.499 6.92233 11.4978C6.91424 11.4965 6.90562 11.4955 6.88836 11.4936C6.38862 11.4381 6 11.0143 6 10.4997C6 9.94753 6.44771 9.49973 7 9.49973C7.07902 9.49103 7.30342 9.49913 7.56882 9.60153C7.84242 9.68863 8.18292 9.84463 8.57346 10.118C9.10274 10.4885 9.71894 11.0707 10.3895 11.9838C10.4462 12.061 10.5629 12.0595 10.6164 11.98C11.2251 11.0767 12.0902 9.85093 13.1147 8.56435C14.1373 7.28018 15.331 5.91978 16.5982 4.75558C17.0072 4.37986 17.4299 4.01881 17.8628 3.68463C18.1389 3.47151 18.277 3.36496 18.2799 3.22138C18.2829 3.07781 18.158 2.97298 17.9083 2.76333C16.04 1.1947 13.6303 0.25 11 0.25C5.06293 0.25 0.25 5.06293 0.25 11Z" fill="url(#paint0_linear_280_1189)"/>
<defs>
<linearGradient id="paint0_linear_280_1189" x1="7.72615" y1="30.8462" x2="-28.2056" y2="13.0609" gradientUnits="userSpaceOnUse">
<stop stop-color="#5B40D8"/>
<stop offset="1" stop-color="#BBADFF"/>
</linearGradient>
</defs>
</svg>
