<svg xmlns="http://www.w3.org/2000/svg">


	<symbol id="theme-icon-dark" viewBox="0 0 22 22" fill="none">
		<path
			d="M20.5 13.0784C19.3003 13.7189 17.9301 14.0821 16.4751 14.0821C11.7491 14.0821 7.91792 10.2509 7.91792 5.52485C7.91792 4.06986 8.28105 2.69968 8.92163 1.5C4.66765 2.49698 1.5 6.31513 1.5 10.8731C1.5 16.1899 5.8101 20.5 11.1269 20.5C15.6849 20.5 19.503 17.3324 20.5 13.0784Z"
			stroke-width="1.5" stroke-linecap="round" stroke-linejoin="round" stroke="currentColor" />
	</symbol>
	<symbol id="theme-icon-light" viewBox="0 0 24 24" fill="none">
		<path
			d="M17 12C17 14.7614 14.7614 17 12 17C9.23858 17 7 14.7614 7 12C7 9.23858 9.23858 7 12 7C14.7614 7 17 9.23858 17 12Z"
			stroke="currentColor" stroke-width="1.5" />
		<path
			d="M12 2V3.5M12 20.5V22M19.0708 19.0713L18.0101 18.0106M5.98926 5.98926L4.9286 4.9286M22 12H20.5M3.5 12H2M19.0713 4.92871L18.0106 5.98937M5.98975 18.0107L4.92909 19.0714"
			stroke="currentColor" stroke-width="1.5" stroke-linecap="round" />

	</symbol>
	<symbol id="button-arrow-up" viewBox="0 0 12 18" fill="none">
		<path d="M6 2L6 17" stroke="currentColor" stroke-width="1.5" stroke-linecap="round" stroke-linejoin="round" />
		<path
			d="M1 6L5.29289 1.70711C5.62623 1.37377 5.79289 1.20711 6 1.20711C6.20711 1.20711 6.37377 1.37377 6.70711 1.70711L11 6"
			stroke="currentColor" stroke-width="1.5" stroke-linecap="round" stroke-linejoin="round" />
	</symbol>
	<symbol id="question" viewBox="0 0 23 22" fill="none">
		<path
			d="M11.5007 20.1673C16.5423 20.1673 20.6673 16.0423 20.6673 11.0007C20.6673 5.95898 16.5423 1.83398 11.5007 1.83398C6.45898 1.83398 2.33398 5.95898 2.33398 11.0007C2.33398 16.0423 6.45898 20.1673 11.5007 20.1673Z"
			stroke="currentColor" stroke-width="1.5" stroke-linecap="round" stroke-linejoin="round" />
		<path
			d="M11.5 12.001V11.8143C11.5 11.2099 11.8795 10.8899 12.2591 10.6321C12.6296 10.3832 13 10.0632 13 9.47656C13 8.65878 12.3313 8.00098 11.5 8.00098C10.6687 8.00098 10 8.65878 10 9.47656"
			stroke="currentColor" stroke-width="1.5" stroke-linecap="round" stroke-linejoin="round" />
		<path d="M11.4955 14.5928H11.5045" stroke="currentColor" stroke-width="1.5" stroke-linecap="round"
			stroke-linejoin="round" />
	</symbol>
	<symbol id="arrow-spoiler" viewBox="0 0 14 8" fill="none">
		<path
			d="M0.999878 7.00098L6.29277 1.70808C6.6261 1.37475 6.79277 1.20808 6.99988 1.20808C7.20698 1.20808 7.37365 1.37475 7.70698 1.70808L12.9999 7.00098"
			stroke="currentColor" stroke-width="1.5" stroke-linecap="round" stroke-linejoin="round" />
	</symbol>
	<symbol id="pricing-icon_01" viewBox="0 0 26 26" fill="none">
		<path
			d="M12.7854 7.02996L14.3948 5.42059C16.2069 3.60848 18.5793 2.85683 21.09 2.734C22.0666 2.68623 22.5549 2.66234 22.9464 3.0539C23.338 3.44545 23.3141 3.93373 23.2663 4.91031C23.1435 7.42105 22.3918 9.79347 20.5798 11.6055L18.9704 13.2149C17.645 14.5403 17.2682 14.9172 17.5464 16.3548C17.821 17.4529 18.0868 18.5163 17.2883 19.3149C16.3197 20.2835 15.4361 20.2835 14.4675 19.3149L6.68544 11.5328C5.71685 10.5642 5.71681 9.68067 6.68544 8.71205C7.48396 7.91353 8.54738 8.17932 9.64553 8.45389C11.0831 8.73214 11.46 8.35531 12.7854 7.02996Z"
			stroke="currentColor" stroke-width="1.5" stroke-linejoin="round" />
		<path d="M18.4121 7.58301H18.4222" stroke="currentColor" stroke-width="2" stroke-linecap="round"
			stroke-linejoin="round" />
		<path d="M2.70898 23.2917L8.12565 17.875" stroke="currentColor" stroke-width="1.5" stroke-linecap="round" />
		<path d="M9.20898 23.2917L11.3757 21.125" stroke="currentColor" stroke-width="1.5" stroke-linecap="round" />
		<path d="M2.70898 16.7917L4.87565 14.625" stroke="currentColor" stroke-width="1.5" stroke-linecap="round" />
	</symbol>
	<symbol id="pricing-icon_02" viewBox="0 0 22 24" fill="none">
		<path d="M12.0833 1.16699L1.25 14.167H11L9.91667 22.8337L20.75 9.83366H11L12.0833 1.16699Z"
			stroke="currentColor" stroke-width="1.5" stroke-linecap="round" stroke-linejoin="round" />

	</symbol>
	<symbol id="pricing-icon_03" viewBox="0 0 26 26" fill="none">
		<path d="M5.41602 22.208H20.5827" stroke="currentColor" stroke-width="1.5" stroke-linecap="round"
			stroke-linejoin="round" />
		<path
			d="M20.5827 18.9587H5.41602L2.22151 9.8334C2.09205 9.45051 2.19313 9.02839 2.48262 8.743C2.84693 8.38385 3.41775 8.32813 3.84645 8.60987L8.12435 11.3753L12.1773 4.26229C12.3459 3.97147 12.6596 3.79199 12.9993 3.79199C13.3391 3.79199 13.6528 3.97147 13.8214 4.26229L17.8743 11.3753L22.1522 8.60987C22.5809 8.32813 23.1518 8.38385 23.5161 8.743C23.8056 9.02839 23.9067 9.45051 23.7772 9.8334L20.5827 18.9587Z"
			stroke="currentColor" stroke-width="1.5" stroke-linecap="round" stroke-linejoin="round" />

	</symbol>
	<symbol id="pricing-icon_04" viewBox="0 0 26 26" fill="none">
		<path
			d="M7.58268 8.66699C4.34459 9.26922 2.16602 10.3948 2.16602 11.684C2.16602 13.6076 7.01626 15.167 12.9993 15.167C18.9824 15.167 23.8327 13.6076 23.8327 11.684C23.8327 10.3948 21.6541 9.26922 18.416 8.66699"
			stroke="currentColor" stroke-width="1.5" stroke-linecap="round" stroke-linejoin="round" />
		<path
			d="M7.93313 9.5767C7.44678 8.89914 7.54968 8.46519 7.75549 7.59729C8.32643 5.18957 10.4225 3.25 13.0006 3.25C15.5788 3.25 17.6749 5.18957 18.2458 7.59729C18.4517 8.46519 18.5546 8.89914 18.0682 9.5767C16.7416 11.4248 9.00519 11.0703 7.93313 9.5767Z"
			stroke="currentColor" stroke-width="1.5" stroke-linecap="round" stroke-linejoin="round" />
		<path d="M7.58268 15.167L5.41602 22.7503M18.416 15.167L20.5827 22.7503" stroke="currentColor" stroke-width="1.5"
			stroke-linecap="round" stroke-linejoin="round" />
		<path d="M13 20.583H13.009" stroke="currentColor" stroke-width="2" stroke-linecap="round"
			stroke-linejoin="round" />

	</symbol>
	<symbol id="pricing-icon_05" viewBox="0 0 26 26" fill="none">
		<path
			d="M14.0841 7.58333C14.0841 9.97657 12.144 11.9167 9.75081 11.9167C7.35758 11.9167 5.41748 9.97657 5.41748 7.58333C5.41748 5.1901 7.35758 3.25 9.75081 3.25C12.144 3.25 14.0841 5.1901 14.0841 7.58333Z"
			stroke="currentColor" stroke-width="1.625" />
		<path d="M16.25 11.9167C18.6432 11.9167 20.5833 9.97657 20.5833 7.58333C20.5833 5.1901 18.6432 3.25 16.25 3.25"
			stroke="currentColor" stroke-width="1.625" stroke-linecap="round" stroke-linejoin="round" />
		<path
			d="M11.9175 15.167H7.58415C4.59261 15.167 2.16748 17.5921 2.16748 20.5837C2.16748 21.7803 3.13753 22.7503 4.33415 22.7503H15.1675C16.3641 22.7503 17.3341 21.7803 17.3341 20.5837C17.3341 17.5921 14.909 15.167 11.9175 15.167Z"
			stroke="currentColor" stroke-width="1.625" stroke-linejoin="round" />
		<path
			d="M18.4175 15.167C21.409 15.167 23.8341 17.5921 23.8341 20.5837C23.8341 21.7803 22.8641 22.7503 21.6675 22.7503H20.0425"
			stroke="currentColor" stroke-width="1.625" stroke-linecap="round" stroke-linejoin="round" />

	</symbol>
	<symbol id="password-icon-visible" viewBox="0 0 22 16" fill="none">
		<path d="M1.5 8C2.7 5.9 6.1 2 11 2C15.9 2 19.3 5.9 20.5 8C19.3 10.1 15.9 14 11 14C6.1 14 2.7 10.1 1.5 8Z"
			stroke="currentColor" stroke-width="1.5" stroke-linecap="round" stroke-linejoin="round" />
		<circle cx="11" cy="8" r="3" stroke="currentColor" stroke-width="1.5" stroke-linecap="round"
			stroke-linejoin="round" />


	</symbol>
	<symbol id="password-icon-invisible" viewBox="0 0 24 24" fill="none">
		<path
			d="M19.439 15.439C20.3636 14.5212 21.0775 13.6091 21.544 12.955C21.848 12.5287 22 12.3155 22 12C22 11.6845 21.848 11.4713 21.544 11.045C20.1779 9.12944 16.6892 5 12 5C11.0922 5 10.2294 5.15476 9.41827 5.41827M6.74742 6.74742C4.73118 8.1072 3.24215 9.94266 2.45604 11.045C2.15201 11.4713 2 11.6845 2 12C2 12.3155 2.15201 12.5287 2.45604 12.955C3.8221 14.8706 7.31078 19 12 19C13.9908 19 15.7651 18.2557 17.2526 17.2526"
			stroke="currentColor" stroke-width="1.5" stroke-linecap="round" stroke-linejoin="round" />
		<path
			d="M9.85786 10C9.32783 10.53 9 11.2623 9 12.0711C9 13.6887 10.3113 15 11.9289 15C12.7377 15 13.47 14.6722 14 14.1421"
			stroke="currentColor" stroke-width="1.5" stroke-linecap="round" />
		<path d="M3 3L21 21" stroke="currentColor" stroke-width="1.5" stroke-linecap="round" stroke-linejoin="round" />
	</symbol>
	<symbol id="credits-icon" viewBox="0 0 20 20" fill="none">
		<path d="M9.99935 4.33301L7.91602 10.9997L12.0827 8.99967L9.99935 4.33301Z" stroke="url(#paint0_linear_312_163)"
			stroke-width="1.2" stroke-miterlimit="10" stroke-linecap="round" stroke-linejoin="round" />
		<path d="M11.75 9.16667L15 10.1667L11.25 12.3333L10.9167 12.1667L5 10.1667L8.33333 8.5"
			stroke="url(#paint1_linear_312_163)" stroke-width="1.2" stroke-miterlimit="10" stroke-linecap="round"
			stroke-linejoin="round" />
		<path d="M10.8327 12.6663L9.99935 15.1663L7.91602 11.333" stroke="url(#paint2_linear_312_163)"
			stroke-width="1.2" stroke-miterlimit="10" stroke-linecap="round" stroke-linejoin="round" />
		<path
			d="M9.99935 18.3337C14.6017 18.3337 18.3327 14.6027 18.3327 10.0003C18.3327 5.39795 14.6017 1.66699 9.99935 1.66699C5.39698 1.66699 1.66602 5.39795 1.66602 10.0003C1.66602 14.6027 5.39698 18.3337 9.99935 18.3337Z"
			stroke="url(#paint3_linear_312_163)" stroke-width="1.5" stroke-miterlimit="10" stroke-linecap="round"
			stroke-linejoin="round" />
		<defs>
			<linearGradient id="paint0_linear_312_163" x1="9.36488" y1="13.8202" x2="1.45255" y2="11.3724"
				gradientUnits="userSpaceOnUse">
				<stop stop-color="#5B40D8" />
				<stop offset="1" stop-color="#BBADFF" />
			</linearGradient>
			<linearGradient id="paint1_linear_312_163" x1="8.47727" y1="13.9551" x2="0.676479" y2="3.88247"
				gradientUnits="userSpaceOnUse">
				<stop stop-color="#5B40D8" />
				<stop offset="1" stop-color="#BBADFF" />
			</linearGradient>
			<linearGradient id="paint2_linear_312_163" x1="8.93022" y1="16.7881" x2="3.61536" y2="14.7865"
				gradientUnits="userSpaceOnUse">
				<stop stop-color="#5B40D8" />
				<stop offset="1" stop-color="#BBADFF" />
			</linearGradient>
			<linearGradient id="paint3_linear_312_163" x1="7.46147" y1="25.3849" x2="-20.3926" y2="11.5979"
				gradientUnits="userSpaceOnUse">
				<stop stop-color="#5B40D8" />
				<stop offset="1" stop-color="#BBADFF" />
			</linearGradient>
		</defs>
	</symbol>
	<symbol id="pdf-icon" viewBox="0 0 22 28" fill="none">
		<path fill-rule="evenodd" clip-rule="evenodd"
			d="M4.17446 0H13.5358L21.4698 8.26987V24.3548C21.4698 26.3698 19.8396 28 17.8316 28H4.17446C2.15948 28 0.529297 26.3698 0.529297 24.3548V3.64516C0.529261 1.63018 2.15944 0 4.17446 0Z"
			fill="#E5252A" />
		<path opacity="0.302" fill-rule="evenodd" clip-rule="evenodd" d="M13.5273 0V8.2069H21.4684L13.5273 0Z"
			fill="white" />
		<path
			d="M2.83203 23.333V16.333H5.50977C6.17275 16.333 6.69798 16.5341 7.09404 16.9459C7.4901 17.3481 7.68815 17.8939 7.68815 18.5738C7.68815 19.2537 7.4901 19.7995 7.09404 20.2017C6.69798 20.6135 6.17275 20.8145 5.50977 20.8145H4.44212V23.333H2.83203ZM4.44212 19.292H5.32896C5.57003 19.292 5.75946 19.2345 5.88863 19.1005C6.01776 18.976 6.08668 18.8036 6.08668 18.5738C6.08668 18.344 6.01781 18.1716 5.88863 18.0472C5.7595 17.9131 5.57007 17.8556 5.32896 17.8556H4.44212V19.292ZM8.35108 23.333V16.333H10.5811C11.0202 16.333 11.4335 16.4 11.8209 16.5437C12.2084 16.6873 12.5614 16.8884 12.8714 17.1661C13.1813 17.4342 13.431 17.7981 13.6118 18.2578C13.784 18.7174 13.8788 19.2441 13.8788 19.8378C13.8788 20.4219 13.7841 20.9486 13.6118 21.4082C13.431 21.8679 13.1813 22.2318 12.8714 22.4999C12.5614 22.7776 12.2084 22.9787 11.8209 23.1223C11.4335 23.2659 11.0202 23.333 10.5811 23.333H8.35108ZM9.92673 21.8105H10.3917C10.6413 21.8105 10.8738 21.7818 11.0891 21.7147C11.2957 21.6477 11.4938 21.5423 11.6832 21.3987C11.864 21.2551 12.0104 21.0539 12.1137 20.7858C12.217 20.5177 12.2687 20.2017 12.2687 19.8378C12.2687 19.4643 12.217 19.1483 12.1137 18.8802C12.0104 18.6121 11.864 18.411 11.6832 18.2674C11.4938 18.1238 11.2958 18.0184 11.0891 17.9514C10.8738 17.8844 10.6413 17.8556 10.3917 17.8556H9.92673V21.8105ZM14.6881 23.333V16.333H19.1654V17.8556H16.2982V18.976H18.5885V20.489H16.2982V23.333H14.6881Z"
			fill="white" />
	</symbol>
	<symbol id="copy-link-icon" viewBox="0 0 26 26" fill="none">
		<path
			d="M15.77 14.3198C14.6408 15.449 12.8101 15.449 11.6808 14.3198C10.5517 13.1906 10.5517 11.3598 11.6808 10.2306L14.2366 7.67487C15.3143 6.59707 17.0313 6.54802 18.1673 7.52771M17.8147 4.09689C18.9438 2.9677 20.7746 2.9677 21.9038 4.09689C23.033 5.22608 23.033 7.05686 21.9038 8.18605L19.348 10.7418C18.2703 11.8196 16.5533 11.8687 15.4174 10.8889"
			stroke="currentColor" stroke-width="1.5" stroke-linecap="round" stroke-linejoin="round" />
		<path
			d="M11.375 3.25H5.41682C4.2202 3.25 3.25016 4.22004 3.25015 5.41665L3.25 20.5833C3.24999 21.78 4.22004 22.75 5.41667 22.75H20.5833C21.78 22.75 22.75 21.78 22.75 20.5833V14.625"
			stroke="currentColor" stroke-width="1.5" stroke-linecap="round" stroke-linejoin="round" />
	</symbol>
	<symbol id="share-icon" viewBox="0 0 26 26" fill="none">
		<path
			d="M22.75 7.04199C22.75 8.83692 21.2949 10.292 19.5 10.292C17.7051 10.292 16.25 8.83692 16.25 7.04199C16.25 5.24707 17.7051 3.79199 19.5 3.79199C21.2949 3.79199 22.75 5.24707 22.75 7.04199Z"
			stroke="currentColor" stroke-width="1.5" />
		<path
			d="M9.75 13C9.75 14.7949 8.29493 16.25 6.5 16.25C4.70507 16.25 3.25 14.7949 3.25 13C3.25 11.2051 4.70507 9.75 6.5 9.75C8.29493 9.75 9.75 11.2051 9.75 13Z"
			stroke="currentColor" stroke-width="1.5" />
		<path
			d="M22.75 18.959C22.75 20.7539 21.2949 22.209 19.5 22.209C17.7051 22.209 16.25 20.7539 16.25 18.959C16.25 17.1641 17.7051 15.709 19.5 15.709C21.2949 15.709 22.75 17.1641 22.75 18.959Z"
			stroke="currentColor" stroke-width="1.5" />
		<path d="M9.45508 11.6459L16.4967 8.39648M9.45508 14.3548L16.4967 17.6042" stroke="currentColor"
			stroke-width="1.5" />
	</symbol>
	<symbol id="search-icon" viewBox="0 0 24 24" fill="none">
		<path d="M15 15L16.5 16.5" stroke="currentColor" stroke-width="1.5" stroke-linecap="round"
			stroke-linejoin="round" />
		<path
			d="M16.9333 19.0252C16.3556 18.4475 16.3556 17.5109 16.9333 16.9333C17.5109 16.3556 18.4475 16.3556 19.0252 16.9333L21.0667 18.9748C21.6444 19.5525 21.6444 20.4891 21.0667 21.0667C20.4891 21.6444 19.5525 21.6444 18.9748 21.0667L16.9333 19.0252Z"
			stroke="currentColor" stroke-width="1.5" stroke-linecap="round" stroke-linejoin="round" />
		<path
			d="M16.5 9.5C16.5 5.63401 13.366 2.5 9.5 2.5C5.63401 2.5 2.5 5.63401 2.5 9.5C2.5 13.366 5.63401 16.5 9.5 16.5C13.366 16.5 16.5 13.366 16.5 9.5Z"
			stroke="currentColor" stroke-width="1.5" stroke-linecap="round" stroke-linejoin="round" />
	</symbol>
	<symbol id="search-icon-2" viewBox="0 0 24 24" fill="none">
		<path d="M17.5 17.5L22 22" stroke="currentColor" stroke-width="1.5" stroke-linecap="round"
			stroke-linejoin="round" />
		<path
			d="M20 11C20 6.02944 15.9706 2 11 2C6.02944 2 2 6.02944 2 11C2 15.9706 6.02944 20 11 20C15.9706 20 20 15.9706 20 11Z"
			stroke="currentColor" stroke-width="1.5" stroke-linejoin="round" />
	</symbol>
	<symbol id="email-icon" viewBox="0 0 20 20" fill="none">
		<path
			d="M3.33464 3.33301H16.668C17.5885 3.33301 18.3346 4.0792 18.3346 4.99967V14.9997C18.3346 15.9202 17.5885 16.6663 16.668 16.6663H3.33464C2.41416 16.6663 1.66797 15.9202 1.66797 14.9997V4.99967C1.66797 4.0792 2.41416 3.33301 3.33464 3.33301Z"
			stroke="currentColor" stroke-width="1.5" stroke-linejoin="round" />
		<path d="M18.3346 5.83301L10.7466 9.62701C10.2775 9.86159 9.72514 9.86159 9.25597 9.62701L1.66797 5.83301"
			stroke="currentColor" stroke-width="1.5" stroke-linejoin="round" />
	</symbol>
	<symbol id="person-icon" viewBox="0 0 20 20" fill="none">
		<path
			d="M10.1341 9.05866C10.0508 9.05033 9.95078 9.05033 9.85911 9.05866C7.87578 8.99199 6.30078 7.36699 6.30078 5.36699C6.30078 3.32533 7.95078 1.66699 10.0008 1.66699C12.0424 1.66699 13.7008 3.32533 13.7008 5.36699C13.6924 7.36699 12.1174 8.99199 10.1341 9.05866Z"
			stroke="currentColor" stroke-width="1.5" stroke-linecap="round" stroke-linejoin="round" />
		<path
			d="M5.96758 12.133C3.95091 13.483 3.95091 15.683 5.96758 17.0247C8.25924 18.558 12.0176 18.558 14.3092 17.0247C16.3259 15.6747 16.3259 13.4747 14.3092 12.133C12.0259 10.608 8.26758 10.608 5.96758 12.133Z"
			stroke="currentColor" stroke-width="1.5" stroke-linecap="round" stroke-linejoin="round" />
	</symbol>
	<symbol id="prev-icon" viewBox="0 0 8 14" fill="none">
		<path
			d="M7 1L1.70711 6.29289C1.37377 6.62623 1.20711 6.79289 1.20711 7C1.20711 7.20711 1.37377 7.37377 1.70711 7.70711L7 13"
			stroke="currentColor" stroke-width="1.5" stroke-linecap="round" stroke-linejoin="round" />
	</symbol>
	<symbol id="next-icon" viewBox="0 0 8 14" fill="none">
		<path
			d="M1 1L6.29289 6.29289C6.62623 6.62623 6.79289 6.79289 6.79289 7C6.79289 7.20711 6.62623 7.37377 6.29289 7.70711L1 13"
			stroke="currentColor" stroke-width="1.5" stroke-linecap="round" stroke-linejoin="round" />
	</symbol>
	<symbol id="calendar-icon" viewBox="0 0 25 24" fill="none">
		<path d="M12.6635 14H12.6725M12.6635 18H12.6725M16.659 14H16.668M8.66797 14H8.67694M8.66797 18H8.67694"
			stroke="currentColor" stroke-width="2" stroke-linecap="round" stroke-linejoin="round" />
		<path d="M17.168 2V6M8.16797 2V6" stroke="currentColor" stroke-width="1.5" stroke-linecap="round"
			stroke-linejoin="round" />
		<path
			d="M19.668 4H5.66797C4.5634 4 3.66797 4.89543 3.66797 6V20C3.66797 21.1046 4.5634 22 5.66797 22H19.668C20.7726 22 21.668 21.1046 21.668 20V6C21.668 4.89543 20.7726 4 19.668 4Z"
			stroke="currentColor" stroke-width="1.5" stroke-linecap="round" stroke-linejoin="round" />
		<path d="M3.66797 10H21.668" stroke="currentColor" stroke-width="1.5" stroke-linecap="round"
			stroke-linejoin="round" />
	</symbol>
	<symbol id="decor-arrow-icon" viewBox="0 0 20 19" fill="none">
		<path
			d="M16.8418 14.3123L16.8418 18.127L10.8418 12.9416L4.8418 18.127L4.8418 14.3123L10.8418 9.12695L16.8418 14.3123Z"
			fill="url(#paint0_linear_179_4213)" />
		<path
			d="M19.8418 8.19319L19.8418 14.127L10.342 6.06072L0.841797 14.127L0.841797 8.19319L10.342 0.126953L19.8418 8.19319Z"
			fill="url(#paint1_linear_179_4213)" />
		<defs>
			<linearGradient id="paint0_linear_179_4213" x1="-0.235126" y1="14.9974" x2="5.87463" y2="31.4555"
				gradientUnits="userSpaceOnUse">
				<stop stop-color="#5B40D8" />
				<stop offset="1" stop-color="#BBADFF" />
			</linearGradient>
			<linearGradient id="paint1_linear_179_4213" x1="-7.19666" y1="9.25877" x2="2.18016" y2="34.9686"
				gradientUnits="userSpaceOnUse">
				<stop stop-color="#5B40D8" />
				<stop offset="1" stop-color="#BBADFF" />
			</linearGradient>
		</defs>
	</symbol>
	<symbol id="more-icon" viewBox="0 0 24 24" fill="none">
		<path d="M11.9922 12H11.9997" stroke="currentColor" stroke-width="2.5" stroke-linecap="round"
			stroke-linejoin="round" />
		<path d="M11.9844 18H11.9919" stroke="currentColor" stroke-width="2.5" stroke-linecap="round"
			stroke-linejoin="round" />
		<path d="M12 6H12.0075" stroke="currentColor" stroke-width="2.5" stroke-linecap="round"
			stroke-linejoin="round" />
	</symbol>
	<symbol id="download-icon" viewBox="0 0 24 24" fill="none">
		<path d="M12 14.5V4.5M12 14.5C11.2998 14.5 9.99153 12.5057 9.5 12M12 14.5C12.7002 14.5 14.0085 12.5057 14.5 12"
			stroke="currentColor" stroke-width="1.5" stroke-linecap="round" stroke-linejoin="round" />
		<path d="M20 16.5C20 18.982 19.482 19.5 17 19.5H7C4.518 19.5 4 18.982 4 16.5" stroke="currentColor"
			stroke-width="1.5" stroke-linecap="round" stroke-linejoin="round" />
	</symbol>
	<symbol id="google-icon" viewBox="0 0 20 21" fill="none">
		<g clip-path="url(#clip0_317_1499)">
			<path
				d="M4.43242 12.5865L3.73625 15.1854L1.19176 15.2393C0.431328 13.8288 0 12.2151 0 10.5003C0 8.84203 0.403281 7.27828 1.11812 5.90137H1.11867L3.38398 6.31668L4.37633 8.5684C4.16863 9.17391 4.05543 9.82391 4.05543 10.5003C4.05551 11.2343 4.18848 11.9377 4.43242 12.5865Z"
				fill="#FBBB00" />
			<path
				d="M19.8242 8.63184C19.939 9.23676 19.9989 9.86148 19.9989 10.5C19.9989 11.2159 19.9236 11.9143 19.7802 12.5879C19.2934 14.8802 18.0214 16.8818 16.2594 18.2983L13.4055 18.1522L13.0017 15.6313C14.1709 14.9456 15.0847 13.8725 15.566 12.5879H10.2188V8.63184H15.644H19.8242Z"
				fill="#518EF8" />
			<path
				d="M16.2595 18.2975L16.2601 18.298C14.5464 19.6755 12.3694 20.4996 9.99965 20.4996C6.19141 20.4996 2.88043 18.3711 1.19141 15.2387L4.43207 12.5859C5.27656 14.8398 7.45074 16.4442 9.99965 16.4442C11.0952 16.4442 12.1216 16.148 13.0024 15.631L16.2595 18.2975Z"
				fill="#28B446" />
			<path
				d="M16.382 2.80219L13.1425 5.45437C12.2309 4.88461 11.1534 4.55547 9.99906 4.55547C7.39246 4.55547 5.17762 6.23348 4.37543 8.56812L1.11773 5.90109H1.11719C2.78148 2.6923 6.13422 0.5 9.99906 0.5C12.4254 0.5 14.6502 1.3643 16.382 2.80219Z"
				fill="#F14336" />
		</g>
		<defs>
			<clipPath id="clip0_317_1499">
				<rect width="20" height="20" fill="white" transform="translate(0 0.5)" />
			</clipPath>
		</defs>
	</symbol>
	<symbol id="main-logo" viewBox="0 0 960 299" fill="none">
		<g clip-path="url(#clip0_2129_418)">
			<path
				d="M120.89 204.22V49.5101L152.05 49.8701L151.89 61.5201C155.74 57.3301 162.11 52.0101 171.26 49.2601C173.43 48.6101 177.93 47.5101 183.71 47.5101C184.89 47.5101 186.07 47.5601 187.24 47.6501C203.17 48.8801 214.17 58.2901 217.16 61.1401C227.99 71.4701 233.15 86.41 232.49 105.55C231.76 127.02 223.45 144.24 209.11 154.05C204.24 157.38 194.06 162.97 180.63 162.97C178.92 162.97 177.2 162.88 175.5 162.7C165.06 161.58 157.06 157.3 152.06 153.76V204.23H120.9L120.89 204.22ZM151.74 130.57C155.33 133.21 162.66 137.53 172.24 137.53C172.94 137.53 173.65 137.51 174.36 137.46C177.57 137.25 185.08 136.75 191.3 131.12C198.4 124.68 199.1 115.88 199.61 109.46C200.05 103.87 201.23 89.01 191 80.21C186.41 76.25 180.98 74.82 178.15 74.31C176.63 74.04 175.02 73.9 173.37 73.9C170.58 73.9 167.81 74.29 165.14 75.07C158.75 76.92 154.34 80.56 151.75 83.31V130.58L151.74 130.57Z"
				fill="url(#paint0_linear_2129_418)" />
			<path
				d="M183.71 47.8001C184.83 47.8001 186 47.8401 187.21 47.9401C203.89 49.2301 214.97 59.4601 216.95 61.3501C233.17 76.83 232.42 98.85 232.19 105.54C232.01 110.96 231.06 138.68 208.94 153.81C205.49 156.17 195.01 162.68 180.62 162.68C178.97 162.68 177.27 162.59 175.52 162.41C163.89 161.16 155.63 155.99 151.76 153.19V203.94H121.19V49.8001C131.38 49.9201 141.57 50.0401 151.76 50.1501C151.7 54.1901 151.65 58.2401 151.59 62.2801C154.43 59.0801 160.93 52.6601 171.35 49.5201C172.72 49.1101 177.37 47.7901 183.72 47.7901M172.24 137.82C172.94 137.82 173.65 137.8 174.38 137.75C177.52 137.54 185.2 137.03 191.5 131.33C198.69 124.82 199.41 115.75 199.91 109.47C200.34 104.07 201.54 88.88 191.2 79.97C186.29 75.74 180.5 74.42 178.21 74.01C177.4 73.87 175.68 73.6 173.37 73.6C171.08 73.6 168.21 73.86 165.06 74.78C157.94 76.85 153.44 81.06 151.46 83.19V130.73C154.02 132.63 161.69 137.83 172.25 137.83M183.71 47.2101C177.89 47.2101 173.36 48.3101 171.17 48.9701C162.36 51.6201 156.11 56.6301 152.19 60.7601L152.25 56.2301L152.33 50.1701V49.5801H151.75L131.39 49.3401L121.18 49.2201H120.59V49.8101V204.52H152.33V154.32C157.38 157.81 165.26 161.89 175.44 162.99C177.15 163.17 178.89 163.27 180.61 163.27C194.12 163.27 204.36 157.65 209.26 154.3C223.69 144.43 232.04 127.13 232.77 105.57C232.89 102.13 233.13 94.98 231.3 86.63C229.03 76.25 224.33 67.6101 217.34 60.9401C214.33 58.0701 203.27 48.6101 187.24 47.3701C186.07 47.2801 184.87 47.2301 183.69 47.2301L183.71 47.2101ZM152.04 83.41C154.62 80.69 158.96 77.15 165.22 75.33C167.86 74.56 170.6 74.18 173.36 74.18C174.99 74.18 176.59 74.32 178.09 74.58C180.89 75.08 186.26 76.5 190.8 80.41C200.92 89.12 199.75 103.87 199.31 109.42C198.81 115.8 198.11 124.53 191.09 130.89C184.95 136.45 177.5 136.95 174.33 137.16C173.63 137.21 172.93 137.23 172.23 137.23C162.85 137.23 155.63 133.04 152.03 130.42V83.41H152.04Z"
				fill="black" />
			<path d="M468.88 163.38V39.27H425.71V6.81995H546.21V39.27H503.04V163.38H468.88Z"
				fill="url(#paint1_linear_2129_418)" />
			<path
				d="M545.91 7.11002V38.97H502.74V163.08H469.17V38.97H426V7.11002H545.91ZM546.5 6.52002H425.42V39.56H468.59V163.67H503.34V39.56H546.51V6.52002H546.5Z"
				fill="black" />
			<path
				d="M625.4 162.96V97.23C625.45 95.58 625.34 93.91 625.07 92.28C624.93 91.42 624.71 90.12 624.18 88.66C623.36 86.41 622.15 84.47 620.57 82.89C617.83 80.15 614.75 79.28 613.44 78.91C612.41 78.62 610.73 78.27 608.61 78.27C606.68 78.27 604.79 78.56 602.98 79.13C600.66 79.86 598.97 80.9 598.17 81.46C593.3 84.83 591.41 90.05 590.72 92.86L590.32 162.95H556.22V3.93009L590.32 3.72009V64.7201C593.69 60.5901 599.23 55.3601 607.26 52.5101C612.64 50.6001 617.13 50.4501 619.81 50.3501C620.38 50.3301 620.94 50.3201 621.51 50.3201C628.42 50.3201 635.73 51.7601 640.6 54.0801C652.75 59.8801 660.36 77.04 659.52 96.8V162.95H625.42L625.4 162.96Z"
				fill="url(#paint2_linear_2129_418)" />
			<path
				d="M590.02 4.02005V65.5701C592.96 61.8201 598.56 55.9201 607.35 52.8001C612.58 50.9401 617.01 50.7601 619.81 50.6601C620.37 50.6401 620.94 50.6301 621.5 50.6301C628.97 50.6301 636.11 52.2901 640.46 54.3601C652.56 60.1301 660.04 77.2401 659.21 96.8001V162.67H625.69V97.2401C625.73 96.0001 625.69 94.2701 625.35 92.2401C625.19 91.3001 624.97 90.0301 624.44 88.5601C624.11 87.6501 623.14 85.0601 620.76 82.6801C618.02 79.9401 614.96 79.0401 613.5 78.6301C612.9 78.4601 611.08 77.9801 608.6 77.9801C606.94 77.9801 604.98 78.1901 602.88 78.8601C600.31 79.6701 598.55 80.8401 597.99 81.2301C592.68 84.9101 590.95 90.6801 590.42 92.8001C590.28 116.09 590.15 139.38 590.01 162.67H556.49V4.23005C567.66 4.16005 578.83 4.09005 590.01 4.03005M590.61 3.43005H590.02L575.66 3.52005L556.51 3.64005H555.93V163.26H590.62V162.68L590.83 127.72L591.03 92.8801C591.73 90.1001 593.59 85.0101 598.34 81.7201C599.13 81.1701 600.79 80.1501 603.07 79.4301C604.85 78.8701 606.72 78.5801 608.61 78.5801C610.7 78.5801 612.34 78.9201 613.36 79.2001C614.65 79.5601 617.68 80.4101 620.36 83.1001C621.91 84.6501 623.1 86.5501 623.9 88.7601C624.42 90.2001 624.64 91.4801 624.78 92.3301C625.05 93.9401 625.16 95.5801 625.11 97.2101V162.66V163.25H659.8V96.8001C660.64 76.9501 652.98 59.6701 640.72 53.8301C635.82 51.4901 628.45 50.0401 621.51 50.0401C620.94 50.0401 620.37 50.0401 619.8 50.0701C617.1 50.1601 612.58 50.3201 607.16 52.2401C599.48 54.9701 594.04 59.8701 590.62 63.9201V3.43005H590.61Z"
				fill="black" />
			<path
				d="M731.24 163.29C728.9 163.29 727.02 163.15 725.44 163.02C712.44 161.95 701.32 157.72 692.37 150.46C673.9 135.46 671.91 112.63 671.91 103.51C671.91 87.7 676.71 73.45 685.42 63.38C694.96 52.35 708.81 46.52 725.46 46.52C738.04 46.52 748.72 49.8 757.21 56.28C773.97 69.07 775.79 90.98 776.66 101.52L776.68 101.78C777.06 106.31 777.06 110.9 776.68 115.44L776.66 115.71L704.87 115.45C705.19 119.17 706.74 127.65 713.99 133.02C719.1 136.8 724.64 137.14 728.3 137.37C729.1 137.42 729.9 137.45 730.7 137.45C742.28 137.45 751.75 132.32 757.65 128.01L757.89 127.83L770.63 146.11L770.47 146.28C765.97 151.05 758.26 157.45 747.11 160.9C742.01 162.48 736.66 163.28 731.22 163.28L731.24 163.29ZM746.8 94.5V93.03C746.8 73.96 732.61 71.9 726.51 71.9H726.41C724.59 71.9 719.04 71.9 713.77 75.31C704.71 81.18 703.9 92.22 703.83 94.5H746.8Z"
				fill="url(#paint3_linear_2129_418)" />
			<path
				d="M725.46 46.81C738.43 46.81 748.97 50.36 757.03 56.51C773.82 69.32 775.49 91.01 776.39 101.8C776.86 107.48 776.66 112.21 776.39 115.41C752.45 115.32 728.5 115.24 704.56 115.15C704.72 117.32 705.69 127.23 713.83 133.25C718.91 137 724.29 137.41 728.3 137.66C729.12 137.71 729.92 137.74 730.72 137.74C743.53 137.74 753.47 131.44 757.85 128.24C761.99 134.19 766.14 140.13 770.28 146.08C766.73 149.83 759.08 156.9 747.05 160.62C740.89 162.53 735.42 162.99 731.25 162.99C728.86 162.99 726.89 162.84 725.47 162.72C720.7 162.33 705.7 160.9 692.56 150.22C673.71 134.91 672.21 111.55 672.21 103.5C672.21 72.59 690.29 46.8 725.47 46.8M703.53 94.79H747.09V93.03C747.09 77.65 737.53 71.6 726.51 71.6H726.41C724.44 71.6 718.91 71.63 713.61 75.06C703.84 81.39 703.54 93.58 703.53 94.79ZM725.46 46.23C708.71 46.23 694.79 52.1 685.19 63.19C676.43 73.32 671.61 87.64 671.61 103.51C671.61 112.67 673.61 135.61 692.18 150.69C701.17 157.99 712.35 162.24 725.41 163.32C727 163.45 728.89 163.59 731.24 163.59C736.71 163.59 742.08 162.78 747.21 161.2C758.42 157.73 766.17 151.29 770.7 146.5L771.03 146.15L770.76 145.76L764.26 136.43L758.33 127.92L757.99 127.43L757.5 127.78C751.63 132.06 742.22 137.16 730.72 137.16C729.93 137.16 729.13 137.14 728.34 137.09C724.71 136.86 719.22 136.52 714.18 132.79C707.22 127.64 705.58 119.58 705.2 115.75L730.22 115.84L776.39 116.01H776.93L776.97 115.47C777.35 110.92 777.35 106.31 776.97 101.76L776.95 101.5C776.07 90.93 774.24 68.92 757.38 56.05C748.84 49.53 738.1 46.23 725.46 46.23ZM704.14 94.2C704.27 91.41 705.34 81.11 713.94 75.55C719.14 72.18 724.62 72.18 726.42 72.18H726.52C732.53 72.18 746.51 74.21 746.51 93.02V94.2H704.14Z"
				fill="black" />
			<path
				d="M927.47 162.73L927.01 95.55C926.98 90.64 924.82 84.04 920.09 80.37C917.79 78.58 915 77.68 914.88 77.64C913.23 77.11 911.5 76.85 909.74 76.85C908.17 76.85 906.88 77.05 905.8 77.24C902.57 77.8 899.88 79.01 898.55 79.88C893.2 83.37 890.21 90.96 890.76 99.69L890.3 162.73H858.07V95.54C858.04 92.63 857.39 87.06 853.4 82.48C851.38 80.16 849.22 78.92 848.39 78.5C846.16 77.37 843.68 76.8 841.03 76.8C839.15 76.8 837.62 77.08 836.79 77.24C835.51 77.48 832.5 78.03 829.49 80.07C823.54 84.1 821.93 90.9 821.51 93.63V162.73H788.13V50.33H820.25L820.58 62.68C825.08 57.17 832.51 50.34 843.03 47.69C847.04 46.68 850.46 46.53 852.15 46.53C865.67 46.53 877.02 52.73 884.16 64.01C895.32 52.25 906.79 46.53 919.23 46.53C926.62 46.53 933.32 48.3 939.14 51.8C959.57 64.08 959.11 92.4 959.08 93.59L958.36 162.73H927.46H927.47Z"
				fill="url(#paint4_linear_2129_418)" />
			<path
				d="M919.23 46.81C921.98 46.81 930.48 46.93 938.99 52.04C959.11 64.13 958.83 91.92 958.79 93.58C958.55 116.53 958.31 139.48 958.08 162.43H927.77C927.62 140.13 927.46 117.84 927.31 95.54C927.28 90.84 925.27 84 920.28 80.13C917.96 78.33 915.2 77.42 914.98 77.36C913.06 76.75 911.28 76.55 909.75 76.55C908.08 76.55 906.71 76.78 905.76 76.95C902.42 77.54 899.71 78.78 898.4 79.63C892.92 83.2 889.93 91.02 890.48 99.71C890.33 120.62 890.17 141.53 890.02 162.44H858.38V95.55C858.36 93.31 857.98 87.28 853.64 82.3C851.42 79.75 849.09 78.53 848.54 78.25C845.86 76.89 843.23 76.51 841.04 76.51C839.21 76.51 837.7 76.77 836.75 76.95C835.31 77.22 832.34 77.8 829.34 79.83C822.86 84.22 821.51 91.81 821.24 93.59V162.44H788.44V50.62H819.98C820.09 54.91 820.21 59.2 820.32 63.49C823.6 59.36 831.24 50.97 843.11 47.98C847.21 46.94 850.69 46.83 852.16 46.83C866.04 46.83 877.19 53.31 884.13 64.5C896.96 50.86 908.74 46.83 919.25 46.83M919.23 46.23C906.8 46.23 895.34 51.89 884.2 63.53C876.99 52.37 865.64 46.23 852.14 46.23C850.44 46.23 846.99 46.38 842.95 47.4C832.74 49.98 825.42 56.46 820.85 61.89L820.72 56.95L820.55 50.6L820.53 50.03H787.83V163.02H821.81V93.62C822.23 90.89 823.83 84.24 829.65 80.3C832.61 78.3 835.57 77.75 836.84 77.51C837.66 77.36 839.17 77.08 841.03 77.08C843.64 77.08 846.07 77.64 848.26 78.75C849.08 79.16 851.2 80.38 853.18 82.66C857.11 87.17 857.74 92.66 857.77 95.54V163.01H890.58V162.43L890.81 131.07L891.04 99.71C890.5 91.05 893.43 83.56 898.7 80.12C900 79.27 902.65 78.08 905.84 77.52C906.91 77.33 908.18 77.13 909.73 77.13C911.46 77.13 913.16 77.39 914.78 77.91C914.9 77.95 917.64 78.84 919.9 80.59C924.55 84.21 926.67 90.71 926.7 95.54L926.79 108.79L927.16 162.43V163.01H958.64V162.43L959.12 116.29L959.36 93.58C959.39 92.38 959.86 63.91 939.28 51.54C933.41 48.01 926.66 46.23 919.22 46.23H919.23Z"
				fill="black" />
			<path
				d="M53.3 163.45C46.31 163.45 41.5 162.56 41.45 162.55C15.34 156.07 0.649996 134.92 0.499996 134.71L0.369995 134.52L19.72 113.92L19.93 114.2C23.8 119.29 30.56 126.16 40.79 130C44.32 131.32 48.03 132.2 51.82 132.61C53.3 132.84 54.78 132.96 56.24 132.96C58.95 132.96 61.61 132.56 64.16 131.78C67.57 130.73 71.81 129.43 74.75 125.24C77.78 120.93 77.63 116.1 77.28 113.61C76.96 110.59 75.88 107.81 74.18 105.57C72.5 103.37 70.66 102.24 68.32 100.8C65.32 98.96 62.03 97.52 58.53 96.53L38.14 89.6C13.6 79.26 9.25 56.99 9.21 56.77C1.51 17.6399 37.97 4.39995 38.34 4.26995C45.85 1.64995 53.35 0.319946 60.63 0.319946C87.34 0.319946 103.31 18.2399 103.47 18.4199L103.62 18.5899L87.6 41.8899L87.35 41.6399C77.56 31.8499 66.44 30.3299 66.33 30.3099C63.28 29.6599 60.45 29.3299 57.9 29.3299C41.74 29.3299 40.81 42.1199 40.78 42.6699C40.94 56.9599 60.3 64.4299 62.38 64.7799C62.38 64.7799 69.59 67.7067 84.01 73.5601C120.32 90.8001 107.95 128.17 107.82 128.55C97.12 158.94 69.08 163.48 53.31 163.48L53.3 163.45Z"
				fill="url(#paint5_linear_2129_418)" />
			<path
				d="M60.63 0.58C87.52 0.58 103.25 18.58 103.25 18.58L87.56 41.41C77.57 31.42 66.37 30 66.37 30C63.17 29.32 60.36 29.02 57.91 29.02C41.27 29.02 40.49 42.63 40.49 42.63C40.65 57.34 60.82 64.79 62.33 65.04C62.35 65.04 83.89 73.81 83.89 73.81C120.37 91.13 107.53 128.43 107.53 128.43C96.92 158.55 69.25 163.16 53.3 163.16C46.26 163.16 41.5 162.26 41.5 162.26C15.21 155.74 0.740002 134.54 0.740002 134.54L19.69 114.36C22.88 118.55 29.61 126.1 40.68 130.26C44.78 131.8 48.59 132.54 51.79 132.89C52.95 133.07 54.47 133.24 56.24 133.24C58.55 133.24 61.29 132.95 64.24 132.05C67.6 131.02 71.98 129.67 74.98 125.39C78.34 120.61 77.8 115.24 77.56 113.55C77.36 111.72 76.74 108.45 74.4 105.37C72.72 103.17 70.89 102.02 68.46 100.53C66.3 99.2 63.01 97.48 58.6 96.22L38.22 89.29C13.56 78.9 9.48 56.68 9.48 56.68C1.74 17.35 38.42 4.51 38.42 4.51C46.47 1.7 53.89 0.57 60.61 0.57M60.63 0C53.32 0 45.78 1.34 38.25 3.97C38.16 4 28.86 7.32 20.66 15.44C13.07 22.96 4.88 36.23 8.93 56.81C8.97 57.03 13.35 79.45 38.01 89.85L58.43 96.79C61.93 97.79 65.2 99.21 68.17 101.04C70.48 102.46 72.3 103.58 73.95 105.74C75.62 107.94 76.68 110.66 76.99 113.62C77.34 116.09 77.48 120.83 74.51 125.06C71.63 129.17 67.44 130.46 64.08 131.49C61.56 132.26 58.93 132.66 56.25 132.66C54.8 132.66 53.33 132.54 51.89 132.31C48.09 131.9 44.4 131.03 40.9 129.72C30.73 125.9 24.02 119.07 20.17 114.02L19.75 113.47L19.27 113.98L0.32 134.16L0 134.5L0.27 134.89C0.42 135.1 15.17 156.35 41.37 162.85C41.45 162.87 46.3 163.77 53.31 163.77C69.15 163.77 97.34 159.21 108.1 128.65C108.13 128.55 111.34 119.06 109.99 107.57C108.74 96.94 103.25 82.37 84.16 73.3C69.747 67.4333 62.513 64.4966 62.46 64.49C60.65 64.19 41.24 56.6 41.09 42.65C41.12 42.16 42.05 29.63 57.92 29.63C60.45 29.63 63.25 29.96 66.26 30.6C66.42 30.62 77.45 32.14 87.16 41.85L87.66 42.35L88.06 41.77L103.75 18.94L104.01 18.56L103.71 18.22C103.55 18.04 87.5 0.0200005 60.65 0.0200005L60.63 0Z"
				fill="black" />
			<path
				d="M418.38 163.28C413.57 163.28 408.66 162.69 403.79 161.53C403.55 161.46 381.55 154.49 379.93 132.73V75.74H367.29V49.07H379.93V24H411.9V49.07H436.15V75.95H411.9L412 125.48C412.55 128.29 413.72 130.57 415.47 132.19C417.68 134.24 420.83 135.32 424.59 135.32C429.52 135.32 434.98 133.44 439.97 130.02L440.44 129.7L439.87 159.11L439.69 159.18C437.19 160.18 434.61 161.02 432 161.65C427.59 162.73 423 163.28 418.38 163.28Z"
				fill="url(#paint6_linear_2129_418)" />
			<path
				d="M411.59 24.2901V49.3601H435.84V75.6501H411.59C411.62 92.2601 411.66 108.87 411.69 125.48C412.45 129.38 414.2 131.43 415.26 132.41C417.54 134.53 420.82 135.62 424.58 135.62C429.33 135.62 434.86 133.88 440.13 130.27C439.94 139.82 439.76 149.37 439.57 158.91C437.27 159.84 434.72 160.69 431.92 161.37C427.12 162.54 422.55 162.99 418.37 162.99C412.68 162.99 407.71 162.17 403.85 161.24C403.85 161.24 381.84 154.51 380.21 132.71V75.4401H367.57V49.3501H380.21V24.2801H411.59M412.18 23.7001H379.62V48.7701H366.98V76.0301H379.62V132.71C381.26 154.71 403.45 161.74 403.68 161.8C408.61 162.98 413.54 163.57 418.38 163.57C423.22 163.57 427.63 163.02 432.07 161.93C434.68 161.29 437.28 160.45 439.8 159.44L440.16 159.29V158.9L440.45 144.58L440.73 130.26L440.75 129.12L439.81 129.77C434.87 133.15 429.47 135.02 424.6 135.02C420.92 135.02 417.83 133.96 415.68 131.97C413.98 130.4 412.85 128.19 412.3 125.41L412.25 100.55L412.2 76.2201H436.45V48.7501H412.2V23.6801L412.18 23.7001Z"
				fill="black" />
			<path
				d="M302.03 45.9299C267.48 45.9299 239.47 73.9899 239.47 108.6C239.47 131.48 251.73 151.48 270.01 162.42C277 146.21 289.67 140.45 289.67 140.45C274.54 130.65 273.77 114.88 273.77 114.88C273.48 112.9 271.94 101.16 280.12 90.9099C286.96 82.3399 296.17 80.3299 298.65 79.8699C300.64 79.6299 313.59 78.2499 323.35 87.5199C334.69 98.2899 331.87 114.11 331.39 116.88C330.79 120.38 328.91 128.24 322.26 134.83C319.55 137.51 316.76 139.29 314.48 140.46C319.69 143.43 327.73 149.16 333.03 159.14C333.57 160.16 334.05 161.17 334.48 162.17C352.53 151.18 364.6 131.31 364.6 108.61C364.6 73.9999 336.59 45.9399 302.04 45.9399L302.03 45.9299Z"
				fill="url(#paint7_radial_2129_418)" />
			<path opacity="0.18"
				d="M302.03 45.9299C267.48 45.9299 239.47 73.9899 239.47 108.6C239.47 131.48 251.73 151.48 270.01 162.42C277 146.21 289.67 140.45 289.67 140.45C274.54 130.65 273.77 114.88 273.77 114.88C273.48 112.9 271.94 101.16 280.12 90.9099C286.96 82.3399 296.17 80.3299 298.65 79.8699C300.64 79.6299 313.59 78.2499 323.35 87.5199C334.69 98.2899 331.87 114.11 331.39 116.88C330.79 120.38 328.91 128.24 322.26 134.83C319.55 137.51 316.76 139.29 314.48 140.46C319.69 143.43 327.73 149.16 333.03 159.14C333.57 160.16 334.05 161.17 334.48 162.17C352.53 151.18 364.6 131.31 364.6 108.61C364.6 73.9999 336.59 45.9399 302.04 45.9399L302.03 45.9299Z"
				fill="url(#paint8_radial_2129_418)" />
			<path
				d="M302.68 147.4C323.501 147.4 340.38 129.782 340.38 108.05C340.38 86.3178 323.501 68.6998 302.68 68.6998C281.859 68.6998 264.98 86.3178 264.98 108.05C264.98 129.782 281.859 147.4 302.68 147.4Z"
				fill="url(#paint9_radial_2129_418)" />
			<path
				d="M298.547 79.4742C300.526 79.2256 313.309 77.8628 323.186 86.8033L323.654 87.2369C335.205 98.1976 332.32 114.251 331.842 116.996C331.254 120.43 329.446 128.007 323.191 134.555L322.572 135.185C320.136 137.603 317.619 139.291 315.466 140.47C320.718 143.58 328.328 149.276 333.431 158.865C337.281 166.108 338.028 172.507 338.987 180.541L339.126 181.791C340.463 194.602 338.585 204.03 337.959 206.897C337.306 209.887 336.297 214.37 333.743 219.841C330.967 225.791 327.612 230.2 325.034 233.135C323.929 245.362 322.834 257.588 321.758 269.814C320.928 279.183 320.118 288.563 319.308 297.933C319.286 298.191 319.069 298.39 318.81 298.39H283.66C283.457 298.39 283.275 298.268 283.198 298.081C283.166 298.002 283.155 297.919 283.164 297.838L277.375 232.964C269.036 222.649 265.94 210.564 264.925 201.068C264.416 196.299 264.43 192.173 264.572 189.239C264.643 187.772 264.746 186.602 264.832 185.796C264.874 185.394 264.912 185.082 264.94 184.871C264.954 184.765 264.965 184.683 264.973 184.628C264.976 184.606 264.979 184.588 264.981 184.575C265.222 167.732 271.304 156.589 277.35 149.655C280.373 146.188 283.382 143.778 285.638 142.232C286.767 141.459 287.708 140.903 288.37 140.538C288.465 140.485 288.555 140.437 288.638 140.392C281.429 135.497 277.584 129.266 275.539 124.201C274.483 121.586 273.907 119.279 273.594 117.625C273.438 116.797 273.347 116.131 273.296 115.67C273.27 115.44 273.253 115.261 273.244 115.138C273.239 115.077 273.236 115.029 273.234 114.997L273.231 114.96C272.914 112.847 271.42 101.029 279.689 90.6773C286.643 81.9853 296.001 79.9452 298.519 79.4781L298.547 79.4742Z"
				fill="url(#paint10_linear_2129_418)" />
		</g>
		<defs>
			<linearGradient id="paint0_linear_2129_418" x1="177.91" y1="254.65" x2="174.83" y2="-8.34988"
				gradientUnits="userSpaceOnUse">
				<stop offset="0.28" stop-color="#482BAF" />
				<stop offset="0.64" stop-color="#7E45F4" />
				<stop offset="0.99" stop-color="#923DFD" />
			</linearGradient>
			<linearGradient id="paint1_linear_2129_418" x1="485.96" y1="214.64" x2="485.96" y2="-74.26"
				gradientUnits="userSpaceOnUse">
				<stop offset="0.28" stop-color="#482BAF" />
				<stop offset="0.64" stop-color="#7E45F4" />
				<stop offset="0.99" stop-color="#923DFD" />
			</linearGradient>
			<linearGradient id="paint2_linear_2129_418" x1="607.89" y1="215.55" x2="607.89" y2="-59.1899"
				gradientUnits="userSpaceOnUse">
				<stop offset="0.28" stop-color="#482BAF" />
				<stop offset="0.64" stop-color="#7E45F4" />
				<stop offset="0.99" stop-color="#923DFD" />
			</linearGradient>
			<linearGradient id="paint3_linear_2129_418" x1="724.44" y1="201.28" x2="724.44" y2="-15.82"
				gradientUnits="userSpaceOnUse">
				<stop offset="0.28" stop-color="#482BAF" />
				<stop offset="0.64" stop-color="#7E45F4" />
				<stop offset="0.99" stop-color="#923DFD" />
			</linearGradient>
			<linearGradient id="paint4_linear_2129_418" x1="873.61" y1="201.82" x2="873.61" y2="-20.34"
				gradientUnits="userSpaceOnUse">
				<stop offset="0.28" stop-color="#482BAF" />
				<stop offset="0.64" stop-color="#7E45F4" />
				<stop offset="0.99" stop-color="#923DFD" />
			</linearGradient>
			<linearGradient id="paint5_linear_2129_418" x1="56.24" y1="216.34" x2="52.82" y2="-75.94"
				gradientUnits="userSpaceOnUse">
				<stop offset="0.28" stop-color="#482BAF" />
				<stop offset="0.64" stop-color="#7E45F4" />
				<stop offset="0.99" stop-color="#923DFD" />
			</linearGradient>
			<linearGradient id="paint6_linear_2129_418" x1="405.1" y1="208.78" x2="402.35" y2="-26.28"
				gradientUnits="userSpaceOnUse">
				<stop offset="0.28" stop-color="#482BAF" />
				<stop offset="0.64" stop-color="#7E45F4" />
				<stop offset="0.99" stop-color="#923DFD" />
			</linearGradient>
			<radialGradient id="paint7_radial_2129_418" cx="0" cy="0" r="1" gradientUnits="userSpaceOnUse"
				gradientTransform="translate(302.03 104.18) scale(67.29 67.29)">
				<stop offset="0.03" stop-color="#FBEFF5" />
				<stop offset="0.16" stop-color="#F7E7F1" />
				<stop offset="0.35" stop-color="#EED2E6" />
				<stop offset="0.58" stop-color="#E0B0D5" />
				<stop offset="0.59" stop-color="#E0B0D5" />
				<stop offset="0.69" stop-color="#D39DEE" />
				<stop offset="0.75" stop-color="#CC91FF" />
				<stop offset="0.87" stop-color="#B87FFF" />
				<stop offset="0.99" stop-color="#A97FFF" />
			</radialGradient>
			<radialGradient id="paint8_radial_2129_418" cx="0" cy="0" r="1" gradientUnits="userSpaceOnUse"
				gradientTransform="translate(302.41 113.92) scale(77.78 77.78)">
				<stop offset="0.19" stop-color="#FBEFF5" />
				<stop offset="0.22" stop-color="#F9ECF4" stop-opacity="0.98" />
				<stop offset="0.26" stop-color="#F5E5F4" stop-opacity="0.93" />
				<stop offset="0.3" stop-color="#EED8F4" stop-opacity="0.84" />
				<stop offset="0.34" stop-color="#E4C7F3" stop-opacity="0.72" />
				<stop offset="0.38" stop-color="#D8B1F2" stop-opacity="0.56" />
				<stop offset="0.42" stop-color="#C997F1" stop-opacity="0.36" />
				<stop offset="0.46" stop-color="#B777EF" stop-opacity="0.14" />
				<stop offset="0.48" stop-color="#AD65EF" stop-opacity="0" />
				<stop offset="0.71" stop-color="#7D00BF" stop-opacity="0" />
				<stop offset="0.77" stop-color="#9025C8" stop-opacity="0.19" />
				<stop offset="0.91" stop-color="#BF81E1" stop-opacity="0.67" />
				<stop offset="1" stop-color="#E1C2F3" />
			</radialGradient>
			<radialGradient id="paint9_radial_2129_418" cx="0" cy="0" r="1" gradientUnits="userSpaceOnUse"
				gradientTransform="translate(302.68 107.648) scale(37.7 39.208)">
				<stop offset="0.73" stop-color="#F7ECF4" />
				<stop offset="1" stop-color="#F7ECF4" stop-opacity="0" />
			</radialGradient>
			<linearGradient id="paint10_linear_2129_418" x1="302.03" y1="264.8" x2="302.03" y2="28.7601"
				gradientUnits="userSpaceOnUse">
				<stop offset="0.1" stop-color="#0E112C" />
				<stop offset="0.54" stop-color="#482BAF" />
				<stop offset="0.61" stop-color="#5F30C8" />
				<stop offset="0.76" stop-color="#923DFD" />
			</linearGradient>
			<clipPath id="clip0_2129_418">
				<rect width="959.37" height="298.64" fill="white" />
			</clipPath>
		</defs>

	</symbol>




</svg>