<svg width="375" height="957" viewBox="0 0 375 957" fill="none" xmlns="http://www.w3.org/2000/svg">
<path d="M166.851 534.431C163.752 531.425 160.841 528.338 158.132 525.181C150.417 516.194 144.272 506.564 139.864 496.558C136.523 488.976 134.128 481.244 132.54 472.924C131.124 465.508 130.388 457.789 130.289 449.326C130.104 433.602 132.212 417.597 134.252 402.119C136.091 388.161 137.992 373.727 138.229 359.453C139.333 292.972 100 218.514 40.3535 174.176C-19.2909 129.84 -98.2652 116.353 -156.162 140.615L-156.221 140.472C-141.884 134.464 -126.114 130.655 -109.351 129.148C-92.9471 127.675 -75.8525 128.428 -58.5393 131.383C-41.2272 134.34 -24.0223 139.445 -7.40029 146.557C9.5836 153.825 25.6812 163.075 40.4473 174.051C55.2134 185.027 68.931 197.94 81.2169 212.43C93.241 226.61 103.709 242.075 112.331 258.396C120.953 274.717 127.565 291.588 131.987 308.541C136.506 325.865 138.658 342.995 138.384 359.455C138.147 373.739 136.245 388.176 134.405 402.14C130.334 433.04 126.125 464.988 140.006 496.496C156.008 532.822 195.584 563.715 245.869 579.136C276.865 588.642 308.56 592.35 339.212 595.934C363.361 598.759 388.333 601.681 412.872 607.417C427.216 610.77 441.399 615.434 455.027 621.278C469.482 627.478 482.906 634.844 494.928 643.172C507.87 652.137 519.043 662.13 528.136 672.874C537.978 684.502 545.404 697.048 550.209 710.161C555.294 724.043 557.326 738.386 559.292 752.256C560.147 758.288 561.031 764.525 562.154 770.645C575.679 844.327 629.283 917.04 698.716 955.893L698.641 956.028C678.213 944.597 658.924 930.108 641.503 913.212C629.891 901.95 619.112 889.62 609.371 876.405C585.014 843.366 568.633 806.803 562.002 770.674C560.879 764.552 559.994 758.313 559.139 752.279C557.175 738.417 555.143 724.083 550.064 710.217C529.218 653.312 465.509 619.881 412.838 607.568C388.306 601.833 363.339 598.913 339.194 596.088C308.536 592.503 276.834 588.794 245.823 579.284C222.956 572.27 201.463 561.657 183.671 548.593C177.59 544.127 171.965 539.39 166.852 534.43L166.851 534.431Z" fill="url(#paint0_linear_345_1873)" fill-opacity="0.05"/>
<path d="M160.44 527.721C157.907 525.263 155.502 522.756 153.233 520.202C145.482 511.478 139.238 502.135 134.672 492.432C131.09 484.881 128.447 477.165 126.594 468.847C124.942 461.429 123.958 453.692 123.587 445.193C122.897 429.397 124.496 413.221 126.041 397.579C127.333 384.493 128.669 370.96 128.702 357.526C128.713 351.924 128.469 346.148 127.979 340.357C123.081 282.699 95.8846 226.349 54.1232 185.842C49.0489 180.921 43.7676 176.24 38.2767 171.811C11.571 150.335 -19.9031 135.104 -52.7449 127.766C-88.9094 119.775 -125.186 121.98 -154.89 133.976L-154.962 133.798C-139.886 127.71 -123.299 124.112 -105.666 123.102C-88.4301 122.117 -70.611 123.622 -52.7039 127.578C-36.5082 131.198 -20.5163 136.782 -5.17142 144.178C10.3814 151.672 25.0394 160.921 38.398 171.663C51.151 181.949 63.002 193.826 73.6187 206.965C83.9315 219.726 93.0775 233.668 100.802 248.403C116.072 277.53 125.535 309.322 128.17 340.342C128.662 346.139 128.905 351.921 128.895 357.528C128.862 370.972 127.526 384.509 126.233 397.598C123.013 430.199 119.971 460.992 134.848 492.351C151.307 527.336 190.736 557.481 240.323 572.988C256.075 577.91 273.369 581.852 294.748 585.395C306.401 587.324 318.235 588.973 329.678 590.569C354.082 593.969 379.319 597.486 404.005 603.909C417.998 607.576 431.796 612.496 445.016 618.533C459.059 624.947 472.095 632.47 483.759 640.89C496.319 649.959 507.175 659.999 516.026 670.732C525.602 682.345 532.863 694.82 537.61 707.814C542.617 721.516 544.717 735.669 546.747 749.356C547.632 755.315 548.547 761.478 549.689 767.526C563.48 840.392 616.022 912.612 683.547 951.513L683.451 951.68C664.231 940.608 646.043 926.769 629.522 910.746C617.425 899.013 606.224 886.111 596.158 872.253C572.409 839.562 556.275 803.361 549.5 767.561C548.356 761.51 547.442 755.345 546.557 749.383C544.527 735.705 542.427 721.563 537.428 707.879C516.933 651.772 455.043 617.478 403.955 604.093C379.281 597.672 354.05 594.156 329.65 590.755C318.206 589.16 306.371 587.511 294.714 585.58C273.327 582.036 256.024 578.093 240.263 573.168C217.628 566.09 196.352 555.645 178.735 542.965C172.079 538.175 165.955 533.069 160.44 527.719L160.44 527.721Z" fill="url(#paint1_linear_345_1873)" fill-opacity="0.05"/>
<path d="M153.937 520.905C143.555 510.837 135.369 499.93 129.483 488.304C125.654 480.74 122.759 473 120.632 464.641C118.735 457.182 117.497 449.387 116.847 440.813C115.636 424.868 116.702 408.436 117.733 392.545C118.515 380.487 119.323 368.02 119.176 355.595C119.103 350.036 118.811 344.276 118.307 338.478C112.477 271.715 82.5493 210.102 36.1979 169.439C10.6024 147.115 -19.8982 131.077 -52.0082 123.056C-87.5807 114.172 -123.668 115.688 -153.621 127.329L-153.705 127.115C-138.563 121.231 -121.98 117.903 -104.415 117.219C-87.1965 116.551 -69.5449 118.44 -51.9524 122.834C-36.0448 126.808 -20.3815 132.815 -5.39871 140.692C9.60447 148.578 23.6498 158.193 36.3488 169.267C48.3436 179.789 59.3763 191.848 69.145 205.109C78.5428 217.867 86.8437 231.836 93.8171 246.628C100.586 260.985 106.132 276.172 110.303 291.764C114.397 307.076 117.167 322.785 118.536 338.457C119.039 344.26 119.333 350.025 119.405 355.59C119.552 368.023 118.744 380.495 117.962 392.557C115.82 425.598 113.796 456.806 129.688 488.197C136.044 500.752 144.579 511.579 154.137 520.851C181.551 547.441 217.419 561.296 234.775 566.83C250.288 571.77 266.814 575.737 288.357 579.694C298.875 581.624 309.526 583.353 319.828 585.026C344.598 589.048 370.213 593.207 395.139 600.39C408.777 604.368 422.191 609.546 435.007 615.776C448.638 622.403 461.282 630.081 472.59 638.596C484.768 647.767 495.307 657.854 503.917 668.579C513.226 680.174 520.323 692.581 525.012 705.454C529.939 718.977 532.108 732.938 534.205 746.442C535.12 752.33 536.065 758.42 537.227 764.395C551.286 836.466 602.767 908.19 668.378 947.123L668.261 947.321C650.257 936.637 633.179 923.475 617.576 908.341C604.978 896.123 593.343 882.619 582.945 868.09C559.808 835.756 543.921 799.915 537 764.44C535.838 758.461 534.89 752.369 533.975 746.478C531.88 732.986 529.713 719.036 524.794 705.534C504.639 650.198 444.57 615.051 395.074 600.611C370.16 593.432 344.554 589.274 319.789 585.253C309.487 583.58 298.833 581.85 288.315 579.92C266.761 575.96 250.227 571.992 234.704 567.048C212.345 559.916 191.301 549.634 173.848 537.311C166.509 532.129 159.865 526.651 153.936 520.9L153.937 520.905Z" fill="url(#paint2_linear_345_1873)" fill-opacity="0.05"/>
<path d="M147.342 514.074C137.754 504.775 130.042 494.778 124.295 484.178C120.172 476.576 116.991 468.78 114.566 460.341C112.4 452.805 110.89 444.913 109.948 436.215C108.196 420.032 108.706 403.984 109.246 386.992C109.591 376.128 109.948 364.893 109.651 353.669C109.496 348.155 109.156 342.413 108.638 336.605C102.404 267.123 75.9417 206.911 34.1201 167.073C10.2501 144.333 -20.0745 127.03 -51.2682 118.355C-86.3188 108.607 -122.216 109.435 -152.349 120.69L-152.442 120.441C-122.257 109.168 -86.3009 108.334 -51.1965 118.098C-35.5135 122.461 -20.1745 128.892 -5.60525 137.211C8.91749 145.505 22.3459 155.488 34.3053 166.882C56.3483 187.882 74.0332 214.107 86.8726 244.83C98.5321 272.729 105.945 303.599 108.903 336.582C109.422 342.397 109.763 348.144 109.917 353.664C110.215 364.897 109.856 376.135 109.511 387.003C108.441 420.695 107.43 452.519 124.529 484.053C142.342 516.903 180.503 544.834 229.229 560.685C248.461 566.926 267.517 571.083 281.969 574.007C291.293 575.891 300.72 577.637 309.838 579.325C335.037 583.991 361.096 588.817 386.276 596.885C399.55 601.139 412.585 606.555 425.016 612.981C438.223 619.81 450.477 627.645 461.438 636.271C473.222 645.546 483.443 655.691 491.814 666.423C500.851 678.008 507.782 690.351 512.415 703.108C517.262 716.45 519.499 730.221 521.662 743.539C522.607 749.358 523.583 755.373 524.766 761.277C535.471 814.529 564.939 866.242 605.515 905.6C620.1 919.746 636.112 932.291 653.214 942.747L653.076 942.975C636.295 932.716 620.339 920.252 605.672 906.026C592.557 893.305 580.471 879.174 569.739 863.94C547.215 831.968 531.574 796.486 524.506 761.33C523.324 755.422 522.347 749.403 521.401 743.583C519.24 730.277 517.006 716.518 512.167 703.199C492.263 648.385 434.044 612.473 386.197 597.14C361.034 589.077 334.984 584.253 309.793 579.588C300.675 577.901 291.247 576.153 281.921 574.27C267.462 571.345 248.398 567.185 229.151 560.939C207.035 553.744 186.214 543.627 168.941 531.679C160.932 526.14 153.724 520.261 147.347 514.076L147.342 514.074Z" fill="url(#paint3_linear_345_1873)" fill-opacity="0.05"/>
<path d="M140.601 507.163C131.842 498.668 124.654 489.606 119.106 480.054C100.568 448.123 100.552 415.383 100.534 380.721C100.53 371.278 100.524 361.513 100.123 351.742C99.8885 346.29 99.4989 340.567 98.9657 334.729C92.0886 260.043 70.1964 204.427 32.0389 164.702C9.47128 141.208 -19.8535 123.077 -50.5338 113.648C-85.0592 103.038 -120.769 103.18 -151.082 114.046L-151.184 113.76C-120.809 102.871 -85.0322 102.727 -50.4431 113.356C-34.9982 118.102 -19.9864 124.961 -5.82664 133.739C8.19995 142.436 21.0133 152.781 32.2593 164.49C42.755 175.415 52.1743 187.82 60.2591 201.362C67.8285 214.039 74.4372 228.067 79.9028 243.052C84.9718 256.954 89.2036 272.082 92.4773 288.012C95.4756 302.605 97.7611 318.312 99.2705 334.697C99.804 340.54 100.194 346.268 100.429 351.725C100.831 361.503 100.836 371.271 100.84 380.716C100.857 415.338 100.873 448.038 119.37 479.895C137.659 511.395 175.68 538.597 223.684 554.526C242.067 560.609 260.234 564.906 275.582 568.306C283.551 570.07 291.596 571.751 299.375 573.378C326.353 579.019 351.833 584.345 377.412 593.366C404.34 602.863 429.537 616.901 450.278 633.964C461.675 643.339 471.577 653.533 479.708 664.264C488.475 675.832 495.242 688.106 499.817 700.746C504.585 713.906 506.888 727.487 509.118 740.62C510.093 746.368 511.102 752.312 512.303 758.144C523.421 811.826 553.277 864.072 593.942 903.516C607.536 916.702 622.331 928.451 638.046 938.356L637.884 938.612C622.337 928.814 607.51 917.075 593.797 903.775C580.147 890.536 567.599 875.749 556.524 859.773C534.615 828.169 519.22 793.049 512.004 758.206C510.801 752.368 509.793 746.422 508.816 740.671C506.59 727.552 504.288 713.985 499.53 700.851C482.874 654.844 437.186 614.771 377.31 593.653C351.751 584.639 326.28 579.314 299.313 573.676C291.531 572.049 283.486 570.368 275.515 568.602C260.159 565.198 241.983 560.9 223.587 554.813C201.707 547.552 181.11 537.599 164.02 526.03C155.275 520.111 147.457 513.807 140.601 507.157L140.601 507.163Z" fill="url(#paint4_linear_345_1873)" fill-opacity="0.05"/>
<path d="M133.695 500.164C125.804 492.511 119.193 484.414 113.919 475.928C93.7199 443.43 92.6593 409.456 91.5354 373.487C91.2942 365.772 91.045 357.796 90.5983 349.813C90.2859 344.453 89.8477 338.746 89.2961 332.852C83.9174 275.895 72.6619 211.096 29.9577 162.328C8.73388 138.091 -19.59 119.13 -49.7971 108.941C-83.7958 97.4723 -119.314 96.927 -149.811 107.403L-149.922 107.082C-134.629 101.828 -118.055 99.3253 -100.659 99.6452C-83.5582 99.9586 -66.4093 102.978 -49.687 108.619C-19.4238 118.827 8.95362 137.821 30.2161 162.104C49.0797 183.647 63.0532 209.547 72.9337 241.283C80.8253 266.633 86.1336 295.72 89.6373 332.819C90.1891 338.718 90.6276 344.429 90.9401 349.794C91.386 357.78 91.6364 365.759 91.8765 373.476C92.9981 409.398 94.0596 443.328 114.21 475.747C139.858 517.013 190.334 538.965 218.139 548.378C235.597 554.266 252.995 558.701 269.195 562.618C275.644 564.174 282.152 565.693 288.445 567.161C316.216 573.641 342.446 579.762 368.551 589.861C394.68 599.97 419.082 614.427 439.119 631.673C450.128 641.148 459.711 651.392 467.604 662.12C476.102 673.672 482.702 685.877 487.221 698.399C491.909 711.378 494.281 724.767 496.574 737.713C497.579 743.392 498.619 749.263 499.841 755.024C514.964 825.915 562.11 894.485 622.881 933.978L622.695 934.264C607.39 924.318 592.774 912.447 579.256 898.985C566.077 885.861 553.984 871.271 543.314 855.622C522.024 824.394 506.876 789.634 499.509 755.096C498.286 749.328 497.245 743.454 496.239 737.773C493.948 724.84 491.58 711.467 486.9 698.515C470.485 653.027 426.195 612.528 368.429 590.179C342.348 580.089 316.128 573.971 288.37 567.493C282.076 566.025 275.569 564.506 269.118 562.95C252.91 559.033 235.504 554.595 218.032 548.703C196.378 541.372 176.001 531.584 159.106 520.398C149.554 514.074 141.067 507.313 133.699 500.166L133.695 500.164Z" fill="url(#paint5_linear_345_1873)" fill-opacity="0.05"/>
<path d="M126.601 493.07C119.622 486.302 113.653 479.201 108.733 471.805C86.5238 438.426 84.3997 402.726 82.1518 364.93C81.8215 359.371 81.4792 353.623 81.0726 347.888C80.6848 342.626 80.2114 337.093 79.6264 330.977C73.2415 265.004 64.9408 206.598 27.8774 159.955C8.03774 134.988 -19.2862 115.199 -49.0605 104.236C-82.5292 91.912 -117.859 90.6788 -148.542 100.764L-148.66 100.404C-133.316 95.3613 -116.745 93.1355 -99.4062 93.7913C-82.3447 94.4364 -65.3616 97.8302 -48.9311 103.881C-19.0928 114.868 8.28955 134.7 28.1716 159.719C37.2904 171.195 44.8715 183.606 51.346 197.662C57.1898 210.346 61.9701 224.037 65.9624 239.519C73.6325 269.264 77.1034 300.993 80.0015 330.94C80.5878 337.059 81.0601 342.592 81.4481 347.86C81.8548 353.597 82.1972 359.347 82.5275 364.906C84.7727 402.649 86.8932 438.302 109.046 471.595C135.253 510.985 185.169 532.756 212.592 542.227C229.774 548.137 246.82 552.728 262.807 556.924C267.532 558.162 272.302 559.392 276.917 560.581C305.708 568.004 332.902 575.014 359.688 586.349C385.009 597.065 408.616 611.942 427.958 629.378C438.578 638.951 447.841 649.243 455.496 659.97C463.724 671.5 470.158 683.637 474.621 696.044C479.23 708.841 481.668 722.035 484.027 734.797C485.064 740.405 486.136 746.206 487.379 751.898C499.4 806.614 530.083 860.066 570.889 899.647C582.421 910.834 594.756 920.908 607.714 929.595L607.504 929.91C592.559 919.89 578.299 908.001 565.122 894.574C552.297 881.506 540.514 867.001 530.102 851.464C509.433 820.622 494.531 786.222 487.01 751.98C485.766 746.282 484.693 740.478 483.656 734.867C481.3 722.121 478.865 708.941 474.266 696.173C458.077 651.172 415.19 610.247 359.541 586.699C332.781 575.374 305.6 568.368 276.822 560.949C272.208 559.759 267.436 558.529 262.711 557.291C246.718 553.093 229.664 548.499 212.468 542.585C190.718 535.073 171.107 525.711 154.181 514.759C143.734 508 134.518 500.749 126.601 493.07Z" fill="url(#paint6_linear_345_1873)" fill-opacity="0.05"/>
<path d="M119.296 485.869C113.279 480.034 108.021 473.965 103.548 467.684C92.2669 451.848 84.7585 434.595 79.9192 413.387C75.6172 394.534 73.9897 375.074 72.2656 354.471C72.0337 351.69 71.7925 348.815 71.547 345.963C71.0032 339.857 70.4107 333.746 69.9557 329.102C69.453 324.024 68.9631 318.896 68.4896 313.938C63.0065 256.497 57.8291 202.242 25.7938 157.577C7.37429 131.896 -18.9497 111.28 -48.3272 99.5281C-80.7874 86.5423 -116.851 84.5707 -147.274 94.1204L-147.398 93.7235C-132.003 88.891 -115.436 86.9443 -98.1535 87.937C-81.1311 88.9138 -64.3158 92.6846 -48.1741 99.142C-33.3852 105.058 -19.3582 113.207 -6.48191 123.362C6.11171 133.293 17.0832 144.723 26.1296 157.337C58.2303 202.092 63.4138 256.401 68.901 313.899C69.3744 318.858 69.8642 323.984 70.367 329.061C70.8219 333.705 71.4146 339.819 71.9585 345.927C72.2051 348.78 72.4452 351.656 72.6772 354.437C76.0498 394.758 79.2363 432.845 103.884 467.443C129.256 503.06 173.988 524.425 207.045 536.077C223.982 542.021 241.216 546.915 256.419 551.233C259.163 552.011 261.898 552.783 264.623 553.552C294.726 562.046 323.16 570.068 350.826 582.843C375.329 594.158 398.142 609.458 416.797 627.091C427.026 636.757 435.971 647.098 443.388 657.827C451.345 669.335 457.613 681.402 462.02 693.694C466.548 706.307 469.053 719.308 471.477 731.88C472.545 737.422 473.649 743.152 474.911 748.775C487.551 804.65 517.77 857.654 558.457 897.12C569.143 907.486 580.543 916.91 592.544 925.216L592.307 925.558C577.722 915.464 563.819 903.556 550.982 890.163C538.51 877.151 527.04 862.732 516.884 847.307C496.841 816.861 482.186 782.822 474.504 748.867C473.24 743.236 472.134 737.503 471.066 731.959C468.647 719.401 466.144 706.416 461.626 693.834C445.651 649.284 404.165 607.933 350.648 583.22C323.013 570.459 294.594 562.441 264.507 553.951C261.782 553.182 259.047 552.41 256.302 551.633C241.092 547.313 223.852 542.417 206.903 536.469C185.349 528.872 165.953 519.672 149.252 509.122C137.813 501.897 127.795 494.118 119.29 485.868L119.296 485.869Z" fill="url(#paint7_linear_345_1873)" fill-opacity="0.05"/>
<path d="M111.752 478.552C106.753 473.703 102.284 468.701 98.3636 463.561C91.7604 454.907 86.3333 445.87 81.7736 435.935C77.6635 426.98 74.3375 417.456 71.6086 406.819C66.6876 387.635 64.4439 367.876 62.0236 344.038L61.9486 343.312C61.4003 338.076 60.8337 332.661 60.2883 327.227C59.0919 315.423 58.1724 303.669 57.2841 292.304C53.3988 242.596 49.7275 195.644 23.7124 155.201C6.74497 128.824 -18.5769 107.381 -47.5915 94.8223C-79.5252 80.9986 -115.395 78.3235 -146.002 87.4806L-146.131 87.0476C-130.686 82.4263 -114.12 80.7573 -96.895 82.0882C-79.9126 83.3999 -63.2643 87.5445 -47.4102 94.4072C-32.8245 100.721 -19.1257 109.302 -6.69435 119.911C5.43606 130.263 15.7947 142.055 24.0943 154.956C30.377 164.724 35.5161 175.034 39.8043 186.475C43.6462 196.725 46.7289 207.702 49.2267 220.033C53.886 243.024 55.7551 266.944 57.7354 292.271C58.6236 303.633 59.5429 315.385 60.7392 327.184C61.2834 332.617 61.851 338.032 62.3993 343.267L62.4755 343.994C66.6088 384.703 70.8831 426.796 98.7266 463.291C124.509 497.084 168.85 518.181 201.506 529.928C216.277 535.216 231.101 539.751 245.437 544.135C246.974 544.605 248.509 545.074 250.04 545.544L251.326 545.937C283.133 555.665 313.176 564.853 341.974 579.336C365.647 591.243 387.67 606.968 405.647 624.802C415.483 634.561 424.111 644.95 431.292 655.682C438.976 667.168 445.079 679.165 449.43 691.342C453.877 703.77 456.448 716.576 458.936 728.96C460.035 734.434 461.172 740.095 462.456 745.651C478.733 815.546 521.699 881.036 577.388 920.836L577.125 921.205C562.902 911.041 549.354 899.112 536.858 885.751C524.742 872.797 513.58 858.465 503.681 843.15C484.267 813.113 469.859 779.434 462.015 745.755C460.729 740.192 459.592 734.527 458.492 729.05C456.007 716.682 453.438 703.893 449.003 691.496C432.994 646.697 393.909 605.964 341.769 579.741C313.006 565.275 282.981 556.092 251.192 546.369L249.906 545.976C248.374 545.506 246.84 545.038 245.303 544.568C230.961 540.18 216.13 535.646 201.351 530.354C179.97 522.664 160.787 513.625 144.334 503.489C131.785 495.759 120.886 487.412 111.753 478.555L111.752 478.552Z" fill="url(#paint8_linear_345_1873)" fill-opacity="0.05"/>
<path d="M534.802 893.798C530.675 889.794 526.643 885.637 522.718 881.334C510.958 868.441 500.108 854.194 490.464 838.988C481.034 824.119 472.75 808.316 465.838 792.02C458.99 775.871 453.497 759.256 449.512 742.636C448.205 737.139 447.033 731.542 445.902 726.13C443.355 713.952 440.72 701.36 436.366 689.151C420.543 644.719 382.823 603.571 332.875 576.255C305.167 561.102 276.006 551.012 243.499 540.314C240.06 539.18 236.544 538.032 233.145 536.921C220.955 532.94 208.349 528.822 195.788 524.234C174.548 516.436 155.579 507.56 139.402 497.851C120.088 486.259 104.537 473.337 93.1764 459.442C80.1654 443.525 70.6689 425.446 64.1429 404.169C57.9123 383.849 54.8603 362.335 52.4935 342.113C51.7576 336 51.1425 330.517 50.6131 325.351C48.8673 308.527 48.0512 292.014 47.2622 276.045C45.0807 231.898 43.0202 190.199 21.623 152.82C6.36149 126.16 -18.6002 103.304 -46.8639 90.1136C-78.2708 75.4563 -113.945 72.0753 -144.739 80.8389L-144.873 80.3686C-113.966 71.5738 -78.1684 74.9637 -46.6553 89.6705C-32.2648 96.3866 -18.8953 105.401 -6.91662 116.463C4.75649 127.245 14.5032 139.395 22.0491 152.577C31.839 169.68 38.218 188.454 42.1233 211.659C45.591 232.261 46.6412 253.517 47.7526 276.021C48.5413 291.983 49.357 308.49 51.1011 325.303C51.6304 330.466 52.2454 335.946 52.9822 342.056C57.8412 383.54 64.5985 423.709 93.5583 459.132C114.521 484.773 148.973 506.522 195.958 523.773C208.511 528.359 221.112 532.475 233.298 536.456C236.699 537.567 240.216 538.715 243.654 539.85C276.184 550.557 305.367 560.653 333.112 575.827C355.948 588.316 377.169 604.459 394.485 622.517C403.929 632.365 412.238 642.801 419.183 653.537C426.595 664.995 432.532 676.923 436.829 688.988C441.194 701.229 443.833 713.838 446.383 726.031C447.515 731.44 448.686 737.033 449.991 742.523C466.597 811.8 508.553 876.82 562.221 916.453L561.93 916.846C552.543 909.915 543.463 902.197 534.802 893.798Z" fill="url(#paint9_linear_345_1873)" fill-opacity="0.05"/>
<path d="M523.093 892.081C518.111 887.25 513.268 882.189 508.584 876.918C497.182 864.088 486.64 849.927 477.253 834.827C468.111 820.123 460.029 804.477 453.233 788.325C446.534 772.407 441.078 755.986 437.016 739.52C435.687 734.086 434.481 728.556 433.317 723.208C430.707 711.223 428.007 698.828 423.735 686.808C413.946 659.223 396.062 632.632 372.369 609.651C358.164 595.873 341.878 583.397 323.987 572.77C298.323 557.528 271.712 546.885 237.095 534.652C231.735 532.754 226.23 530.85 220.906 529.007C210.892 525.542 200.537 521.958 190.229 518.114C169.09 510.191 150.332 501.477 134.475 492.216C115.254 480.99 99.617 468.577 87.9978 455.32C74.309 439.703 64.0658 422.103 56.684 401.521C50.5719 384.475 46.3426 365.56 42.971 340.186C42.1717 334.318 41.5089 328.852 40.9444 323.474C38.7481 302.755 38.4908 282.7 38.241 263.303C37.7275 223.3 37.2416 185.516 19.5398 150.432C5.76146 123.125 -18.1737 99.4226 -46.131 85.3992C-77.0089 69.9104 -112.489 65.8259 -143.472 74.1915L-143.608 73.6829C-135.85 71.5886 -127.691 70.2492 -119.358 69.7064C-111.171 69.1724 -102.77 69.4009 -94.3905 70.3856C-77.7263 72.3435 -60.9574 77.3723 -45.8953 84.9282C-17.8396 99.0004 6.18167 122.789 20.0092 150.195C37.7661 185.385 38.2518 223.229 38.7675 263.295C39.0165 282.679 39.2732 302.721 41.4672 323.416C42.0303 328.789 42.6918 334.25 43.4909 340.114C48.6666 379.068 57.689 419.942 88.3909 454.97C109.531 479.09 143.856 500.167 190.412 517.616C200.714 521.457 211.066 525.041 221.076 528.505C226.401 530.348 231.907 532.253 237.268 534.15C250.766 538.919 266.651 544.682 282.146 551.268C297.947 557.984 311.722 564.868 324.255 572.312C346.239 585.369 366.665 601.937 383.326 620.225C402.173 640.912 415.935 663.253 424.229 686.626C428.512 698.679 431.215 711.089 433.829 723.091C434.993 728.436 436.198 733.963 437.525 739.389C454.728 809.116 494.65 872.055 547.055 912.065L546.735 912.483C538.587 906.262 530.679 899.435 523.091 892.074L523.093 892.081Z" fill="url(#paint10_linear_345_1873)" fill-opacity="0.05"/>
<path d="M511.412 890.473C505.558 884.795 499.892 878.794 494.45 872.503C483.405 859.739 473.174 845.664 464.039 830.668C455.187 816.132 447.309 800.645 440.625 784.634C434.08 768.953 428.659 752.728 424.517 736.406C423.164 731.035 421.925 725.568 420.727 720.281C418.054 708.489 415.292 696.297 411.101 684.467C395.587 640.589 360.593 598.607 315.094 569.286C287.526 551.519 258.234 539.421 230.688 528.992C223.401 526.228 215.873 523.489 208.594 520.839C200.78 517.995 192.699 515.054 184.668 511.998C163.268 503.808 145.236 495.497 129.541 486.587C112.782 477.073 98.6426 466.762 87.4216 455.878C85.826 454.33 84.2906 452.773 82.8141 451.204C68.4148 435.894 57.4251 418.78 49.2178 398.881C42.1094 381.646 36.9502 361.821 33.4446 338.267C32.5789 332.586 31.8493 326.98 31.2738 321.602C28.695 297.789 29.3618 275.036 30.0067 253.03C31.0861 216.187 32.1057 181.387 17.4548 148.053C5.17859 120.123 -17.7313 95.5722 -45.3998 80.6959C-75.7495 64.3791 -111.033 59.5908 -142.204 67.5564L-142.343 67.0103C-134.563 65.0218 -126.391 63.8096 -118.055 63.4067C-109.865 63.0114 -101.482 63.3941 -93.1349 64.5469C-76.5117 66.8409 -59.9126 72.2535 -45.1323 80.199C-17.3549 95.1335 5.64703 119.782 17.9721 147.825C32.673 181.275 31.6522 216.138 30.5719 253.047C29.9282 275.033 29.2615 297.767 31.8361 321.541C32.4112 326.909 33.1404 332.509 34.0046 338.182C41.3787 387.725 56.5585 422.464 83.2284 450.819C104.74 473.692 137.989 493.53 184.872 511.473C192.9 514.529 200.978 517.469 208.791 520.312C216.072 522.961 223.601 525.702 230.892 528.467C258.467 538.906 287.791 551.02 315.404 568.814C336.525 582.426 356.154 599.418 372.173 617.953C390.154 638.762 403.432 661.078 411.636 684.28C415.836 696.141 418.604 708.351 421.281 720.157C422.479 725.441 423.717 730.904 425.069 736.268C442.635 805.461 481.574 867.944 531.897 907.691L531.548 908.132C524.64 902.677 517.911 896.773 511.415 890.471L511.412 890.473Z" fill="url(#paint11_linear_345_1873)" fill-opacity="0.05"/>
<path d="M499.66 888.896C481.331 871.117 464.959 850.211 450.827 826.507C442.265 812.145 434.591 796.815 428.02 780.941C421.631 765.505 416.247 749.474 412.02 733.293C410.642 727.981 409.367 722.575 408.136 717.347C405.403 705.752 402.574 693.763 398.469 682.124C383.07 638.412 349.44 596.013 306.202 565.8C284.315 550.505 259.049 537.407 224.281 523.331C215.061 519.592 205.477 515.949 196.208 512.428C190.618 510.304 184.839 508.109 179.107 505.88C144.983 492.544 106.883 475.558 80.807 450.266C79.7266 449.217 78.6688 448.157 77.63 447.081C62.628 431.52 50.9832 414.802 42.0266 395.973C33.5077 378.063 27.5847 358.557 23.9201 336.342C22.9752 330.729 22.1958 325.138 21.603 319.727C18.6944 293.415 20.5695 268.575 22.3831 244.551C24.9798 210.152 27.4338 177.662 15.3673 145.665C4.60733 117.13 -17.2761 91.7331 -44.6722 75.9848C-74.0529 59.0967 -110.04 53.4626 -140.939 60.9145L-141.08 60.3311C-125.645 56.6076 -108.633 56.0449 -91.8828 58.7026C-75.3007 61.3328 -58.8713 67.1291 -44.3729 75.4642C-30.5436 83.4147 -18.1624 93.7353 -7.577 106.14C2.60004 118.066 10.7283 131.66 15.9295 145.453C28.0409 177.574 25.5836 210.128 22.9817 244.596C21.1699 268.592 19.2957 293.406 22.1992 319.66C22.7892 325.061 23.5681 330.64 24.5102 336.243C31.9622 381.408 48.9775 416.494 78.0604 446.664C104.072 473.646 143.846 491.457 179.324 505.321C185.054 507.547 190.832 509.744 196.42 511.867C205.692 515.389 215.28 519.033 224.506 522.774C241.122 529.5 254.685 535.591 267.191 541.94C281.746 549.329 294.619 556.973 306.547 565.307C326.791 579.453 345.624 596.871 361.012 615.675C378.124 636.587 390.917 658.877 399.036 681.924C403.153 693.592 405.984 705.598 408.722 717.208C409.954 722.433 411.228 727.835 412.603 733.141C430.818 802.87 467.8 863.303 516.733 903.31L516.352 903.774C510.624 899.091 505.057 894.129 499.661 888.895L499.66 888.896Z" fill="url(#paint12_linear_345_1873)" fill-opacity="0.05"/>
<path d="M488.05 887.531C469.054 869.105 452.135 847.247 437.615 822.347C429.345 808.165 421.876 792.991 415.413 777.248C409.183 762.067 403.836 746.231 399.522 730.179C398.119 724.922 396.808 719.573 395.54 714.4C392.745 703.005 389.857 691.224 385.836 679.783C370.521 636.14 338.253 593.323 297.308 562.311C275.687 545.936 250.446 531.749 217.873 517.668C206.72 512.839 195.559 508.443 183.742 503.787C180.406 502.474 176.956 501.115 173.544 499.76C159.725 494.244 139.106 485.711 119.668 475.332C100.356 465.018 84.9132 454.432 72.4552 442.967C64.5327 435.677 57.2893 427.794 50.9248 419.538C44.6703 411.424 39.0709 402.699 34.2823 393.604C29.5878 384.686 25.5262 375.135 22.2117 365.215C18.9701 355.514 16.3392 345.151 14.3934 334.419C13.3663 328.857 12.538 323.281 11.9311 317.85C8.73412 289.499 12.0347 263.025 15.2272 237.424C19.2786 204.939 23.1057 174.256 13.2807 143.274C4.18369 114.585 -17.2094 87.67 -43.9458 71.273C-72.8028 53.5757 -108.591 47.2202 -139.677 54.2729L-139.817 53.652C-124.328 50.1384 -107.321 49.8648 -90.6295 52.8618C-74.0894 55.8315 -57.8308 62.0105 -43.6101 70.7306C-30.152 78.9839 -17.7691 90.0418 -7.79964 102.707C1.93629 115.076 9.43652 129.037 13.8902 143.084C23.7574 174.198 19.9217 204.948 15.8608 237.504C12.673 263.07 9.37591 289.505 12.5656 317.78C13.1708 323.197 13.9971 328.756 15.0213 334.305C23.0674 378.681 41.9964 414.069 72.8873 442.499C100.62 468.021 139.452 485.468 173.781 499.169C177.191 500.524 180.642 501.882 183.977 503.196C195.8 507.853 206.965 512.251 218.127 517.084C250.748 531.187 276.032 545.397 297.694 561.804C307.216 569.017 316.417 576.98 325.047 585.476C333.976 594.268 342.322 603.664 349.852 613.4C366.087 634.393 378.396 656.656 386.437 679.571C390.469 691.04 393.362 702.837 396.159 714.247C397.427 719.416 398.738 724.763 400.138 730.013C418.766 799.323 454.788 859.311 501.569 898.931L501.157 899.417C496.685 895.63 492.314 891.665 488.05 887.528L488.05 887.531Z" fill="url(#paint13_linear_345_1873)" fill-opacity="0.05"/>
<path d="M476.45 886.28C456.784 867.205 439.311 844.355 424.401 818.186C408.696 790.626 396.121 759.968 387.024 727.066C385.595 721.86 384.244 716.563 382.938 711.44C380.086 700.251 377.137 688.682 373.202 677.442C357.706 633.112 327.594 590.987 288.412 558.824C266.905 541.169 242.454 526.294 211.462 512.006C198.38 505.966 185.175 500.613 171.194 494.946L167.981 493.643C151.719 487.012 132.676 478.985 114.729 469.71C95.4257 459.735 79.9028 449.64 67.277 438.852C63.9963 436.05 60.8306 433.169 57.7892 430.217C30.1963 403.455 12.4167 370.642 4.86795 332.498C3.75695 326.976 2.87998 321.417 2.2603 315.974C-1.19439 285.943 3.69545 258.186 8.42415 231.342C13.8816 200.365 19.0365 171.104 11.1951 140.882C3.60818 111.64 -16.7342 83.8554 -43.2184 66.5599C-71.5527 48.0569 -107.139 40.9798 -138.413 47.6302L-138.553 46.9696C-123.013 43.6661 -106.008 43.6814 -89.3785 47.0189C-72.8813 50.3293 -56.7915 56.8908 -42.8497 65.9949C-29.5671 74.6686 -17.5259 86.1755 -8.02896 99.2727C1.2649 112.088 8.13828 126.417 11.8465 140.712C19.7239 171.076 14.5571 200.405 9.08594 231.458C4.36469 258.254 -0.51662 285.962 2.9275 315.896C3.54617 321.319 4.4189 326.859 5.52678 332.364C13.8771 374.563 34.7993 410.217 67.7123 438.338C96.0081 462.515 134.436 479.239 168.232 493.018L171.445 494.321C185.434 499.991 198.645 505.347 211.741 511.394C242.786 525.705 267.283 540.61 288.836 558.302C307.549 573.662 324.321 591.436 338.686 611.132C354.036 632.176 365.861 654.412 373.834 677.219C377.778 688.486 380.731 700.069 383.588 711.272C384.894 716.392 386.242 721.686 387.671 726.886C401.16 775.675 429.242 844.372 486.403 894.552L485.959 895.059C482.736 892.23 479.563 889.3 476.448 886.278L476.45 886.28Z" fill="url(#paint14_linear_345_1873)" fill-opacity="0.05"/>
<path d="M464.849 885.139C444.516 865.417 426.49 841.534 411.189 814.026C396.195 787.07 383.859 756.765 374.527 723.953C373.068 718.79 371.676 713.537 370.33 708.457C367.423 697.481 364.416 686.131 360.57 675.102C345.07 630.583 316.284 588.049 279.518 555.336C258.542 536.673 234.184 520.648 205.054 506.346C191.365 499.616 177.076 493.603 162.421 487.527C144.315 479.986 126.666 472.519 109.791 464.093C90.4565 454.439 74.8577 444.838 62.1033 434.739C44.8473 421.075 30.4613 405.469 19.3448 388.353C7.84989 370.656 -0.224564 351.216 -4.65404 330.58C-5.84814 325.092 -6.77398 319.548 -7.40697 314.104C-11.0924 282.679 -4.4947 253.909 1.88518 226.085C8.71583 196.299 15.1657 168.165 9.11409 138.494C3.03934 108.717 -16.2501 80.0656 -42.4873 61.8522C-70.2977 42.5467 -105.684 34.7503 -137.145 40.9939L-137.282 40.2956C-105.635 34.0147 -70.0458 41.8555 -42.08 61.2675C-15.6953 79.5823 3.70294 108.398 9.81212 138.352C12.5843 151.938 12.9634 165.946 11.0107 182.439C9.28735 196.992 6.02845 211.201 2.57902 226.245C-3.78738 254.009 -10.3706 282.719 -6.69913 314.023C-6.06947 319.445 -5.14593 324.966 -3.95634 330.431C4.81001 371.276 27.185 406.184 62.5474 434.183C91.7913 457.339 131.106 473.714 162.697 486.872C177.363 492.954 191.663 498.971 205.369 505.71C234.558 520.039 258.967 536.101 279.992 554.807C297.773 570.627 313.767 588.816 327.53 608.868C341.984 629.927 353.327 652.133 361.243 674.87C365.098 685.927 368.108 697.289 371.02 708.277C372.364 713.354 373.756 718.605 375.213 723.762C395.039 793.471 428.252 851.018 471.248 890.178L470.769 890.704C468.777 888.889 466.802 887.032 464.851 885.141L464.849 885.139Z" fill="url(#paint15_linear_345_1873)" fill-opacity="0.05"/>
<path d="M453.224 884.094C432.24 863.742 413.664 838.786 397.974 809.863C383.714 783.575 371.62 753.624 362.029 720.841C360.536 715.708 359.1 710.488 357.71 705.441C354.751 694.689 351.69 683.571 347.937 672.759C332.737 628.917 305.276 585.974 270.619 551.841C250.885 532.403 227.342 515.673 198.643 500.682C184.791 493.438 170.374 487.136 156.858 481.407C154.729 480.502 152.593 479.595 150.452 478.685C117.828 464.837 84.0945 450.517 56.9271 430.621C48.6652 424.571 41.0089 418.125 34.0013 411.328C25.6918 403.269 18.2958 394.716 11.8728 385.731C-0.725049 368.105 -9.49041 348.902 -14.1797 328.657C-15.458 323.202 -16.4338 317.674 -17.079 312.227C-20.9722 279.64 -12.584 250.07 -4.47174 221.472C3.71046 192.628 11.4386 165.386 7.02921 136.096C2.46752 105.802 -15.7721 76.285 -41.7613 57.1359C-69.0475 37.0322 -104.234 28.5143 -135.882 34.35L-136.017 33.6142C-120.371 30.7294 -103.374 31.3283 -86.8693 35.3459C-70.4603 39.3399 -54.7089 46.6677 -41.3173 56.5338C-28.3841 66.0625 -17.0291 78.4731 -8.48246 92.4206C-0.0766426 106.138 5.54298 121.204 7.76852 135.985C9.78777 149.398 9.44639 163.137 6.69447 179.222C4.26948 193.4 0.372159 207.135 -3.7525 221.675C-11.8453 250.201 -20.212 279.698 -16.3364 312.138C-15.6936 317.557 -14.7226 323.058 -13.451 328.488C-4.38874 367.616 20.0997 402.726 57.3688 430.019C84.4663 449.863 118.161 464.166 150.743 477.997C152.885 478.906 155.021 479.813 157.149 480.719C170.678 486.455 185.112 492.763 198.988 500.02C227.753 515.046 251.356 531.82 271.141 551.31C288.007 567.919 303.18 586.567 316.237 606.728C329.939 627.888 340.841 650.021 348.641 672.515C352.402 683.348 355.466 694.479 358.429 705.243C359.818 710.289 361.254 715.506 362.745 720.632C382.986 789.82 413.583 844.607 453.707 883.525C454.496 884.29 455.286 885.048 456.082 885.801L455.567 886.345C454.782 885.602 453.997 884.851 453.219 884.096L453.224 884.094Z" fill="url(#paint16_linear_345_1873)" fill-opacity="0.05"/>
<path d="M440.375 881.982C429.454 871.252 419.11 859.146 409.632 846.003C400.763 833.706 392.396 820.147 384.762 805.701C371.076 779.802 359.553 751.026 349.532 717.728C347.999 712.607 346.509 707.4 345.07 702.363C342.065 691.855 338.959 680.988 335.304 670.418C319.601 624.937 293.47 581.585 261.723 548.352C241.537 527.219 218.806 509.774 192.231 495.019C177.856 487.03 162.803 480.279 151.295 475.289C145.975 472.975 140.502 470.636 135.21 468.374C106.437 456.074 76.6844 443.354 51.7546 426.509C32.8973 413.767 16.9652 399.168 4.40244 383.117C-9.29319 365.619 -18.7496 346.651 -23.7039 326.737C-25.0668 321.311 -26.0913 315.798 -26.7498 310.352C-30.8344 276.791 -20.5972 246.592 -10.6966 217.386C-1.17189 189.289 7.82488 162.749 4.94444 133.699C1.89233 102.904 -15.2977 72.5199 -41.0371 52.4219C-67.8001 31.5234 -102.786 22.2851 -134.62 27.7084L-134.751 26.9338C-119.051 24.2589 -102.06 25.1502 -85.6201 29.5096C-69.2583 33.8489 -53.6735 41.5569 -40.5533 51.8033C-27.7938 61.7667 -16.7836 74.6275 -8.71558 88.9971C-0.756791 103.172 4.23804 118.603 5.72645 133.623C7.02746 146.746 5.96472 160.688 2.47929 176.251C-0.631775 190.142 -5.37075 204.121 -9.95378 217.64C-19.8256 246.763 -30.0331 276.876 -25.9709 310.259C-25.3164 315.672 -24.2967 321.154 -22.9432 326.549C-10.945 374.776 24.539 407.173 52.1938 425.858C77.0621 442.663 106.78 455.366 135.519 467.652C140.812 469.915 146.286 472.255 151.608 474.571C163.131 479.566 178.208 486.328 192.612 494.333C219.257 509.128 242.05 526.62 262.29 547.81C278.164 564.429 292.602 583.449 305.197 604.341C317.806 625.253 328.184 647.399 336.045 670.163C339.706 680.754 342.815 691.631 345.824 702.149C347.263 707.184 348.751 712.39 350.283 717.505C371.803 789.02 401.452 842.638 440.925 881.425L440.374 881.986L440.375 881.982Z" fill="url(#paint17_linear_345_1873)" fill-opacity="0.05"/>
<path d="M425.178 877.621C414.63 866.841 404.643 854.715 395.492 841.584C386.991 829.384 378.935 815.91 371.546 801.537C358.679 776.513 347.391 748.08 337.034 714.615C335.449 709.473 333.896 704.244 332.394 699.188C329.356 688.955 326.213 678.374 322.671 668.075C306.499 621.031 282.347 578.423 252.825 544.856C233.171 522.507 211.252 504.351 185.818 489.352C174.628 482.747 161.89 476.335 145.732 469.17C137.433 465.479 128.846 461.828 120.542 458.297C95.3295 447.576 69.259 436.491 46.583 422.393C26.9339 410.177 10.2278 396.084 -3.06889 380.506C-17.8567 363.181 -28.0033 344.445 -33.2282 324.818C-34.6757 319.418 -35.7501 313.92 -36.4216 308.477C-38.3318 293.058 -37.1032 277.016 -32.6638 259.436C-28.7158 243.804 -22.6767 228.515 -16.8366 213.728C-6.44859 187.426 4.29323 160.23 2.86069 131.3C1.31118 100.02 -14.8279 68.7717 -40.3132 47.7057C-66.5538 26.0159 -101.338 16.0581 -133.359 21.0669L-133.485 20.2535C-117.729 17.7895 -100.746 18.9722 -84.3698 23.6745C-68.054 28.3601 -52.638 36.4507 -39.7882 47.0718C-27.2022 57.4742 -16.5402 70.7866 -8.95108 85.5715C-1.44154 100.203 2.92746 116.001 3.68302 131.259C4.32979 144.326 2.58004 158.134 -1.66754 173.473C-5.45538 187.152 -10.8522 200.814 -16.0715 214.029C-27.7558 243.612 -39.8387 274.204 -35.6057 308.376C-34.9394 313.783 -33.8724 319.242 -32.4357 324.605C-22.6257 361.46 5.58985 395.94 47.0153 421.695C69.6378 435.759 95.6779 446.831 120.862 457.541C129.169 461.072 137.757 464.726 146.064 468.418C162.252 475.596 175.016 482.023 186.234 488.644C198.978 496.16 211.119 504.69 222.32 513.996C233.308 523.127 243.778 533.325 253.441 544.312C268.343 561.257 281.999 580.692 294.029 602.078C305.671 622.773 315.568 644.888 323.447 667.808C326.996 678.124 330.141 688.713 333.182 698.954C334.684 704.009 336.236 709.237 337.82 714.373C360.298 787.006 388.245 838.697 425.766 877.046L425.177 877.623L425.178 877.621Z" fill="url(#paint18_linear_345_1873)" fill-opacity="0.05"/>
<path d="M409.981 873.259C390.243 852.256 373.348 827.433 358.332 797.374C346.182 773.053 335.442 745.767 324.536 711.503C322.875 706.271 321.235 700.95 319.649 695.804C316.6 685.917 313.448 675.692 310.036 665.733C293.492 617.391 270.631 574.384 243.925 541.358C224.878 517.805 203.773 498.939 179.404 483.684C168.204 476.671 155.738 470.114 140.168 463.049C129.094 458.014 117.572 453.2 106.429 448.546C84.4991 439.386 61.8231 429.914 41.4125 418.276C20.9883 406.63 3.50925 393.045 -10.5388 377.898C-26.4137 360.781 -37.2527 342.276 -42.7514 322.897C-44.2846 317.522 -45.4079 312.039 -46.0914 306.6C-47.1547 298.161 -47.2145 289.796 -46.2714 281.024C-45.4317 273.215 -43.8135 265.265 -41.3211 256.719C-36.6968 240.864 -29.6964 225.344 -22.9263 210.336C-11.2712 184.497 0.780679 157.781 0.780247 128.899C0.677043 97.5814 -14.7902 64.6593 -39.587 42.9893C-64.9218 20.8472 -100.369 9.90148 -132.095 14.4241L-132.217 13.5729C-116.406 11.3199 -99.4284 12.795 -83.1205 17.8403C-66.8529 22.8724 -51.6034 31.3454 -39.022 42.3411C-26.6229 53.1788 -16.3133 66.943 -9.20837 82.1492C-2.16296 97.2263 1.58795 113.392 1.63876 128.897C1.6397 141.945 -0.792843 155.657 -5.79579 170.819C-10.2527 184.327 -16.2979 197.728 -22.1443 210.688C-35.6596 240.649 -49.6347 271.632 -45.2405 306.493C-44.5626 311.889 -43.4481 317.329 -41.9281 322.662C-31.6416 358.904 -1.89397 392.594 41.8357 417.53C62.1997 429.141 84.8522 438.603 106.757 447.753C117.906 452.409 129.434 457.226 140.52 462.265C156.126 469.346 168.625 475.92 179.856 482.954C192.18 490.667 203.949 499.545 214.838 509.342C225.313 518.765 235.323 529.354 244.59 540.814C258.51 558.028 271.384 577.879 282.854 599.816C293.473 620.125 302.891 642.209 310.845 665.451C314.26 675.422 317.413 685.653 320.466 695.548C322.052 700.692 323.691 706.011 325.351 711.24C341.197 761.021 365.207 824.359 410.602 872.667L409.976 873.255L409.981 873.259Z" fill="url(#paint19_linear_345_1873)" fill-opacity="0.05"/>
<path d="M394.783 868.897C375.896 847.948 359.65 823.191 345.118 793.212C330.617 763.298 319.823 732.171 312.04 708.394C310.238 702.885 308.446 697.284 306.713 691.868C303.717 682.507 300.62 672.827 297.404 663.393C279.878 611.945 259.474 570.883 235.025 537.861C216.555 513.05 196.262 493.475 172.989 478.02C162.01 470.727 149.454 463.829 134.603 456.931C120.973 450.594 106.699 444.811 92.8939 439.219C73.9693 431.553 54.3997 423.624 36.2433 414.165C16.1296 403.686 -2.02292 390.824 -16.3932 376.886C-16.9374 376.358 -17.4739 375.831 -18.0073 375.3C-34.9656 358.419 -46.4948 340.143 -52.2754 320.982C-53.8922 315.633 -55.0665 310.164 -55.7619 304.729C-56.8611 296.151 -56.8455 287.667 -55.7116 278.79C-54.7016 270.886 -52.8223 262.848 -49.9627 254.22C-44.6587 238.207 -36.6891 222.523 -28.9818 207.353C-16.018 181.84 -2.614 155.459 -1.30021 126.499C0.0485667 95.6361 -13.5665 62.7663 -36.9577 40.0775C-37.5866 39.467 -38.2206 38.8666 -38.8631 38.271C-63.7392 15.364 -98.9814 3.6811 -130.834 7.78157L-130.947 6.89139C-115.093 4.84989 -98.125 6.62202 -81.8806 12.0169C-65.6787 17.3985 -50.5927 26.2483 -38.2535 37.6106C-26.0327 48.9229 -16.0721 63.1441 -9.44754 78.7372C-2.84294 94.285 0.284133 110.813 -0.403313 126.536C-0.996878 139.618 -4.08696 153.298 -9.84789 168.36C-14.9758 181.766 -21.6898 194.978 -28.1817 207.755C-43.5346 237.971 -59.4096 269.215 -54.8709 304.61C-54.1814 309.995 -53.0183 315.416 -51.415 320.717C-36.8529 368.99 10.0178 399.484 36.6605 413.365C54.7795 422.805 74.3288 430.724 93.2342 438.383C107.049 443.979 121.333 449.767 134.984 456.113C149.876 463.029 162.47 469.949 173.488 477.268C185.392 485.173 196.784 494.4 207.352 504.701C217.299 514.397 226.853 525.372 235.748 537.321C248.675 554.78 260.759 575.052 271.669 597.572C281.202 617.252 290.147 639.298 298.255 663.097C301.473 672.54 304.573 682.222 307.569 691.587C309.302 697.001 311.093 702.601 312.893 708.107C331.21 764.059 353.889 822.19 395.45 868.289L394.783 868.89L394.783 868.897Z" fill="url(#paint20_linear_345_1873)" fill-opacity="0.05"/>
<path d="M379.586 864.534C368.971 852.248 359.407 838.943 350.351 823.86C342.296 810.445 334.838 795.938 327.552 779.506C314.035 749.026 303.283 716.634 292.884 685.309C290.237 677.337 287.501 669.095 284.774 661.05C264.943 602.562 238.561 538.608 192.219 493.658C184.277 485.955 175.76 478.817 166.577 472.352C140.073 453.689 109.526 441.844 79.9869 430.391C63.7859 424.109 47.0337 417.613 31.0797 410.052C6.32597 398.322 -15.3898 383.311 -31.7195 366.65C-40.9479 357.235 -48.4499 347.291 -54.0184 337.095C-60.0726 326.011 -63.9119 314.491 -65.4293 302.855C-66.5632 294.159 -66.4711 285.576 -65.1452 276.619C-63.9651 268.637 -61.8246 260.532 -58.6022 251.845C-52.6197 235.717 -43.6802 219.904 -35.0335 204.612C-20.7454 179.342 -5.97171 153.212 -3.37616 124.101C-0.507445 91.9363 -13.8277 57.242 -38.1356 33.5578C-38.1948 33.5003 -38.2563 33.4407 -38.3155 33.3832C-62.6164 9.81204 -97.5579 -2.53707 -129.57 1.14522L-129.676 0.217201C-113.755 -1.61509 -96.7908 0.447147 -80.6215 6.17884C-64.4546 11.9085 -49.5318 21.1394 -37.4846 32.8885C-25.4322 44.6319 -15.8132 59.3021 -9.66862 75.3118C-3.5216 91.3257 -1.02569 108.224 -2.44934 124.183C-5.06314 153.496 -19.8874 179.714 -34.2227 205.072C-52.1988 236.865 -69.1771 266.895 -64.5041 302.734C-56.8534 361.402 5.16947 396.739 31.4791 409.209C47.4016 416.756 64.1391 423.245 80.3244 429.521C109.917 440.995 140.517 452.861 167.114 471.589C181.954 482.039 195.892 494.856 208.539 509.684C219.986 523.103 230.816 538.698 240.732 556.033C261.236 591.881 275.51 630.826 285.657 660.749C288.385 668.797 291.121 677.041 293.769 685.015C314.645 747.898 336.231 812.922 380.291 863.922L379.584 864.533L379.586 864.534Z" fill="url(#paint21_linear_345_1873)" fill-opacity="0.05"/>
<path d="M276.724 345.157C286.633 353.402 294.73 362.578 300.861 372.522C309.51 386.547 314.817 403.028 316.637 421.507C318.154 436.9 317.279 454.035 314.039 472.432C311.83 484.971 308.783 497.515 305.837 509.645C301.063 529.302 296.127 549.628 294.665 570.369C290.502 629.384 316.23 693.025 361.808 736.455C407.387 779.888 472.755 803.049 532.405 796.903L532.499 797.833C502.98 800.876 471.512 796.863 441.501 786.23C411.494 775.599 383.714 758.622 361.164 737.133C338.614 715.645 320.452 688.843 308.641 659.626C296.829 630.404 291.675 599.518 293.735 570.306C295.204 549.487 300.15 529.121 304.933 509.426C307.875 497.31 310.917 484.782 313.121 472.272C320.22 431.968 315.828 398.572 300.069 373.013C282.022 343.746 251.075 327.369 228.291 318.784C205.512 310.2 181.432 305.465 158.146 300.886C152.371 299.751 146.402 298.576 140.547 297.363C72.2968 283.212 4.91739 260.463 -59.7191 229.75C-124.36 199.037 -185.275 160.824 -240.778 116.17L-240.192 115.443C-128.422 205.362 3.29953 267.952 140.734 296.448C146.586 297.66 152.553 298.835 158.325 299.969C181.649 304.556 205.768 309.298 228.619 317.909C243.876 323.658 257.604 330.917 269.418 339.484C271.951 341.321 274.389 343.213 276.722 345.156L276.724 345.157Z" fill="url(#paint22_linear_345_1873)" fill-opacity="0.05"/>
<path d="M276.498 355.649C285.065 362.777 293.006 371.158 299.478 380.98C306.493 391.644 311.615 403.804 314.704 417.12C316.887 426.562 318.1 436.816 318.311 447.599C318.497 457.063 317.913 467.217 316.577 477.778C314.994 490.211 312.631 502.679 310.346 514.738C306.757 533.679 303.047 553.267 302.217 573.341C299.839 630.854 325.325 692.527 368.73 734.294C412.697 776.618 475.426 800.047 532.435 795.44L532.507 796.334C504.319 798.611 474.221 794.149 445.463 783.427C416.645 772.682 389.897 755.916 368.107 734.94C357.163 724.409 347.231 712.561 338.588 699.726C330.122 687.155 322.912 673.67 317.158 659.644C305.624 631.536 300.148 601.679 301.321 573.303C302.154 553.163 305.872 533.544 309.466 514.57C311.748 502.525 314.108 490.069 315.689 477.665C318.525 455.23 317.9 434.927 313.83 417.322C310.765 404.109 305.685 392.048 298.729 381.472C280.078 353.172 249.082 336.874 226.362 328.183C217.622 324.84 208.125 321.796 197.33 318.879C184.674 315.461 171.686 312.605 159.122 309.842C152.609 308.411 145.873 306.93 139.282 305.39C106.331 297.683 73.643 287.724 42.1233 275.789C7.28848 262.561 -27.2573 246.672 -63.4856 227.212C-92.5491 211.618 -121.705 194.253 -150.147 175.599C-178.403 157.065 -206.279 137.049 -232.997 116.103L-232.443 115.397C-178.422 157.746 -121.433 195.102 -63.0612 226.423C-26.867 245.864 7.64272 261.738 42.4415 274.952C73.9242 286.873 106.575 296.821 139.485 304.518C146.07 306.055 152.803 307.535 159.314 308.967C171.887 311.731 184.887 314.59 197.563 318.013C208.389 320.939 217.912 323.992 226.681 327.345C241.652 333.07 260.204 342.09 276.496 355.647L276.498 355.649Z" fill="url(#paint23_linear_345_1873)" fill-opacity="0.05"/>
<path d="M276.461 366.292C284.448 372.936 291.881 380.609 298.095 389.437C305.34 399.766 310.834 411.532 314.427 424.41C319.219 441.688 320.753 460.891 319.117 483.121C318.175 495.567 316.506 508.083 314.891 520.186C312.476 538.294 309.977 557.018 309.771 576.312C309.162 633.178 333.791 691.428 375.654 732.131C379.627 735.997 383.762 739.714 388.028 743.263C429.237 777.554 483.195 796.751 532.47 793.977L532.517 794.835C505.664 796.347 476.932 791.432 449.431 780.622C421.802 769.762 396.085 753.208 375.055 732.747C364.51 722.494 354.912 710.967 346.527 698.486C338.357 686.324 331.338 673.259 325.665 659.652C314.411 632.659 308.618 603.838 308.913 576.302C309.12 556.956 311.622 538.205 314.041 520.072C315.653 507.981 317.322 495.477 318.261 483.057C319.891 460.928 318.367 441.82 313.601 424.641C310.036 411.858 304.582 400.179 297.394 389.931C278.155 362.604 247.102 346.381 224.439 337.583C215.777 334.223 206.322 331.093 195.533 328.016C183.861 324.691 171.914 321.786 160.357 318.977C153.02 317.193 145.433 315.348 138.026 313.421C105.313 304.88 73.3403 294 42.9964 281.078C10.9504 267.365 -21.1622 250.848 -58.0664 229.1C-85.7139 212.839 -114.133 194.836 -142.529 175.593C-170.178 156.857 -197.995 136.82 -225.209 116.038L-224.686 115.353C-168.937 157.929 -112.73 195.95 -57.6297 228.358C-20.7584 250.086 11.3236 266.588 43.3334 280.285C73.6379 293.189 105.57 304.057 138.242 312.586C145.642 314.511 153.225 316.355 160.56 318.138C172.123 320.949 184.079 323.856 195.767 327.187C206.583 330.272 216.062 333.408 224.748 336.78C240.211 342.784 259.567 352.233 276.461 366.289L276.461 366.292Z" fill="url(#paint24_linear_345_1873)" fill-opacity="0.05"/>
<path d="M276.547 376.957C284.399 383.491 291.151 390.497 296.712 397.894C304.187 407.889 310.054 419.263 314.149 431.699C319.578 448.303 322.032 466.871 321.651 488.465C321.389 501.12 320.439 513.883 319.518 526.224C318.244 543.307 316.927 560.972 317.321 579.281C318.512 634.638 342.906 690.971 382.575 729.966C423.307 770.053 480.755 794.02 532.499 792.512L532.522 793.334C507 794.078 479.637 788.712 453.391 777.817C426.951 766.841 402.264 750.498 381.998 730.553C371.853 720.58 362.586 709.371 354.455 697.24C346.576 685.485 339.745 672.836 334.151 659.647C323.177 633.776 317.073 605.993 316.499 579.299C316.104 560.949 317.423 543.265 318.698 526.163C319.618 513.831 320.568 501.081 320.828 488.448C321.206 466.951 318.765 448.471 313.365 431.956C309.297 419.603 303.473 408.308 296.051 398.387C280.371 377.534 254.94 359.757 222.507 346.983C213.936 343.607 204.522 340.391 193.727 337.15C183.138 333.976 172.326 331.097 161.868 328.312C153.61 326.111 145.072 323.839 136.762 321.449C104.277 312.064 73.0224 300.26 43.8604 286.365C6.93993 268.653 -25.6474 248.432 -52.6562 230.987C-102.859 198.65 -158.298 159.953 -217.432 115.971L-216.94 115.311C-157.821 159.282 -102.397 197.967 -52.2092 230.295C-25.2231 247.726 7.33794 267.93 44.2155 285.622C73.3346 299.497 104.548 311.285 136.989 320.658C145.291 323.045 153.825 325.317 162.08 327.517C172.542 330.303 183.361 333.185 193.964 336.362C204.782 339.61 214.216 342.834 222.809 346.217C238.02 352.209 251.771 359.316 263.682 367.339C268.248 370.414 272.539 373.623 276.544 376.956L276.547 376.957Z" fill="url(#paint25_linear_345_1873)" fill-opacity="0.05"/>
<path d="M276.921 387.804C283.959 393.659 290.118 399.864 295.33 406.355C303.035 416.017 309.273 426.997 313.871 438.994C319.979 455.06 323.352 472.991 324.187 493.812C324.724 507.174 324.55 520.094 324.368 533.773C324.16 549.353 323.944 565.465 324.874 582.255C327.86 636.115 352.018 690.526 389.499 727.806C394.091 732.381 398.907 736.759 403.899 740.911C441.41 772.125 489.183 791.003 532.533 791.051L532.531 791.837C508.342 791.81 482.346 785.993 457.357 775.015C432.102 763.921 408.446 747.789 388.945 728.361C379.198 718.668 370.261 707.776 362.38 695.991C354.79 684.64 348.142 672.407 342.622 659.631C331.932 634.89 325.523 608.148 324.091 582.295C323.159 565.478 323.374 549.354 323.582 533.759C323.765 520.091 323.938 507.181 323.403 493.841C322.571 473.107 319.213 455.257 313.137 439.271C308.568 427.352 302.371 416.441 294.716 406.843C278.37 386.487 253.429 369.511 220.585 356.382C212.119 353.001 202.746 349.698 191.931 346.284C182.537 343.327 172.966 340.557 163.709 337.881C154.421 335.193 144.817 332.416 135.507 329.477C103.251 319.237 72.7095 306.51 44.7344 291.651C10.9837 273.574 -19.2057 252.702 -47.235 232.873C-88.2267 203.972 -132.605 171.778 -175.523 140.643C-186.725 132.517 -198.309 124.113 -209.646 115.903L-209.185 115.266C-197.847 123.477 -186.264 131.879 -175.062 140.006C-132.146 171.139 -87.7715 203.332 -46.7821 232.23C-18.7723 252.047 11.3932 272.904 45.103 290.958C73.035 305.793 103.531 318.502 135.743 328.728C145.043 331.663 154.642 334.439 163.925 337.124C173.187 339.803 182.763 342.574 192.165 345.533C203.001 348.952 212.391 352.262 220.875 355.65C236.082 361.728 249.841 368.784 261.773 376.62C267.195 380.181 272.251 383.914 276.919 387.798L276.921 387.804Z" fill="url(#paint26_linear_345_1873)" fill-opacity="0.05"/>
<path d="M277.532 398.753C283.674 403.865 289.15 409.219 293.947 414.815C301.884 424.144 308.493 434.732 313.592 446.286C320.347 461.731 324.64 479.024 326.721 499.156C328.236 513.813 328.952 528.056 329.71 543.136C330.39 556.648 331.092 570.621 332.425 585.227C337.272 638.384 360.596 689.565 396.419 725.642C433.895 763.458 486.063 787.96 532.563 789.589L532.535 790.338C509.675 789.538 485.049 783.269 461.318 772.212C437.249 760.997 414.624 745.076 395.887 726.171C386.538 716.756 377.928 706.181 370.292 694.741C362.986 683.794 356.518 671.974 351.067 659.608C340.663 636.01 333.958 610.312 331.678 585.298C330.345 570.677 329.642 556.698 328.962 543.177C328.204 528.108 327.488 513.873 325.975 499.237C323.904 479.183 319.628 461.961 312.905 446.591C307.837 435.103 301.266 424.577 293.377 415.303C276.612 395.753 251.472 379.092 218.659 365.786C210.208 362.362 201.143 359.07 190.132 355.425C182.061 352.761 173.85 350.2 165.909 347.724C155.467 344.468 144.669 341.101 134.25 337.512C101.914 326.3 72.0899 312.649 45.6063 296.943C15.0282 278.809 -11.6388 258.145 -39.8719 236.271L-41.8158 234.765C-104.359 186.508 -155.215 148.719 -201.863 115.841L-201.431 115.229C-154.774 148.113 -103.908 185.908 -41.356 234.171L-39.4121 235.677C-11.1985 257.538 15.4513 278.188 45.9896 296.297C72.431 311.978 102.209 325.605 134.497 336.801C144.905 340.387 155.697 343.752 166.134 347.006C174.078 349.483 182.292 352.044 190.369 354.71C201.396 358.361 210.477 361.659 218.943 365.09C242.491 374.639 262.109 385.917 277.534 398.753L277.532 398.753Z" fill="url(#paint27_linear_345_1873)" fill-opacity="0.05"/>
<path d="M278.546 409.953C283.709 414.25 288.384 418.691 292.565 423.277C300.688 432.185 307.667 442.381 313.312 453.583C320.715 468.416 325.929 485.073 329.252 504.506C332.274 522.176 334.258 539.538 336.359 557.919C337.473 567.664 338.625 577.739 339.973 588.201C346.635 639.869 369.73 689.177 403.34 723.481C439.175 760.14 488.703 784.911 532.594 788.129L532.541 788.838C511.009 787.26 487.752 780.541 465.282 769.408C442.396 758.071 420.801 742.361 402.831 723.978C385.236 706.02 370.653 684.349 359.489 659.571C349.378 637.129 342.385 612.481 339.267 588.292C337.918 577.826 336.766 567.747 335.651 558C333.552 539.629 331.567 522.277 328.549 504.626C325.238 485.264 320.045 468.672 312.674 453.903C307.06 442.761 300.115 432.619 292.037 423.759C274.999 405.075 249.663 388.732 216.731 375.187C208.445 371.781 199.42 368.405 188.33 364.56C181.725 362.277 175.013 360.037 168.521 357.87C156.781 353.952 144.641 349.901 132.991 345.54C100.882 333.441 71.7743 318.869 46.4759 302.229C20.3239 285.027 -2.06403 265.926 -25.7675 245.704C-29.2336 242.747 -32.8162 239.69 -36.4001 236.65C-72.9999 205.738 -130.068 159.672 -194.086 115.772L-193.683 115.185C-129.642 159.101 -72.5547 205.181 -35.9399 236.107C-32.3571 239.147 -28.7722 242.205 -25.3062 245.161C-1.62107 265.369 20.7518 284.455 46.8661 301.633C72.1212 318.245 101.181 332.792 133.241 344.872C144.879 349.227 157.013 353.276 168.747 357.194C175.24 359.361 181.954 361.602 188.563 363.885C199.666 367.734 208.703 371.116 217.001 374.527C241.959 384.792 262.577 396.669 278.544 409.953L278.546 409.953Z" fill="url(#paint28_linear_345_1873)" fill-opacity="0.05"/>
<path d="M279.802 421.253C283.912 424.672 287.711 428.172 291.185 431.739C299.602 440.382 306.953 450.186 313.034 460.879C321.06 474.991 327.195 491.01 331.784 509.853C338.335 536.744 342.798 563.182 347.525 591.173C356.003 641.377 378.87 688.813 410.263 721.316C444.963 757.338 490.707 781.768 532.627 786.665L532.549 787.336C512.342 784.975 490.453 777.805 469.247 766.604C447.541 755.137 426.976 739.639 409.777 721.786C393.052 704.469 378.958 683.522 367.888 659.525C358.079 638.263 350.808 614.667 346.86 591.287C342.136 563.309 337.673 536.881 331.128 510.014C326.551 491.233 320.442 475.27 312.448 461.214C306.394 450.571 299.077 440.813 290.701 432.211C273.082 414.118 248.257 398.539 214.809 384.586C206.631 381.178 197.911 377.819 186.535 373.694C181.561 371.897 176.511 370.104 171.624 368.371C158.417 363.685 144.76 358.837 131.738 353.568C99.8731 340.579 71.4816 325.085 47.3541 307.515C24.4293 290.82 5.18463 272.631 -15.1877 253.375C-20.3074 248.534 -25.6021 243.53 -30.9746 238.536C-47.0485 223.666 -63.9236 208.885 -81.2068 194.503C-115.596 165.886 -151.621 138.834 -186.3 115.704L-185.926 115.142C-158.937 133.144 -131.386 153.296 -104.042 175.038C-78.4324 195.4 -53.6942 216.598 -30.5163 238.041C-25.1415 243.037 -19.8467 248.044 -14.7248 252.884C5.63241 272.125 24.8598 290.3 47.7502 306.968C71.8341 324.506 100.177 339.975 131.991 352.941C144.998 358.205 158.648 363.049 171.849 367.733C176.735 369.468 181.787 371.26 186.763 373.057C198.151 377.186 206.88 380.548 215.066 383.961C230.383 390.35 244.177 397.247 256.062 404.462C264.828 409.781 272.769 415.4 279.8 421.251L279.802 421.253Z" fill="url(#paint29_linear_345_1873)" fill-opacity="0.05"/>
<path d="M281.433 432.727C284.38 435.179 287.167 437.668 289.804 440.202C298.455 448.517 306.178 457.929 312.755 468.178C321.43 481.694 328.483 497.077 334.312 515.203C342.433 540.449 349.031 565.534 355.074 594.147C361.128 622.81 377.246 677.165 417.184 719.152C450.19 753.956 493.358 778.648 532.659 785.204L532.554 785.833C513.67 782.682 493.148 775.064 473.21 763.799C452.679 752.199 433.147 736.913 416.72 719.592C400.861 702.918 387.245 682.691 376.253 659.472C366.626 639.138 359.291 617.204 354.448 594.279C348.41 565.688 341.817 540.624 333.703 515.398C327.888 497.325 320.86 481.992 312.215 468.521C305.664 458.315 297.974 448.941 289.358 440.66C271.441 423.441 246.425 408.173 212.879 393.983C202.863 389.75 193.031 385.968 184.733 382.827C181.579 381.637 178.376 380.436 175.278 379.275C160.408 373.702 145.031 367.94 130.48 361.595C98.8731 347.713 71.1998 331.296 48.227 312.799C27.7775 296.334 10.9787 278.657 -6.80634 259.941C-12.8547 253.577 -19.1082 246.996 -25.5554 240.421C-45.9962 219.69 -68.3345 199.247 -91.6229 179.869C-119.743 156.469 -149.249 134.618 -178.523 115.633L-178.176 115.099C-124.62 149.829 -70.2565 194.177 -25.1002 239.974C-18.6483 246.553 -12.3925 253.136 -6.34405 259.502C11.4258 278.203 28.2107 295.865 48.6258 312.303C71.5549 330.765 99.1802 347.151 130.736 361.011C145.271 367.35 160.639 373.109 175.5 378.679C178.598 379.841 181.802 381.041 184.957 382.232C193.26 385.374 203.1 389.159 213.127 393.397C241.813 405.532 264.286 418.461 281.427 432.726L281.433 432.727Z" fill="url(#paint30_linear_345_1873)" fill-opacity="0.05"/>
<path d="M283.728 444.611C285.345 445.957 286.909 447.309 288.422 448.668C297.312 456.657 305.405 465.678 312.476 475.48C321.814 488.423 329.785 503.168 336.842 520.557C345.107 540.919 354.633 565.941 362.624 597.124C371.342 631.146 389.086 679.559 424.107 716.99C455.393 750.542 495.985 775.497 532.693 783.746L532.562 784.331C514.993 780.383 495.841 772.314 477.177 760.994C457.818 749.253 439.314 734.178 423.668 717.4C388.561 679.877 370.779 631.364 362.043 597.273C354.061 566.124 344.544 541.127 336.286 520.784C329.246 503.439 321.298 488.736 311.99 475.832C304.944 466.064 296.88 457.077 288.022 449.115C269.868 432.8 244.663 417.842 210.959 403.387C202.123 399.601 193.368 396.083 182.941 391.967L179.609 390.656C162.839 384.063 145.501 377.247 129.233 369.628C97.9002 354.849 70.9419 337.508 49.1108 318.09C30.6428 301.664 15.8306 284.229 0.149883 265.772C-6.34965 258.12 -13.072 250.21 -20.1244 242.312C-62.591 195.029 -116.079 150.017 -170.736 115.567L-170.417 115.058C-142.733 132.505 -115.289 152.705 -88.841 175.097C-63.4733 196.575 -40.2031 219.054 -19.6767 241.911C-12.6185 249.816 -5.8948 257.729 0.607043 265.383C16.2737 283.824 31.073 301.242 49.5097 317.64C71.2982 337.022 98.2073 354.329 129.488 369.082C145.737 376.692 163.067 383.506 179.828 390.095L183.16 391.405C193.593 395.524 202.353 399.043 211.195 402.832C226.891 409.565 240.319 416.171 252.247 423.031C264.194 429.902 274.758 437.143 283.729 444.608L283.728 444.611Z" fill="url(#paint31_linear_345_1873)" fill-opacity="0.05"/>
<path d="M286.428 456.619C286.634 456.79 286.838 456.961 287.044 457.133C296.175 464.801 304.637 473.43 312.197 482.783C322.217 495.178 331.105 509.286 339.369 525.913C350.106 547.516 361.328 571.04 370.174 600.101C384.824 648.23 405.298 686.83 431.031 714.827C460.558 747.074 498.577 772.292 532.728 782.287L532.57 782.827C516.308 778.068 498.525 769.548 481.145 758.189C462.947 746.296 445.475 731.433 430.616 715.206C404.827 687.145 384.311 648.474 369.637 600.263C360.804 571.243 349.593 547.744 338.867 526.161C330.622 509.571 321.756 495.495 311.761 483.134C304.224 473.81 295.786 465.208 286.682 457.563C268.129 441.975 243.453 427.752 209.036 412.784C199.74 408.746 190.298 404.863 181.167 401.109L181.145 401.1C161.947 393.231 144.694 386.035 127.981 377.654C96.9339 361.975 70.6963 343.713 49.9915 323.375C33.1649 306.847 20.03 289.471 6.12373 271.075C-0.505281 262.305 -7.3602 253.238 -14.6975 244.199C-54.0535 196 -108.091 149.09 -162.955 115.497L-162.66 115.016C-138.829 129.608 -115.415 146.45 -92.8966 165.189C-88.9829 168.446 -85.0995 171.758 -81.2417 175.128C-56.0829 197.105 -33.5468 220.225 -14.2607 243.844C-6.91745 252.89 -0.0589424 261.963 6.57354 270.736C20.4679 289.115 33.5921 306.475 50.3874 322.975C71.0494 343.272 97.2411 361.499 128.237 377.153C144.93 385.524 162.172 392.715 181.36 400.58L181.381 400.589C190.514 404.345 199.959 408.229 209.261 412.269C243.351 427.093 267.902 441.201 286.429 456.618L286.428 456.619Z" fill="url(#paint32_linear_345_1873)" fill-opacity="0.05"/>
<path d="M290.375 469.406C298.009 475.758 305.236 482.694 311.919 490.086C322.653 501.961 332.459 515.433 341.896 531.272C356.342 555.518 368.153 576.201 377.721 603.079C394.888 651.307 414.026 686.127 437.949 712.663C465.66 743.524 501.102 769.007 532.757 780.83L532.572 781.323C517.598 775.732 501.185 766.762 485.106 755.386C468.058 743.325 451.616 728.674 437.556 713.016C424.276 698.284 412.032 680.214 401.165 659.308C392.648 642.925 384.818 624.59 377.224 603.256C367.672 576.423 355.874 555.764 341.443 531.543C332.024 515.735 322.238 502.289 311.526 490.441C303.503 481.566 294.691 473.348 285.337 466.016C261.198 447.096 230.851 432.655 207.108 422.189C199.857 418.996 192.5 415.856 185.386 412.82C183.37 411.96 181.357 411.1 179.346 410.241C162.063 402.87 143.725 394.794 126.727 385.689C111.873 377.679 98.0266 368.91 85.5712 359.627C72.4933 349.88 60.8181 339.464 50.8692 328.668C35.4473 311.934 23.7698 294.478 11.4079 276C4.87396 266.234 -1.88106 256.135 -9.2747 246.092C-46.2035 196.231 -99.3847 148.607 -155.181 115.431L-154.911 114.978C-132.415 128.354 -110.338 144.082 -89.5819 161.353C-58.8059 186.963 -30.9306 215.969 -8.85106 245.78C-1.45025 255.834 5.30939 265.937 11.8447 275.708C24.1947 294.169 35.8613 311.607 51.2553 328.311C70.8027 349.523 96.2782 368.67 126.974 385.224C143.952 394.319 162.277 402.388 179.55 409.756C181.561 410.616 183.575 411.476 185.59 412.336C192.706 415.372 200.064 418.513 207.318 421.707C231.089 432.186 261.475 446.645 285.659 465.602C287.245 466.846 288.817 468.115 290.371 469.408L290.375 469.406Z" fill="url(#paint33_linear_345_1873)" fill-opacity="0.05"/>
<path d="M-85.3466 158.211C-78.7586 163.693 -72.3107 169.365 -66.0467 175.188C-41.718 197.803 -20.0672 222.882 -3.4354 247.711C3.85775 258.668 10.3516 269.706 16.6294 280.381C27.6005 299.034 37.9649 316.652 52.1304 333.645C70.5754 355.768 95.3336 375.838 125.72 393.295C143.483 403.434 161.989 411.944 177.749 418.929C181.952 420.799 186.246 422.688 190.397 424.516C195.305 426.677 200.38 428.909 205.383 431.143C231.036 442.605 260.471 456.67 284.283 474.07C293.917 481.109 303.121 488.957 311.64 497.396C323.135 508.784 333.858 521.619 344.423 536.637C358.963 557.305 373.997 578.677 385.269 606.06C399.353 640.274 417.449 679.44 444.87 710.501C470.659 739.839 503.525 765.585 532.788 779.374L532.58 779.818C518.865 773.356 503.82 763.937 489.074 752.583C472.93 740.153 457.935 726.103 444.505 710.825C417.035 679.709 398.918 640.499 384.818 606.247C373.567 578.915 358.548 557.565 344.024 536.919C333.476 521.925 322.771 509.111 311.297 497.744C302.796 489.323 293.612 481.49 283.997 474.464C260.221 457.091 230.815 443.041 205.185 431.588C200.184 429.355 195.108 427.123 190.201 424.962C186.049 423.134 181.754 421.244 177.551 419.375C161.779 412.384 143.261 403.869 125.477 393.717C110.801 385.287 97.2256 376.085 85.1237 366.368C72.3789 356.135 61.1524 345.23 51.7542 333.958C37.5618 316.935 27.1899 299.299 16.2068 280.629C9.93157 269.96 3.44136 258.928 -3.84347 247.983C-38.3825 196.42 -90.7067 148.082 -147.399 115.36L-147.154 114.937C-132.879 123.176 -118.661 132.554 -104.897 142.808C-98.2791 147.738 -91.748 152.885 -85.3478 158.21L-85.3466 158.211Z" fill="url(#paint34_linear_345_1873)" fill-opacity="0.05"/>
<path d="M-80.2188 155.766C-72.7393 161.99 -65.4603 168.493 -58.4489 175.215C-34.3773 198.294 -13.4826 224.031 1.97701 249.641C9.04262 261.421 15.1489 273.319 21.053 284.825C30.7653 303.753 39.9383 321.631 53.0033 338.976C70.3535 362.01 94.3976 383 124.465 401.362C138.595 409.94 154.953 418.437 175.947 428.102C182.548 431.149 189.316 434.201 195.863 437.153C198.388 438.292 200.917 439.432 203.448 440.577C229.176 452.228 258.657 466.041 282.908 482.537C292.81 489.273 302.385 496.732 311.365 504.703C323.682 515.639 335.323 527.838 346.953 542.001L347.739 542.959C355.791 552.763 364.117 562.902 371.78 573.63C380.361 585.644 387.243 597.227 392.819 609.039C406.433 637.877 425.077 677.373 451.794 708.336C475.456 735.882 505.746 761.895 532.821 777.918L532.59 778.307C520.066 770.895 506.39 761.029 493.042 749.775C478.009 737.1 464.015 723.256 451.45 708.63C439.738 695.057 428.671 678.896 417.613 659.223C407.604 641.418 398.822 622.815 392.41 609.231C380.012 582.966 364.165 563.671 347.389 543.243L346.603 542.285C334.989 528.143 323.364 515.959 311.065 505.039C302.099 497.08 292.54 489.633 282.654 482.908C258.433 466.431 228.973 452.63 203.262 440.986C200.731 439.841 198.202 438.701 195.677 437.562C189.13 434.61 182.359 431.557 175.757 428.509C154.748 418.837 138.376 410.331 124.229 401.745C109.734 392.893 96.4257 383.257 84.6783 373.107C72.271 362.388 61.4922 350.995 52.6414 339.245C39.5539 321.869 30.3711 303.974 20.6501 285.028C14.7486 273.528 8.64705 261.637 1.58989 249.871C-30.1081 197.361 -82.897 147.049 -139.616 115.288L-139.395 114.893C-125.012 122.947 -110.75 132.24 -97.0072 142.513C-91.3217 146.763 -85.7152 151.188 -80.2179 155.763L-80.2188 155.766Z" fill="url(#paint35_linear_345_1873)" fill-opacity="0.05"/>
<path d="M-74.528 153.761C-66.3401 160.575 -58.4173 167.762 -50.8519 175.243C-27.0463 198.785 -6.90803 225.178 7.38621 251.571C14.135 264.108 19.7623 276.805 25.206 289.086C33.7467 308.356 41.8134 326.558 53.872 344.307C70.1394 368.25 93.4661 390.162 123.207 409.431C137.578 418.691 153.763 427.539 174.142 437.275C183.379 441.699 193.012 446.116 201.511 450.013C227.463 461.922 256.877 475.422 281.532 491.007C291.723 497.449 301.668 504.517 311.09 512.015C324.317 522.538 336.875 534.103 349.483 547.372L350.7 548.652C368.337 567.206 386.575 586.394 400.368 612.024C402.017 615.088 403.661 618.166 405.4 621.424C420.04 648.849 436.633 679.932 458.716 706.175C489.051 742.393 520.665 767.399 532.849 776.469L532.6 776.803C521.076 768.225 508.769 757.91 497.01 746.976C483.013 733.961 470.021 720.323 458.397 706.443C436.287 680.168 419.682 649.064 405.033 621.622C403.294 618.364 401.651 615.287 400.003 612.223C386.237 586.642 368.017 567.476 350.398 548.94L349.181 547.66C336.586 534.406 324.041 522.853 310.83 512.343C301.42 504.855 291.486 497.796 281.309 491.361C256.677 475.789 227.277 462.298 201.337 450.394C192.836 446.497 183.2 442.079 173.962 437.654C153.568 427.911 137.367 419.055 122.981 409.783C108.668 400.51 95.6322 390.443 84.2338 379.859C72.1651 368.652 61.8349 356.77 53.5293 344.545C41.4493 326.765 33.3763 308.547 24.8281 289.259C19.3881 276.986 13.7644 264.294 7.02412 251.773C-12.1879 216.303 -41.0413 182.192 -74.8072 154.094C-92.6756 139.225 -111.914 126.044 -131.837 115.225L-131.638 114.86C-117.149 122.729 -102.842 131.937 -89.12 142.229C-84.1766 145.938 -79.3054 149.787 -74.5267 153.764L-74.528 153.761Z" fill="url(#paint36_linear_345_1873)" fill-opacity="0.05"/>
<path d="M-68.4273 152.075C-59.6625 159.369 -51.237 167.132 -43.2551 175.272C-19.7223 199.272 -0.340309 226.324 12.7963 253.499C19.1594 266.741 24.2436 280.19 29.1605 293.197C36.5952 312.863 43.6165 331.44 54.7405 349.638C69.9329 374.491 92.5444 397.323 121.948 417.5C136.263 427.275 152.746 436.744 172.337 446.448C181.9 451.196 191.473 455.685 199.573 459.45C202.817 460.958 206.071 462.465 209.33 463.973C233.333 475.086 258.154 486.575 280.158 499.478C290.577 505.588 300.606 512.081 310.818 519.328C325.274 529.673 338.749 540.604 352.015 552.745L353.019 553.663C372.439 571.434 392.522 589.809 407.919 615.01C411.615 621.059 415.341 627.365 419.287 634.043C432.586 656.545 447.66 682.051 465.637 704.013C489.523 733.331 515.451 758.578 532.876 775.018L532.616 775.293C515.183 758.845 489.244 733.587 465.344 704.252C447.348 682.266 432.268 656.749 418.961 634.235C415.016 627.561 411.29 621.255 407.596 615.208C392.227 590.053 372.165 571.696 352.763 553.942L351.76 553.024C338.505 540.893 325.041 529.973 310.598 519.638C300.396 512.398 290.376 505.91 279.966 499.805C257.979 486.912 233.167 475.425 209.172 464.316C205.914 462.807 202.659 461.301 199.415 459.793C191.311 456.027 181.736 451.538 172.169 446.788C152.561 437.076 136.064 427.599 121.735 417.813C107.608 408.118 94.8412 397.616 83.793 386.599C72.0661 374.906 62.1836 362.537 54.4189 349.836C43.2768 331.608 36.2494 313.017 28.8082 293.332C23.895 280.333 18.8145 266.892 12.4578 253.666C-14.6078 197.677 -65.6406 145.896 -124.058 115.153L-123.882 114.819C-109.285 122.5 -94.9357 131.624 -81.2346 141.934C-76.8961 145.199 -72.6209 148.585 -68.4251 152.075L-68.4273 152.075Z" fill="url(#paint37_linear_345_1873)" fill-opacity="0.05"/>
<path d="M-61.9387 150.709C-52.7361 158.368 -43.9318 166.596 -35.6595 175.299C-12.406 199.759 6.21956 227.466 18.203 255.426C24.1297 269.33 28.6202 283.491 32.962 297.185C39.0578 316.408 45.3614 336.284 55.6044 354.967C69.7294 380.729 91.6271 404.483 120.686 425.569C135.068 435.96 151.372 445.792 170.529 455.622C178.433 459.685 187.045 463.901 197.634 468.886C204.758 472.243 212.058 475.613 219.118 478.872C239.156 488.125 259.877 497.693 278.781 507.95C289.402 513.713 300.088 520.004 310.543 526.644C325.956 536.508 340.761 547.097 354.546 558.121C375.996 575.273 398.174 593.008 415.467 617.997C421.52 626.743 427.616 636.209 434.072 646.229C446.076 664.86 458.486 684.127 472.556 701.848C486.332 719.28 500.367 735.545 512.75 749.895C520.116 758.432 527.075 766.497 532.895 773.565L532.632 773.783C526.813 766.718 519.856 758.655 512.491 750.119C500.107 735.767 486.069 719.5 472.289 702.061C458.21 684.326 445.794 665.053 433.786 646.413C427.333 636.395 421.237 626.932 415.187 618.191C397.922 593.244 375.763 575.524 354.333 558.388C340.557 547.373 325.761 536.789 310.36 526.932C299.913 520.297 289.233 514.011 278.618 508.25C259.724 497.997 239.009 488.432 218.975 479.182C211.914 475.922 204.614 472.551 197.489 469.193C186.896 464.206 178.28 459.99 170.374 455.925C151.202 446.085 134.883 436.247 120.487 425.845C106.545 415.728 94.0504 404.794 83.349 393.343C71.9662 381.163 62.5313 368.306 55.3065 355.13C45.0466 336.42 38.7387 316.526 32.6367 297.288C28.2964 283.602 23.8085 269.449 17.8893 255.561C1.20434 216.63 -27.0315 180.074 -61.811 151.132C-78.6278 137.139 -96.9671 124.929 -116.282 115.083L-116.127 114.778C-97.2512 124.4 -78.9144 136.583 -61.9387 150.709Z" fill="url(#paint38_linear_345_1873)" fill-opacity="0.05"/>
<path d="M-55.3271 149.416C-45.7192 157.41 -36.582 166.085 -28.0637 175.326C-5.09401 200.245 12.7752 228.608 23.6098 257.351C29.0698 271.908 32.9439 286.767 36.6902 301.137C41.8137 320.786 47.1108 341.105 56.4695 360.293C69.6277 387.032 90.8102 411.708 119.424 433.635C133.616 444.471 150.202 454.955 168.721 464.792C176.778 469.08 185.602 473.505 195.695 478.318C207.189 483.804 219.014 489.184 230.449 494.389C246.082 501.503 262.247 508.859 277.405 516.42C288.837 522.171 299.895 528.072 310.27 533.957C327.223 543.637 342.535 553.299 357.077 563.494C378.818 578.735 403.457 596.01 423.012 620.981C432.136 632.63 441.209 645.754 450.814 659.649C460.014 672.959 469.528 686.721 479.473 699.681C483.692 705.205 487.923 710.688 492.014 715.992C507.857 736.531 522.823 755.932 532.909 772.111L532.651 772.272C522.574 756.106 507.613 736.712 491.773 716.178C487.682 710.874 483.452 705.391 479.232 699.867C469.284 686.902 459.767 673.137 450.565 659.823C440.962 645.933 431.892 632.811 422.774 621.168C403.247 596.233 378.625 578.972 356.902 563.744C342.368 553.554 327.065 543.897 310.12 534.222C299.749 528.339 288.696 522.441 277.269 516.692C262.116 509.134 245.955 501.778 230.324 494.666C218.887 489.462 207.061 484.079 195.564 478.592C185.468 473.776 176.641 469.351 168.579 465.061C150.047 455.216 133.446 444.723 119.24 433.876C105.514 423.358 93.2969 411.986 82.9279 400.078C71.912 387.426 62.9194 374.085 56.1976 360.427C46.8254 341.212 41.5231 320.878 36.3965 301.214C32.6518 286.852 28.7792 272 23.3255 257.458C1.21818 198.812 -49.2971 144.23 -108.504 115.01L-108.369 114.737C-89.8017 123.9 -71.8675 135.65 -55.3271 149.416Z" fill="url(#paint39_linear_345_1873)" fill-opacity="0.05"/>
<path d="M-48.5285 148.266C-38.5762 156.548 -29.1684 165.617 -20.467 175.353C2.21445 200.729 19.3262 229.749 29.0165 259.274C33.9669 274.422 37.1788 289.926 40.285 304.92C44.4575 325.062 48.7734 345.889 57.3345 365.619C69.4156 393.25 89.8809 418.847 118.165 441.702C132.325 453.114 148.727 463.969 166.918 473.966C175.126 478.484 183.907 482.993 193.761 487.755C210.174 495.689 227.154 503.166 243.576 510.398C254.306 515.122 265.399 520.008 276.038 524.894C288.375 530.602 299.486 535.96 310.006 541.276C328.146 550.491 344.375 559.519 359.619 568.876C371.672 576.325 384.469 584.362 396.78 593.5C410.11 603.395 421.163 613.364 430.57 623.973C444.524 639.712 458.582 659.167 472.177 677.981C476.833 684.424 481.649 691.087 486.4 697.52C504.547 722.183 522.743 748.114 532.928 770.656L532.684 770.766C522.51 748.246 504.324 722.329 486.186 697.676C481.433 691.243 476.618 684.579 471.961 678.134C458.37 659.326 444.315 639.879 430.37 624.148C409.999 601.169 386.213 585.623 359.48 569.101C344.242 559.748 328.021 550.724 309.886 541.511C299.369 536.197 288.261 530.84 275.926 525.133C265.29 520.248 254.198 515.363 243.47 510.639C227.046 503.408 210.063 495.929 193.645 487.992C183.788 483.23 175.004 478.717 166.791 474.198C148.587 464.193 132.172 453.328 117.999 441.907C104.456 430.961 92.507 419.159 82.4897 406.825C71.8166 393.683 63.2717 379.855 57.0919 365.723C48.5185 345.97 44.2007 325.126 40.0242 304.972C36.9195 289.986 33.7092 274.49 28.7628 259.356C8.93507 198.945 -40.6835 143.607 -100.727 114.939L-100.613 114.698C-82.2949 123.445 -64.6968 134.813 -48.5297 148.265L-48.5285 148.266Z" fill="url(#paint40_linear_345_1873)" fill-opacity="0.05"/>
<path d="M-41.5839 147.231C-31.3357 155.758 -21.7077 165.185 -12.8723 175.379C9.51752 201.213 25.8718 230.889 34.4219 261.196C38.8405 276.909 41.3691 293.032 43.8151 308.623C47.0566 329.286 50.4072 350.65 58.1994 370.942C69.2099 399.462 88.9602 425.983 116.903 449.768C130.994 461.74 147.215 472.968 165.11 483.137C173.408 487.857 182.146 492.454 191.821 497.189C213.644 507.875 236.412 517.377 258.43 526.568C263.765 528.795 269.283 531.097 274.664 533.367C288.593 539.272 299.738 544.11 309.735 548.594C329.6 557.537 346.746 565.931 362.154 574.257C386.631 587.546 414.704 603.674 438.117 626.964C458.385 647.127 477.394 672.851 493.316 695.354C513.656 724.192 526.614 748.345 532.932 769.196L532.712 769.263C526.403 748.436 513.455 724.303 493.13 695.486C477.214 672.991 458.212 647.277 437.957 627.126C414.567 603.859 386.508 587.74 362.046 574.458C346.642 566.135 329.501 557.744 309.641 548.803C299.645 544.32 288.503 539.482 274.574 533.578C269.194 531.31 263.677 529.007 258.342 526.78C236.321 517.588 213.549 508.083 191.72 497.395C182.041 492.657 173.298 488.058 164.996 483.336C147.088 473.16 130.857 461.925 116.753 449.941C103.392 438.568 91.7151 426.333 82.0472 413.574C71.7181 399.943 63.6219 385.626 57.9831 371.022C50.1842 350.707 46.8308 329.329 43.5864 308.656C41.1408 293.071 38.6137 276.956 34.198 261.256C16.6526 199.067 -32.0692 142.973 -92.9513 114.866L-92.8552 114.657C-74.7401 123.02 -57.4253 134.047 -41.5852 147.228L-41.5839 147.231Z" fill="url(#paint41_linear_345_1873)" fill-opacity="0.05"/>
<path d="M-34.5169 146.29C-24.0141 155.03 -14.2016 164.785 -5.27804 175.405C16.8159 201.699 32.4126 232.029 39.826 263.117C43.695 279.372 45.5258 296.091 47.2973 312.259C49.62 333.463 52.0219 355.387 59.0606 376.263C69.0059 405.67 88.0422 433.114 115.639 457.832C129.636 470.357 145.673 481.956 163.301 492.308C171.654 497.213 180.348 501.896 189.882 506.623C217.566 520.35 247.172 531.767 273.292 541.84C275.442 542.672 277.588 543.5 279.73 544.327C289.524 548.11 299.649 552.022 309.469 555.912C331.517 564.665 349.065 572.205 364.694 579.638C390.195 591.797 419.757 607.285 445.67 629.956C464.743 646.641 483.611 668.507 500.236 693.188C517.937 719.516 528.938 744.596 532.936 767.731L532.747 767.764C528.755 744.655 517.763 719.6 500.078 693.296C483.463 668.629 464.605 646.778 445.546 630.102C419.651 607.447 390.102 591.966 364.614 579.813C348.99 572.382 331.445 564.845 309.4 556.093C299.58 552.203 289.455 548.291 279.662 544.509C277.52 543.682 275.374 542.854 273.225 542.023C247.1 531.949 217.489 520.53 189.797 506.798C180.259 502.07 171.56 497.385 163.204 492.476C145.563 482.118 129.516 470.511 115.509 457.977C102.333 446.175 90.9262 433.509 81.6079 420.327C71.6238 406.206 63.9764 391.402 58.8775 376.326C51.8323 355.43 49.4299 333.495 47.1056 312.282C45.3355 296.119 43.5038 279.406 39.6376 263.163C29.0444 218.747 1.57168 176.695 -35.0115 146.253C-50.3275 133.509 -67.2324 122.801 -85.1723 114.799L-85.0932 114.623C-67.1398 122.63 -50.0691 133.348 -34.5158 146.291L-34.5169 146.29Z" fill="url(#paint42_linear_345_1873)" fill-opacity="0.05"/>
<path d="M-27.3519 145.424C-16.6244 154.351 -6.66764 164.404 2.31552 175.431C24.1091 202.183 38.9483 233.168 45.2281 265.036C48.5345 281.813 49.6588 299.109 50.745 315.837C52.1587 337.6 53.6206 360.105 59.9211 381.584C73.3382 427.322 109.411 469.901 161.493 501.48C202.789 526.519 249.125 542.498 293.934 557.952C298.943 559.68 304.123 561.466 309.205 563.233C358.361 580.332 409.971 599.8 453.225 632.952C455.818 634.94 458.372 636.98 460.875 639.063C479.717 654.743 495.884 672.999 507.967 692.31C515.25 703.948 521.052 715.96 525.216 728.015C529.608 740.733 532.206 753.601 532.937 766.263L532.782 766.272C530.049 718.999 500.273 669.207 453.13 633.076C409.894 599.938 358.296 580.476 309.153 563.381C304.071 561.614 298.892 559.827 293.884 558.099C249.066 542.643 202.721 526.661 161.412 501.614C149.66 494.489 138.499 486.631 128.244 478.258C117.453 469.45 107.6 460.021 98.9516 450.227C80.0159 428.78 66.833 405.701 59.7713 381.63C53.4655 360.134 52.0032 337.622 50.5891 315.849C49.5032 299.126 48.3802 281.836 45.0754 265.068C32.3072 200.281 -15.7652 141.269 -77.3985 114.729L-77.3365 114.586C-59.516 122.259 -42.6517 132.694 -27.3518 145.426L-27.3519 145.424Z" fill="url(#paint43_linear_345_1873)" fill-opacity="0.05"/>
<defs>
<linearGradient id="paint0_linear_345_1873" x1="256.879" y1="669.943" x2="185.147" y2="-559.908" gradientUnits="userSpaceOnUse">
<stop stop-color="#5B40D8"/>
<stop offset="1" stop-color="#BBADFF"/>
</linearGradient>
<linearGradient id="paint1_linear_345_1873" x1="256.879" y1="669.943" x2="185.147" y2="-559.908" gradientUnits="userSpaceOnUse">
<stop stop-color="#5B40D8"/>
<stop offset="1" stop-color="#BBADFF"/>
</linearGradient>
<linearGradient id="paint2_linear_345_1873" x1="256.879" y1="669.943" x2="185.147" y2="-559.908" gradientUnits="userSpaceOnUse">
<stop stop-color="#5B40D8"/>
<stop offset="1" stop-color="#BBADFF"/>
</linearGradient>
<linearGradient id="paint3_linear_345_1873" x1="256.879" y1="669.943" x2="185.147" y2="-559.908" gradientUnits="userSpaceOnUse">
<stop stop-color="#5B40D8"/>
<stop offset="1" stop-color="#BBADFF"/>
</linearGradient>
<linearGradient id="paint4_linear_345_1873" x1="256.879" y1="669.943" x2="185.147" y2="-559.908" gradientUnits="userSpaceOnUse">
<stop stop-color="#5B40D8"/>
<stop offset="1" stop-color="#BBADFF"/>
</linearGradient>
<linearGradient id="paint5_linear_345_1873" x1="256.879" y1="669.943" x2="185.147" y2="-559.908" gradientUnits="userSpaceOnUse">
<stop stop-color="#5B40D8"/>
<stop offset="1" stop-color="#BBADFF"/>
</linearGradient>
<linearGradient id="paint6_linear_345_1873" x1="256.879" y1="669.943" x2="185.147" y2="-559.908" gradientUnits="userSpaceOnUse">
<stop stop-color="#5B40D8"/>
<stop offset="1" stop-color="#BBADFF"/>
</linearGradient>
<linearGradient id="paint7_linear_345_1873" x1="256.879" y1="669.943" x2="185.147" y2="-559.908" gradientUnits="userSpaceOnUse">
<stop stop-color="#5B40D8"/>
<stop offset="1" stop-color="#BBADFF"/>
</linearGradient>
<linearGradient id="paint8_linear_345_1873" x1="256.879" y1="669.943" x2="185.147" y2="-559.908" gradientUnits="userSpaceOnUse">
<stop stop-color="#5B40D8"/>
<stop offset="1" stop-color="#BBADFF"/>
</linearGradient>
<linearGradient id="paint9_linear_345_1873" x1="256.879" y1="669.943" x2="185.147" y2="-559.908" gradientUnits="userSpaceOnUse">
<stop stop-color="#5B40D8"/>
<stop offset="1" stop-color="#BBADFF"/>
</linearGradient>
<linearGradient id="paint10_linear_345_1873" x1="256.879" y1="669.943" x2="185.147" y2="-559.908" gradientUnits="userSpaceOnUse">
<stop stop-color="#5B40D8"/>
<stop offset="1" stop-color="#BBADFF"/>
</linearGradient>
<linearGradient id="paint11_linear_345_1873" x1="256.879" y1="669.943" x2="185.147" y2="-559.908" gradientUnits="userSpaceOnUse">
<stop stop-color="#5B40D8"/>
<stop offset="1" stop-color="#BBADFF"/>
</linearGradient>
<linearGradient id="paint12_linear_345_1873" x1="256.879" y1="669.943" x2="185.147" y2="-559.908" gradientUnits="userSpaceOnUse">
<stop stop-color="#5B40D8"/>
<stop offset="1" stop-color="#BBADFF"/>
</linearGradient>
<linearGradient id="paint13_linear_345_1873" x1="256.879" y1="669.943" x2="185.147" y2="-559.908" gradientUnits="userSpaceOnUse">
<stop stop-color="#5B40D8"/>
<stop offset="1" stop-color="#BBADFF"/>
</linearGradient>
<linearGradient id="paint14_linear_345_1873" x1="256.879" y1="669.943" x2="185.147" y2="-559.908" gradientUnits="userSpaceOnUse">
<stop stop-color="#5B40D8"/>
<stop offset="1" stop-color="#BBADFF"/>
</linearGradient>
<linearGradient id="paint15_linear_345_1873" x1="256.879" y1="669.943" x2="185.147" y2="-559.908" gradientUnits="userSpaceOnUse">
<stop stop-color="#5B40D8"/>
<stop offset="1" stop-color="#BBADFF"/>
</linearGradient>
<linearGradient id="paint16_linear_345_1873" x1="256.879" y1="669.943" x2="185.147" y2="-559.908" gradientUnits="userSpaceOnUse">
<stop stop-color="#5B40D8"/>
<stop offset="1" stop-color="#BBADFF"/>
</linearGradient>
<linearGradient id="paint17_linear_345_1873" x1="256.879" y1="669.943" x2="185.147" y2="-559.908" gradientUnits="userSpaceOnUse">
<stop stop-color="#5B40D8"/>
<stop offset="1" stop-color="#BBADFF"/>
</linearGradient>
<linearGradient id="paint18_linear_345_1873" x1="256.879" y1="669.943" x2="185.147" y2="-559.908" gradientUnits="userSpaceOnUse">
<stop stop-color="#5B40D8"/>
<stop offset="1" stop-color="#BBADFF"/>
</linearGradient>
<linearGradient id="paint19_linear_345_1873" x1="256.879" y1="669.943" x2="185.147" y2="-559.908" gradientUnits="userSpaceOnUse">
<stop stop-color="#5B40D8"/>
<stop offset="1" stop-color="#BBADFF"/>
</linearGradient>
<linearGradient id="paint20_linear_345_1873" x1="256.879" y1="669.943" x2="185.147" y2="-559.908" gradientUnits="userSpaceOnUse">
<stop stop-color="#5B40D8"/>
<stop offset="1" stop-color="#BBADFF"/>
</linearGradient>
<linearGradient id="paint21_linear_345_1873" x1="256.879" y1="669.943" x2="185.147" y2="-559.908" gradientUnits="userSpaceOnUse">
<stop stop-color="#5B40D8"/>
<stop offset="1" stop-color="#BBADFF"/>
</linearGradient>
<linearGradient id="paint22_linear_345_1873" x1="256.879" y1="669.943" x2="185.147" y2="-559.908" gradientUnits="userSpaceOnUse">
<stop stop-color="#5B40D8"/>
<stop offset="1" stop-color="#BBADFF"/>
</linearGradient>
<linearGradient id="paint23_linear_345_1873" x1="256.879" y1="669.943" x2="185.147" y2="-559.908" gradientUnits="userSpaceOnUse">
<stop stop-color="#5B40D8"/>
<stop offset="1" stop-color="#BBADFF"/>
</linearGradient>
<linearGradient id="paint24_linear_345_1873" x1="256.879" y1="669.943" x2="185.147" y2="-559.908" gradientUnits="userSpaceOnUse">
<stop stop-color="#5B40D8"/>
<stop offset="1" stop-color="#BBADFF"/>
</linearGradient>
<linearGradient id="paint25_linear_345_1873" x1="256.879" y1="669.943" x2="185.147" y2="-559.908" gradientUnits="userSpaceOnUse">
<stop stop-color="#5B40D8"/>
<stop offset="1" stop-color="#BBADFF"/>
</linearGradient>
<linearGradient id="paint26_linear_345_1873" x1="256.879" y1="669.943" x2="185.147" y2="-559.908" gradientUnits="userSpaceOnUse">
<stop stop-color="#5B40D8"/>
<stop offset="1" stop-color="#BBADFF"/>
</linearGradient>
<linearGradient id="paint27_linear_345_1873" x1="256.879" y1="669.943" x2="185.147" y2="-559.908" gradientUnits="userSpaceOnUse">
<stop stop-color="#5B40D8"/>
<stop offset="1" stop-color="#BBADFF"/>
</linearGradient>
<linearGradient id="paint28_linear_345_1873" x1="256.879" y1="669.943" x2="185.147" y2="-559.908" gradientUnits="userSpaceOnUse">
<stop stop-color="#5B40D8"/>
<stop offset="1" stop-color="#BBADFF"/>
</linearGradient>
<linearGradient id="paint29_linear_345_1873" x1="256.879" y1="669.943" x2="185.147" y2="-559.908" gradientUnits="userSpaceOnUse">
<stop stop-color="#5B40D8"/>
<stop offset="1" stop-color="#BBADFF"/>
</linearGradient>
<linearGradient id="paint30_linear_345_1873" x1="256.879" y1="669.943" x2="185.147" y2="-559.908" gradientUnits="userSpaceOnUse">
<stop stop-color="#5B40D8"/>
<stop offset="1" stop-color="#BBADFF"/>
</linearGradient>
<linearGradient id="paint31_linear_345_1873" x1="256.879" y1="669.943" x2="185.147" y2="-559.908" gradientUnits="userSpaceOnUse">
<stop stop-color="#5B40D8"/>
<stop offset="1" stop-color="#BBADFF"/>
</linearGradient>
<linearGradient id="paint32_linear_345_1873" x1="256.879" y1="669.943" x2="185.147" y2="-559.908" gradientUnits="userSpaceOnUse">
<stop stop-color="#5B40D8"/>
<stop offset="1" stop-color="#BBADFF"/>
</linearGradient>
<linearGradient id="paint33_linear_345_1873" x1="256.879" y1="669.943" x2="185.147" y2="-559.908" gradientUnits="userSpaceOnUse">
<stop stop-color="#5B40D8"/>
<stop offset="1" stop-color="#BBADFF"/>
</linearGradient>
<linearGradient id="paint34_linear_345_1873" x1="256.879" y1="669.943" x2="185.147" y2="-559.908" gradientUnits="userSpaceOnUse">
<stop stop-color="#5B40D8"/>
<stop offset="1" stop-color="#BBADFF"/>
</linearGradient>
<linearGradient id="paint35_linear_345_1873" x1="256.879" y1="669.943" x2="185.147" y2="-559.908" gradientUnits="userSpaceOnUse">
<stop stop-color="#5B40D8"/>
<stop offset="1" stop-color="#BBADFF"/>
</linearGradient>
<linearGradient id="paint36_linear_345_1873" x1="256.879" y1="669.943" x2="185.147" y2="-559.908" gradientUnits="userSpaceOnUse">
<stop stop-color="#5B40D8"/>
<stop offset="1" stop-color="#BBADFF"/>
</linearGradient>
<linearGradient id="paint37_linear_345_1873" x1="256.879" y1="669.943" x2="185.147" y2="-559.908" gradientUnits="userSpaceOnUse">
<stop stop-color="#5B40D8"/>
<stop offset="1" stop-color="#BBADFF"/>
</linearGradient>
<linearGradient id="paint38_linear_345_1873" x1="256.879" y1="669.943" x2="185.147" y2="-559.908" gradientUnits="userSpaceOnUse">
<stop stop-color="#5B40D8"/>
<stop offset="1" stop-color="#BBADFF"/>
</linearGradient>
<linearGradient id="paint39_linear_345_1873" x1="256.879" y1="669.943" x2="185.147" y2="-559.908" gradientUnits="userSpaceOnUse">
<stop stop-color="#5B40D8"/>
<stop offset="1" stop-color="#BBADFF"/>
</linearGradient>
<linearGradient id="paint40_linear_345_1873" x1="256.879" y1="669.943" x2="185.147" y2="-559.908" gradientUnits="userSpaceOnUse">
<stop stop-color="#5B40D8"/>
<stop offset="1" stop-color="#BBADFF"/>
</linearGradient>
<linearGradient id="paint41_linear_345_1873" x1="256.879" y1="669.943" x2="185.147" y2="-559.908" gradientUnits="userSpaceOnUse">
<stop stop-color="#5B40D8"/>
<stop offset="1" stop-color="#BBADFF"/>
</linearGradient>
<linearGradient id="paint42_linear_345_1873" x1="256.879" y1="669.943" x2="185.147" y2="-559.908" gradientUnits="userSpaceOnUse">
<stop stop-color="#5B40D8"/>
<stop offset="1" stop-color="#BBADFF"/>
</linearGradient>
<linearGradient id="paint43_linear_345_1873" x1="256.879" y1="669.943" x2="185.147" y2="-559.908" gradientUnits="userSpaceOnUse">
<stop stop-color="#5B40D8"/>
<stop offset="1" stop-color="#BBADFF"/>
</linearGradient>
</defs>
</svg>
