<svg width="1920" height="674" viewBox="0 0 1920 674" fill="none" xmlns="http://www.w3.org/2000/svg">
<path d="M1033.9 469.121C1025.31 468.806 1016.9 468.118 1008.69 467.059C985.309 464.05 963.397 458.003 943.553 449.088C928.514 442.332 914.674 434.099 901.245 423.922C889.275 414.853 877.905 404.431 866.486 392.061C845.271 369.081 827.071 342.635 809.471 317.06C793.6 293.996 777.187 270.145 758.525 248.747C671.613 149.078 514.285 91.4315 367.039 105.303C219.798 119.174 85.0639 204.331 31.7739 317.203L31.4952 317.069C44.6915 289.119 62.9348 262.51 85.7141 237.981C108.007 213.979 134.285 192.345 163.821 173.675C193.356 155.007 225.594 139.656 259.644 128.045C294.437 116.183 330.558 108.427 367.011 104.993C403.463 101.559 440.944 102.38 478.408 107.436C515.075 112.384 551.149 121.298 585.636 133.934C620.122 146.57 652.37 162.692 681.487 181.849C711.242 201.427 737.239 223.865 758.758 248.543C777.431 269.957 793.848 293.813 809.725 316.887C844.862 367.944 881.191 420.736 943.68 448.807C1015.72 481.172 1115.39 474.147 1210.28 430.018C1268.77 402.818 1320.57 366.124 1370.67 330.634C1410.13 302.675 1450.95 273.765 1494.87 249.586C1520.55 235.455 1547.73 223.472 1575.66 213.973C1605.29 203.898 1634.95 196.915 1663.82 193.222C1694.9 189.243 1724.73 189.138 1752.48 192.909C1782.52 196.99 1810.21 205.641 1834.78 218.617C1860.79 232.355 1882.9 250.837 1904.28 268.709C1913.58 276.48 1923.19 284.518 1933 292.064C2051.14 382.902 2227.24 418.983 2381.65 383.989L2381.72 384.29C2336.29 394.585 2288.47 398.848 2240.21 397.071C2208.04 395.885 2175.68 392.015 2143.68 385.457C2063.66 369.062 1990.74 336.852 1932.82 292.309C1923 284.76 1913.38 276.722 1904.08 268.947C1882.71 251.085 1860.62 232.615 1834.64 218.893C1728.03 162.575 1589.3 197.962 1495.02 249.855C1451.11 274.025 1410.31 302.932 1370.84 330.885C1320.74 366.381 1268.92 403.084 1210.41 430.297C1167.25 450.364 1121.34 463.285 1077.63 467.66C1062.69 469.155 1048.06 469.642 1033.9 469.118V469.121Z" fill="url(#paint0_linear_108_586)" fill-opacity="0.05"/>
<path d="M1015.48 467.741C1008.46 467.481 1001.57 466.976 994.811 466.224C971.732 463.651 950.054 458.158 930.381 449.9C915.026 443.513 900.842 435.633 887.024 425.811C874.7 417.052 862.941 406.933 851.073 394.873C829.015 372.459 809.834 346.438 791.284 321.278C775.765 300.229 759.717 278.463 741.873 258.575C734.427 250.287 726.373 242.078 717.936 234.177C633.9 155.528 518.635 108.48 402.937 104.214C388.88 103.697 374.835 103.808 360.818 104.573C292.728 108.384 225.904 127.764 167.57 160.622C103.456 196.938 52.7541 248.463 24.8102 305.704L24.4665 305.536C38.6505 276.484 58.3831 249.101 83.11 224.148C107.283 199.758 135.635 178.273 167.381 160.29C196.149 144.087 227.232 131.058 259.771 121.565C292.749 111.942 326.74 106.099 360.799 104.192C393.357 102.418 426.697 104.192 459.896 109.474C492.14 114.602 524.233 123.027 555.279 134.514C616.651 157.219 672.987 191.587 718.199 233.901C726.646 241.809 734.709 250.026 742.161 258.321C760.018 278.224 776.072 299.997 791.593 321.052C830.253 373.49 866.768 423.022 930.532 449.547C1001.47 479.324 1099.91 471.388 1193.89 428.316C1223.73 414.628 1254.55 397.44 1290.88 374.227C1310.68 361.573 1330.38 348.262 1349.42 335.394C1390.04 307.945 1432.03 279.562 1477.09 256.204C1502.66 243.001 1529.62 231.91 1557.21 223.238C1586.51 214.026 1615.81 207.793 1644.27 204.713C1674.92 201.396 1704.34 201.78 1731.72 205.858C1761.35 210.27 1788.7 219.036 1813.03 231.913C1838.68 245.49 1860.63 263.601 1881.87 281.116C1891.11 288.742 1900.67 296.629 1910.42 304.041C2027.86 393.322 2201.74 430.087 2353.39 397.703L2353.47 398.078C2310.3 407.296 2264.98 411.055 2219.21 409.37C2185.7 408.135 2151.95 403.979 2118.61 396.904C2039.96 380.216 1967.88 348.209 1910.18 304.344C1900.43 296.929 1890.87 289.04 1881.62 281.41C1860.4 263.907 1838.46 245.812 1812.84 232.251C1707.81 176.645 1570.63 208.338 1477.26 256.541C1432.22 279.887 1390.24 308.264 1349.63 335.707C1330.58 348.578 1310.89 361.889 1291.08 374.546C1254.74 397.768 1223.9 414.965 1194.04 428.663C1151.14 448.324 1105.77 461.205 1062.84 465.914C1046.61 467.695 1030.76 468.301 1015.48 467.738L1015.48 467.741Z" fill="url(#paint1_linear_108_586)" fill-opacity="0.05"/>
<path d="M996.79 466.325C968.028 465.266 941.397 460.049 917.209 450.708C901.474 444.63 886.884 437.05 872.607 427.532C859.866 419.039 847.655 409.171 835.273 397.371C812.246 375.431 791.937 349.741 772.294 324.897C757.392 306.047 741.982 286.556 725.215 268.399C717.704 260.284 709.601 252.165 701.133 244.27C603.591 153.413 477.278 102.225 354.585 103.835C287.006 104.916 220.547 121.809 162.387 152.685C97.9566 186.893 46.6173 237.148 17.8343 294.197L17.4256 293.993C31.9781 265.154 52.0637 238.173 77.1249 213.793C101.694 189.896 130.31 169.201 162.173 152.283C190.987 136.987 222.148 125.02 254.792 116.719C287.48 108.405 321.053 103.919 354.579 103.38C386.328 102.962 418.703 106.095 450.808 112.684C481.697 119.025 512.576 128.615 542.588 141.186C571.718 153.385 600.145 168.439 627.079 185.92C653.527 203.089 678.545 222.608 701.442 243.935C709.917 251.837 718.029 259.962 725.547 268.086C742.325 286.255 757.742 305.753 772.65 324.609C813.49 376.264 852.064 425.055 917.37 450.277C943.49 460.365 970.53 465 997.013 465.979C1072.96 468.781 1144.45 441.521 1177.48 426.603C1207 413.258 1236.72 397.13 1273.84 374.31C1291.96 363.167 1310.02 351.549 1327.47 340.313C1369.46 313.295 1412.87 285.357 1459.29 262.801C1484.76 250.53 1511.49 240.331 1538.73 232.482C1567.71 224.135 1596.64 218.651 1624.7 216.183C1654.92 213.527 1683.94 214.403 1710.95 218.791C1740.16 223.531 1767.18 232.414 1791.26 245.189C1816.55 258.609 1838.35 276.344 1859.44 293.501C1868.64 300.981 1878.14 308.719 1887.82 315.998C2004.6 403.747 2176.25 441.193 2325.11 411.401L2325.2 411.849C2284.35 420.024 2241.57 423.306 2198.35 421.711C2163.44 420.426 2128.26 415.961 2093.53 408.335C2016.25 391.358 1945.03 359.557 1887.54 316.367C1877.86 309.081 1868.35 301.343 1859.15 293.86C1838.08 276.719 1816.3 258.996 1791.04 245.598C1687.54 190.679 1551.91 218.688 1459.49 263.216C1413.09 285.76 1369.69 313.688 1327.72 340.7C1310.26 351.937 1292.2 363.557 1274.08 374.7C1236.94 397.529 1207.2 413.667 1177.67 427.018C1135.11 446.234 1090.3 459.046 1048.08 464.065C1030.33 466.177 1013.21 466.926 996.78 466.319L996.79 466.325Z" fill="url(#paint2_linear_108_586)" fill-opacity="0.05"/>
<path d="M977.939 465.01C951.376 464.031 926.659 459.526 904.044 451.516C887.822 445.773 872.734 438.49 857.909 429.251C844.67 421.003 831.925 411.355 818.949 399.759C794.804 378.187 774.183 353.804 752.351 327.987C738.39 311.481 723.955 294.411 708.567 278.227C700.993 270.288 692.844 262.26 684.341 254.37C582.582 160.033 463.258 106.303 348.362 103.105C282.779 101.275 214.897 116.066 157.219 144.756C92.4112 176.994 40.4371 225.981 10.8739 282.698L10.4032 282.453C40.0191 225.64 92.0737 176.567 156.984 144.282C185.984 129.86 217.228 118.948 249.851 111.852C282.371 104.78 315.523 101.659 348.38 102.575C408.943 104.266 470.02 119.472 529.924 147.769C584.323 173.465 636.399 209.199 684.704 253.983C693.215 261.882 701.374 269.917 708.954 277.865C724.355 294.061 738.793 311.137 752.757 327.65C796.049 378.84 836.941 427.192 904.224 451.021C974.314 475.841 1067.94 466.323 1161.1 424.904C1197.85 408.534 1231.56 389.318 1256.82 374.41C1273.12 364.786 1289.38 354.823 1305.11 345.184C1348.59 318.547 1393.54 291.002 1441.52 269.418C1466.81 258.039 1493.3 248.695 1520.24 241.648C1548.86 234.161 1577.42 229.43 1605.11 227.587C1634.89 225.609 1663.51 226.993 1690.18 231.709C1718.98 236.796 1745.66 245.806 1769.51 258.485C1794.44 271.743 1816.09 289.107 1837.03 305.902C1846.18 313.24 1855.63 320.826 1865.24 327.972C1952 392.387 2064.44 429.564 2176.86 433.71C2217.27 435.199 2257.65 432.425 2296.86 425.114L2296.96 425.635C2258.49 432.809 2218.29 435.629 2177.66 434.131C2141.32 432.79 2104.63 428 2068.48 419.776C1992.59 402.521 1922.2 370.92 1864.93 328.396C1855.31 321.244 1845.85 313.652 1836.7 306.313C1815.78 289.535 1794.15 272.183 1769.26 258.95C1666.82 204.468 1532.91 228.885 1441.74 269.898C1393.8 291.47 1348.85 319.005 1305.4 345.633C1289.67 355.272 1273.4 365.235 1257.1 374.862C1231.82 389.78 1198.1 409.001 1161.32 425.384C1119.04 444.181 1074.78 456.941 1033.32 462.276C1014.1 464.75 995.616 465.657 977.949 465.007L977.939 465.01Z" fill="url(#paint3_linear_108_586)" fill-opacity="0.05"/>
<path d="M958.767 463.772C934.502 462.877 911.803 459.056 890.878 452.328C820.94 429.83 777.31 381.491 731.117 330.316C718.534 316.373 705.52 301.957 691.912 288.058C684.304 280.317 676.105 272.382 667.541 264.467C557.899 163.3 451.455 110.279 342.126 102.371C277.466 97.6959 209.958 109.932 152.036 136.827C86.8564 167.093 34.2446 214.816 3.89796 271.199L3.3654 270.911C33.7739 214.413 86.4818 166.597 151.782 136.275C180.94 122.735 212.271 112.892 244.9 107.019C277.222 101.201 309.946 99.4329 342.169 101.764C372.24 103.938 402.689 109.728 432.679 118.973C460.756 127.628 489.211 139.554 517.251 154.417C543.263 168.207 569.668 184.921 595.726 204.096C619.595 221.661 643.895 241.821 667.95 264.015C676.52 271.936 684.725 279.878 692.342 287.625C705.96 301.533 718.976 315.955 731.563 329.901C777.7 381.017 821.277 429.298 891.058 451.743C960.052 473.937 1052.5 463.527 1144.7 423.186C1179.98 407.71 1212.56 389.885 1239.79 374.487C1253.92 366.49 1268.05 358.269 1281.72 350.321C1329.12 322.758 1373.89 296.721 1423.73 276.013C1476.19 254.213 1532.14 241.422 1585.54 239.028C1614.88 237.713 1643.09 239.595 1669.41 244.627C1697.78 250.048 1724.13 259.176 1747.73 271.759C1772.31 284.853 1793.8 301.849 1814.59 318.281C1823.69 325.473 1833.1 332.911 1842.64 339.927C1930.58 404.428 2044.31 441.875 2156.97 446.03C2194.64 447.42 2232.16 445.089 2268.59 438.809L2268.69 439.404C2232.65 445.618 2195.09 448.005 2157.1 446.606C2119.29 445.212 2081.04 440.066 2043.39 431.205C1968.9 413.674 1899.36 382.281 1842.28 340.416C1832.73 333.394 1823.32 325.953 1814.22 318.758C1793.45 302.341 1771.98 285.364 1747.45 272.295C1661.54 226.501 1540.62 228.099 1423.96 276.574C1374.16 297.266 1329.41 323.29 1282.02 350.844C1268.35 358.795 1254.22 367.016 1240.08 375.014C1212.84 390.418 1180.24 408.252 1144.93 423.737C1102.91 442.126 1059.2 454.83 1018.52 460.48C997.709 463.372 977.754 464.462 958.758 463.762L958.767 463.772Z" fill="url(#paint4_linear_108_586)" fill-opacity="0.05"/>
<path d="M939.233 462.622C917.373 461.817 896.814 458.653 877.713 453.135C804.564 432.009 757.745 383.237 708.177 331.604C697.544 320.528 686.552 309.078 675.26 297.882C667.659 290.38 659.41 282.534 650.744 274.561C566.931 197.587 463.983 116.849 335.887 101.634C272.224 94.0728 205.091 103.752 146.856 128.893C81.3111 157.19 28.0676 203.644 -3.07167 259.696L-3.66306 259.367C11.9515 231.259 33.1238 205.511 59.2718 182.837C84.974 160.547 114.351 142.189 146.59 128.271C204.933 103.083 272.19 93.3823 335.97 100.959C392.555 107.681 447.712 127.345 504.59 161.076C550.022 188.02 596.612 223.921 651.205 274.059C659.878 282.038 668.133 289.89 675.74 297.399C687.035 308.601 698.033 320.054 708.666 331.133C758.169 382.701 804.929 431.406 877.902 452.482C970.787 479.308 1074.66 444.574 1128.31 421.482C1161.96 406.951 1193.6 390.352 1222.77 374.583C1234.37 368.301 1246.02 361.885 1257.28 355.68C1306.97 328.303 1353.91 302.443 1405.96 282.627C1458.05 262.792 1513.39 251.679 1565.99 250.494C1594.88 249.84 1622.7 252.221 1648.66 257.565C1676.61 263.321 1702.62 272.567 1725.98 285.051C1750.2 297.984 1771.54 314.605 1792.17 330.678C1801.22 337.728 1810.58 345.017 1820.06 351.9C1936.84 436.49 2097.88 475.045 2240.33 452.522L2240.44 453.191C2204.56 458.863 2167.14 460.777 2129.22 458.879C2092.26 457.027 2054.94 451.569 2018.33 442.648C1945.25 424.851 1876.56 393.662 1819.67 352.448C1810.18 345.555 1800.81 338.264 1791.76 331.21C1771.15 315.156 1749.83 298.554 1725.66 285.649C1640.81 240.301 1521.38 239.409 1406.2 283.258C1354.2 303.056 1307.28 328.907 1257.61 356.272C1246.35 362.476 1234.7 368.892 1223.09 375.177C1193.91 390.956 1162.26 407.561 1128.58 422.104C1086.8 440.088 1043.64 452.742 1003.76 458.699C981.209 462.068 959.656 463.372 939.242 462.619L939.233 462.622Z" fill="url(#paint5_linear_108_586)" fill-opacity="0.05"/>
<path d="M919.296 461.582C899.963 460.87 881.68 458.325 864.554 453.947C787.259 434.193 736.57 384.287 682.905 331.449C675.013 323.677 666.851 315.643 658.612 307.713C651.029 300.455 642.96 292.913 633.95 284.658C536.64 195.705 446.576 120.478 329.651 100.897C267.063 90.4164 200.304 97.541 141.679 120.964C75.7782 147.292 21.8968 192.479 -10.0382 248.2L-10.6915 247.825C5.27907 219.961 26.8167 194.625 53.327 172.523C79.4132 150.775 109.045 133.191 141.397 120.268C200.149 96.7948 267.05 89.6547 329.772 100.157C358.539 104.975 386.279 113.221 414.573 125.367C440.107 136.328 465.41 150.19 491.933 167.746C542.891 201.477 590.283 243.725 634.455 284.104C643.471 292.362 651.54 299.907 659.129 307.171C667.371 315.104 675.536 323.142 683.428 330.913C737.019 383.677 787.64 433.518 864.737 453.219C955.95 476.531 1058.75 442.274 1111.91 419.776C1145.19 405.645 1176.51 389.746 1205.74 374.673C1214.37 370.214 1223.06 365.685 1231.47 361.3C1283.93 333.957 1333.47 308.128 1388.17 289.231C1439.89 271.369 1494.61 261.935 1546.43 261.953C1574.88 261.962 1602.28 264.839 1627.89 270.499C1655.41 276.583 1681.09 285.949 1704.21 298.337C1728.07 311.107 1749.25 327.353 1769.74 343.063C1778.74 349.968 1788.05 357.111 1797.47 363.864C1888.12 428.691 2004.68 466.818 2117.73 470.989C2149.68 472.169 2181.34 470.636 2212.07 466.227L2212.18 466.973C2176.74 472.057 2139.82 473.469 2102.45 471.168C2066.08 468.93 2029.34 463.183 1993.25 454.086C1921.61 436.032 1853.76 405.047 1797.03 364.477C1787.61 357.715 1778.29 350.569 1769.28 343.661C1748.82 327.969 1727.67 311.741 1703.86 299C1619.99 254.07 1502.07 250.683 1388.42 289.943C1333.77 308.821 1284.25 334.638 1231.82 361.969C1223.41 366.35 1214.72 370.883 1206.08 375.342C1176.84 390.421 1145.51 406.326 1112.21 420.47C1070.04 438.314 1028.58 450.578 988.963 456.922C964.514 460.839 941.23 462.391 919.296 461.582Z" fill="url(#paint6_linear_108_586)" fill-opacity="0.05"/>
<path d="M898.904 460.666C882.237 460.052 866.378 458.083 851.398 454.758C813.626 446.376 779.546 430.882 744.143 405.995C712.672 383.872 684.348 357.293 654.357 329.154C650.31 325.355 646.124 321.429 641.963 317.543C633.027 309.248 624.011 301.009 617.152 294.755C609.647 287.924 602.092 281.001 594.788 274.307C510.176 196.758 430.258 123.506 323.403 100.157C261.963 86.7315 195.582 91.3047 136.493 113.034C71.2018 137.043 15.252 182.115 -17.0111 236.7L-17.7233 236.278C-1.39662 208.657 20.5064 183.738 47.3821 162.209C73.8521 141.003 103.737 124.2 136.205 112.26C165.951 101.321 197.545 94.6951 230.109 92.5618C261.957 90.4749 293.403 92.7599 323.579 99.355C430.651 122.75 510.65 196.073 595.345 273.703C602.649 280.397 610.201 287.317 617.707 294.148C624.565 300.402 633.584 308.645 642.523 316.943C646.688 320.828 650.874 324.758 654.921 328.557C713.611 383.627 769.049 435.645 851.574 453.956C936.527 472.806 1031.12 444.847 1095.52 418.073C1128.48 404.316 1160.48 388.615 1188.71 374.766C1193.81 372.264 1198.88 369.765 1203.93 367.276C1259.75 339.768 1312.48 313.784 1370.4 295.845C1421.7 279.955 1475.81 272.201 1526.88 273.424C1554.88 274.093 1581.88 277.465 1607.13 283.444C1634.23 289.856 1659.57 299.34 1682.45 311.633C1705.95 324.237 1726.97 340.109 1747.3 355.454C1756.26 362.219 1765.52 369.214 1774.88 375.84C1867.99 441.555 1983.26 479.639 2095.99 483.798C2125.59 484.891 2155 483.643 2183.81 479.943L2183.91 480.763C2148.9 485.259 2112.49 486.169 2075.67 483.466C2039.9 480.841 2003.73 474.806 1968.17 465.533C1897.99 447.231 1830.98 416.451 1774.4 376.518C1765.03 369.883 1755.76 362.885 1746.79 356.117C1726.49 340.787 1705.5 324.937 1682.06 312.363C1599.1 267.814 1482.69 261.934 1370.64 296.637C1312.78 314.559 1260.08 340.527 1204.29 368.019C1199.24 370.508 1194.16 373.007 1189.07 375.512C1160.83 389.368 1128.81 405.075 1095.83 418.841C1053.84 436.298 1012.91 448.516 974.168 455.154C947.63 459.703 922.458 461.542 898.895 460.672L898.904 460.666Z" fill="url(#paint7_linear_108_586)" fill-opacity="0.05"/>
<path d="M878.005 459.894C864.155 459.384 850.884 457.941 838.242 455.566C816.952 451.569 796.891 445.441 776.917 436.833C758.912 429.074 741.31 419.432 723.107 407.351C690.28 385.562 660.646 359.362 625.318 327.371L624.24 326.399C616.456 319.395 608.406 312.15 600.361 304.849C582.871 289.005 565.857 272.867 549.406 257.262C477.455 189.008 409.492 124.54 317.161 99.4168C256.941 83.0313 190.941 85.0501 131.313 105.105C65.6843 127.175 9.08444 170.95 -23.9745 225.2L-24.7424 224.732C-8.05963 197.355 14.2119 172.848 41.4529 151.896C68.31 131.237 98.446 115.208 131.028 104.25C161.003 94.1687 192.687 88.6171 225.198 87.747C256.923 86.8986 287.944 90.5336 317.399 98.5468C339.699 104.616 361.029 113.006 382.607 124.199C401.94 134.228 421.118 146.341 441.235 161.231C478.746 188.992 513.369 221.837 550.029 256.612C566.476 272.214 583.487 288.348 600.971 304.186C609.012 311.487 617.063 318.729 624.847 325.733L625.927 326.705C686.258 381.336 748.642 437.824 838.419 454.683C921.55 470.295 1015.21 442.459 1079.14 416.361C1108.02 404.518 1135.98 391.492 1163.02 378.893C1165.92 377.543 1168.81 376.193 1171.7 374.849L1174.13 373.719C1234.11 345.769 1290.77 319.367 1352.64 302.443C1403.5 288.531 1457.01 282.456 1507.34 284.881C1534.89 286.206 1561.48 290.073 1586.39 296.371C1613.05 303.112 1638.05 312.713 1660.71 324.909C1683.83 337.35 1704.69 352.844 1724.86 367.827C1733.78 374.45 1743 381.299 1752.3 387.798C1869.46 469.381 2020.21 508.949 2155.56 493.641L2155.67 494.536C2121.1 498.446 2085.18 498.852 2048.91 495.743C2013.74 492.73 1978.15 486.411 1943.11 476.961C1874.4 458.424 1808.24 427.848 1751.79 388.538C1742.48 382.032 1733.25 375.177 1724.33 368.551C1704.18 353.587 1683.35 338.115 1660.28 325.705C1576.94 280.834 1464.9 272.672 1352.88 303.313C1291.08 320.215 1234.46 346.602 1174.5 374.536L1172.08 375.667C1169.19 377.01 1166.3 378.36 1163.4 379.71C1136.35 392.312 1108.38 405.347 1079.48 417.197C1037.62 434.285 997.22 446.457 959.393 453.377C930.542 458.656 903.31 460.83 878.011 459.898L878.005 459.894Z" fill="url(#paint8_linear_108_586)" fill-opacity="0.05"/>
<path d="M2056.59 510.364C2045.15 509.943 2033.65 509.165 2022.12 508.032C1987.56 504.635 1952.54 498.028 1918.03 488.399C1884.28 478.983 1850.98 466.663 1819.06 451.788C1787.42 437.047 1757.17 419.813 1729.15 400.567C1719.89 394.185 1710.7 387.479 1701.82 380.989C1681.84 366.39 1661.17 351.296 1638.47 339.056C1555.9 294.479 1445.32 283.887 1335.09 309.997C1273.93 324.482 1217.38 348.379 1155.07 375.827C1148.47 378.729 1141.74 381.71 1135.24 384.593C1111.91 394.931 1087.79 405.623 1063.1 415.559C1021.31 432.3 981.442 444.428 944.593 451.612C900.595 460.189 860.39 461.792 825.086 456.383C784.648 450.184 746.527 436.115 708.539 413.37C672.263 391.646 639.096 363.928 608.662 337.208C599.432 329.157 591.221 321.878 583.558 314.952C558.568 292.423 535.367 269.117 512.932 246.58C450.907 184.273 392.323 125.422 310.9 98.6798C252.826 79.6068 185.476 79.0587 126.117 97.1812C60.1574 117.319 2.9073 159.791 -30.9536 213.71L-31.7772 213.192C2.20755 159.079 59.6527 116.456 125.836 96.2493C156.058 87.0224 187.832 82.5482 220.278 82.9508C251.897 83.344 282.492 88.3228 311.206 97.754C348.461 109.991 382.898 129.234 419.579 158.314C452.146 184.131 482.009 214.131 513.625 245.892C536.052 268.421 559.243 291.717 584.214 314.23C591.874 321.153 600.083 328.43 609.31 336.474C671.746 391.284 735.238 441.626 825.238 455.417C890.383 465.4 970.292 451.686 1062.74 414.652C1087.41 404.722 1111.52 394.037 1134.84 383.701C1141.35 380.819 1148.08 377.834 1154.68 374.936C1217.03 347.469 1273.63 323.553 1334.87 309.05C1385.26 297.114 1438.14 292.723 1487.8 296.355C1514.88 298.337 1541.06 302.697 1565.63 309.313C1591.85 316.376 1616.52 326.095 1638.94 338.198C1661.7 350.472 1682.39 365.585 1702.4 380.202C1711.28 386.686 1720.46 393.389 1729.7 399.762C1846.53 479.995 1995.16 520.213 2127.3 507.345L2127.39 508.314C2104.28 510.565 2080.58 511.246 2056.59 510.364Z" fill="url(#paint9_linear_108_586)" fill-opacity="0.05"/>
<path d="M2036.99 523.408C2023.19 522.901 2009.28 521.87 1995.34 520.315C1961.39 516.535 1926.94 509.646 1892.95 499.83C1859.85 490.275 1827.06 477.918 1795.5 463.102C1764.39 448.503 1734.46 431.508 1706.52 412.59C1697.32 406.332 1688.17 399.768 1679.32 393.418C1659.5 379.187 1639 364.47 1616.67 352.401C1565.46 324.68 1503.6 309.199 1437.96 306.778C1398.61 305.325 1357.91 308.567 1317.3 316.676C1259.05 328.309 1205.53 347.995 1138.05 375.986C1127.6 380.314 1116.93 384.825 1106.6 389.188C1087.18 397.393 1067.09 405.877 1046.73 413.915C1004.92 430.338 965.582 442.425 929.802 449.844C886.429 458.836 846.775 461.306 811.939 457.185C770.898 452.33 732.312 439.964 693.983 419.383C662.244 402.338 630.798 380.026 592.017 347.032C583.019 339.428 574.758 332.235 566.761 325.043C535.919 297.362 508.826 268.08 482.622 239.762C428.583 181.357 377.541 126.194 304.639 97.9245C247.897 75.9224 180.937 72.758 120.922 89.2425C54.6367 107.449 -3.26363 148.623 -37.9326 202.204L-38.812 201.634C-30.13 188.218 -19.8504 175.384 -8.25172 163.494C3.14256 151.812 15.8683 140.972 29.5693 131.278C56.8165 111.997 88.3087 97.1133 120.643 88.2332C180.869 71.6898 248.07 74.8665 305.017 96.9492C378.142 125.302 429.264 180.555 483.39 239.05C509.576 267.35 536.649 296.613 567.457 324.262C575.446 331.449 583.697 338.635 592.689 346.233C652.224 396.885 720.005 445.255 812.054 456.145C875.438 463.644 954.262 449.107 1046.34 412.936C1066.69 404.902 1086.77 396.421 1106.18 388.219C1116.51 383.856 1127.19 379.345 1137.64 375.013C1163.95 364.099 1195.12 351.475 1226.8 340.586C1259.11 329.483 1288.64 321.324 1317.09 315.642C1366.98 305.678 1419.25 302.972 1468.24 307.818C1523.66 313.298 1573.77 327.987 1617.16 351.475C1639.55 363.579 1660.07 378.314 1679.92 392.563C1688.76 398.91 1697.91 405.471 1707.1 411.72C1825.4 491.823 1968.26 531.672 2099.03 521.043L2099.12 522.086C2078.78 523.74 2058 524.176 2036.97 523.399L2036.99 523.408Z" fill="url(#paint10_linear_108_586)" fill-opacity="0.05"/>
<path d="M2017.57 536.574C2001.35 535.976 1984.98 534.651 1968.56 532.601C1935.23 528.443 1901.35 521.266 1867.87 511.268C1835.43 501.577 1803.15 489.182 1771.94 474.425C1741.38 459.972 1711.75 443.218 1683.89 424.622C1674.73 418.488 1665.62 412.06 1656.81 405.846C1637.15 391.984 1616.83 377.651 1594.88 365.752C1513.5 321.584 1405.84 306.134 1299.51 323.361C1235.09 333.799 1175.66 354.903 1121.04 376.15C1106.59 381.763 1091.81 387.733 1077.52 393.504C1062.17 399.7 1046.31 406.109 1030.36 412.28C987.814 428.656 950.083 440.373 915.008 448.095C877.558 456.34 842.917 459.922 811.831 458.777C807.409 458.613 803.065 458.356 798.792 458.003C757.11 454.547 718.066 443.89 679.428 425.418C645.963 409.419 611.929 386.999 575.375 356.872C566.528 349.633 557.983 342.323 549.97 335.146C514.44 303.403 485.121 268.907 456.766 235.545C409.29 179.688 364.447 126.927 298.388 97.1846C243.036 72.2627 176.463 66.4819 115.739 81.3224C49.1317 97.6026 -9.41581 137.476 -44.896 190.717L-45.828 190.095C-36.9727 176.805 -26.5042 164.142 -14.7166 152.456C-3.13347 140.975 9.7718 130.386 23.6493 120.983C51.2836 102.253 83.0359 88.162 115.472 80.2325C176.435 65.3332 243.274 71.1357 298.849 96.1598C365.137 126.008 410.061 178.861 457.623 234.817C485.954 268.148 515.248 302.616 550.719 334.307C558.72 341.471 567.256 348.772 576.09 356.002C652.98 419.371 721.692 450.485 798.892 456.882C861.164 462.047 936.747 447.11 1029.97 411.234C1045.91 405.066 1061.77 398.66 1077.1 392.464C1091.4 386.689 1106.18 380.72 1120.64 375.103C1175.32 353.832 1234.81 332.709 1299.34 322.253C1348.7 314.255 1400.36 313.236 1448.73 319.302C1503.03 326.114 1552.39 341.41 1595.42 364.765C1617.43 376.698 1637.78 391.049 1657.46 404.926C1666.27 411.138 1675.38 417.559 1684.52 423.684C1802.65 502.515 1943.45 542.999 2070.79 534.75L2070.87 535.868C2053.39 537.001 2035.57 537.233 2017.58 536.568L2017.57 536.574Z" fill="url(#paint11_linear_108_586)" fill-opacity="0.05"/>
<path d="M1998.1 549.881C1947.32 548.008 1895.26 538.911 1842.8 522.702C1811.01 512.881 1779.24 500.446 1748.39 485.742C1718.38 471.443 1689.07 454.928 1661.27 436.651C1652.15 430.638 1643.07 424.349 1634.28 418.265C1614.8 404.774 1594.65 390.829 1573.08 379.1C1492.09 335.022 1385.89 317.141 1281.72 330.043C1228.99 336.573 1174.18 350.844 1104.03 376.314C1085.42 383.057 1066.39 390.429 1048 397.56C1036.91 401.861 1025.44 406.307 1013.99 410.642C945.776 436.347 866.817 461.95 794.575 459.288C791.581 459.176 788.605 459.018 785.636 458.811C742.728 455.786 703.244 446.587 664.922 430.69C628.472 415.571 593.735 394.64 558.729 366.703C549.855 359.668 541.256 352.447 533.172 345.242C493.828 310.248 463.515 271.062 434.2 233.163C392.224 178.898 352.579 127.642 292.121 96.435C238.206 68.6026 172.023 60.2056 110.54 73.3957C44.6047 87.5426 -16.1101 127.104 -51.8721 179.223L-52.8567 178.548C-34.9943 152.512 -10.5895 129.045 17.7167 110.684C45.738 92.5059 77.7504 79.2074 110.289 72.2284C141.326 65.5714 173.379 64.3422 205.552 68.581C236.484 72.6557 266.608 81.9197 292.669 95.373C353.359 126.704 393.084 178.059 435.144 232.433C464.426 270.288 494.704 309.434 533.965 344.351C542.031 351.543 550.613 358.748 559.469 365.771C630.643 422.569 702.532 451.754 785.717 457.622C860.114 462.867 942.645 436.254 1013.57 409.527C1025.01 405.192 1036.47 400.749 1047.57 396.449C1065.97 389.315 1085 381.939 1103.62 375.19C1137.15 363.018 1165.31 353.968 1192.26 346.707C1223.62 338.254 1252.84 332.418 1281.58 328.857C1330.35 322.816 1381.39 323.485 1429.19 330.786C1482.34 338.907 1530.95 354.81 1573.65 378.051C1595.28 389.807 1615.45 403.774 1634.97 417.28C1643.75 423.358 1652.83 429.644 1661.93 435.651C1781.73 514.41 1916.9 554.47 2042.54 548.457L2042.59 549.649C2027.89 550.352 2013.05 550.429 1998.1 549.878V549.881Z" fill="url(#paint12_linear_108_586)" fill-opacity="0.05"/>
<path d="M1979.11 563.313C1926.48 561.372 1872.35 551.597 1817.72 534.137C1786.6 524.192 1755.35 511.717 1724.83 497.062C1695.4 482.928 1666.4 466.651 1638.64 448.68C1629.56 442.781 1620.5 436.626 1611.73 430.672C1592.43 417.559 1572.46 404.001 1551.28 392.451C1470.51 348.364 1365.77 328.052 1263.92 336.725C1210.15 341.304 1153.93 353.934 1087.01 376.475C1064.09 384.181 1041.73 392.538 1018.06 401.384C1011.38 403.883 1004.47 406.465 997.617 409.004C969.837 419.243 927.984 434.075 885.42 444.605C843.128 455.067 806.195 459.978 772.505 459.619C751.082 459.393 729.872 457.386 709.465 453.659C689.41 449.996 669.51 444.559 650.317 437.496C631.498 430.57 612.771 421.866 594.658 411.623C576.944 401.607 559.252 389.801 542.08 376.537C533.154 369.688 524.503 362.554 516.372 355.339C473.885 317.717 443.504 274.22 414.127 232.157C376.851 178.784 341.643 128.37 285.851 95.6796C234.19 65.4074 166.71 54.1153 105.338 65.4693C39.0996 77.7244 -22.2809 115.954 -58.851 167.733L-59.8852 167.002C-41.6636 141.204 -16.881 118.171 11.7905 100.389C40.2019 82.7682 72.4713 70.2624 105.112 64.2215C136.004 58.5058 169.041 58.3634 200.651 63.8066C231.521 69.1229 261.205 79.7648 286.498 94.5867C342.528 127.416 377.814 177.941 415.17 231.433C444.507 273.437 474.841 316.871 517.217 354.392C525.326 361.588 533.952 368.7 542.857 375.533C613.858 430.375 688.98 457.461 772.52 458.353C847.518 459.151 928.173 433.254 997.18 407.815C1004.03 405.279 1010.94 402.694 1017.62 400.198C1041.3 391.346 1063.67 382.986 1086.61 375.273C1153.63 352.701 1209.94 340.05 1263.82 335.461C1287.51 333.446 1311.72 332.966 1335.79 334.034C1360.7 335.139 1385.56 337.914 1409.66 342.276C1461.62 351.683 1509.48 368.189 1551.89 391.337C1573.12 402.914 1593.11 416.491 1612.45 429.622C1621.21 435.57 1630.27 441.722 1639.33 447.615C1759.19 525.207 1892.34 565.886 2014.28 562.164L2014.32 563.431C2002.67 563.787 1990.92 563.747 1979.11 563.31L1979.11 563.313Z" fill="url(#paint13_linear_108_586)" fill-opacity="0.05"/>
<path d="M1960.29 576.9C1905.81 574.89 1849.54 564.388 1792.64 545.572C1732.71 525.759 1673.29 497.208 1616.01 460.712C1606.97 454.922 1597.91 448.897 1589.16 443.066C1570.04 430.334 1550.27 417.169 1529.48 405.803C1447.53 360.941 1346.9 338.784 1246.13 343.41C1190.81 345.949 1134.85 356.51 1069.99 376.642C1042.61 385.126 1015.95 394.789 987.73 405.019L981.244 407.369C948.367 419.213 909.518 432.694 870.629 442.874C828.802 453.823 792.405 459.566 759.368 460.43C750.785 460.656 742.267 460.613 733.839 460.3C657.395 457.483 587.404 432.672 525.438 386.374C516.44 379.695 507.74 372.651 499.575 365.437C454.468 325.674 424.728 278.168 395.967 232.225C362.778 179.208 331.428 129.129 279.581 94.9212C229.415 61.822 162.331 47.8485 100.137 57.5398C33.5977 67.9092 -28.4455 104.804 -65.8299 156.24L-66.9167 155.45C-48.339 129.894 -23.1756 107.291 5.85814 90.094C34.6597 73.0336 67.1892 61.3173 99.9292 56.2146C131.121 51.3535 164.251 52.3288 195.737 59.0384C226.548 65.6026 255.796 77.6222 280.318 93.8034C332.407 128.172 363.831 178.369 397.1 231.516C425.809 277.378 455.496 324.801 500.457 364.433C508.594 371.62 517.264 378.642 526.234 385.299C594.785 436.521 673.208 461.347 759.327 459.093C833.365 457.154 912.46 430.728 980.782 406.112L987.269 403.762C1015.5 393.526 1042.17 383.859 1069.59 375.366C1134.55 355.197 1190.63 344.62 1246.06 342.075C1294.18 339.864 1342.66 343.803 1390.13 353.782C1440.85 364.443 1487.96 381.553 1530.12 404.632C1550.96 416.027 1570.75 429.207 1589.9 441.955C1598.65 447.779 1607.69 453.804 1616.73 459.585C1701.66 513.702 1834.68 577.81 1986.03 575.875L1986.05 577.216C1977.51 577.324 1968.92 577.219 1960.29 576.9H1960.29Z" fill="url(#paint14_linear_108_586)" fill-opacity="0.05"/>
<path d="M1941.62 590.65C1885.29 588.573 1826.83 577.281 1767.56 557.006C1709.49 537.141 1650.89 508.791 1593.39 472.741C1584.35 467.056 1575.3 461.149 1566.54 455.436C1547.63 443.091 1528.06 430.328 1507.69 419.154C1425.48 374.019 1326.26 349.494 1228.33 350.091C1172.46 350.435 1115.1 359.173 1052.98 376.806C1023.77 385.079 994.638 395.21 964.877 405.735C928.062 418.686 892.021 431.14 855.848 441.147C814.401 452.612 778.549 459.186 746.239 461.238C702.526 464.016 660.47 460.105 621.237 449.615C580.669 438.769 542.839 420.798 508.805 396.211C499.729 389.693 490.976 382.736 482.79 375.537C435.485 334.022 406.922 282.747 379.297 233.161C349.724 180.075 321.79 129.937 273.324 94.1627C224.681 58.2613 158 41.6065 94.9473 49.6134C28.1142 58.1003 -34.5916 93.6673 -72.7934 144.75L-73.9267 143.901C-35.4988 92.5154 27.5661 56.7442 94.7708 48.2077C158.176 40.1543 225.238 56.9083 274.166 93.0232C296.36 109.403 315.579 129.59 334.658 156.549C351.492 180.338 365.599 205.663 380.535 232.473C408.101 281.955 436.606 333.121 483.728 374.475C491.88 381.646 500.599 388.572 509.638 395.062C577 443.729 656.578 465.521 746.156 459.827C820.237 455.12 900.177 426.997 964.412 404.4C994.198 393.87 1023.36 383.729 1052.6 375.447C1114.84 357.776 1172.32 349.023 1228.33 348.68C1275.69 348.389 1323.56 353.974 1370.62 365.282C1420.04 377.156 1466.39 394.864 1508.38 417.915C1528.8 429.118 1548.39 441.896 1567.32 454.253C1576.08 459.963 1585.13 465.867 1594.15 471.546C1716.31 548.132 1842.06 588.944 1957.79 589.579L1957.79 590.994C1952.42 590.963 1947.03 590.849 1941.63 590.65H1941.62Z" fill="url(#paint15_linear_108_586)" fill-opacity="0.05"/>
<path d="M1923.04 604.574C1864.91 602.432 1804.2 590.285 1742.48 568.441C1686.38 548.584 1628.61 520.436 1570.76 484.773C1561.72 479.178 1552.65 473.379 1543.87 467.772C1525.17 455.829 1505.84 443.478 1485.89 432.502C1405.02 387.968 1307.22 361.074 1210.52 356.77C1155.45 354.315 1098.36 360.928 1035.95 376.97C1005.82 384.702 976.116 394.576 948.5 404.097C944.147 405.592 939.781 407.094 935.403 408.599C868.722 431.551 799.771 455.284 733.102 462.044C712.827 464.099 692.921 464.765 673.508 464.05C650.487 463.202 628.16 460.409 606.696 455.684C564.593 446.41 526.057 429.709 492.159 406.044C483.003 399.688 474.197 392.82 465.989 385.634C416.83 342.679 389.849 287.841 363.753 234.805C337.435 181.314 312.578 130.792 267.047 93.3949C219.953 54.7162 153.671 35.3862 89.7392 41.6809C22.6181 48.2915 -40.7533 82.527 -79.7757 133.256L-80.9554 132.349C-61.6625 107.269 -35.7343 85.5396 -5.97907 69.5133C23.6027 53.5799 56.6524 43.4458 89.5936 40.2009C121.408 37.0675 154.727 40.2907 185.94 49.5207C216.64 58.599 245.014 73.3744 267.992 92.2462C288.842 109.372 306.636 130.12 323.991 157.54C339.29 181.71 351.82 207.183 365.088 234.148C391.115 287.051 418.031 341.753 466.968 384.513C475.136 391.662 483.898 398.496 493.01 404.824C558.524 450.563 641.495 469.84 732.953 460.567C799.449 453.823 868.319 430.118 934.917 407.196C939.295 405.688 943.661 404.187 948.014 402.694C975.658 393.164 1005.4 383.277 1035.58 375.534C1098.13 359.455 1155.37 352.829 1210.58 355.29C1257.64 357.383 1304.91 364.74 1351.07 377.147C1399.51 390.17 1445.11 408.357 1486.6 431.205C1506.59 442.203 1525.95 454.566 1544.67 466.524C1553.44 472.128 1562.51 477.924 1571.55 483.513C1693.62 558.777 1811.83 598.992 1923 603.091C1925.18 603.172 1927.36 603.24 1929.54 603.292L1929.5 604.782C1927.35 604.729 1925.19 604.664 1923.04 604.584L1923.04 604.574Z" fill="url(#paint16_linear_108_586)" fill-opacity="0.05"/>
<path d="M1901.23 618.551C1870.79 617.232 1839.37 613.114 1807.85 606.311C1778.36 599.948 1747.93 591.053 1717.4 579.872C1662.67 559.827 1607.31 532.654 1548.14 496.802C1539.05 491.279 1529.92 485.569 1521.08 480.045C1502.64 468.521 1483.57 456.603 1464.09 445.853C1380.3 399.567 1283.92 370.301 1192.72 363.452C1134.72 359.095 1077.88 363.573 1018.93 377.137C987.036 384.463 955.789 394.52 932.127 402.462C921.179 406.122 909.97 409.949 899.133 413.649C840.208 433.765 779.273 454.563 719.977 462.852C675.124 469.122 632.123 468.756 592.169 461.762C548.613 454.139 509.368 438.704 475.52 415.881C466.277 409.679 457.419 402.898 449.192 395.731C398.453 351.593 373.367 293.365 349.108 237.053C325.768 182.877 303.723 131.705 260.771 92.6269C215.244 51.2019 149.358 29.1935 84.5313 33.7544C17.1254 38.4948 -46.9087 71.3989 -86.7547 121.766L-87.9808 120.797C-68.3287 95.9554 -42.0197 74.6655 -11.9053 59.2305C18.0666 43.8699 51.3763 34.5191 84.4229 32.1969C116.559 29.9366 149.968 34.2838 181.036 44.774C211.683 55.1218 239.621 71.2688 261.827 91.4751C281.228 109.127 298.227 131.135 313.801 158.76C327.703 183.419 339.314 210.372 350.545 236.44C374.736 292.591 399.751 350.652 450.22 394.557C458.397 401.682 467.206 408.422 476.393 414.59C558.367 469.862 653.983 470.503 719.76 461.307C778.911 453.04 839.771 432.263 898.629 412.172C909.469 408.472 920.68 404.645 931.632 400.985C955.325 393.031 986.622 382.958 1018.58 375.617C1077.68 362.018 1134.68 357.529 1192.83 361.898C1238.44 365.325 1285.12 374.208 1331.57 388.309C1378.07 402.422 1422.91 421.324 1464.85 444.491C1484.37 455.263 1503.45 467.193 1521.91 478.726C1530.74 484.247 1539.88 489.956 1548.95 495.474C1676.02 572.475 1791.28 612.225 1901.3 616.997L1901.23 618.557L1901.23 618.551Z" fill="url(#paint17_linear_108_586)" fill-opacity="0.05"/>
<path d="M1872.95 632.329C1843 630.441 1812.08 625.818 1781.06 618.597C1752.24 611.888 1722.38 602.704 1692.32 591.307C1639.96 571.463 1585.4 544.485 1525.52 508.835C1516.32 503.348 1507.06 497.691 1498.11 492.22C1479.99 481.148 1461.25 469.701 1442.29 459.201C1355.72 411.231 1263.26 380.429 1174.9 370.128C1116.08 363.266 1059.49 365.613 1001.9 377.299C976.559 382.432 949.185 389.91 915.751 400.824C898.564 406.416 881.005 412.447 864.025 418.281C812.465 435.992 759.154 454.306 706.848 463.654C661.525 471.753 618.053 473.165 577.644 467.846C532.705 461.932 492.747 447.757 458.88 425.718C449.548 419.668 440.637 412.977 432.395 405.831C409.033 385.597 389.483 360.266 372.633 328.393C357.651 300.05 346.216 269.431 335.156 239.818C315.486 187.147 295.146 132.684 254.495 91.8561C210.543 47.7156 145.06 23.0321 79.3203 25.8249C11.6326 28.7014 -53.061 60.2741 -93.7367 110.279L-95.0062 109.245C-74.9919 84.6417 -48.3051 63.7914 -17.8285 48.9479C12.5367 34.1601 46.1065 25.5989 79.2521 24.1901C111.717 22.8091 145.212 28.2864 176.125 40.0275C206.716 51.6478 234.218 69.1697 255.656 90.7012C274.017 109.143 289.821 131.866 303.97 160.175C316.588 185.419 326.805 212.781 336.689 239.245C358.815 298.489 381.693 359.752 433.466 404.595C441.653 411.695 450.502 418.34 459.769 424.35C523.36 465.734 611.003 479.123 706.557 462.047C758.739 452.721 811.989 434.428 863.489 416.739C880.475 410.902 898.04 404.871 915.24 399.273C948.735 388.337 976.169 380.847 1001.57 375.701C1030.43 369.846 1059.74 366.291 1088.7 365.133C1117.1 364 1146.17 365.133 1175.09 368.505C1219.69 373.707 1265.77 384.243 1312.04 399.827C1356.82 414.906 1400.91 434.403 1443.08 457.774C1462.07 468.289 1480.82 479.745 1498.96 490.827C1507.91 496.295 1517.17 501.951 1526.35 507.432C1656.33 584.808 1766.5 623.976 1873.05 630.698L1872.95 632.332V632.329Z" fill="url(#paint18_linear_108_586)" fill-opacity="0.05"/>
<path d="M1844.67 646.108C1787.51 641.346 1729.47 627.158 1667.23 602.738C1616.87 582.981 1564.65 556.966 1502.89 520.866C1493.47 515.349 1483.95 509.67 1474.76 504.181C1457.08 493.632 1438.8 482.723 1420.49 472.552C1331.64 423.16 1240.56 390.052 1157.08 376.803C1097.55 367.356 1041.22 367.57 984.869 377.462C958.969 382.005 931.802 388.906 899.372 399.186C876.292 406.484 852.844 414.704 830.17 422.656C785.543 438.304 739.4 454.485 693.72 464.452C648.01 474.425 604.071 477.614 563.126 473.933C516.855 469.772 476.182 456.86 442.241 435.552C432.816 429.653 423.852 423.049 415.597 415.924C402.785 404.874 391.555 392.597 381.266 378.385C372.107 365.734 363.911 351.838 356.214 335.898C341.934 306.326 331.614 274.087 321.635 242.911C304.453 189.237 286.69 133.739 248.222 91.0787C206.357 44.9566 139.639 16.9074 74.1123 17.8921C7.16154 18.8952 -59.8295 49.8921 -100.716 98.7853L-102.029 97.6892C-81.652 73.3246 -54.5844 52.914 -23.7517 38.6681C7.00363 24.4562 40.8366 16.6814 74.0844 16.1829C106.852 15.6937 140.428 22.3073 171.187 35.3148C201.685 48.2108 228.762 67.098 249.488 89.933C266.868 109.204 281.535 132.696 294.332 161.748C305.732 187.63 314.643 215.468 323.26 242.391C343.182 304.629 363.784 368.988 416.712 414.633C424.902 421.702 433.794 428.254 443.145 434.109C506.625 473.955 595.482 484.138 693.352 462.786C738.926 452.841 785.023 436.679 829.597 421.049C852.284 413.091 875.744 404.868 898.848 397.56C931.353 387.256 958.591 380.336 984.566 375.781C1013.06 370.778 1042.29 368.232 1071.43 368.214C1099.47 368.195 1128.38 370.517 1157.34 375.115C1200.85 382.02 1246.33 394.213 1292.51 411.354C1335.26 427.223 1378.59 447.311 1421.31 471.06C1439.64 481.243 1457.93 492.161 1475.62 502.716C1484.82 508.203 1494.33 513.878 1503.75 519.393C1593.48 571.84 1713.34 633.45 1844.8 644.405L1844.66 646.108H1844.67Z" fill="url(#paint19_linear_108_586)" fill-opacity="0.05"/>
<path d="M1816.39 659.886C1760.56 654.071 1703.57 639.12 1642.15 614.173C1580.87 589.282 1523.45 557.666 1480.27 532.902C1470.27 527.161 1460.16 521.272 1450.39 515.578C1433.49 505.738 1416.02 495.561 1398.7 485.904C1304.26 433.23 1219.4 399.725 1139.27 383.479C1078.91 371.406 1022.84 369.493 967.84 377.63C941.893 381.466 914.141 387.984 882.996 397.554C854.402 406.329 825.594 416.779 797.734 426.888C759.541 440.744 720.045 455.071 680.602 465.258C636.904 476.54 592.934 481.696 553.122 480.228C551.614 480.172 550.118 480.107 548.623 480.033C501.064 477.661 459.676 466.007 425.608 445.395C416.093 439.645 407.074 433.131 398.807 426.028C385.756 414.819 374.479 402.267 364.333 387.646C355.298 374.626 347.371 360.254 340.107 343.704C326.623 312.995 317.517 279.224 308.708 246.561C293.895 191.627 278.578 134.826 241.949 90.3018C202.837 42.9195 138.927 12.4831 74.1218 10.0927C72.3786 10.0277 70.6416 9.98439 68.8984 9.95962C1.60706 9.22271 -66.062 38.8572 -107.698 87.2953L-109.051 86.1311C-88.3274 62.0204 -60.8789 42.0618 -29.6746 28.4165C1.44914 14.8084 35.5422 7.8077 68.9201 8.17306C102.056 8.62202 135.725 16.3751 166.289 30.5932C196.762 44.771 223.399 65.0237 243.324 89.1623C259.87 109.276 273.522 133.594 285.065 163.507C295.338 190.132 303.008 218.58 310.426 246.091C327.97 311.15 346.111 378.422 399.964 424.665C408.157 431.703 417.096 438.162 426.527 443.859C512.353 495.787 622.271 478.466 680.153 463.521C719.516 453.355 758.968 439.041 797.124 425.201C825.003 415.085 853.832 404.629 882.469 395.839C913.698 386.241 941.537 379.704 967.577 375.856C995.706 371.694 1024.84 370.165 1054.19 371.32C1081.81 372.406 1110.55 375.905 1139.62 381.72C1181.98 390.309 1226.85 404.174 1272.98 422.922C1313.28 439.308 1355.87 459.969 1399.56 484.334C1416.9 494 1434.37 504.178 1451.28 514.024C1461.05 519.715 1471.16 525.604 1481.15 531.341C1582.76 589.616 1693.71 645.306 1816.57 658.1L1816.38 659.874L1816.39 659.886Z" fill="url(#paint20_linear_108_586)" fill-opacity="0.05"/>
<path d="M1788.11 673.661C1756.05 669.636 1724.19 662.71 1690.71 652.48C1660.93 643.383 1630.58 631.877 1597.92 617.3C1537.34 590.263 1478.3 556.724 1421.2 524.291C1406.67 516.036 1391.65 507.503 1376.9 499.248C1269.68 439.242 1145.49 379.877 1017.1 375.143C995.099 374.332 972.998 375.122 950.81 377.791C886.764 385.488 825.823 408.636 766.891 431.022C734.569 443.298 701.148 455.993 667.489 466.053C615.264 481.661 563.163 488.383 516.827 485.501C490.642 483.872 466.305 479.166 444.492 471.515C420.778 463.198 399.757 451.29 382.015 436.121C368.757 424.786 357.462 411.986 347.492 396.991C338.605 383.63 330.976 368.811 324.171 351.692C311.535 319.909 303.692 284.658 296.109 250.565C283.578 194.228 270.621 135.975 235.685 89.5212C197.087 38.1942 131.183 4.67084 63.6965 2.02972C63.5324 2.02353 63.3621 2.01733 63.198 2.01113C-4.12739 -0.472078 -72.2392 27.7783 -114.667 75.8108L-116.061 74.5816C-94.9597 50.6908 -67.1304 31.1657 -35.5886 18.118C-4.05309 5.07028 30.3063 -1.15016 63.7677 0.175044C97.2292 1.48477 130.991 10.3556 161.399 25.8277C191.817 41.3029 218.015 62.9427 237.165 88.4096C272.342 135.185 285.343 193.636 297.92 250.165C313.687 321.045 328.58 387.993 383.223 434.712C472.674 511.19 611.446 480.862 666.956 464.276C700.551 454.238 733.941 441.552 766.232 429.288C825.269 406.861 886.318 383.673 950.587 375.948C986.448 371.638 1024.13 372.025 1062.58 377.1C1097.38 381.692 1134.16 390.315 1171.91 402.728C1249.97 428.396 1322.95 466.929 1377.8 497.629C1392.56 505.886 1407.58 514.423 1422.12 522.678C1536.74 587.786 1655.26 655.111 1788.34 671.819L1788.1 673.661H1788.11Z" fill="url(#paint21_linear_108_586)" fill-opacity="0.05"/>
<path d="M944.262 43.3562C969.896 42.3499 994.09 45.1303 1016.4 51.6604C1047.87 60.8687 1077.66 78.1521 1104.97 103.024C1127.71 123.745 1149.24 150.218 1168.95 181.704C1182.39 203.164 1194.59 225.745 1206.39 247.583C1225.51 282.971 1245.28 319.562 1270.75 352.145C1343.19 444.853 1466 504.624 1591.23 508.132C1716.48 511.64 1843.98 458.876 1923.99 370.431L1925.37 371.679C1885.77 415.451 1833.9 451.393 1775.36 475.618C1716.83 499.84 1653.15 511.727 1591.18 509.99C1529.22 508.253 1466.67 492.83 1410.29 465.388C1353.91 437.942 1305.15 399.177 1269.29 353.287C1243.73 320.581 1223.92 283.918 1204.76 248.463C1192.97 226.652 1180.79 204.099 1167.38 182.689C1124.2 113.71 1073.22 70.2256 1015.88 53.4407C950.216 34.2221 882.646 51.2083 837.524 68.8416C792.411 86.4718 750.5 111.518 709.969 135.737C699.919 141.743 689.528 147.951 679.254 153.949C559.494 223.857 429.568 279.905 293.09 320.541C156.606 361.183 15.6422 385.789 -125.898 393.681L-126 391.826C159.025 375.93 437.151 293.12 678.313 152.348C688.58 146.354 698.968 140.149 709.013 134.145C749.608 109.886 791.587 84.7998 836.842 67.1139C867.059 55.3047 897.025 47.7622 925.904 44.6969C932.096 44.0405 938.221 43.5915 944.258 43.3562H944.262Z" fill="url(#paint22_linear_108_586)" fill-opacity="0.05"/>
<path d="M957.903 59.1537C980.063 58.2836 1002.97 60.098 1025.62 65.9933C1050.19 72.4119 1073.96 83.5585 1096.27 99.1173C1112.07 110.159 1127.52 123.692 1142.19 139.338C1155.07 153.07 1167.73 168.845 1179.83 186.222C1194.04 206.694 1207.16 228.254 1219.84 249.107C1239.76 281.859 1260.36 315.73 1285.87 346.485C1358.96 434.602 1478.78 491.787 1598.59 495.728C1719.97 499.744 1843.93 450.888 1922.08 368.23L1923.38 369.456C1884.74 410.324 1834.29 443.779 1777.49 466.205C1720.57 488.678 1658.69 499.503 1598.53 497.512C1568.32 496.518 1537.86 492.233 1507.98 484.774C1478.72 477.47 1450.1 467.144 1422.91 454.084C1368.42 427.911 1320.56 391.096 1284.5 347.621C1258.9 316.764 1238.27 282.838 1218.32 250.03C1205.65 229.201 1192.55 207.663 1178.36 187.237C1152.67 150.327 1124.71 121.169 1095.24 100.579C1073.11 85.1407 1049.54 74.0839 1025.17 67.7179C959.897 50.7318 892.358 67.9006 847.19 85.2924C829.814 91.9834 811.719 100.124 791.872 110.177C768.606 121.968 745.598 135.031 723.342 147.667C711.805 154.219 699.872 160.993 688.075 167.489C629.091 199.947 567.494 228.73 504.993 253.039C435.868 279.85 363.626 302.344 284.142 321.805C220.399 337.441 154.16 350.584 87.2619 360.873C20.7973 371.094 -47.0793 378.618 -114.482 383.228L-114.603 381.448C21.6766 372.125 155.693 351.476 283.717 320.074C363.128 300.632 435.296 278.162 504.349 251.38C566.776 227.099 628.302 198.35 687.215 165.932C698.999 159.439 710.926 152.667 722.46 146.119C744.731 133.474 767.761 120.398 791.064 108.589C810.967 98.5073 829.114 90.3455 846.546 83.6297C876.307 72.1673 915.751 60.8071 957.897 59.1537H957.903Z" fill="url(#paint23_linear_108_586)" fill-opacity="0.05"/>
<path d="M972.023 74.923C992.681 74.1118 1013.89 75.5546 1034.84 80.326C1059.31 85.9427 1083.1 96.0117 1105.57 110.255C1135.66 129.399 1163.51 155.723 1190.7 190.736C1205.88 210.373 1220.08 231.081 1233.82 251.107C1254.36 281.067 1275.61 312.048 1301 340.822C1375.84 425.629 1489.84 478.9 1605.95 483.322C1616.97 483.746 1628.04 483.733 1639.07 483.3C1745.67 479.12 1851.02 435.682 1920.19 366.022L1921.4 367.227C1883.71 405.19 1834.68 436.159 1779.62 456.784C1724.3 477.504 1664.23 487.269 1605.88 485.028C1576.64 483.913 1547.09 479.659 1518.07 472.379C1489.79 465.286 1462.01 455.325 1435.5 442.776C1382.91 417.879 1335.96 383.015 1299.72 341.949C1274.26 313.098 1252.98 282.073 1232.41 252.07C1218.69 232.065 1204.5 211.376 1189.35 191.78C1162.28 156.925 1134.58 130.727 1104.65 111.694C1082.36 97.5568 1058.74 87.562 1034.46 81.9887C969.617 67.2226 902.094 84.5772 856.866 101.737C839.583 108.298 821.435 116.255 801.384 126.064C779.698 136.684 758.163 148.289 737.334 159.516C724.11 166.644 710.434 174.013 696.916 181.023C637.17 211.933 575.405 238.403 513.328 259.69C447.681 282.073 378.201 300.403 294.669 317.383C232.131 330.149 166.134 341.37 98.5172 350.73C32.6811 359.842 -35.1366 367.258 -103.053 372.769L-103.193 371.063C35.9446 359.774 169.691 341.15 294.326 315.705C377.783 298.74 447.198 280.429 512.771 258.071C574.765 236.809 636.455 210.376 696.123 179.503C709.629 172.499 723.296 165.133 736.517 158.008C757.358 146.775 778.908 135.161 800.625 124.528C820.726 114.695 838.92 106.716 856.253 100.139C887.114 88.432 928.319 76.6352 972.02 74.9199L972.023 74.923Z" fill="url(#paint24_linear_108_586)" fill-opacity="0.05"/>
<path d="M986.355 90.5621C1006.67 89.7663 1025.98 91.1318 1044.06 94.6585C1068.42 99.4763 1092.24 108.471 1114.86 121.392C1145.01 138.694 1173.36 162.854 1201.56 195.256C1218.03 214.299 1233.62 234.415 1248.7 253.869C1269.57 280.797 1291.15 308.642 1316.12 335.162C1391.61 415.346 1502.71 466.097 1613.3 470.915C1726.92 475.931 1843.78 434.896 1918.28 363.821L1919.41 365.004C1882.66 400.06 1835.06 428.542 1781.74 447.371C1728.02 466.338 1669.76 475.045 1613.23 472.55C1584.94 471.317 1556.31 467.091 1528.13 459.991C1500.83 453.111 1473.88 443.516 1448.04 431.477C1397.36 407.865 1351.33 374.949 1314.93 336.282C1289.9 309.704 1268.3 281.828 1247.41 254.869C1232.34 235.431 1216.76 215.333 1200.32 196.328C1172.25 164.071 1144.03 140.022 1114.05 122.813C1091.58 109.979 1067.92 101.046 1043.74 96.2654C992.777 86.3264 931.499 93.9061 866.529 118.19C849.361 124.609 831.158 132.383 810.88 141.96C790.996 151.361 771.173 161.495 752.001 171.294C736.86 179.032 721.209 187.036 705.74 194.563C645.208 223.922 583.273 248.073 521.648 266.35C443.467 289.312 368.351 302.802 305.181 312.971C187.882 332.003 54.3704 348.609 -91.6438 362.322L-91.7955 360.694C54.1815 346.983 187.656 330.381 304.921 311.354C368.038 301.196 443.092 287.714 521.183 264.78C582.719 246.531 644.57 222.411 705.022 193.092C720.475 185.571 736.121 177.574 751.255 169.839C770.437 160.033 790.271 149.896 810.18 140.48C830.501 130.885 848.744 123.095 865.957 116.658C896.427 105.269 926.226 97.4699 954.522 93.4726C965.369 91.9399 975.989 90.9708 986.349 90.5652L986.355 90.5621Z" fill="url(#paint25_linear_108_586)" fill-opacity="0.05"/>
<path d="M1001.35 106.087C1019.56 105.372 1036.93 106.341 1053.28 108.994C1077.54 113.013 1101.39 120.934 1124.17 132.535C1154.6 148.141 1183.47 170.137 1212.43 199.78C1231.02 218.804 1247.98 238.118 1265.92 258.566C1286.37 281.856 1307.51 305.942 1331.25 329.505C1407.4 405.088 1515.59 453.316 1620.66 458.511C1633.54 459.158 1646.49 459.217 1659.41 458.709C1756.44 454.904 1852.22 419.226 1916.38 361.616L1917.43 362.781C1881.62 394.926 1835.44 420.922 1783.87 437.955C1731.75 455.17 1675.29 462.818 1620.58 460.069C1593.26 458.719 1565.54 454.523 1538.19 447.6C1511.85 440.934 1485.72 431.71 1460.54 420.182C1411.79 397.861 1366.69 366.889 1330.14 330.607C1306.36 307.007 1285.21 282.903 1264.74 259.591C1246.81 239.159 1229.87 219.86 1211.31 200.867C1182.47 171.347 1153.73 149.45 1123.45 133.923C1100.82 122.395 1077.13 114.524 1053.02 110.533C1001.74 102.214 942.255 110.323 876.205 134.632C859.185 140.902 840.927 148.494 820.389 157.841C802.561 165.972 784.72 174.617 767.467 182.98C750.156 191.368 732.257 200.044 714.577 208.091C653.243 235.883 591.135 257.721 529.98 272.995C456.001 291.201 383.563 300.539 315.709 308.543C216.606 320.396 108.109 331.889 3.18292 343.005C-24.2036 345.906 -52.5252 348.906 -80.2214 351.863L-80.3886 350.309C-52.6894 347.352 -24.3708 344.352 3.01572 341.45C107.936 330.335 216.426 318.844 315.523 306.992C383.331 298.994 455.713 289.665 529.602 271.481C590.661 256.229 652.679 234.425 713.927 206.67C731.588 198.632 749.478 189.959 766.78 181.574C784.042 173.208 801.892 164.56 819.736 156.42C840.31 147.054 858.603 139.449 875.661 133.164C906.239 121.909 935.982 114.023 964.062 109.722C976.822 107.768 989.269 106.555 1001.34 106.081L1001.35 106.087Z" fill="url(#paint26_linear_108_586)" fill-opacity="0.05"/>
<path d="M1016.84 121.448C1032.73 120.825 1047.96 121.448 1062.51 123.33C1086.67 126.55 1110.54 133.396 1133.47 143.679C1164.03 157.504 1193.41 177.335 1223.3 204.304C1245.06 223.937 1265.09 244.023 1286.29 265.288C1305.3 284.343 1324.95 304.047 1346.37 323.848C1424.34 395.917 1526.99 440.482 1628.01 446.108C1733.79 452.102 1843.56 418.882 1914.48 359.418L1915.44 360.561C1880.57 389.796 1835.81 413.303 1785.99 428.545C1735.47 444.005 1680.81 450.591 1627.93 447.597C1601.56 446.129 1574.75 441.965 1548.22 435.227C1522.84 428.778 1497.53 419.925 1473 408.912C1426.19 387.898 1382.05 358.861 1345.36 324.947C1323.91 305.125 1304.26 285.411 1285.24 266.344C1264.05 245.094 1244.03 225.021 1222.3 205.416C1192.53 178.549 1163.27 158.801 1132.86 145.041C1110.06 134.817 1086.33 128.012 1062.31 124.81C1011.48 118.24 952.123 127.08 885.884 151.085C868.827 157.271 851.039 164.47 829.904 173.738C814.422 180.54 798.87 187.683 783.831 194.591C764.055 203.675 743.604 213.07 723.42 221.631C660.674 248.095 598.395 267.613 538.318 279.652C468.952 293.551 402.001 298.511 331.122 303.766L326.242 304.128C169.493 316.064 43.9668 327.913 -68.7964 341.416L-68.9729 339.936C43.812 326.43 169.36 314.578 326.13 302.639L331.01 302.276C401.844 297.028 468.751 292.071 538.024 278.187C598.005 266.168 660.184 246.676 722.838 220.253C743.004 211.701 763.442 202.313 783.209 193.232C798.253 186.321 813.809 179.175 829.303 172.366C850.469 163.086 868.288 155.875 885.376 149.679C932.914 132.452 976.94 123.008 1016.84 121.445L1016.84 121.448Z" fill="url(#paint27_linear_108_586)" fill-opacity="0.05"/>
<path d="M1033.26 136.641C1046.61 136.118 1059.44 136.458 1071.73 137.669C1095.61 140.019 1119.51 145.794 1142.77 154.829C1173.48 166.889 1203.37 184.556 1234.17 208.837C1262.17 230.916 1288.23 253.922 1315.81 278.277C1330.44 291.189 1345.56 304.54 1361.49 318.197C1440.16 385.653 1539.98 427.756 1635.36 433.707C1737.17 440.175 1843.4 410.866 1912.58 357.22L1913.45 358.337C1879.51 384.656 1836.17 405.676 1788.12 419.13C1739.18 432.834 1686.33 438.361 1635.27 435.119C1585.34 432.004 1534.91 419.396 1485.4 397.651C1440.56 377.955 1397.4 350.854 1360.57 319.272C1344.63 305.608 1329.51 292.254 1314.88 279.339C1287.3 254.996 1261.26 232.006 1233.29 209.952C1202.6 185.757 1172.83 168.158 1142.26 156.151C1119.11 147.162 1095.34 141.422 1071.59 139.084C1021.52 134.155 962.288 143.725 895.554 167.536C878.766 173.53 860.925 180.552 839.406 189.628C826.6 195.043 813.692 200.666 801.207 206.103C778.629 215.937 755.283 226.105 732.25 235.165C668.659 260.015 606.213 277.221 546.644 286.303C485.065 295.691 426.521 297.263 364.54 298.932C355.477 299.177 346.108 299.428 336.76 299.706C241.472 302.744 95.7366 310.633 -57.3897 330.966L-57.5755 329.564C95.6066 309.221 241.388 301.329 336.717 298.291C346.064 298.016 355.437 297.762 364.499 297.517C426.434 295.852 484.935 294.276 546.427 284.903C605.894 275.837 668.238 258.659 731.73 233.845C754.738 224.792 778.072 214.63 800.641 204.802C813.128 199.365 826.039 193.743 838.852 188.321C860.396 179.233 878.261 172.205 895.074 166.201C945.649 148.156 991.953 138.267 1033.25 136.644L1033.26 136.641Z" fill="url(#paint28_linear_108_586)" fill-opacity="0.05"/>
<path d="M1050.17 151.661C1060.8 151.243 1071.08 151.358 1080.96 152.005C1104.92 153.572 1128.85 158.272 1152.08 165.975C1182.74 176.14 1213.15 191.64 1245.03 213.367C1290.53 244.37 1332.35 277.485 1376.62 312.541C1456.02 375.417 1553.01 415.058 1642.72 421.297C1742 428.335 1842.17 403.556 1910.68 355.012L1911.46 356.108C1878.44 379.507 1836.52 398.041 1790.25 409.711C1742.88 421.653 1691.83 426.124 1642.62 422.638C1594.83 419.312 1546.09 407.126 1497.76 386.408C1454.94 368.054 1412.76 342.875 1375.78 313.593C1331.53 278.553 1289.74 245.454 1244.28 214.478C1212.49 192.826 1182.2 177.376 1151.66 167.251C1128.53 159.585 1104.72 154.906 1080.88 153.346C1030.72 150.064 973.27 160.083 905.23 183.977C888.6 189.823 871.233 196.464 848.918 205.509C839.171 209.472 829.315 213.543 819.782 217.485C794.012 228.136 767.362 239.146 741.09 248.689C676.675 271.902 614.059 286.792 554.982 292.941C498.85 298.784 446.17 297.524 390.4 296.186C376.383 295.849 361.889 295.502 347.293 295.273C303.723 294.697 259.084 295.316 214.374 297.068C125.411 300.555 36.1148 308.531 -45.9675 320.507L-46.1625 319.179C17.7198 309.859 85.296 302.967 154.684 298.7C219.671 294.703 284.482 293.099 347.312 293.932C361.914 294.161 376.411 294.511 390.431 294.845C446.158 296.18 498.794 297.443 554.84 291.607C613.808 285.467 676.319 270.605 740.629 247.426C766.873 237.896 793.507 226.888 819.265 216.243C828.798 212.305 838.657 208.23 848.407 204.264C870.744 195.21 888.129 188.563 904.778 182.711C935.936 171.768 965.517 163.604 992.7 158.445C1012.74 154.64 1031.97 152.373 1050.16 151.661H1050.17Z" fill="url(#paint29_linear_108_586)" fill-opacity="0.05"/>
<path d="M1067.86 166.439C1075.48 166.139 1082.92 166.108 1090.19 166.343C1114.06 167.114 1138.01 170.74 1161.39 177.128C1192.22 185.55 1223.13 198.888 1255.9 217.906C1301.53 244.391 1344.69 272.666 1391.74 306.889C1438.87 341.171 1535.09 400.013 1650.07 408.893C1745.22 416.386 1841.94 395.421 1908.78 352.813L1909.46 353.882C1877.35 374.354 1836.86 390.405 1792.37 400.295C1746.57 410.478 1697.33 413.887 1649.97 410.159C1604.31 406.633 1557.24 394.87 1510.06 375.199C1468.74 357.975 1428.68 335.335 1390.99 307.917C1343.98 273.719 1300.85 245.469 1255.25 219.005C1222.59 200.046 1191.77 186.748 1161.05 178.354C1137.77 171.994 1113.91 168.381 1090.14 167.613C1040.72 166.018 983.392 176.75 914.893 200.424C894.445 207.499 874.871 214.995 858.417 221.395C852.169 223.835 845.834 226.321 839.706 228.73C810.298 240.282 779.886 252.231 749.921 262.219C684.698 283.77 621.914 296.34 563.311 299.585C511.145 302.474 462.763 298.715 411.538 294.733C394.118 293.38 376.107 291.981 357.818 290.848C299.982 287.423 239.726 286.949 179.482 289.312C106.738 292.164 34.0062 299.146 -34.5639 310.054L-34.762 308.803C90.6835 288.844 230.13 282.017 357.895 289.581C376.197 290.714 394.214 292.114 411.637 293.47C462.819 297.449 511.161 301.205 563.24 298.322C621.732 295.083 684.404 282.531 749.521 261.018C779.456 251.042 809.849 239.1 839.242 227.554C845.37 225.148 851.705 222.658 857.956 220.219C874.419 213.812 894.009 206.31 914.478 199.229C973.057 178.985 1023.5 168.183 1067.85 166.446L1067.86 166.439Z" fill="url(#paint30_linear_108_586)" fill-opacity="0.05"/>
<path d="M1087.08 180.94C1091.26 180.776 1095.38 180.692 1099.43 180.686C1123.21 180.658 1147.19 183.216 1170.7 188.284C1201.75 194.979 1233.17 206.153 1266.77 222.449C1306.11 241.528 1353.52 265.812 1406.87 301.24C1465.07 339.894 1555.79 387.796 1657.42 396.487C1748.37 404.42 1841.63 387.27 1906.89 350.613L1907.48 351.653C1876.24 369.197 1837.17 382.761 1794.5 390.874C1750.24 399.289 1702.8 401.643 1657.32 397.676C1555.44 388.963 1464.53 340.965 1406.21 302.234C1352.92 266.843 1305.55 242.584 1266.25 223.523C1232.74 207.271 1201.4 196.127 1170.45 189.452C1147.02 184.399 1123.13 181.853 1099.43 181.878C1050.86 181.934 993.666 193.378 924.578 216.869C906.471 223.034 888.841 229.487 867.941 237.28L861.269 239.779C827.693 252.353 792.977 265.354 758.776 275.745C692.763 295.604 629.807 305.859 571.665 306.225C522.481 306.534 477.359 300.49 429.589 294.09C409.789 291.437 389.313 288.697 368.367 286.415C242.599 273.076 103.561 277.757 -23.1387 299.595L-23.343 298.419C40.8273 287.356 108.311 280.677 177.24 278.562C243.355 276.534 307.701 278.776 368.494 285.226C389.459 287.511 409.94 290.254 429.747 292.908C477.473 299.301 522.555 305.339 571.656 305.029C629.686 304.667 692.525 294.428 758.426 274.599C792.587 264.221 827.287 251.225 860.845 238.658L867.517 236.159C888.429 228.363 906.069 221.904 924.188 215.736C956.365 204.797 985.018 196.688 1011.79 190.95C1038.61 185.204 1063.87 181.844 1087.08 180.934L1087.08 180.94Z" fill="url(#paint31_linear_108_586)" fill-opacity="0.05"/>
<path d="M1107.07 195.084C1107.6 195.062 1108.13 195.043 1108.66 195.025C1132.38 194.201 1156.38 195.687 1180.02 199.443C1211.34 204.419 1243.27 213.432 1277.64 226.997C1322.29 244.621 1370.21 264.437 1422 295.592C1507.76 347.191 1589.44 376.965 1664.78 384.08C1751.39 392.425 1841.19 379.089 1905 348.411L1905.48 349.42C1875.1 364.029 1837.46 375.104 1796.63 381.451C1753.88 388.096 1708.26 389.39 1664.67 385.192C1589.17 378.058 1507.33 348.234 1421.42 296.545C1369.71 265.434 1321.83 245.639 1277.23 228.031C1242.94 214.497 1211.08 205.502 1179.84 200.542C1156.28 196.799 1132.34 195.319 1108.7 196.139C1060.51 197.802 1005.08 209.624 934.251 233.31C915.129 239.713 895.997 246.54 877.494 253.145L877.45 253.16C838.583 267.081 803.49 279.407 767.616 289.266C700.826 307.416 637.709 315.352 580.006 312.86C533.113 310.835 490.549 302.645 445.486 293.975C424.004 289.842 401.791 285.569 378.903 281.98C256.517 263.152 114.138 265.759 -11.7257 289.139L-11.9301 288.037C42.7408 277.881 99.7928 271.605 158.046 269.323C168.171 268.927 178.324 268.651 188.517 268.496C254.987 267.484 319.102 271.648 379.077 280.875C401.983 284.467 424.208 288.743 445.699 292.876C490.722 301.536 533.25 309.717 580.059 311.742C637.644 314.231 700.647 306.305 767.325 288.185C803.158 278.339 838.23 266.019 877.076 252.108L877.119 252.092C895.625 245.488 914.763 238.657 933.898 232.248C1004.05 208.788 1059.14 196.96 1107.07 195.08V195.084Z" fill="url(#paint32_linear_108_586)" fill-opacity="0.05"/>
<path d="M1129.93 208.719C1149.68 207.945 1169.61 208.573 1189.33 210.601C1221.02 213.859 1253.46 220.711 1288.51 231.551C1342.16 248.144 1387.17 262.978 1437.12 289.95C1526.74 338.344 1601.41 364.313 1672.13 371.679C1754.2 380.392 1840.55 370.877 1903.1 346.221L1903.48 347.197C1873.9 358.86 1837.68 367.449 1798.76 372.041C1757.49 376.909 1713.66 377.144 1672.02 372.722C1632.76 368.632 1590.59 358.232 1546.68 341.812C1512.26 328.944 1476.26 312.28 1436.62 290.872C1386.76 263.947 1341.8 249.128 1288.2 232.554C1253.22 221.736 1220.84 214.896 1189.22 211.648C1165.54 209.214 1141.57 208.799 1117.97 210.416C1057.08 214.586 992.972 233.635 943.927 249.766C928.953 254.699 913.893 259.848 899.331 264.83C895.204 266.241 891.083 267.65 886.965 269.056C851.593 281.165 813.722 293.634 776.462 302.802C743.83 310.735 711.679 316.206 680.898 319.067C648.58 322.07 617.443 322.219 588.354 319.51C543.263 315.311 502.748 305.066 459.858 294.219C437.191 288.488 413.752 282.559 389.443 277.561C268.431 253.048 126.368 253.463 -0.319153 278.698L-0.523514 277.67C50.5557 267.496 104.146 261.352 157.839 259.247C237.453 256.126 317.303 261.882 389.654 276.537C413.987 281.54 437.438 287.47 460.115 293.207C502.965 304.044 543.439 314.277 588.45 318.469C645.604 323.792 708.774 318.178 776.208 301.787C813.425 292.631 851.268 280.169 886.621 268.068C890.739 266.663 894.863 265.254 898.988 263.842C913.552 258.86 928.616 253.708 943.596 248.775C992.699 232.625 1056.89 213.552 1117.89 209.375C1121.89 209.103 1125.91 208.886 1129.93 208.728L1129.93 208.719Z" fill="url(#paint33_linear_108_586)" fill-opacity="0.05"/>
<path d="M159.916 248.971C176.958 248.302 194.046 248.101 211.064 248.367C277.157 249.401 342.572 257.637 400.234 272.184C425.611 278.664 449.913 286.328 473.414 293.743C514.48 306.698 553.27 318.931 596.847 325.183C653.586 333.32 716.924 330.022 785.104 315.377C824.872 306.72 863.569 294.666 896.176 284.015C904.88 281.185 913.745 278.262 922.318 275.438C932.452 272.1 942.93 268.645 953.303 265.288C1006.5 248.085 1068.75 229.697 1127.14 223.715C1150.76 221.293 1174.82 220.64 1198.65 221.77C1230.82 223.297 1263.77 227.988 1299.39 236.112C1348.42 247.296 1399.11 258.86 1452.25 284.309C1518.65 316.107 1597.57 349.882 1679.48 359.276C1756.69 368.298 1839.57 362.598 1901.21 344.03L1901.49 344.962C1872.61 353.665 1837.82 359.771 1800.89 362.62C1760.46 365.741 1719.58 364.939 1679.37 360.242C1597.31 350.829 1518.3 317.018 1451.83 285.185C1398.79 259.783 1348.15 248.231 1299.18 237.06C1263.61 228.947 1230.72 224.263 1198.61 222.739C1174.83 221.612 1150.81 222.262 1127.24 224.678C1068.95 230.65 1006.75 249.024 953.603 266.208C943.234 269.564 932.756 273.02 922.622 276.357C914.048 279.181 905.18 282.104 896.477 284.937C863.845 295.595 825.123 307.658 785.308 316.324C752.379 323.399 720.051 327.87 689.215 329.62C656.741 331.462 625.618 330.291 596.708 326.146C553.05 319.885 514.226 307.636 473.12 294.672C449.632 287.263 425.341 279.602 399.992 273.128C280.247 242.921 138.499 241.14 11.0937 268.239L10.8925 267.289C42.973 260.464 76.4839 255.399 110.493 252.231C126.845 250.708 143.357 249.621 159.913 248.971H159.916Z" fill="url(#paint34_linear_108_586)" fill-opacity="0.05"/>
<path d="M164.242 238.537C183.59 237.778 203.013 237.698 222.334 238.298C288.665 240.36 353.839 250.575 410.807 267.834C436.943 275.831 461.819 285.281 485.873 294.421C525.444 309.457 562.819 323.659 605.238 331.896C661.572 342.835 725.079 341.847 793.993 328.963C826.309 322.833 861.814 313.618 905.728 299.961C919.547 295.678 933.62 291.183 947.231 286.832C952.482 285.154 957.74 283.473 963.006 281.798C1016.57 264.775 1078.55 245.952 1136.38 238.051C1159.99 234.824 1184.09 233.103 1207.98 232.929C1240.76 232.694 1274.22 235.224 1310.28 240.67L1312.72 241.038C1337.68 244.807 1363.49 248.705 1389.11 254.356C1417.8 260.684 1443.41 268.636 1467.38 278.664C1525.92 303.147 1606.09 336.679 1686.83 346.866C1758.51 356.071 1837.94 354.192 1899.32 341.835L1899.49 342.717C1871.1 348.433 1837.74 352.055 1803.02 353.192C1763.91 354.474 1724.78 352.644 1686.72 347.758C1651.32 343.293 1613.43 334.147 1570.88 319.802C1532.37 306.819 1494.61 291.025 1467.03 279.491C1413.72 257.192 1364.59 249.776 1312.58 241.924L1310.14 241.556C1274.13 236.118 1240.71 233.589 1207.98 233.824C1184.13 233.998 1160.07 235.716 1136.5 238.936C1078.74 246.825 1016.8 265.638 963.276 282.649C958.009 284.324 952.751 286.006 947.5 287.684C933.889 292.034 919.81 296.533 905.988 300.815C862.043 314.482 826.507 323.703 794.154 329.843C760.931 336.054 728.42 339.528 697.532 340.166C664.909 340.841 633.798 338.354 605.061 332.775C562.568 324.523 525.156 310.308 485.548 295.257C461.506 286.123 436.646 276.677 410.541 268.688C293.734 233.301 148.671 229.223 22.5035 257.777L22.3054 256.901C54.2992 249.659 87.7637 244.41 121.767 241.299C135.833 240.011 150.017 239.088 164.239 238.53L164.242 238.537Z" fill="url(#paint35_linear_108_586)" fill-opacity="0.05"/>
<path d="M169.985 228.003C191.167 227.173 212.454 227.247 233.605 228.232C300.159 231.331 365.088 243.521 421.375 263.486C448.052 273.026 473.284 284.293 497.689 295.189C535.984 312.29 572.154 328.443 613.623 338.614C669.566 352.337 733.241 353.665 802.879 342.556C836.461 337.112 872.177 328.647 915.277 315.912C934.827 310.156 954.953 303.865 972.71 298.313C1026.94 281.373 1088.41 262.176 1145.63 252.392C1169.28 248.348 1193.39 245.556 1217.31 244.094C1250.89 242.038 1284.86 242.413 1321.17 245.237L1324.68 245.509C1375.47 249.448 1427.99 253.522 1482.52 273.029C1489.04 275.36 1495.57 277.72 1502.48 280.218C1560.65 301.248 1626.59 325.083 1694.19 334.465C1787.28 347.6 1867.33 342.472 1897.43 339.658L1897.51 340.481C1869.04 343.144 1837.11 344.283 1805.16 343.779C1767.12 343.178 1729.75 340.32 1694.08 335.286C1626.39 325.892 1560.41 302.041 1502.2 280.999C1495.29 278.5 1488.76 276.141 1482.25 273.809C1427.82 254.34 1375.35 250.271 1324.61 246.336L1321.11 246.063C1284.83 243.246 1250.9 242.871 1217.37 244.924C1193.48 246.385 1169.39 249.175 1145.77 253.213C1088.61 262.985 1027.17 282.175 972.961 299.106C955.201 304.66 935.069 310.955 915.516 316.711C872.385 329.455 836.635 337.93 803.016 343.376C769.501 348.723 736.817 351.197 705.867 350.73C673.096 350.234 641.997 346.429 613.434 339.422C571.891 329.232 535.689 313.064 497.361 295.948C472.971 285.058 447.752 273.794 421.109 264.266C345.461 237.437 257.365 225.442 170.016 228.867C123.792 230.678 77.7907 236.806 33.9227 247.333L33.7307 246.531C65.6347 238.874 99.0528 233.44 133.05 230.384C145.299 229.285 157.628 228.489 169.992 228.006L169.985 228.003Z" fill="url(#paint36_linear_108_586)" fill-opacity="0.05"/>
<path d="M176.76 217.395C199.434 216.506 222.232 216.763 244.875 218.166C311.637 222.306 376.324 236.474 431.942 259.136C458.988 270.23 484.418 283.33 509.012 296C546.198 315.157 581.322 333.255 622.007 345.333C677.573 361.83 741.415 365.468 811.766 356.148C845.951 351.541 882.933 343.596 924.826 331.864C945.289 326.152 965.421 320.046 982.414 314.829C989.219 312.742 996.037 310.636 1002.86 308.528C1053.16 293.006 1105.16 276.952 1154.88 266.734C1178.42 261.895 1201.9 258.142 1226.65 255.259C1261.8 251.305 1296.29 249.522 1332.07 249.804L1334.78 249.825C1387.16 250.234 1441.33 250.655 1497.66 267.394C1511.18 271.409 1525.09 275.766 1539.82 280.379C1589.45 295.923 1645.71 313.541 1701.55 322.061C1775.91 333.586 1847.88 336.379 1895.54 337.478L1895.52 338.23C1847.83 337.131 1775.84 334.335 1701.43 322.805C1645.54 314.274 1589.26 296.647 1539.59 281.098C1524.87 276.487 1510.96 272.131 1497.45 268.115C1441.22 251.408 1387.11 250.986 1334.77 250.578L1332.07 250.556C1296.31 250.274 1261.86 252.058 1226.74 256.009C1202.01 258.888 1178.55 262.638 1155.03 267.471C1105.35 277.683 1053.36 293.727 1003.09 309.246C996.26 311.351 989.442 313.457 982.637 315.547C965.638 320.767 945.503 326.876 925.03 332.589C883.104 344.333 846.088 352.284 811.868 356.895C778.066 361.372 745.202 362.846 714.193 361.273C681.279 359.604 650.193 354.483 621.797 346.055C581.043 333.954 545.892 315.844 508.671 296.669C484.093 284.005 458.679 270.911 431.664 259.833C317.074 213.144 172.651 204.561 45.3292 236.877L45.1434 236.149C76.9576 228.074 110.326 222.457 144.317 219.457C155.08 218.507 165.91 217.819 176.763 217.392L176.76 217.395Z" fill="url(#paint37_linear_108_586)" fill-opacity="0.05"/>
<path d="M184.535 206.744C208.342 205.812 232.319 206.252 256.142 208.1C323.102 213.29 387.545 229.434 442.504 254.789C469.785 267.44 495.286 282.383 519.945 296.833C554.561 317.117 590.354 338.088 630.383 352.055C685.58 371.314 749.595 377.265 820.646 369.747C855.751 365.961 892.953 358.79 934.372 347.82C951.469 343.305 969.818 338.073 992.114 331.347C1007.12 326.827 1022.4 322.093 1037.18 317.513C1079.13 304.518 1122.51 291.08 1164.13 281.079C1187.51 275.46 1211.69 270.534 1235.99 266.431C1271.92 260.492 1307.91 256.436 1342.97 254.377C1397.53 251.173 1453.95 247.86 1512.8 261.762C1533.4 266.626 1555.02 272.497 1577.91 278.708C1620.48 290.257 1664.49 302.202 1708.89 309.658C1752.48 317.077 1794.89 322.427 1832.32 327.149C1854.58 329.957 1875.61 332.611 1893.63 335.308L1893.53 335.979C1875.52 333.286 1854.49 330.632 1832.23 327.824C1794.8 323.102 1752.38 317.752 1708.78 310.327C1664.34 302.865 1620.31 290.916 1577.73 279.361C1554.85 273.15 1533.23 267.282 1512.64 262.421C1453.89 248.544 1397.52 251.854 1343.02 255.055C1307.97 257.114 1272 261.167 1236.1 267.1C1211.82 271.199 1187.65 276.125 1164.29 281.739C1122.69 291.734 1079.32 305.168 1037.38 318.16C1022.6 322.74 1007.32 327.474 992.309 331.995C970.004 338.723 951.649 343.959 934.545 348.473C893.092 359.449 855.86 366.629 820.72 370.419C786.63 374.026 753.593 374.5 722.519 371.825C689.466 368.98 658.392 362.542 630.16 352.693C590.069 338.707 554.245 317.715 519.601 297.418C494.955 282.977 469.469 268.044 442.219 255.405C365.698 220.101 275.259 203.673 185.287 207.199C141.784 208.905 98.4055 215.271 56.7328 226.427L56.5563 225.771C97.2816 214.869 140.62 208.466 184.535 206.744Z" fill="url(#paint38_linear_108_586)" fill-opacity="0.05"/>
<path d="M192.588 196.037C217.442 195.061 242.506 195.718 267.41 198.034C334.562 204.279 398.76 222.398 453.062 250.438C480.523 264.675 506.043 281.469 530.72 297.709C564.466 319.916 599.361 342.881 638.755 358.771C693.825 380.761 758.011 389.025 829.523 383.34C864.941 380.463 903.428 373.881 943.911 363.771C961.536 359.384 980.475 354.179 1001.81 347.859C1026.11 340.67 1050.76 332.883 1074.6 325.356C1107.19 315.064 1140.89 304.422 1173.37 295.421C1197.94 288.705 1222.15 282.708 1245.32 277.596C1283.28 269.338 1318.79 263.235 1353.87 258.947C1406.32 252.531 1465.76 245.264 1527.93 256.129C1556.94 261.198 1587.83 268.511 1620.54 276.255C1651.87 283.674 1684.27 291.343 1716.23 297.254C1729.83 299.799 1743.39 302.27 1756.5 304.66C1807.28 313.918 1855.25 322.662 1891.71 333.14L1891.55 333.722C1855.11 323.25 1807.16 314.51 1756.39 305.255C1743.28 302.864 1729.72 300.394 1716.13 297.849C1684.15 291.935 1651.74 284.265 1620.4 276.843C1587.7 269.103 1556.82 261.789 1527.83 256.724C1465.75 245.874 1406.35 253.138 1353.95 259.548C1318.89 263.836 1283.4 269.932 1245.45 278.187C1222.29 283.296 1198.09 289.29 1173.53 296.003C1141.06 305.001 1107.37 315.64 1074.78 325.932C1050.94 333.462 1026.29 341.246 1001.98 348.439C980.64 354.758 961.693 359.966 944.06 364.357C903.545 374.472 865.025 381.061 829.572 383.94C795.269 386.668 762.058 386.126 730.866 382.333C697.727 378.302 666.662 370.561 638.532 359.331C599.082 343.419 564.16 320.439 530.388 298.214C505.724 281.983 480.216 265.198 452.784 250.974C341.986 193.764 194.598 180.354 68.1364 215.971L67.9723 215.389C107.629 204.217 149.798 197.712 192.588 196.037Z" fill="url(#paint39_linear_108_586)" fill-opacity="0.05"/>
<path d="M201.109 185.293C226.855 184.284 252.845 185.163 278.677 187.965C346.012 195.269 409.965 215.367 463.618 246.085C491.113 261.873 516.511 280.5 541.074 298.514C574.071 322.715 608.192 347.736 647.128 365.487C701.792 390.226 766.145 400.806 838.406 396.933C874.543 394.948 913.253 389.158 953.464 379.72C971.617 375.472 990.607 370.45 1011.52 364.372C1046.36 354.254 1081.42 342.704 1115.33 331.536C1137.49 324.238 1160.4 316.696 1182.64 309.757C1208.48 301.772 1232.05 294.904 1254.68 288.758C1293.78 278.234 1329.8 269.976 1364.8 263.514C1392.54 258.48 1422.17 253.324 1452.54 250.442C1485.43 247.321 1515.05 247.339 1543.09 250.494C1584.69 255.176 1631.38 265.208 1676.54 274.908C1692.01 278.231 1708 281.664 1723.6 284.844C1783.28 297.13 1844.72 311.221 1889.8 330.966L1889.59 331.453C1844.55 311.726 1783.14 297.641 1723.49 285.361C1707.89 282.182 1691.9 278.745 1676.43 275.422C1631.28 265.725 1584.6 255.699 1543.03 251.018C1482.3 244.181 1426.43 252.866 1364.89 264.031C1329.91 270.49 1293.9 278.745 1254.82 289.266C1232.19 295.409 1208.63 302.276 1182.79 310.259C1160.56 317.194 1137.65 324.737 1115.5 332.035C1081.58 343.206 1046.51 354.755 1011.66 364.877C990.746 370.958 971.747 375.98 953.585 380.231C913.342 389.675 874.602 395.468 838.434 397.456C803.83 399.307 770.443 397.772 739.205 392.883C705.92 387.672 674.867 378.615 646.908 365.964C607.923 348.194 573.777 323.151 540.758 298.939C516.208 280.934 490.822 262.316 463.351 246.543C353.573 183.692 206.503 167.972 79.5402 205.518L79.3885 205.01C118.123 193.557 159.285 186.934 201.106 185.293H201.109Z" fill="url(#paint40_linear_108_586)" fill-opacity="0.05"/>
<path d="M209.998 174.523C236.509 173.483 263.301 174.598 289.941 177.898C357.455 186.268 421.161 208.341 474.169 241.731C501.63 259.061 526.843 279.512 551.226 299.288C583.539 325.495 616.948 352.593 655.497 372.199C709.762 399.675 774.288 412.571 847.283 410.525C884.064 409.46 923.002 404.462 963.006 395.672C981.562 391.603 1000.6 386.767 1021.22 380.887C1067.72 367.635 1114.04 351.377 1158.83 335.657C1169.69 331.848 1180.91 327.907 1191.89 324.101C1220.35 314.289 1243.27 306.607 1264.03 299.929C1305.31 286.708 1341.84 276.292 1375.71 268.09C1429.61 255.151 1492.6 241.62 1558.23 244.871C1615.06 247.685 1677.43 260.389 1730.94 272.443C1799.42 287.977 1850.75 306.412 1887.86 328.805L1887.63 329.195C1850.56 306.827 1799.27 288.408 1730.84 272.886C1677.34 260.835 1615 248.137 1558.21 245.323C1492.64 242.075 1429.68 255.599 1375.82 268.529C1341.96 276.732 1305.44 287.144 1264.17 300.362C1243.42 307.041 1220.5 314.72 1192.04 324.532C1181.06 328.34 1169.84 332.279 1158.98 336.087C1114.18 351.81 1067.85 368.069 1021.34 381.327C1000.72 387.207 981.667 392.046 963.102 396.118C923.07 404.914 884.107 409.915 847.292 410.98C812.388 411.958 778.827 409.422 747.54 403.44C714.112 397.05 683.072 386.674 655.283 372.605C616.694 352.974 583.264 325.86 550.932 299.641C526.558 279.874 501.358 259.433 473.919 242.118C365.147 173.604 218.395 155.574 90.9404 195.064L90.8042 194.628C128.727 182.877 169.016 176.127 209.992 174.52L209.998 174.523Z" fill="url(#paint41_linear_108_586)" fill-opacity="0.05"/>
<path d="M219.194 163.731C246.364 162.665 273.865 164.019 301.205 167.833C368.893 177.274 432.351 201.322 484.718 237.379C512.09 256.241 537.064 278.5 561.218 300.026C592.893 328.254 625.645 357.443 663.857 378.912C717.729 409.117 782.428 424.325 856.154 424.118C893.532 423.994 932.694 419.789 972.546 411.625C991.43 407.757 1010.52 403.107 1030.91 397.403C1090.13 380.844 1149.11 358.316 1201.15 338.441C1205.44 336.809 1209.71 335.178 1213.98 333.549C1233.5 326.105 1253.68 318.411 1273.38 311.092C1317.64 294.684 1353.63 282.473 1386.64 272.658C1440.54 256.687 1504.88 240.23 1573.39 239.239C1623.81 238.509 1680.83 245.701 1738.29 260.037C1799.52 275.373 1849.19 297.781 1885.92 326.635L1885.68 326.935C1849 298.112 1799.38 275.729 1738.2 260.406C1680.78 246.079 1623.79 238.893 1573.4 239.62C1504.93 240.611 1440.63 257.062 1386.75 273.023C1353.75 282.835 1317.77 295.047 1273.52 311.451C1253.82 318.77 1233.64 326.465 1214.12 333.908C1209.85 335.537 1205.58 337.168 1201.29 338.8C1149.25 358.681 1090.26 381.213 1031.02 397.775C1010.62 403.481 991.52 408.135 972.626 412.002C932.746 420.176 893.56 424.381 856.157 424.505C820.955 424.604 787.218 421.071 755.884 413.999C722.314 406.426 691.289 394.734 663.671 379.25C625.422 357.759 592.655 328.555 560.964 300.313C536.819 278.794 511.851 256.545 484.502 237.698C409.68 186.185 313.052 160.625 218.414 164.334C178.794 165.889 139.536 172.564 102.353 184.615L102.236 184.25C139.447 172.19 178.961 165.307 219.197 163.731H219.194Z" fill="url(#paint42_linear_108_586)" fill-opacity="0.05"/>
<path d="M228.635 152.918C256.387 151.831 284.498 153.432 312.467 157.767C380.322 168.285 443.532 194.309 495.261 233.025C522.496 253.408 547.195 277.459 571.08 300.722C602.157 330.988 634.293 362.285 672.217 385.628C752.974 435.335 863.021 450.232 982.089 427.579C1076.5 409.618 1166.29 371.568 1253.13 334.775C1262.84 330.663 1272.88 326.409 1282.74 322.256C1378.2 282.11 1480.44 242.196 1588.55 233.613C1595.03 233.099 1601.52 232.715 1608 232.461C1656.74 230.551 1704.96 236.007 1748.55 248.454C1774.82 255.953 1799.39 265.975 1821.61 278.243C1845.04 291.185 1866.02 306.735 1883.97 324.464L1883.75 324.684C1816.75 258.495 1706.4 224.566 1588.57 233.923C1480.51 242.503 1378.29 282.407 1282.86 322.544C1273 326.696 1262.96 330.948 1253.25 335.06C1166.4 371.862 1076.59 409.918 982.148 427.886C955.281 432.998 928.313 436.24 901.997 437.518C874.311 438.865 847.184 438.048 821.352 435.088C764.789 428.604 714.558 412.055 672.056 385.894C634.101 362.533 601.956 331.226 570.866 300.948C546.988 277.692 522.298 253.646 495.079 233.276C389.911 154.568 240.234 131.365 113.754 174.168L113.655 173.874C150.225 161.498 189.058 154.472 228.638 152.921L228.635 152.918Z" fill="url(#paint43_linear_108_586)" fill-opacity="0.05"/>
<defs>
<linearGradient id="paint0_linear_108_586" x1="1347.5" y1="549.5" x2="-394.846" y2="-1173.43" gradientUnits="userSpaceOnUse">
<stop stop-color="#5B40D8"/>
<stop offset="1" stop-color="#BBADFF"/>
</linearGradient>
<linearGradient id="paint1_linear_108_586" x1="1347.5" y1="549.5" x2="-394.846" y2="-1173.43" gradientUnits="userSpaceOnUse">
<stop stop-color="#5B40D8"/>
<stop offset="1" stop-color="#BBADFF"/>
</linearGradient>
<linearGradient id="paint2_linear_108_586" x1="1347.5" y1="549.5" x2="-394.846" y2="-1173.43" gradientUnits="userSpaceOnUse">
<stop stop-color="#5B40D8"/>
<stop offset="1" stop-color="#BBADFF"/>
</linearGradient>
<linearGradient id="paint3_linear_108_586" x1="1347.5" y1="549.5" x2="-394.846" y2="-1173.43" gradientUnits="userSpaceOnUse">
<stop stop-color="#5B40D8"/>
<stop offset="1" stop-color="#BBADFF"/>
</linearGradient>
<linearGradient id="paint4_linear_108_586" x1="1347.5" y1="549.5" x2="-394.846" y2="-1173.43" gradientUnits="userSpaceOnUse">
<stop stop-color="#5B40D8"/>
<stop offset="1" stop-color="#BBADFF"/>
</linearGradient>
<linearGradient id="paint5_linear_108_586" x1="1347.5" y1="549.5" x2="-394.846" y2="-1173.43" gradientUnits="userSpaceOnUse">
<stop stop-color="#5B40D8"/>
<stop offset="1" stop-color="#BBADFF"/>
</linearGradient>
<linearGradient id="paint6_linear_108_586" x1="1347.5" y1="549.5" x2="-394.846" y2="-1173.43" gradientUnits="userSpaceOnUse">
<stop stop-color="#5B40D8"/>
<stop offset="1" stop-color="#BBADFF"/>
</linearGradient>
<linearGradient id="paint7_linear_108_586" x1="1347.5" y1="549.5" x2="-394.846" y2="-1173.43" gradientUnits="userSpaceOnUse">
<stop stop-color="#5B40D8"/>
<stop offset="1" stop-color="#BBADFF"/>
</linearGradient>
<linearGradient id="paint8_linear_108_586" x1="1347.5" y1="549.5" x2="-394.846" y2="-1173.43" gradientUnits="userSpaceOnUse">
<stop stop-color="#5B40D8"/>
<stop offset="1" stop-color="#BBADFF"/>
</linearGradient>
<linearGradient id="paint9_linear_108_586" x1="1347.5" y1="549.5" x2="-394.846" y2="-1173.43" gradientUnits="userSpaceOnUse">
<stop stop-color="#5B40D8"/>
<stop offset="1" stop-color="#BBADFF"/>
</linearGradient>
<linearGradient id="paint10_linear_108_586" x1="1347.5" y1="549.5" x2="-394.846" y2="-1173.43" gradientUnits="userSpaceOnUse">
<stop stop-color="#5B40D8"/>
<stop offset="1" stop-color="#BBADFF"/>
</linearGradient>
<linearGradient id="paint11_linear_108_586" x1="1347.5" y1="549.5" x2="-394.846" y2="-1173.43" gradientUnits="userSpaceOnUse">
<stop stop-color="#5B40D8"/>
<stop offset="1" stop-color="#BBADFF"/>
</linearGradient>
<linearGradient id="paint12_linear_108_586" x1="1347.5" y1="549.5" x2="-394.846" y2="-1173.43" gradientUnits="userSpaceOnUse">
<stop stop-color="#5B40D8"/>
<stop offset="1" stop-color="#BBADFF"/>
</linearGradient>
<linearGradient id="paint13_linear_108_586" x1="1347.5" y1="549.5" x2="-394.846" y2="-1173.43" gradientUnits="userSpaceOnUse">
<stop stop-color="#5B40D8"/>
<stop offset="1" stop-color="#BBADFF"/>
</linearGradient>
<linearGradient id="paint14_linear_108_586" x1="1347.5" y1="549.5" x2="-394.846" y2="-1173.43" gradientUnits="userSpaceOnUse">
<stop stop-color="#5B40D8"/>
<stop offset="1" stop-color="#BBADFF"/>
</linearGradient>
<linearGradient id="paint15_linear_108_586" x1="1347.5" y1="549.5" x2="-394.846" y2="-1173.43" gradientUnits="userSpaceOnUse">
<stop stop-color="#5B40D8"/>
<stop offset="1" stop-color="#BBADFF"/>
</linearGradient>
<linearGradient id="paint16_linear_108_586" x1="1347.5" y1="549.5" x2="-394.846" y2="-1173.43" gradientUnits="userSpaceOnUse">
<stop stop-color="#5B40D8"/>
<stop offset="1" stop-color="#BBADFF"/>
</linearGradient>
<linearGradient id="paint17_linear_108_586" x1="1347.5" y1="549.5" x2="-394.846" y2="-1173.43" gradientUnits="userSpaceOnUse">
<stop stop-color="#5B40D8"/>
<stop offset="1" stop-color="#BBADFF"/>
</linearGradient>
<linearGradient id="paint18_linear_108_586" x1="1347.5" y1="549.5" x2="-394.846" y2="-1173.43" gradientUnits="userSpaceOnUse">
<stop stop-color="#5B40D8"/>
<stop offset="1" stop-color="#BBADFF"/>
</linearGradient>
<linearGradient id="paint19_linear_108_586" x1="1347.5" y1="549.5" x2="-394.846" y2="-1173.43" gradientUnits="userSpaceOnUse">
<stop stop-color="#5B40D8"/>
<stop offset="1" stop-color="#BBADFF"/>
</linearGradient>
<linearGradient id="paint20_linear_108_586" x1="1347.5" y1="549.5" x2="-394.846" y2="-1173.43" gradientUnits="userSpaceOnUse">
<stop stop-color="#5B40D8"/>
<stop offset="1" stop-color="#BBADFF"/>
</linearGradient>
<linearGradient id="paint21_linear_108_586" x1="1347.5" y1="549.5" x2="-394.846" y2="-1173.43" gradientUnits="userSpaceOnUse">
<stop stop-color="#5B40D8"/>
<stop offset="1" stop-color="#BBADFF"/>
</linearGradient>
<linearGradient id="paint22_linear_108_586" x1="1347.5" y1="549.5" x2="-394.846" y2="-1173.43" gradientUnits="userSpaceOnUse">
<stop stop-color="#5B40D8"/>
<stop offset="1" stop-color="#BBADFF"/>
</linearGradient>
<linearGradient id="paint23_linear_108_586" x1="1347.5" y1="549.5" x2="-394.846" y2="-1173.43" gradientUnits="userSpaceOnUse">
<stop stop-color="#5B40D8"/>
<stop offset="1" stop-color="#BBADFF"/>
</linearGradient>
<linearGradient id="paint24_linear_108_586" x1="1347.5" y1="549.5" x2="-394.846" y2="-1173.43" gradientUnits="userSpaceOnUse">
<stop stop-color="#5B40D8"/>
<stop offset="1" stop-color="#BBADFF"/>
</linearGradient>
<linearGradient id="paint25_linear_108_586" x1="1347.5" y1="549.5" x2="-394.846" y2="-1173.43" gradientUnits="userSpaceOnUse">
<stop stop-color="#5B40D8"/>
<stop offset="1" stop-color="#BBADFF"/>
</linearGradient>
<linearGradient id="paint26_linear_108_586" x1="1347.5" y1="549.5" x2="-394.846" y2="-1173.43" gradientUnits="userSpaceOnUse">
<stop stop-color="#5B40D8"/>
<stop offset="1" stop-color="#BBADFF"/>
</linearGradient>
<linearGradient id="paint27_linear_108_586" x1="1347.5" y1="549.5" x2="-394.846" y2="-1173.43" gradientUnits="userSpaceOnUse">
<stop stop-color="#5B40D8"/>
<stop offset="1" stop-color="#BBADFF"/>
</linearGradient>
<linearGradient id="paint28_linear_108_586" x1="1347.5" y1="549.5" x2="-394.846" y2="-1173.43" gradientUnits="userSpaceOnUse">
<stop stop-color="#5B40D8"/>
<stop offset="1" stop-color="#BBADFF"/>
</linearGradient>
<linearGradient id="paint29_linear_108_586" x1="1347.5" y1="549.5" x2="-394.846" y2="-1173.43" gradientUnits="userSpaceOnUse">
<stop stop-color="#5B40D8"/>
<stop offset="1" stop-color="#BBADFF"/>
</linearGradient>
<linearGradient id="paint30_linear_108_586" x1="1347.5" y1="549.5" x2="-394.846" y2="-1173.43" gradientUnits="userSpaceOnUse">
<stop stop-color="#5B40D8"/>
<stop offset="1" stop-color="#BBADFF"/>
</linearGradient>
<linearGradient id="paint31_linear_108_586" x1="1347.5" y1="549.5" x2="-394.846" y2="-1173.43" gradientUnits="userSpaceOnUse">
<stop stop-color="#5B40D8"/>
<stop offset="1" stop-color="#BBADFF"/>
</linearGradient>
<linearGradient id="paint32_linear_108_586" x1="1347.5" y1="549.5" x2="-394.846" y2="-1173.43" gradientUnits="userSpaceOnUse">
<stop stop-color="#5B40D8"/>
<stop offset="1" stop-color="#BBADFF"/>
</linearGradient>
<linearGradient id="paint33_linear_108_586" x1="1347.5" y1="549.5" x2="-394.846" y2="-1173.43" gradientUnits="userSpaceOnUse">
<stop stop-color="#5B40D8"/>
<stop offset="1" stop-color="#BBADFF"/>
</linearGradient>
<linearGradient id="paint34_linear_108_586" x1="1347.5" y1="549.5" x2="-394.846" y2="-1173.43" gradientUnits="userSpaceOnUse">
<stop stop-color="#5B40D8"/>
<stop offset="1" stop-color="#BBADFF"/>
</linearGradient>
<linearGradient id="paint35_linear_108_586" x1="1347.5" y1="549.5" x2="-394.846" y2="-1173.43" gradientUnits="userSpaceOnUse">
<stop stop-color="#5B40D8"/>
<stop offset="1" stop-color="#BBADFF"/>
</linearGradient>
<linearGradient id="paint36_linear_108_586" x1="1347.5" y1="549.5" x2="-394.846" y2="-1173.43" gradientUnits="userSpaceOnUse">
<stop stop-color="#5B40D8"/>
<stop offset="1" stop-color="#BBADFF"/>
</linearGradient>
<linearGradient id="paint37_linear_108_586" x1="1347.5" y1="549.5" x2="-394.846" y2="-1173.43" gradientUnits="userSpaceOnUse">
<stop stop-color="#5B40D8"/>
<stop offset="1" stop-color="#BBADFF"/>
</linearGradient>
<linearGradient id="paint38_linear_108_586" x1="1347.5" y1="549.5" x2="-394.846" y2="-1173.43" gradientUnits="userSpaceOnUse">
<stop stop-color="#5B40D8"/>
<stop offset="1" stop-color="#BBADFF"/>
</linearGradient>
<linearGradient id="paint39_linear_108_586" x1="1347.5" y1="549.5" x2="-394.846" y2="-1173.43" gradientUnits="userSpaceOnUse">
<stop stop-color="#5B40D8"/>
<stop offset="1" stop-color="#BBADFF"/>
</linearGradient>
<linearGradient id="paint40_linear_108_586" x1="1347.5" y1="549.5" x2="-394.846" y2="-1173.43" gradientUnits="userSpaceOnUse">
<stop stop-color="#5B40D8"/>
<stop offset="1" stop-color="#BBADFF"/>
</linearGradient>
<linearGradient id="paint41_linear_108_586" x1="1347.5" y1="549.5" x2="-394.846" y2="-1173.43" gradientUnits="userSpaceOnUse">
<stop stop-color="#5B40D8"/>
<stop offset="1" stop-color="#BBADFF"/>
</linearGradient>
<linearGradient id="paint42_linear_108_586" x1="1347.5" y1="549.5" x2="-394.846" y2="-1173.43" gradientUnits="userSpaceOnUse">
<stop stop-color="#5B40D8"/>
<stop offset="1" stop-color="#BBADFF"/>
</linearGradient>
<linearGradient id="paint43_linear_108_586" x1="1347.5" y1="549.5" x2="-394.846" y2="-1173.43" gradientUnits="userSpaceOnUse">
<stop stop-color="#5B40D8"/>
<stop offset="1" stop-color="#BBADFF"/>
</linearGradient>
</defs>
</svg>
