<svg width="162" height="162" viewBox="0 0 162 162" fill="none" xmlns="http://www.w3.org/2000/svg">
<circle cx="81" cy="81" r="81" fill="url(#paint0_linear_108_328)"/>
<g clip-path="url(#clip0_108_328)">
<path d="M28.1246 82.1206H19.1255C19.1255 116.916 47.3297 145.125 82.1246 145.125V136.125C52.2991 136.125 28.1246 111.946 28.1246 82.1206Z" fill="white"/>
<path d="M82.1246 46.1254V37.125C57.2698 37.125 37.125 57.2698 37.125 82.1206C37.125 106.975 57.2698 127.125 82.1246 127.125V118.125C62.2405 118.125 46.1254 102.006 46.1254 82.1219C46.1254 62.2445 62.2403 46.1254 82.1246 46.1254Z" fill="white"/>
<path d="M82.1245 55.1245C67.2097 55.1245 55.1245 67.2096 55.1245 82.1206C55.1245 97.0354 67.2097 109.125 82.1245 109.125V100.125C72.1804 100.125 64.125 92.0647 64.125 82.1245C64.125 72.1843 72.1804 64.125 82.1245 64.125C92.07 64.125 100.125 72.1843 100.125 82.1245L109.125 82.1206C109.125 67.2096 97.0407 55.1245 82.1245 55.1245Z" fill="white"/>
</g>
<defs>
<linearGradient id="paint0_linear_108_328" x1="56.3318" y1="230.538" x2="-214.41" y2="96.5287" gradientUnits="userSpaceOnUse">
<stop stop-color="#5B40D8"/>
<stop offset="1" stop-color="#BBADFF"/>
</linearGradient>
<clipPath id="clip0_108_328">
<rect width="108" height="108" fill="white" transform="translate(10.125 37.125)"/>
</clipPath>
</defs>
</svg>
