<svg width="42" height="42" viewBox="0 0 42 42" fill="none" xmlns="http://www.w3.org/2000/svg">
<circle cx="21" cy="21" r="21" fill="white"/>
<g clip-path="url(#clip0_108_380)">
<path d="M7.2916 21.2905H4.9585C4.9585 30.3114 12.2707 37.625 21.2916 37.625V35.2916C13.5591 35.2916 7.2916 29.0231 7.2916 21.2905Z" fill="url(#paint0_linear_108_380)"/>
<path d="M21.2916 11.9584V9.625C14.8477 9.625 9.625 14.8477 9.625 21.2905C9.625 27.7344 14.8477 32.9584 21.2916 32.9584V30.625C16.1364 30.625 11.9584 26.446 11.9584 21.2909C11.9584 16.1375 16.1364 11.9584 21.2916 11.9584Z" fill="url(#paint1_linear_108_380)"/>
<path d="M21.2915 14.2916C17.4247 14.2916 14.2915 17.4247 14.2915 21.2905C14.2915 25.1574 17.4247 28.2916 21.2915 28.2916V25.9585C18.7134 25.9585 16.625 23.8686 16.625 21.2916C16.625 18.7145 18.7134 16.625 21.2915 16.625C23.87 16.625 25.9584 18.7145 25.9584 21.2916L28.2915 21.2905C28.2915 17.4247 25.1587 14.2916 21.2915 14.2916Z" fill="url(#paint2_linear_108_380)"/>
</g>
<defs>
<linearGradient id="paint0_linear_108_380" x1="10.638" y1="44.5357" x2="-16.6595" y2="31.0253" gradientUnits="userSpaceOnUse">
<stop stop-color="#5B40D8"/>
<stop offset="1" stop-color="#BBADFF"/>
</linearGradient>
<linearGradient id="paint1_linear_108_380" x1="13.6818" y1="42.8303" x2="-9.1918" y2="37.1695" gradientUnits="userSpaceOnUse">
<stop stop-color="#5B40D8"/>
<stop offset="1" stop-color="#BBADFF"/>
</linearGradient>
<linearGradient id="paint2_linear_108_380" x1="19.1597" y1="34.2146" x2="-4.23772" y2="22.6336" gradientUnits="userSpaceOnUse">
<stop stop-color="#5B40D8"/>
<stop offset="1" stop-color="#BBADFF"/>
</linearGradient>
<clipPath id="clip0_108_380">
<rect width="28" height="28" fill="white" transform="translate(2.625 9.625)"/>
</clipPath>
</defs>
</svg>
