<svg width="126" height="42" viewBox="0 0 126 42" fill="none" xmlns="http://www.w3.org/2000/svg">
	<circle cx="21" cy="21" r="21" fill="url(#paint0_linear_108_164)" />
	<g clip-path="url(#clip0_108_164)">
		<path
			d="M7.2916 21.2905H4.9585C4.9585 30.3114 12.2707 37.625 21.2916 37.625V35.2916C13.5591 35.2916 7.2916 29.0231 7.2916 21.2905Z"
			fill="white" />
		<path
			d="M21.2916 11.9584V9.625C14.8477 9.625 9.625 14.8477 9.625 21.2905C9.625 27.7344 14.8477 32.9584 21.2916 32.9584V30.625C16.1364 30.625 11.9584 26.446 11.9584 21.2909C11.9584 16.1375 16.1364 11.9584 21.2916 11.9584Z"
			fill="white" />
		<path
			d="M21.2915 14.2915C17.4247 14.2915 14.2915 17.4247 14.2915 21.2905C14.2915 25.1573 17.4247 28.2915 21.2915 28.2915V25.9584C18.7134 25.9584 16.625 23.8686 16.625 21.2915C16.625 18.7145 18.7134 16.625 21.2915 16.625C23.87 16.625 25.9584 18.7145 25.9584 21.2915L28.2915 21.2905C28.2915 17.4247 25.1587 14.2915 21.2915 14.2915Z"
			fill="white" />
	</g>
	<path
		d="M54.7216 30V12.5455H57.8835V27.3494H65.571V30H54.7216ZM73.8892 30.2557C72.6108 30.2557 71.5028 29.9744 70.5653 29.4119C69.6278 28.8494 68.9006 28.0625 68.3835 27.0511C67.8722 26.0398 67.6165 24.858 67.6165 23.5057C67.6165 22.1534 67.8722 20.9687 68.3835 19.9517C68.9006 18.9347 69.6278 18.1449 70.5653 17.5824C71.5028 17.0199 72.6108 16.7386 73.8892 16.7386C75.1676 16.7386 76.2756 17.0199 77.2131 17.5824C78.1506 18.1449 78.875 18.9347 79.3864 19.9517C79.9034 20.9687 80.1619 22.1534 80.1619 23.5057C80.1619 24.858 79.9034 26.0398 79.3864 27.0511C78.875 28.0625 78.1506 28.8494 77.2131 29.4119C76.2756 29.9744 75.1676 30.2557 73.8892 30.2557ZM73.9062 27.7841C74.5994 27.7841 75.179 27.5937 75.6449 27.2131C76.1108 26.8267 76.4574 26.3097 76.6847 25.6619C76.9176 25.0142 77.0341 24.2926 77.0341 23.4972C77.0341 22.696 76.9176 21.9716 76.6847 21.3239C76.4574 20.6705 76.1108 20.1506 75.6449 19.7642C75.179 19.3778 74.5994 19.1847 73.9062 19.1847C73.196 19.1847 72.6051 19.3778 72.1335 19.7642C71.6676 20.1506 71.3182 20.6705 71.0852 21.3239C70.858 21.9716 70.7443 22.696 70.7443 23.4972C70.7443 24.2926 70.858 25.0142 71.0852 25.6619C71.3182 26.3097 71.6676 26.8267 72.1335 27.2131C72.6051 27.5937 73.196 27.7841 73.9062 27.7841ZM90.7152 21.4602V24H82.8572V21.4602H90.7152ZM102.719 22.08H109.847V28.272C107.863 29.616 105.591 30.288 103.031 30.288C100.007 30.288 97.615 29.504 95.855 27.936C94.095 26.368 93.215 24.184 93.215 21.384C93.183 18.664 94.071 16.456 95.879 14.76C97.687 13.048 99.959 12.208 102.695 12.24C104.023 12.24 105.271 12.496 106.439 13.008C107.607 13.52 108.615 14.2 109.463 15.048L107.807 16.536C107.263 15.352 106.543 14.408 105.647 13.704C104.767 12.984 103.735 12.624 102.551 12.624C100.855 12.624 99.567 13.376 98.687 14.88C97.807 16.384 97.367 18.496 97.367 21.216C97.367 23.792 97.887 25.88 98.927 27.48C99.983 29.064 101.383 29.856 103.127 29.856C104.455 29.856 105.551 29.584 106.415 29.04V22.512H102.983L102.719 22.08ZM111.422 23.616C111.422 21.6 112.078 19.96 113.39 18.696C114.718 17.432 116.39 16.8 118.406 16.8C120.39 16.8 122.014 17.416 123.278 18.648C124.558 19.864 125.198 21.472 125.198 23.472C125.198 25.472 124.534 27.112 123.206 28.392C121.878 29.656 120.214 30.288 118.214 30.288C116.23 30.288 114.598 29.68 113.318 28.464C112.054 27.232 111.422 25.616 111.422 23.616ZM121.454 23.64C121.454 21.64 121.166 20.056 120.59 18.888C120.03 17.72 119.254 17.136 118.262 17.136C117.254 17.136 116.486 17.696 115.958 18.816C115.43 19.92 115.166 21.48 115.166 23.496C115.166 25.48 115.446 27.056 116.006 28.224C116.566 29.376 117.342 29.952 118.334 29.952C119.342 29.952 120.11 29.4 120.638 28.296C121.182 27.176 121.454 25.624 121.454 23.64Z"
		fill="currentColor" />
	<defs>
		<linearGradient id="paint0_linear_108_164" x1="14.6045" y1="59.7692" x2="-55.5877" y2="25.026"
			gradientUnits="userSpaceOnUse">
			<stop stop-color="#5B40D8" />
			<stop offset="1" stop-color="#BBADFF" />
		</linearGradient>
		<clipPath id="clip0_108_164">
			<rect width="28" height="28" fill="currentColor" transform="translate(2.625 9.625)" />
		</clipPath>
	</defs>
</svg>