<svg width="26" height="26" viewBox="0 0 26 26" fill="none" xmlns="http://www.w3.org/2000/svg">
<path d="M12.7854 7.02996L14.3948 5.42059C16.2069 3.60848 18.5793 2.85683 21.09 2.734C22.0666 2.68623 22.5549 2.66234 22.9464 3.0539C23.338 3.44545 23.3141 3.93373 23.2663 4.91031C23.1435 7.42105 22.3918 9.79347 20.5798 11.6055L18.9704 13.2149C17.645 14.5403 17.2682 14.9172 17.5464 16.3548C17.821 17.4529 18.0868 18.5163 17.2883 19.3149C16.3197 20.2835 15.4361 20.2835 14.4675 19.3149L6.68544 11.5328C5.71685 10.5642 5.71681 9.68067 6.68544 8.71205C7.48396 7.91353 8.54738 8.17932 9.64553 8.45389C11.0831 8.73214 11.46 8.35531 12.7854 7.02996Z" stroke="#1F1E24" stroke-width="1.5" stroke-linejoin="round"/>
<path d="M18.4121 7.58301H18.4222" stroke="#1F1E24" stroke-width="2" stroke-linecap="round" stroke-linejoin="round"/>
<path d="M2.70898 23.2917L8.12565 17.875" stroke="#1F1E24" stroke-width="1.5" stroke-linecap="round"/>
<path d="M9.20898 23.2917L11.3757 21.125" stroke="#1F1E24" stroke-width="1.5" stroke-linecap="round"/>
<path d="M2.70898 16.7917L4.87565 14.625" stroke="#1F1E24" stroke-width="1.5" stroke-linecap="round"/>
</svg>
