<svg width="26" height="26" viewBox="0 0 26 26" fill="none" xmlns="http://www.w3.org/2000/svg">
<path d="M7.58268 8.66699C4.34459 9.26922 2.16602 10.3948 2.16602 11.684C2.16602 13.6076 7.01626 15.167 12.9993 15.167C18.9824 15.167 23.8327 13.6076 23.8327 11.684C23.8327 10.3948 21.6541 9.26922 18.416 8.66699" stroke="#1F1E24" stroke-width="1.5" stroke-linecap="round" stroke-linejoin="round"/>
<path d="M7.93313 9.5767C7.44678 8.89914 7.54968 8.46519 7.75549 7.59729C8.32643 5.18957 10.4225 3.25 13.0006 3.25C15.5788 3.25 17.6749 5.18957 18.2458 7.59729C18.4517 8.46519 18.5546 8.89914 18.0682 9.5767C16.7416 11.4248 9.00519 11.0703 7.93313 9.5767Z" stroke="#1F1E24" stroke-width="1.5" stroke-linecap="round" stroke-linejoin="round"/>
<path d="M7.58268 15.167L5.41602 22.7503M18.416 15.167L20.5827 22.7503" stroke="#1F1E24" stroke-width="1.5" stroke-linecap="round" stroke-linejoin="round"/>
<path d="M13 20.583H13.009" stroke="#1F1E24" stroke-width="2" stroke-linecap="round" stroke-linejoin="round"/>
</svg>
