<svg width="118" height="263" viewBox="0 0 118 263" fill="none" xmlns="http://www.w3.org/2000/svg">
<path d="M115 262.667C113.527 262.667 112.333 261.473 112.333 260C112.333 258.527 113.527 257.333 115 257.333C116.473 257.333 117.667 258.527 117.667 260C117.667 261.473 116.473 262.667 115 262.667ZM115 260L114.5 260L114.5 67.5L115 67.5L115.5 67.5L115.5 260L115 260ZM97 49.5L97 50L19 50L19 49.5L19 49L97 49L97 49.5ZM0.999982 31.5L0.499982 31.5L0.499981 5.00495e-06L0.999981 4.9831e-06L1.49998 4.96124e-06L1.49998 31.5L0.999982 31.5ZM19 49.5L19 50C8.78271 50 0.499983 41.7173 0.499982 31.5L0.999982 31.5L1.49998 31.5C1.49998 41.165 9.335 49 19 49L19 49.5ZM115 67.5L114.5 67.5C114.5 57.835 106.665 50 97 50L97 49.5L97 49C107.217 49 115.5 57.2827 115.5 67.5L115 67.5Z" fill="url(#paint0_linear_317_3104)" fill-opacity="0.5"/>
<defs>
<linearGradient id="paint0_linear_317_3104" x1="83.3356" y1="316.69" x2="-38.4132" y2="302.372" gradientUnits="userSpaceOnUse">
<stop stop-color="#5B41D8"/>
<stop offset="1" stop-color="white"/>
</linearGradient>
</defs>
</svg>
