<svg width="48" height="100" viewBox="0 0 48 100" fill="none" xmlns="http://www.w3.org/2000/svg">
<path d="M3 99.6667C4.47276 99.6667 5.66667 98.4728 5.66667 97C5.66667 95.5272 4.47276 94.3333 3 94.3333C1.52724 94.3333 0.333333 95.5272 0.333333 97C0.333333 98.4728 1.52724 99.6667 3 99.6667ZM3 67.5L3.5 67.5L3 67.5ZM3 97L3.5 97L3.5 67.5L3 67.5L2.5 67.5L2.5 97L3 97ZM21 49.5L21 50L29 50L29 49.5L29 49L21 49L21 49.5ZM47 31.5L47.5 31.5L47.5 1.94516e-06L47 1.9233e-06L46.5 1.90145e-06L46.5 31.5L47 31.5ZM29 49.5L29 50C39.2173 50 47.5 41.7173 47.5 31.5L47 31.5L46.5 31.5C46.5 41.165 38.665 49 29 49L29 49.5ZM3 67.5L3.5 67.5C3.5 57.835 11.335 50 21 50L21 49.5L21 49C10.7827 49 2.5 57.2827 2.5 67.5L3 67.5Z" fill="url(#paint0_linear_317_3105)" fill-opacity="0.5"/>
<defs>
<linearGradient id="paint0_linear_317_3105" x1="37" y1="121" x2="93.8941" y2="57.6744" gradientUnits="userSpaceOnUse">
<stop stop-color="#5B41D8"/>
<stop offset="1" stop-color="white"/>
</linearGradient>
</defs>
</svg>
