<svg width="233" height="128" viewBox="0 0 233 128" fill="none" xmlns="http://www.w3.org/2000/svg">
<path d="M232.667 124.5C232.667 123.027 231.473 121.833 230 121.833C228.527 121.833 227.333 123.027 227.333 124.5C227.333 125.973 228.527 127.167 230 127.167C231.473 127.167 232.667 125.973 232.667 124.5ZM230 124.5V124H113.5V124.5V125H230V124.5ZM95.5 106.5H96V18.9998H95.5H95V106.5H95.5ZM77.5 0.999802V0.499802H0V0.999802V1.4998H77.5V0.999802ZM95.5 18.9998H96C96 8.78252 87.7173 0.499802 77.5 0.499802V0.999802V1.4998C87.165 1.4998 95 9.33481 95 18.9998H95.5ZM113.5 124.5V124C103.835 124 96 116.165 96 106.5H95.5H95C95 116.717 103.283 125 113.5 125V124.5Z" fill="url(#paint0_linear_108_362)" fill-opacity="0.5"/>
<defs>
<linearGradient id="paint0_linear_108_362" x1="286.69" y1="66.1335" x2="177.217" y2="-135.338" gradientUnits="userSpaceOnUse">
<stop stop-color="#5B41D8"/>
<stop offset="1" stop-color="white"/>
</linearGradient>
</defs>
</svg>
