<svg width="118" height="263" viewBox="0 0 118 263" fill="none" xmlns="http://www.w3.org/2000/svg">
<path d="M3 0.333333C4.47276 0.333333 5.66667 1.52724 5.66667 3C5.66667 4.47276 4.47276 5.66667 3.00001 5.66667C1.52725 5.66667 0.333339 4.47276 0.333338 3C0.333338 1.52724 1.52725 0.333333 3 0.333333ZM3.00001 3L3.50001 3L3.50001 195.5L3.00001 195.5L2.50001 195.5L2.50001 3L3.00001 3ZM21 213.5L21 213L99 213L99 213.5L99 214L21 214L21 213.5ZM117 231.5L117.5 231.5L117.5 263L117 263L116.5 263L116.5 231.5L117 231.5ZM99 213.5L99 213C109.217 213 117.5 221.283 117.5 231.5L117 231.5L116.5 231.5C116.5 221.835 108.665 214 99 214L99 213.5ZM3.00001 195.5L3.50001 195.5C3.50001 205.165 11.335 213 21 213L21 213.5L21 214C10.7827 214 2.50001 205.717 2.50001 195.5L3.00001 195.5Z" fill="url(#paint0_linear_317_3094)" fill-opacity="0.5"/>
<defs>
<linearGradient id="paint0_linear_317_3094" x1="34.6644" y1="-53.6902" x2="156.413" y2="-39.3717" gradientUnits="userSpaceOnUse">
<stop stop-color="#5B41D8"/>
<stop offset="1" stop-color="white"/>
</linearGradient>
</defs>
</svg>
