<svg width="234" height="128" viewBox="0 0 234 128" fill="none" xmlns="http://www.w3.org/2000/svg">
<path d="M0.833333 124.5C0.833333 123.027 2.02724 121.833 3.5 121.833C4.97276 121.833 6.16667 123.027 6.16667 124.5C6.16667 125.973 4.97276 127.167 3.5 127.167C2.02724 127.167 0.833333 125.973 0.833333 124.5ZM3.5 124.5V124H59V124.5V125H3.5V124.5ZM77 106.5H76.5V18.9998H77H77.5V106.5H77ZM95 0.999802V0.499802H233.5V0.999802V1.4998H95V0.999802ZM77 18.9998H76.5C76.5 8.78252 84.7827 0.499802 95 0.499802V0.999802V1.4998C85.335 1.4998 77.5 9.33481 77.5 18.9998H77ZM59 124.5V124C68.665 124 76.5 116.165 76.5 106.5H77H77.5C77.5 116.717 69.2173 125 59 125V124.5Z" fill="url(#paint0_linear_108_351)" fill-opacity="0.5"/>
<defs>
<linearGradient id="paint0_linear_108_351" x1="-53.1901" y1="66.1335" x2="56.2827" y2="-135.338" gradientUnits="userSpaceOnUse">
<stop stop-color="#5B41D8"/>
<stop offset="1" stop-color="white"/>
</linearGradient>
</defs>
</svg>
