<svg width="48" height="100" viewBox="0 0 48 100" fill="none" xmlns="http://www.w3.org/2000/svg">
<path d="M45 0.333333C43.5272 0.333333 42.3333 1.52724 42.3333 3C42.3333 4.47276 43.5272 5.66667 45 5.66667C46.4728 5.66667 47.6667 4.47276 47.6667 3C47.6667 1.52724 46.4728 0.333333 45 0.333333ZM45 32.5L44.5 32.5L45 32.5ZM45 3L44.5 3L44.5 32.5L45 32.5L45.5 32.5L45.5 3L45 3ZM27 50.5L27 50L19 50L19 50.5L19 51L27 51L27 50.5ZM0.99999 68.5L0.49999 68.5L0.499988 100L0.999988 100L1.49999 100L1.49999 68.5L0.99999 68.5ZM19 50.5L19 50C8.78272 50 0.49999 58.2827 0.49999 68.5L0.99999 68.5L1.49999 68.5C1.49999 58.835 9.33501 51 19 51L19 50.5ZM45 32.5L44.5 32.5C44.5 42.165 36.665 50 27 50L27 50.5L27 51C37.2173 51 45.5 42.7173 45.5 32.5L45 32.5Z" fill="url(#paint0_linear_317_3095)" fill-opacity="0.5"/>
<defs>
<linearGradient id="paint0_linear_317_3095" x1="11" y1="-21" x2="-45.8941" y2="42.3256" gradientUnits="userSpaceOnUse">
<stop stop-color="#5B41D8"/>
<stop offset="1" stop-color="white"/>
</linearGradient>
</defs>
</svg>
