<svg width="233" height="129" viewBox="0 0 233 129" fill="none" xmlns="http://www.w3.org/2000/svg">
	<path
		d="M232.667 3C232.667 4.47276 231.473 5.66667 230 5.66667C228.527 5.66667 227.333 4.47276 227.333 3C227.333 1.52724 228.527 0.333333 230 0.333333C231.473 0.333333 232.667 1.52724 232.667 3ZM230 3V3.5H154.5V3V2.5H230V3ZM136.5 21H137V110H136.5H136V21H136.5ZM118.5 128V128.5H0V128V127.5H118.5V128ZM136.5 110H137C137 120.217 128.717 128.5 118.5 128.5V128V127.5C128.165 127.5 136 119.665 136 110H136.5ZM154.5 3V3.5C144.835 3.5 137 11.335 137 21H136.5H136C136 10.7827 144.283 2.5 154.5 2.5V3Z"
		fill="url(#paint0_linear_108_361)" fill-opacity="0.5" />
	<defs>
		<linearGradient id="paint0_linear_108_361" x1="286.69" y1="48.8425" x2="212.696" y2="222.224"
			gradientUnits="userSpaceOnUse">
			<stop stop-color="#5B41D8" />
			<stop offset="1" stop-color="white" />
		</linearGradient>
	</defs>
</svg>