<svg width="103" height="168" viewBox="0 0 103 168" fill="none" xmlns="http://www.w3.org/2000/svg">
<path d="M16.5 0.479487C15.7565 0.479487 15.1538 1.0822 15.1538 1.82568C15.1538 2.56916 15.7565 3.17187 16.5 3.17187C17.2435 3.17187 17.8462 2.56916 17.8462 1.82568C17.8462 1.0822 17.2435 0.479487 16.5 0.479487ZM16.5 1.82568L16.5 2.07809C57.782 2.07809 91.2476 35.5437 91.2476 76.8257L91.5 76.8257L91.7524 76.8257C91.7524 35.2649 58.0608 1.57327 16.5 1.57327L16.5 1.82568ZM91.5 76.8257L91.2476 76.8257C91.2476 118.108 57.7819 151.573 16.5 151.573L16.5 151.826L16.5 152.078C58.0608 152.078 91.7524 118.386 91.7524 76.8257L91.5 76.8257Z" fill="#978BD8"/>
<circle cx="90.5" cy="76.8276" r="12" fill="url(#paint0_linear_574_1081)"/>
<circle cx="90.5" cy="76.8276" r="11.6967" stroke="url(#paint1_linear_574_1081)" stroke-opacity="0.5" stroke-width="0.606695"/>
<g clip-path="url(#clip0_574_1081)">
<path d="M90.4967 77.9976H90.502M90.4967 80.3309H90.502M92.8274 77.9976H92.8327M88.166 77.9976H88.1712M88.166 80.3309H88.1712" stroke="white" stroke-width="1.4" stroke-linecap="round" stroke-linejoin="round"/>
<path d="M93.125 70.9976V73.3309M87.875 70.9976V73.3309" stroke="white" stroke-width="1.05" stroke-linecap="round" stroke-linejoin="round"/>
<path d="M94.5833 72.1636H86.4167C85.7723 72.1636 85.25 72.6859 85.25 73.3302V81.4969C85.25 82.1413 85.7723 82.6636 86.4167 82.6636H94.5833C95.2277 82.6636 95.75 82.1413 95.75 81.4969V73.3302C95.75 72.6859 95.2277 72.1636 94.5833 72.1636Z" stroke="white" stroke-width="1.05" stroke-linecap="round" stroke-linejoin="round"/>
<path d="M85.25 75.6616H95.75" stroke="white" stroke-width="1.05" stroke-linecap="round" stroke-linejoin="round"/>
</g>
<g filter="url(#filter0_d_574_1081)">
<circle cx="16.5" cy="151.828" r="12" fill="white" shape-rendering="crispEdges"/>
<circle cx="16.5" cy="151.828" r="12" stroke="url(#paint2_linear_574_1081)" stroke-opacity="0.3" stroke-width="0.606695" shape-rendering="crispEdges"/>
</g>
<g clip-path="url(#clip1_574_1081)">
<path d="M16.4967 152.998H16.502M16.4967 155.331H16.502M18.8274 152.998H18.8327M14.166 152.998H14.1712M14.166 155.331H14.1712" stroke="#898792" stroke-width="1.4" stroke-linecap="round" stroke-linejoin="round"/>
<path d="M19.125 145.998V148.331M13.875 145.998V148.331" stroke="#898792" stroke-width="1.05" stroke-linecap="round" stroke-linejoin="round"/>
<path d="M20.5833 147.164H12.4167C11.7723 147.164 11.25 147.686 11.25 148.33L11.25 156.497C11.25 157.141 11.7723 157.664 12.4167 157.664H20.5833C21.2277 157.664 21.75 157.141 21.75 156.497V148.33C21.75 147.686 21.2277 147.164 20.5833 147.164Z" stroke="#898792" stroke-width="1.05" stroke-linecap="round" stroke-linejoin="round"/>
<path d="M11.25 150.662H21.75" stroke="#898792" stroke-width="1.05" stroke-linecap="round" stroke-linejoin="round"/>
</g>
<defs>
<filter id="filter0_d_574_1081" x="0.557099" y="135.884" width="31.8858" height="31.8868" filterUnits="userSpaceOnUse" color-interpolation-filters="sRGB">
<feFlood flood-opacity="0" result="BackgroundImageFix"/>
<feColorMatrix in="SourceAlpha" type="matrix" values="0 0 0 0 0 0 0 0 0 0 0 0 0 0 0 0 0 0 127 0" result="hardAlpha"/>
<feMorphology radius="1.21339" operator="erode" in="SourceAlpha" result="effect1_dropShadow_574_1081"/>
<feOffset/>
<feGaussianBlur stdDeviation="2.42678"/>
<feComposite in2="hardAlpha" operator="out"/>
<feColorMatrix type="matrix" values="0 0 0 0 0.161964 0 0 0 0 0.0839035 0 0 0 0 0.528846 0 0 0 0.2 0"/>
<feBlend mode="normal" in2="BackgroundImageFix" result="effect1_dropShadow_574_1081"/>
<feBlend mode="normal" in="SourceGraphic" in2="effect1_dropShadow_574_1081" result="shape"/>
</filter>
<linearGradient id="paint0_linear_574_1081" x1="86.8455" y1="98.9815" x2="46.7356" y2="79.1282" gradientUnits="userSpaceOnUse">
<stop stop-color="#5B40D8"/>
<stop offset="1" stop-color="#BBADFF"/>
</linearGradient>
<linearGradient id="paint1_linear_574_1081" x1="72.5845" y1="76.1701" x2="98.3621" y2="90.2502" gradientUnits="userSpaceOnUse">
<stop stop-color="#5B41D8"/>
<stop offset="1" stop-color="white"/>
</linearGradient>
<linearGradient id="paint2_linear_574_1081" x1="6.39474" y1="143.933" x2="10.7399" y2="168.112" gradientUnits="userSpaceOnUse">
<stop stop-color="#5B41D8"/>
<stop offset="1" stop-color="#5B41D8" stop-opacity="0.3"/>
</linearGradient>
<clipPath id="clip0_574_1081">
<rect width="14" height="14" fill="white" transform="translate(83.5 69.8276)"/>
</clipPath>
<clipPath id="clip1_574_1081">
<rect width="14" height="14" fill="white" transform="translate(9.5 144.828)"/>
</clipPath>
</defs>
</svg>
