<svg width="298" height="184" viewBox="0 0 298 184" fill="none" xmlns="http://www.w3.org/2000/svg">
<path opacity="0.52" d="M247.287 29.1539V133.773C247.287 139.609 243.006 144.363 237.718 144.363H85.4356C80.1469 144.363 75.8666 139.609 75.8666 133.773V29.1539C75.8666 23.3176 80.1478 18.563 85.4356 18.563H237.719C243.007 18.564 247.287 23.3186 247.287 29.1539Z" fill="white"/>
<path d="M234.156 42.7842V147.401C234.156 153.237 229.875 157.992 224.587 157.992H72.3045C67.0158 157.992 62.7355 153.237 62.7355 147.401V42.7842C62.7355 36.948 67.0167 32.1934 72.3045 32.1934H224.588C229.876 32.1943 234.156 36.9489 234.156 42.7842Z" fill="white"/>
<path opacity="0.66" d="M234.162 41.7701V52.8969H62.7296V41.7701C62.7314 39.2306 63.7411 36.7956 65.5369 35C67.3327 33.2043 69.7678 32.1949 72.3073 32.1934H224.584C227.123 32.1949 229.559 33.2043 231.354 35C233.15 36.7956 234.16 39.2306 234.162 41.7701Z" fill="#D8D8DB"/>
<path d="M184.408 47.98C186.554 47.98 188.294 46.2402 188.294 44.094C188.294 41.9478 186.554 40.208 184.408 40.208C182.262 40.208 180.522 41.9478 180.522 44.094C180.522 46.2402 182.262 47.98 184.408 47.98Z" fill="#FEFEFE"/>
<path d="M201.261 47.98C203.407 47.98 205.147 46.2402 205.147 44.094C205.147 41.9478 203.407 40.208 201.261 40.208C199.115 40.208 197.375 41.9478 197.375 44.094C197.375 46.2402 199.115 47.98 201.261 47.98Z" fill="#FEFEFE"/>
<path d="M218.115 47.98C220.261 47.98 222.001 46.2402 222.001 44.094C222.001 41.9478 220.261 40.208 218.115 40.208C215.968 40.208 214.229 41.9478 214.229 44.094C214.229 46.2402 215.968 47.98 218.115 47.98Z" fill="#FEFEFE"/>
<g opacity="0.32">
<path d="M139.099 70.2015H222.797V78.926H139.099V70.2015ZM139.099 97.1414H222.797V105.866H139.099V97.1414ZM75.9688 97.1414H129.243V105.866H75.9688V97.1414ZM75.9688 124.08H129.243V132.805H75.9688V124.08ZM75.9688 70.2015H129.243V78.926H75.9688V70.2015Z" fill="#D8D8DB"/>
<path d="M183.339 124.08H139.814C139.419 124.08 139.099 124.4 139.099 124.795V132.09C139.099 132.485 139.419 132.805 139.814 132.805H183.339C183.733 132.805 184.053 132.485 184.053 132.09V124.795C184.053 124.4 183.733 124.08 183.339 124.08Z" fill="#D8D8DB"/>
</g>
<path opacity="0.48" d="M234.156 121.51V147.401C234.156 153.237 229.875 157.992 224.587 157.992H195.467C194.877 156.095 194.475 154.145 194.266 152.17C194.178 151.163 194.118 150.17 194.118 149.148C194.118 149 194.118 148.837 194.133 148.69C194.133 147.831 194.192 146.972 194.266 146.127C195.334 135.612 201.909 126.739 211.063 122.412C211.256 122.323 211.463 122.234 211.655 122.145C215.44 120.458 219.538 119.59 223.682 119.597C224.686 119.594 225.69 119.644 226.689 119.745C229.244 120.009 231.754 120.602 234.156 121.51Z" fill="url(#paint0_linear_108_289)"/>
<path d="M263.713 154.349C263.713 154.668 263.705 154.986 263.695 155.304C263.667 156.109 263.611 156.906 263.508 157.692C261.86 172.442 249.351 183.9 234.164 183.9C227.356 183.907 220.755 181.557 215.485 177.248C214.043 176.072 212.714 174.765 211.515 173.343C207.708 168.819 205.352 163.253 204.754 157.37C204.658 156.368 204.605 155.366 204.605 154.345C204.605 154.196 204.605 154.037 204.613 153.886C204.623 153.025 204.679 152.173 204.754 151.321C205.821 140.813 212.395 131.939 221.543 127.614C221.735 127.517 221.946 127.427 222.142 127.342C225.978 125.636 230.132 124.766 234.33 124.791C238.527 124.815 242.672 125.732 246.487 127.482C246.553 127.51 246.628 127.548 246.692 127.579C249.014 128.672 251.185 130.06 253.151 131.708C256.463 134.478 259.125 137.942 260.95 141.854C262.775 145.766 263.718 150.032 263.713 154.349Z" fill="url(#paint1_linear_108_289)"/>
<path opacity="0.46" d="M263.713 154.35C263.713 154.669 263.705 154.987 263.695 155.305C263.667 156.11 263.611 156.906 263.508 157.693C261.982 171.353 251.139 182.197 237.479 183.704C250.606 181.737 260.896 171.119 262.375 157.842C262.478 157.056 262.535 156.259 262.562 155.455C262.571 155.136 262.58 154.817 262.58 154.499C262.585 150.182 261.641 145.917 259.816 142.005C257.991 138.093 255.329 134.629 252.018 131.859C250.052 130.211 247.881 128.823 245.559 127.73C245.494 127.702 245.419 127.664 245.354 127.633C240.512 125.417 235.162 124.547 229.867 125.114C231.289 124.899 232.726 124.793 234.165 124.796C238.418 124.788 242.623 125.705 246.487 127.483C246.552 127.511 246.628 127.549 246.692 127.579C249.014 128.672 251.185 130.06 253.151 131.708C256.462 134.479 259.125 137.942 260.95 141.855C262.775 145.767 263.718 150.033 263.713 154.35Z" fill="url(#paint2_linear_108_289)"/>
<path d="M242.775 169.882H225.556C224.167 169.882 222.836 169.331 221.854 168.349C220.872 167.367 220.32 166.035 220.32 164.646V164.011C220.32 161.096 221.478 158.301 223.539 156.24C225.6 154.179 228.395 153.021 231.31 153.021H237.021C239.936 153.021 242.731 154.179 244.792 156.24C246.853 158.301 248.011 161.096 248.011 164.011V164.646C248.011 166.035 247.459 167.367 246.478 168.349C245.496 169.331 244.164 169.882 242.775 169.882Z" fill="#FEFEFE"/>
<path d="M234.165 149.405C238.471 149.405 241.961 145.915 241.961 141.61C241.961 137.304 238.471 133.814 234.165 133.814C229.86 133.814 226.37 137.304 226.37 141.61C226.37 145.915 229.86 149.405 234.165 149.405Z" fill="#FEFEFE"/>
<g opacity="0.08">
<path d="M253.155 131.71L211.517 173.347C207.71 168.823 205.354 163.257 204.756 157.374L237.181 124.949C240.402 125.275 243.547 126.132 246.488 127.487C246.553 127.514 246.629 127.552 246.693 127.583C249.016 128.675 251.188 130.062 253.155 131.71Z" fill="url(#paint3_linear_108_289)"/>
<path d="M262.106 144.702L224.522 182.285C221.237 181.153 218.178 179.447 215.488 177.247L257.069 135.666C259.269 138.356 260.975 141.415 262.106 144.702Z" fill="url(#paint4_linear_108_289)"/>
</g>
<path opacity="0.18" d="M0.230347 171.795C3.92388 164.854 7.86741 158.044 12.061 151.364C13.1111 149.696 14.1809 148.04 15.2702 146.395C16.3596 144.75 17.4701 143.119 18.6019 141.5C20.8629 138.261 23.2235 135.085 25.6837 131.974C28.1507 128.87 30.7343 125.846 33.4721 122.941C34.8404 121.489 36.2524 120.072 37.7081 118.692C39.1657 117.313 40.6706 115.976 42.239 114.698C45.3644 112.139 48.7328 109.801 52.4269 107.91C54.2917 106.951 56.2328 106.149 58.2304 105.512C60.2723 104.855 62.3795 104.423 64.5149 104.222C64.7829 104.188 65.0558 104.182 65.3267 104.163L65.7335 104.139L65.9369 104.127H66.1413L66.9588 104.115H67.1631L67.3675 104.121L67.7772 104.135L68.1869 104.149L68.3913 104.157L68.5957 104.173L69.4142 104.24L69.6185 104.257L69.8219 104.283L70.2297 104.336L70.6375 104.39L70.8409 104.418L71.0434 104.456C73.2199 104.821 75.3384 105.473 77.3433 106.395C77.5978 106.502 77.8398 106.633 78.0856 106.756L78.8202 107.131L79.5317 107.542C79.7669 107.681 80.0137 107.812 80.2354 107.965L80.9209 108.411C81.0336 108.487 81.1522 108.558 81.2612 108.638L81.5918 108.876L82.2512 109.358C82.4672 109.521 82.6754 109.691 82.8875 109.859L83.2046 110.112C83.3107 110.196 83.4167 110.28 83.516 110.369L84.1243 110.896L84.428 111.161L84.7172 111.434L85.2956 111.984L85.4412 112.122L85.581 112.263L85.8605 112.547L86.4187 113.115L86.9538 113.693C87.1302 113.886 87.3143 114.079 87.483 114.28C88.846 115.85 90.1162 117.498 91.2871 119.215C92.4526 120.91 93.5237 122.644 94.5378 124.394C95.552 126.144 96.5073 127.91 97.4299 129.679C98.3525 131.448 99.2375 133.223 100.113 134.992C101.865 138.526 103.558 142.044 105.353 145.449C107.148 148.854 109.033 152.156 111.193 155.145C112.247 156.613 113.404 158.005 114.654 159.31C114.956 159.637 115.28 159.929 115.594 160.236C115.749 160.392 115.917 160.525 116.076 160.673C116.235 160.822 116.4 160.963 116.564 161.102C117.216 161.649 117.9 162.156 118.613 162.622C119.309 163.077 120.034 163.486 120.783 163.848C121.526 164.192 122.293 164.482 123.078 164.716L123.367 164.803C123.464 164.831 123.56 164.866 123.662 164.885L124.261 165.022L124.56 165.092L124.864 165.142L125.473 165.244C126.285 165.359 127.105 165.414 127.926 165.407C129.583 165.39 131.228 165.136 132.813 164.652C134.463 164.138 136.054 163.449 137.558 162.596C138.329 162.163 139.092 161.69 139.843 161.189C140.594 160.688 141.333 160.153 142.06 159.592C142.787 159.031 143.506 158.448 144.213 157.841C144.569 157.542 144.917 157.228 145.268 156.919C145.619 156.611 145.964 156.292 146.307 155.969C147.688 154.69 149.028 153.341 150.347 151.958C151.665 150.576 152.95 149.147 154.229 147.697C156.78 144.799 159.257 141.796 161.729 138.77C166.662 132.706 171.553 126.526 176.661 120.485C181.768 114.443 187.081 108.531 192.786 102.967C195.635 100.185 198.586 97.5048 201.638 94.9263C204.695 92.36 207.857 89.9133 211.139 87.6286C217.694 83.0562 224.731 79.1451 232.148 76.1624C235.85 74.6657 239.644 73.4086 243.508 72.3988C245.436 71.8968 247.376 71.4569 249.328 71.079C249.816 70.9884 250.303 70.8862 250.793 70.8062L252.261 70.5575L253.734 70.3396C253.98 70.3039 254.225 70.2654 254.471 70.2326L255.209 70.1362C257.176 69.8778 259.149 69.6937 261.125 69.5655C263.1 69.4373 265.077 69.3727 267.051 69.3659C270.995 69.3573 274.935 69.5975 278.848 70.0851C270.99 69.846 263.143 70.4457 255.501 71.9409C247.88 73.4251 240.467 75.8287 233.425 79.0988C226.411 82.3505 219.811 86.4255 213.662 91.0933C207.514 95.7612 201.805 101.004 196.426 106.581C191.048 112.157 186 118.077 181.098 124.147C178.646 127.181 176.234 130.257 173.821 133.345C171.408 136.433 169.001 139.542 166.552 142.638C164.103 145.735 161.609 148.818 159.007 151.849C156.406 154.879 153.681 157.849 150.709 160.661C149.968 161.368 149.206 162.057 148.423 162.729C147.641 163.4 146.837 164.059 146.013 164.706C145.189 165.348 144.341 165.97 143.461 166.563C142.58 167.155 141.676 167.725 140.737 168.256C138.822 169.345 136.795 170.223 134.692 170.877C132.514 171.544 130.252 171.894 127.974 171.917C126.831 171.925 125.688 171.847 124.556 171.685L123.711 171.544L123.289 171.471L122.871 171.375L122.034 171.182C121.894 171.152 121.757 171.107 121.619 171.068L121.207 170.945C120.11 170.616 119.039 170.207 118.001 169.722C116.98 169.231 115.994 168.672 115.049 168.047C114.12 167.434 113.228 166.765 112.378 166.046C112.17 165.867 111.968 165.682 111.762 165.5C111.557 165.318 111.348 165.139 111.157 164.947C110.771 164.567 110.367 164.195 110 163.8C108.537 162.263 107.188 160.622 105.964 158.889C104.754 157.188 103.66 155.444 102.633 153.683C101.605 151.922 100.651 150.145 99.7407 148.362C97.9138 144.795 96.2384 141.215 94.5571 137.685C93.7155 135.92 92.871 134.169 92.0063 132.441C91.1415 130.712 90.2594 129.007 89.334 127.341C87.4811 124.014 85.4778 120.82 83.1266 118.018C81.9793 116.633 80.7118 115.353 79.3389 114.192C79.1682 114.051 79.0015 113.902 78.8289 113.768L78.3045 113.37L78.0423 113.171C77.9555 113.102 77.8629 113.046 77.7742 112.983L77.2344 112.611C77.057 112.482 76.8671 112.378 76.6839 112.263L76.1286 111.921L75.5589 111.612C75.3661 111.51 75.182 111.399 74.9805 111.312C73.4326 110.548 71.7905 109.991 70.0967 109.658L69.9376 109.623L69.7776 109.597L69.4566 109.546L69.1356 109.494L68.9745 109.467L68.8126 109.449L68.1648 109.375L68.0028 109.357L67.8399 109.347L67.5141 109.326L67.1882 109.305L67.0253 109.294H66.8614L66.2059 109.283H66.042L65.8771 109.287L65.5484 109.297C65.3286 109.307 65.1097 109.302 64.8899 109.324C63.1068 109.44 61.341 109.745 59.6225 110.235C57.8575 110.735 56.1369 111.38 54.4784 112.163C52.7837 112.957 51.1381 113.852 49.5503 114.842C47.948 115.837 46.3847 116.911 44.8602 118.065C43.3371 119.214 41.8496 120.425 40.3958 121.683C38.942 122.941 37.5259 124.252 36.1348 125.595C33.3564 128.285 30.6899 131.112 28.114 134.031C22.9632 139.872 18.1585 146.057 13.5427 152.388C8.92688 158.72 4.54632 165.223 0.230347 171.795Z" fill="#735CD2"/>
<path d="M0.230347 161.838C3.92966 154.896 7.87802 148.089 12.0754 141.415C13.1262 139.748 14.1969 138.093 15.2876 136.45C16.3782 134.806 17.4894 133.175 18.6212 131.556C20.8835 128.318 23.2453 125.145 25.7068 122.035C28.1748 118.933 30.7593 115.911 33.4972 113.008C34.8655 111.557 36.2775 110.143 37.7331 108.767C39.1908 107.39 40.6956 106.054 42.2641 104.775C45.3895 102.22 48.7549 99.8849 52.4462 97.9964C54.3088 97.0396 56.2477 96.2392 58.2429 95.6036C60.2817 94.9484 62.3857 94.5169 64.5178 94.3167C64.7858 94.2839 65.0577 94.2771 65.3276 94.2579L65.7335 94.2338L65.9369 94.2222H66.1403L66.9559 94.2116H67.1602L67.3646 94.2174L67.7734 94.2309L68.1821 94.2453L68.3865 94.253L68.5909 94.2694L69.4074 94.336L69.6118 94.3533L69.8152 94.3793L70.222 94.4324L70.6288 94.4863L70.8322 94.5143L71.0347 94.5519C73.2066 94.9166 75.3205 95.5678 77.3212 96.4886C77.5757 96.5956 77.8167 96.7248 78.0615 96.8482L78.7942 97.2232L79.5047 97.6329C79.7389 97.7727 79.9867 97.9019 80.2065 98.0552L80.891 98.5006C81.0037 98.5767 81.1214 98.6471 81.2303 98.7271L81.56 98.9643L82.2184 99.4405C82.4344 99.6034 82.6416 99.7741 82.8537 99.9408L83.1699 100.192C83.276 100.276 83.3811 100.36 83.4813 100.449L84.0887 100.976L84.3923 101.24L84.6815 101.513L85.26 102.062L85.4055 102.199L85.5453 102.34L85.8239 102.624L86.3811 103.191L86.9152 103.769C87.0907 103.962 87.2748 104.155 87.4435 104.355C88.8045 105.924 90.0727 107.57 91.2418 109.286C92.4054 110.979 93.4754 112.712 94.4886 114.461C95.5018 116.21 96.4562 117.976 97.3807 119.744C98.3052 121.512 99.1873 123.289 100.063 125.057C101.814 128.591 103.507 132.11 105.303 135.517C107.099 138.925 108.985 142.229 111.147 145.22C112.204 146.692 113.364 148.086 114.618 149.394C114.92 149.722 115.245 150.014 115.559 150.322C115.715 150.479 115.882 150.611 116.042 150.761C116.201 150.91 116.366 151.05 116.531 151.192C117.185 151.74 117.871 152.249 118.586 152.716C119.284 153.173 120.012 153.583 120.763 153.946C121.509 154.292 122.279 154.584 123.067 154.819L123.362 154.907C123.459 154.935 123.555 154.97 123.658 154.989L124.259 155.127L124.559 155.197L124.864 155.246L125.475 155.349C126.29 155.464 127.114 155.519 127.938 155.512C129.6 155.495 131.252 155.24 132.843 154.754C134.498 154.239 136.093 153.547 137.6 152.692C138.371 152.258 139.137 151.785 139.889 151.282C140.641 150.78 141.382 150.244 142.106 149.682C142.83 149.12 143.552 148.538 144.262 147.928C144.617 147.629 144.965 147.314 145.317 147.006C145.669 146.697 146.014 146.377 146.357 146.054C147.739 144.774 149.08 143.424 150.399 142.041C151.717 140.659 153.002 139.228 154.282 137.778C156.834 134.878 159.31 131.874 161.783 128.848C166.716 122.783 171.605 116.605 176.711 110.561C181.816 104.516 187.123 98.6066 192.829 93.0432C195.676 90.261 198.624 87.5803 201.675 85.0012C204.73 82.435 207.891 79.9882 211.169 77.7025C217.725 73.1292 224.756 69.2133 232.166 66.2305C235.865 64.7357 239.655 63.4799 243.515 62.4708C245.443 61.9682 247.382 61.527 249.332 61.1472C249.82 61.0566 250.307 60.9544 250.796 60.8744L252.264 60.6247L253.736 60.4059C253.982 60.3702 254.227 60.3316 254.472 60.2988L255.21 60.2024C257.176 59.9421 259.149 59.758 261.124 59.624C263.098 59.49 265.076 59.4312 267.05 59.4206C270.992 59.4054 274.931 59.6386 278.844 60.1186C271.016 59.8578 263.184 60.4741 255.494 61.956C247.871 63.4357 240.455 65.8354 233.411 69.1024C226.392 72.3512 219.789 76.4242 213.639 81.0921C207.49 85.7599 201.772 91.0004 196.392 96.5773C191.011 102.154 185.96 108.073 181.064 114.143C178.61 117.176 176.197 120.252 173.783 123.341C171.369 126.43 168.963 129.538 166.512 132.632C164.062 135.727 161.57 138.81 158.968 141.84C156.366 144.87 153.643 147.837 150.677 150.646C149.936 151.35 149.175 152.038 148.393 152.712C147.612 153.386 146.81 154.044 145.988 154.687C145.165 155.328 144.318 155.95 143.438 156.541C142.559 157.132 141.657 157.698 140.72 158.232C138.809 159.318 136.786 160.195 134.687 160.847C132.515 161.513 130.259 161.862 127.988 161.885C126.847 161.893 125.708 161.815 124.579 161.653L123.736 161.513L123.315 161.44L122.898 161.344L122.064 161.151C121.924 161.121 121.788 161.076 121.651 161.036L121.241 160.914C120.147 160.585 119.078 160.177 118.044 159.694C117.025 159.204 116.041 158.647 115.099 158.024C114.172 157.412 113.282 156.745 112.434 156.027C112.226 155.848 112.024 155.665 111.819 155.483C111.614 155.3 111.405 155.122 111.215 154.93C110.829 154.551 110.427 154.18 110.064 153.786C108.602 152.252 107.255 150.613 106.033 148.883C104.824 147.184 103.732 145.442 102.705 143.684C101.678 141.925 100.724 140.148 99.813 138.365C97.9861 134.798 96.3107 131.222 94.6284 127.691C93.7868 125.925 92.9423 124.175 92.0766 122.446C91.2109 120.718 90.3279 119.011 89.4024 117.345C87.5476 114.017 85.5376 110.82 83.1863 108.014C82.0365 106.626 80.766 105.344 79.39 104.181C79.2193 104.04 79.0516 103.891 78.879 103.756L78.3536 103.357L78.0914 103.157C78.0046 103.088 77.9121 103.032 77.8224 102.964L77.2816 102.593C77.1042 102.464 76.9134 102.36 76.7292 102.243L76.173 101.901L75.6023 101.59C75.4095 101.487 75.2244 101.377 75.0238 101.29C73.4717 100.524 71.825 99.9673 70.1266 99.6333L69.9675 99.5986L69.8065 99.5726L69.4845 99.5215L69.1625 99.4694L69.0015 99.4434L68.8396 99.4251L68.1898 99.3518L68.0269 99.3335L67.864 99.3239L67.5372 99.3036L67.2104 99.2824L67.0465 99.2718H66.8826L66.2251 99.2602H66.0603L65.8954 99.265L65.5657 99.2747C65.3459 99.2843 65.1261 99.2795 64.9054 99.3017C63.1189 99.418 61.3498 99.7244 59.6283 100.216C57.861 100.715 56.1382 101.36 54.4774 102.144C52.7814 102.939 51.1345 103.835 49.5454 104.828C47.9426 105.824 46.3786 106.899 44.8535 108.054C43.3303 109.204 41.8428 110.417 40.389 111.676C38.9353 112.935 37.5191 114.247 36.128 115.591C33.3507 118.283 30.6841 121.112 28.1102 124.033C22.9613 129.878 18.1594 136.065 13.5533 142.401C8.94713 148.736 4.53957 155.261 0.230347 161.838Z" fill="url(#paint5_linear_108_289)"/>
<path d="M224.895 78.7479C229.094 78.7479 232.498 75.3438 232.498 71.1446C232.498 66.9454 229.094 63.5413 224.895 63.5413C220.695 63.5413 217.291 66.9454 217.291 71.1446C217.291 75.3438 220.695 78.7479 224.895 78.7479Z" fill="url(#paint6_linear_108_289)"/>
<path d="M128.334 166.367C132.533 166.367 135.937 162.962 135.937 158.763C135.937 154.564 132.533 151.16 128.334 151.16C124.135 151.16 120.731 154.564 120.731 158.763C120.731 162.962 124.135 166.367 128.334 166.367Z" fill="url(#paint7_linear_108_289)"/>
<path d="M65.8378 104.495C70.037 104.495 73.4411 101.091 73.4411 96.8917C73.4411 92.6925 70.037 89.2883 65.8378 89.2883C61.6386 89.2883 58.2345 92.6925 58.2345 96.8917C58.2345 101.091 61.6386 104.495 65.8378 104.495Z" fill="url(#paint8_linear_108_289)"/>
<path d="M92.3967 7.91369V9.594L92.3823 44.8921C92.3823 48.8446 89.1402 52.0886 85.1713 52.0886L59.5676 52.0741L24.6696 52.0587H23.4356C21.529 52.0521 19.7024 51.2917 18.3542 49.9436C17.0061 48.5954 16.2457 46.7688 16.2391 44.8622L16.269 7.88381C16.269 3.91392 19.5111 0.672844 23.4655 0.687304L85.1993 0.702732C89.1566 0.702732 92.3967 3.94477 92.3967 7.91369Z" fill="url(#paint9_linear_108_289)"/>
<path opacity="0.48" d="M100.813 16.3292L100.798 53.3066C100.794 55.214 100.035 57.042 98.686 58.3908C97.3372 59.7395 95.5091 60.499 93.6018 60.5031L59.5714 60.4877V52.0726L85.1751 52.0871C89.145 52.0871 92.3861 48.845 92.3861 44.8906L92.4006 9.59252V9.13171H93.6201C94.4785 9.13219 95.3297 9.28832 96.1323 9.59252C97.5052 10.106 98.6887 11.026 99.525 12.2297C100.361 13.4334 100.81 14.8635 100.813 16.3292Z" fill="url(#paint10_linear_108_289)"/>
<path d="M50.5673 27.6255H43.766C43.4764 27.6255 43.2416 27.8603 43.2416 28.1499V42.4803C43.2416 42.7699 43.4764 43.0047 43.766 43.0047H50.5673C50.8569 43.0047 51.0917 42.7699 51.0917 42.4803V28.1499C51.0917 27.8603 50.8569 27.6255 50.5673 27.6255Z" fill="url(#paint11_linear_108_289)"/>
<path d="M65.4442 9.60437H59.0248C58.6297 9.60437 58.3094 9.92463 58.3094 10.3197V42.2947C58.3094 42.6898 58.6297 43.01 59.0248 43.01H65.4442C65.8393 43.01 66.1596 42.6898 66.1596 42.2947V10.3197C66.1596 9.92463 65.8393 9.60437 65.4442 9.60437Z" fill="url(#paint12_linear_108_289)"/>
<path d="M81.2284 18.5521L81.2188 42.4804C81.2188 42.7782 80.9218 43.0192 80.5565 43.0192H74.0309C73.6646 43.0192 73.3687 42.7773 73.3687 42.4804L73.3783 18.5521C73.3783 18.2552 73.6742 18.0142 74.0396 18.0142H80.5671C80.9324 18.0132 81.2284 18.2542 81.2284 18.5521Z" fill="url(#paint13_linear_108_289)"/>
<path d="M29.0116 17.9927H34.9019C35.1619 17.9927 35.4113 18.096 35.5951 18.2798C35.779 18.4637 35.8823 18.7131 35.8823 18.9731V42.3991C35.8823 42.5574 35.8194 42.7091 35.7075 42.821C35.5956 42.933 35.4438 42.9958 35.2855 42.9958H28.6337C28.4755 42.9958 28.3237 42.933 28.2118 42.821C28.0999 42.7091 28.037 42.5574 28.037 42.3991V18.9731C28.037 18.7141 28.1395 18.4656 28.3221 18.2819C28.5047 18.0982 28.7526 17.9942 29.0116 17.9927Z" fill="url(#paint14_linear_108_289)"/>
<path opacity="0.64" d="M102.606 0.686391L104.072 0.629516L105.539 0.57649C105.568 0.575467 105.597 0.586171 105.618 0.606239C105.64 0.626307 105.652 0.654093 105.653 0.683496C105.654 0.712899 105.644 0.74151 105.624 0.763024C105.604 0.784538 105.576 0.797199 105.546 0.798222H105.539L104.072 0.745195L102.606 0.686391ZM108.469 0.482016L111.401 0.402971C111.438 0.401958 111.475 0.408247 111.509 0.421482C111.544 0.434717 111.576 0.45463 111.603 0.480098C111.629 0.505566 111.651 0.536088 111.666 0.569911C111.681 0.603735 111.69 0.640205 111.691 0.677235C111.692 0.714265 111.685 0.751125 111.672 0.785724C111.659 0.820323 111.639 0.851979 111.613 0.87888C111.588 0.90578 111.557 0.927403 111.524 0.942509C111.49 0.957616 111.453 0.965915 111.416 0.966928H111.401L108.469 0.88787C108.418 0.884325 108.37 0.861413 108.335 0.823747C108.299 0.78608 108.28 0.736469 108.28 0.684943C108.28 0.633418 108.299 0.583818 108.335 0.546152C108.37 0.508485 108.418 0.485561 108.469 0.482016ZM114.333 0.331622L117.265 0.271852C117.375 0.269551 117.482 0.311069 117.561 0.387272C117.641 0.463476 117.687 0.568131 117.689 0.6782C117.691 0.788269 117.65 0.894742 117.573 0.9742C117.497 1.05366 117.393 1.09959 117.282 1.10189H117.265L114.333 1.04212C114.239 1.04212 114.149 1.00474 114.083 0.938214C114.016 0.871683 113.979 0.781445 113.979 0.687356C113.979 0.593267 114.016 0.503029 114.083 0.436498C114.149 0.369967 114.239 0.332587 114.333 0.332587V0.331622ZM120.197 0.213047L123.128 0.169671C123.262 0.173085 123.389 0.227954 123.482 0.322796C123.576 0.417638 123.63 0.545103 123.632 0.678506C123.634 0.811909 123.584 0.940909 123.493 1.03851C123.402 1.13611 123.277 1.19475 123.144 1.20215H123.128L120.197 1.15877C120.071 1.15877 119.951 1.1089 119.862 1.02013C119.773 0.931362 119.723 0.810963 119.723 0.685426C119.723 0.559888 119.773 0.43949 119.862 0.350721C119.951 0.261953 120.071 0.212082 120.197 0.212082V0.213047ZM126.06 0.127247L127.526 0.106041L128.993 0.0906134C129.071 0.0897905 129.148 0.104386 129.221 0.133567C129.294 0.162747 129.36 0.205944 129.416 0.260684C129.472 0.315425 129.516 0.380641 129.547 0.452608C129.578 0.524576 129.594 0.601892 129.595 0.68013C129.595 0.758368 129.581 0.835996 129.552 0.908594C129.522 0.981191 129.479 1.04733 129.425 1.10324C129.37 1.15914 129.305 1.20371 129.233 1.23441C129.161 1.26511 129.083 1.28135 129.005 1.28217H128.993L127.526 1.26674L126.06 1.24553C125.912 1.24553 125.769 1.18657 125.664 1.08162C125.559 0.976669 125.5 0.834329 125.5 0.685908C125.5 0.537488 125.559 0.395148 125.664 0.290198C125.769 0.185249 125.912 0.126294 126.06 0.126294V0.127247ZM131.923 0.0616995L134.855 0.0395286C135.027 0.0382502 135.192 0.105224 135.314 0.225722C135.436 0.346219 135.506 0.510361 135.507 0.682048C135.508 0.853736 135.441 1.01891 135.321 1.14121C135.2 1.26352 135.036 1.33294 134.865 1.33422H134.855L131.923 1.31205C131.757 1.31205 131.598 1.24603 131.48 1.12851C131.363 1.011 131.297 0.851616 131.297 0.685426C131.297 0.519236 131.363 0.359852 131.48 0.242338C131.598 0.124824 131.757 0.0588046 131.923 0.0588046V0.0616995ZM137.786 0.0221709L140.718 0.008673C140.898 0.00790598 141.07 0.078523 141.198 0.204986C141.325 0.33145 141.397 0.5034 141.398 0.683013C141.399 0.862627 141.328 1.03519 141.202 1.16273C141.075 1.29028 140.904 1.36238 140.724 1.36314H140.718L137.786 1.34965C137.61 1.34965 137.441 1.27966 137.317 1.1551C137.192 1.03053 137.122 0.861588 137.122 0.685426C137.122 0.509264 137.192 0.340319 137.317 0.215754C137.441 0.091189 137.61 0.0212059 137.786 0.0212059V0.0221709ZM143.65 0H146.581C146.763 0 146.937 0.0722191 147.066 0.200762C147.195 0.329304 147.267 0.503639 147.267 0.685426C147.267 0.867212 147.195 1.04156 147.066 1.1701C146.937 1.29864 146.763 1.37085 146.581 1.37085H143.65C143.469 1.37085 143.295 1.29895 143.167 1.17095C143.039 1.04295 142.967 0.86934 142.967 0.688321C142.967 0.507301 143.039 0.333693 143.167 0.205692C143.295 0.0776923 143.469 0.00578984 143.65 0.00578984V0ZM149.513 0.00578984L152.445 0.0134979C152.624 0.0134979 152.795 0.084599 152.922 0.211153C153.048 0.337707 153.119 0.509347 153.119 0.688321C153.119 0.867295 153.048 1.03893 152.922 1.16549C152.795 1.29204 152.624 1.36314 152.445 1.36314L149.513 1.37085C149.337 1.36422 149.17 1.28956 149.048 1.16256C148.925 1.03555 148.857 0.866095 148.857 0.689768C148.857 0.513442 148.925 0.34397 149.048 0.216966C149.17 0.089962 149.337 0.0153033 149.513 0.008673V0.00578984ZM155.38 0.0269957C156.391 0.0373495 157.399 0.12631 158.397 0.29307C158.561 0.323603 158.706 0.417008 158.802 0.553389C158.899 0.68977 158.938 0.858336 158.912 1.02315C158.885 1.18797 158.796 1.33601 158.662 1.43572C158.528 1.53542 158.36 1.57891 158.195 1.55692C157.261 1.41703 156.317 1.3471 155.372 1.34772C155.197 1.34772 155.03 1.27819 154.906 1.15444C154.782 1.03069 154.712 0.862849 154.712 0.687838C154.712 0.512827 154.782 0.344978 154.906 0.221226C155.03 0.0974746 155.197 0.0279607 155.372 0.0279607L155.38 0.0269957ZM161.333 1.02091C162.29 1.34095 163.22 1.73449 164.116 2.198C164.248 2.27168 164.346 2.39329 164.39 2.53749C164.434 2.68169 164.421 2.83734 164.353 2.97198C164.285 3.10662 164.168 3.20987 164.025 3.26019C163.883 3.3105 163.727 3.304 163.59 3.24204C162.74 2.82471 161.859 2.47371 160.955 2.19221C160.799 2.14376 160.669 2.03539 160.593 1.89094C160.517 1.74649 160.502 1.57778 160.55 1.42195C160.599 1.26611 160.707 1.13591 160.851 1.05998C160.996 0.984045 161.165 0.968608 161.32 1.01706L161.333 1.02091ZM166.676 3.79347C167.484 4.38962 168.246 5.04676 168.955 5.75913C169.044 5.85292 169.094 5.97785 169.093 6.10759C169.093 6.23733 169.041 6.36173 168.951 6.45452C168.86 6.54732 168.737 6.60126 168.607 6.60498C168.478 6.60869 168.352 6.5619 168.256 6.47445C167.565 5.82029 166.826 5.21987 166.044 4.67845C165.93 4.59472 165.853 4.46965 165.829 4.3299C165.806 4.19015 165.838 4.04675 165.919 3.93025C165.999 3.81375 166.122 3.73335 166.261 3.70618C166.4 3.67901 166.545 3.70722 166.663 3.78479L166.676 3.79347ZM170.899 8.04581C171.483 8.85746 172.005 9.71283 172.458 10.6044C172.507 10.696 172.517 10.8034 172.487 10.9028C172.457 11.0022 172.389 11.0856 172.297 11.1346C172.205 11.1835 172.098 11.1941 171.998 11.1639C171.899 11.1337 171.816 11.0652 171.767 10.9736C171.298 10.1397 170.767 9.34295 170.176 8.59049C170.139 8.54378 170.112 8.4903 170.096 8.43312C170.08 8.37594 170.076 8.31616 170.083 8.25721C170.09 8.19827 170.109 8.14129 170.138 8.08955C170.167 8.03782 170.206 7.99233 170.253 7.95568C170.299 7.91903 170.353 7.89194 170.41 7.87595C170.467 7.85997 170.527 7.85541 170.586 7.86253C170.645 7.86964 170.702 7.8883 170.754 7.91744C170.805 7.94657 170.851 7.9856 170.888 8.03232L170.899 8.04581ZM173.599 13.3615C173.903 14.3063 174.133 15.2733 174.287 16.2536C174.296 16.3179 174.28 16.3831 174.242 16.4358C174.204 16.4884 174.147 16.5243 174.083 16.536C174.019 16.5477 173.953 16.5343 173.899 16.4986C173.845 16.4628 173.807 16.4075 173.792 16.3442C173.593 15.4017 173.322 14.4761 172.98 13.5755C172.965 13.5352 172.958 13.4922 172.959 13.4491C172.96 13.406 172.97 13.3636 172.988 13.3242C173.006 13.2849 173.031 13.2494 173.062 13.2198C173.094 13.1902 173.13 13.1671 173.171 13.1518C173.211 13.1365 173.254 13.1293 173.297 13.1305C173.34 13.1318 173.383 13.1416 173.422 13.1593C173.461 13.177 173.497 13.2022 173.527 13.2336C173.556 13.265 173.579 13.3019 173.595 13.3422L173.599 13.3615ZM174.51 19.2093C174.505 19.4551 174.505 19.7039 174.495 19.9468L174.472 20.6795L174.42 22.1458C174.42 22.1634 174.413 22.1803 174.4 22.1928C174.388 22.2053 174.371 22.2123 174.353 22.2123C174.336 22.2123 174.319 22.2053 174.306 22.1928C174.294 22.1803 174.287 22.1634 174.287 22.1458L174.235 20.6795L174.212 19.9468C174.206 19.7019 174.19 19.4648 174.181 19.219V19.2132C174.182 19.1711 174.199 19.1309 174.228 19.1009C174.258 19.0708 174.298 19.0531 174.34 19.0514C174.382 19.0497 174.423 19.0641 174.455 19.0916C174.487 19.1191 174.507 19.1578 174.511 19.1997C174.511 19.1997 174.51 19.2055 174.51 19.2093ZM33.0029 62.2601L33.0598 63.7264L33.1128 65.1927C33.1133 65.2073 33.1109 65.2218 33.1058 65.2354C33.1007 65.2491 33.093 65.2616 33.083 65.2722C33.0731 65.2829 33.0612 65.2915 33.0479 65.2975C33.0347 65.3036 33.0203 65.3069 33.0058 65.3074C32.9912 65.3079 32.9767 65.3056 32.9631 65.3005C32.9494 65.2954 32.9369 65.2876 32.9263 65.2777C32.9156 65.2677 32.907 65.2558 32.901 65.2426C32.8949 65.2293 32.8916 65.215 32.8911 65.2004C32.8911 65.2004 32.8911 65.1946 32.8911 65.1927L32.9441 63.7264L33.0029 62.2601ZM33.2063 68.1234L33.2854 71.055C33.2874 71.1298 33.2596 71.2023 33.2082 71.2566C33.1568 71.311 33.0859 71.3426 33.0111 71.3447C32.9363 71.3467 32.8638 71.319 32.8094 71.2676C32.7551 71.2161 32.7234 71.1452 32.7214 71.0704C32.7214 71.0704 32.7214 71.0598 32.7214 71.055L32.8004 68.1234C32.804 68.072 32.8269 68.0238 32.8646 67.9887C32.9022 67.9535 32.9518 67.9339 33.0034 67.9339C33.0549 67.9339 33.1045 67.9535 33.1422 67.9887C33.1798 68.0238 33.2028 68.072 33.2063 68.1234ZM33.3586 73.9866L33.4184 76.9182C33.4195 76.9727 33.4099 77.0269 33.3901 77.0777C33.3703 77.1285 33.3407 77.1749 33.303 77.2142C33.2652 77.2536 33.2201 77.2851 33.1702 77.307C33.1203 77.3289 33.0666 77.3408 33.0121 77.3419C32.9576 77.3431 32.9034 77.3335 32.8526 77.3137C32.8018 77.2939 32.7554 77.2642 32.7161 77.2265C32.6767 77.1888 32.6452 77.1437 32.6233 77.0938C32.6014 77.0438 32.5895 76.9901 32.5884 76.9356V76.9182L32.6481 73.9866C32.6481 73.8925 32.6855 73.8023 32.752 73.7358C32.8186 73.6692 32.9088 73.6319 33.0029 73.6319C33.097 73.6319 33.1872 73.6692 33.2537 73.7358C33.3203 73.8023 33.3577 73.8925 33.3577 73.9866H33.3586ZM33.4762 79.8499L33.5196 82.7815C33.5235 82.851 33.5132 82.9206 33.4895 82.986C33.4658 83.0515 33.4292 83.1115 33.3817 83.1624C33.3342 83.2134 33.277 83.2542 33.2133 83.2824C33.1497 83.3107 33.081 83.3258 33.0114 83.3268C32.9418 83.3279 32.8727 83.3148 32.8082 83.2885C32.7438 83.2621 32.6853 83.2231 32.6364 83.1736C32.5874 83.1241 32.5489 83.0652 32.5233 83.0005C32.4976 82.9357 32.4853 82.8665 32.4871 82.7969C32.4871 82.7969 32.4871 82.7863 32.4871 82.7815L32.5305 79.8499C32.5305 79.7243 32.5804 79.6039 32.6692 79.5152C32.7579 79.4264 32.8783 79.3765 33.0038 79.3765C33.1294 79.3765 33.2498 79.4264 33.3386 79.5152C33.4273 79.6039 33.4772 79.7243 33.4772 79.8499H33.4762ZM33.563 85.7131L33.5842 87.1794L33.5996 88.6457C33.6013 88.8037 33.5401 88.9559 33.4296 89.0688C33.319 89.1817 33.1681 89.2461 33.0101 89.2477C32.8521 89.2494 32.6999 89.1882 32.587 89.0777C32.4741 88.9671 32.4097 88.8162 32.4081 88.6582C32.4081 88.6582 32.4081 88.6486 32.4081 88.6457L32.4235 87.1794L32.4447 85.7131C32.4447 85.5647 32.5037 85.4223 32.6086 85.3174C32.7136 85.2124 32.8559 85.1535 33.0043 85.1535C33.1528 85.1535 33.2951 85.2124 33.4 85.3174C33.505 85.4223 33.564 85.5647 33.564 85.7131H33.563ZM33.6286 91.5773L33.6507 94.509C33.652 94.6806 33.585 94.8458 33.4645 94.9681C33.344 95.0904 33.1799 95.1598 33.0082 95.1611C32.8365 95.1624 32.6713 95.0954 32.549 94.9749C32.4267 94.8544 32.3573 94.6903 32.356 94.5186C32.356 94.5186 32.356 94.5109 32.356 94.509L32.3782 91.5773C32.3782 91.4111 32.4442 91.2517 32.5617 91.1342C32.6792 91.0167 32.8386 90.9507 33.0048 90.9507C33.171 90.9507 33.3304 91.0167 33.4479 91.1342C33.5654 91.2517 33.6314 91.4111 33.6314 91.5773H33.6286ZM33.6671 97.4406L33.6806 100.372C33.6814 100.552 33.6108 100.724 33.4843 100.852C33.3578 100.979 33.1859 101.052 33.0063 101.052C32.8266 101.053 32.6541 100.982 32.5265 100.856C32.399 100.73 32.3269 100.558 32.3261 100.378V100.372L32.3396 97.4406C32.3396 97.2644 32.4096 97.0955 32.5342 96.9709C32.6587 96.8463 32.8277 96.7764 33.0038 96.7764C33.18 96.7764 33.349 96.8463 33.4735 96.9709C33.5981 97.0955 33.6681 97.2644 33.6681 97.4406H33.6671ZM33.6854 103.304V106.235C33.6854 106.417 33.6132 106.592 33.4847 106.72C33.3561 106.849 33.1818 106.921 33 106.921C32.8182 106.921 32.6439 106.849 32.5153 106.72C32.3868 106.592 32.3146 106.417 32.3146 106.235V103.304C32.3146 103.123 32.3865 102.949 32.5145 102.821C32.6425 102.693 32.8161 102.621 32.9971 102.621C33.1781 102.621 33.3517 102.693 33.4797 102.821C33.6077 102.949 33.6796 103.123 33.6796 103.304H33.6854ZM33.6845 109.167L33.6768 112.099C33.6768 112.278 33.6057 112.449 33.4791 112.576C33.3525 112.702 33.1809 112.774 33.0019 112.774C32.823 112.774 32.6513 112.702 32.5248 112.576C32.3982 112.449 32.3271 112.278 32.3271 112.099L32.3194 109.167C32.3159 109.075 32.331 108.984 32.3637 108.898C32.3964 108.813 32.446 108.735 32.5096 108.669C32.5731 108.603 32.6494 108.55 32.7337 108.514C32.8181 108.478 32.9088 108.46 33.0005 108.46C33.0921 108.46 33.1829 108.478 33.2672 108.514C33.3516 108.55 33.4278 108.603 33.4914 108.669C33.555 108.735 33.6046 108.813 33.6373 108.898C33.6699 108.984 33.685 109.075 33.6816 109.167H33.6845ZM33.6633 115.026C33.6626 115.971 33.7326 116.915 33.8724 117.849C33.8944 118.015 33.851 118.182 33.7513 118.316C33.6516 118.45 33.5035 118.539 33.3387 118.566C33.1739 118.592 33.0053 118.553 32.8689 118.457C32.7325 118.36 32.6391 118.215 32.6086 118.051C32.4418 117.054 32.3529 116.045 32.3425 115.034C32.341 114.859 32.409 114.691 32.5317 114.566C32.6544 114.441 32.8216 114.37 32.9966 114.368C33.1716 114.367 33.3401 114.435 33.4649 114.558C33.5898 114.68 33.6608 114.848 33.6623 115.023L33.6633 115.026ZM34.5087 120.609C34.7902 121.513 35.1412 122.394 35.5585 123.244C35.6205 123.381 35.627 123.537 35.5767 123.68C35.5264 123.822 35.4231 123.939 35.2885 124.007C35.1538 124.075 34.9982 124.088 34.854 124.044C34.7098 124 34.5882 123.902 34.5145 123.77C34.051 122.874 33.6575 121.944 33.3374 120.987C33.2855 120.832 33.2972 120.663 33.37 120.517C33.4428 120.371 33.5706 120.26 33.7254 120.208C33.8802 120.156 34.0493 120.167 34.1955 120.24C34.3417 120.313 34.453 120.441 34.5049 120.596L34.5087 120.609ZM36.9949 125.697C37.5363 126.48 38.1367 127.219 38.7909 127.91C38.8784 128.006 38.9252 128.132 38.9215 128.261C38.9178 128.391 38.8638 128.514 38.771 128.605C38.6782 128.696 38.5538 128.747 38.4241 128.747C38.2944 128.748 38.1694 128.698 38.0756 128.609C37.3632 127.9 36.7061 127.138 36.11 126.33C36.0654 126.272 36.0327 126.207 36.0138 126.137C35.995 126.067 35.9903 125.994 36.0002 125.922C36.0101 125.85 36.0342 125.781 36.0713 125.718C36.1083 125.656 36.1574 125.601 36.2158 125.558C36.2742 125.515 36.3406 125.484 36.4112 125.467C36.4817 125.45 36.5549 125.447 36.6266 125.459C36.6982 125.471 36.7667 125.497 36.8282 125.535C36.8896 125.574 36.9427 125.624 36.9843 125.684L36.9949 125.697ZM40.906 129.83C41.6585 130.421 42.4552 130.952 43.2891 131.421C43.3808 131.47 43.4492 131.553 43.4794 131.653C43.5096 131.752 43.4991 131.859 43.4501 131.951C43.4011 132.043 43.3178 132.111 43.2183 132.141C43.1189 132.172 43.0115 132.161 42.9199 132.112C42.029 131.659 41.1743 131.137 40.3633 130.553C40.315 130.519 40.2741 130.475 40.2428 130.424C40.2115 130.374 40.1904 130.318 40.1808 130.259C40.1712 130.201 40.1732 130.141 40.1867 130.083C40.2002 130.025 40.225 129.97 40.2596 129.922C40.2943 129.874 40.3381 129.833 40.3885 129.802C40.4389 129.77 40.4951 129.749 40.5537 129.74C40.6123 129.73 40.6722 129.732 40.73 129.746C40.7878 129.759 40.8424 129.784 40.8906 129.819L40.906 129.83ZM45.8939 132.634C46.7945 132.975 47.7202 133.247 48.6626 133.445C48.7259 133.46 48.7812 133.498 48.817 133.552C48.8527 133.606 48.8661 133.672 48.8544 133.736C48.8427 133.8 48.8068 133.857 48.7542 133.895C48.7016 133.933 48.6363 133.949 48.572 133.94C47.5917 133.786 46.6248 133.556 45.6799 133.253C45.5969 133.227 45.5279 133.169 45.4879 133.091C45.448 133.014 45.4404 132.924 45.4669 132.841C45.4933 132.758 45.5517 132.689 45.629 132.649C45.7064 132.609 45.7965 132.601 45.8795 132.628L45.8939 132.634ZM51.5355 133.833C51.7784 133.842 52.0175 133.858 52.2633 133.864L52.996 133.887L54.4623 133.939C54.4799 133.939 54.4968 133.946 54.5093 133.958C54.5218 133.971 54.5288 133.988 54.5288 134.005C54.5288 134.023 54.5218 134.04 54.5093 134.052C54.4968 134.065 54.4799 134.072 54.4623 134.072L52.996 134.124L52.2633 134.147C52.0204 134.157 51.7716 134.157 51.5258 134.162C51.4818 134.163 51.4393 134.147 51.4076 134.116C51.3758 134.086 51.3575 134.044 51.3566 134C51.3557 133.956 51.3723 133.914 51.4028 133.882C51.4333 133.85 51.4751 133.832 51.5191 133.831H51.5355V133.833Z" fill="#735CD2"/>
<path opacity="0.15" d="M295.806 70.4638L274.329 82.3214C273.479 82.7909 272.562 81.8172 273.083 80.9968L280.265 69.6646L272.98 58.5898C272.444 57.7762 273.349 56.7861 274.208 57.246L295.795 68.8143C295.944 68.8941 296.069 69.0125 296.156 69.1571C296.243 69.3017 296.29 69.4671 296.291 69.6359C296.292 69.8048 296.247 69.9708 296.162 70.1165C296.077 70.2621 295.954 70.3821 295.806 70.4638Z" fill="url(#paint15_linear_108_289)"/>
<path d="M296.78 61.1856L275.303 73.0432C274.453 73.5127 273.536 72.539 274.056 71.7186L281.238 60.3864L273.953 49.3116C273.418 48.498 274.322 47.5079 275.181 47.9678L296.769 59.5362C296.918 59.6159 297.042 59.7343 297.13 59.8789C297.217 60.0235 297.263 60.1889 297.264 60.3577C297.266 60.5266 297.221 60.6926 297.136 60.8383C297.05 60.984 296.927 61.1039 296.78 61.1856Z" fill="url(#paint16_linear_108_289)"/>
<defs>
<linearGradient id="paint0_linear_108_289" x1="198.552" y1="160.612" x2="224.473" y2="133.951" gradientUnits="userSpaceOnUse">
<stop stop-color="#DEE1E2"/>
<stop offset="1" stop-color="#B4BCBE"/>
</linearGradient>
<linearGradient id="paint1_linear_108_289" x1="225.158" y1="208.907" x2="126.373" y2="160.012" gradientUnits="userSpaceOnUse">
<stop stop-color="#5B40D8"/>
<stop offset="1" stop-color="#BBADFF"/>
</linearGradient>
<linearGradient id="paint2_linear_108_289" x1="250.517" y1="133.718" x2="228.981" y2="185.528" gradientUnits="userSpaceOnUse">
<stop stop-color="#60B05B"/>
<stop offset="0.25" stop-color="#75BC60"/>
<stop offset="0.74" stop-color="#9AD069"/>
<stop offset="1" stop-color="#A8D86D"/>
</linearGradient>
<linearGradient id="paint3_linear_108_289" x1="242.55" y1="130.49" x2="186.995" y2="187.917" gradientUnits="userSpaceOnUse">
<stop stop-color="#FEFEFC"/>
<stop offset="0.09" stop-color="#FEFEFC" stop-opacity="0.96"/>
<stop offset="0.25" stop-color="#FEFEFC" stop-opacity="0.86"/>
<stop offset="0.44" stop-color="#FEFEFD" stop-opacity="0.7"/>
<stop offset="0.68" stop-color="#FFFFFE" stop-opacity="0.47"/>
<stop offset="0.93" stop-color="white" stop-opacity="0.18"/>
<stop offset="1" stop-color="white" stop-opacity="0.1"/>
</linearGradient>
<linearGradient id="paint4_linear_108_289" x1="255.847" y1="143.354" x2="200.292" y2="200.781" gradientUnits="userSpaceOnUse">
<stop stop-color="#FEFEFC"/>
<stop offset="0.09" stop-color="#FEFEFC" stop-opacity="0.96"/>
<stop offset="0.25" stop-color="#FEFEFC" stop-opacity="0.86"/>
<stop offset="0.44" stop-color="#FEFEFD" stop-opacity="0.7"/>
<stop offset="0.68" stop-color="#FFFFFE" stop-opacity="0.47"/>
<stop offset="0.93" stop-color="white" stop-opacity="0.18"/>
<stop offset="1" stop-color="white" stop-opacity="0.1"/>
</linearGradient>
<linearGradient id="paint5_linear_108_289" x1="-2.96157" y1="110.659" x2="282.037" y2="110.659" gradientUnits="userSpaceOnUse">
<stop stop-color="#735CD2"/>
<stop offset="1" stop-color="#8F6ACC"/>
</linearGradient>
<linearGradient id="paint6_linear_108_289" x1="217.291" y1="71.1446" x2="232.498" y2="71.1446" gradientUnits="userSpaceOnUse">
<stop stop-color="#FB9835"/>
<stop offset="1" stop-color="#FBBB3C"/>
</linearGradient>
<linearGradient id="paint7_linear_108_289" x1="120.732" y1="158.763" x2="135.937" y2="158.763" gradientUnits="userSpaceOnUse">
<stop stop-color="#FB9835"/>
<stop offset="1" stop-color="#FBBB3C"/>
</linearGradient>
<linearGradient id="paint8_linear_108_289" x1="58.2345" y1="96.8917" x2="73.4411" y2="96.8917" gradientUnits="userSpaceOnUse">
<stop stop-color="#FB9835"/>
<stop offset="1" stop-color="#FBBB3C"/>
</linearGradient>
<linearGradient id="paint9_linear_108_289" x1="42.7212" y1="73.8353" x2="-60.3209" y2="-1.7323" gradientUnits="userSpaceOnUse">
<stop stop-color="#5B40D8"/>
<stop offset="1" stop-color="#BBADFF"/>
</linearGradient>
<linearGradient id="paint10_linear_108_289" x1="80.1901" y1="3.11326" x2="80.1901" y2="71.9934" gradientUnits="userSpaceOnUse">
<stop stop-color="#DEE1E2"/>
<stop offset="1" stop-color="#B4BCBE"/>
</linearGradient>
<linearGradient id="paint11_linear_108_289" x1="47.1671" y1="46.4521" x2="47.1671" y2="6.12853" gradientUnits="userSpaceOnUse">
<stop stop-color="#FEFEFC"/>
<stop offset="0.09" stop-color="#FEFEFC" stop-opacity="0.96"/>
<stop offset="0.25" stop-color="#FEFEFC" stop-opacity="0.86"/>
<stop offset="0.44" stop-color="#FEFEFD" stop-opacity="0.7"/>
<stop offset="0.68" stop-color="#FFFFFE" stop-opacity="0.47"/>
<stop offset="0.93" stop-color="white" stop-opacity="0.18"/>
<stop offset="1" stop-color="white" stop-opacity="0.1"/>
</linearGradient>
<linearGradient id="paint12_linear_108_289" x1="62.235" y1="46.4516" x2="62.235" y2="6.12807" gradientUnits="userSpaceOnUse">
<stop stop-color="#FEFEFC"/>
<stop offset="0.09" stop-color="#FEFEFC" stop-opacity="0.96"/>
<stop offset="0.25" stop-color="#FEFEFC" stop-opacity="0.86"/>
<stop offset="0.44" stop-color="#FEFEFD" stop-opacity="0.7"/>
<stop offset="0.68" stop-color="#FFFFFE" stop-opacity="0.47"/>
<stop offset="0.93" stop-color="white" stop-opacity="0.18"/>
<stop offset="1" stop-color="white" stop-opacity="0.1"/>
</linearGradient>
<linearGradient id="paint13_linear_108_289" x1="77.298" y1="46.4522" x2="77.298" y2="6.1286" gradientUnits="userSpaceOnUse">
<stop stop-color="#FEFEFC"/>
<stop offset="0.09" stop-color="#FEFEFC" stop-opacity="0.96"/>
<stop offset="0.25" stop-color="#FEFEFC" stop-opacity="0.86"/>
<stop offset="0.44" stop-color="#FEFEFD" stop-opacity="0.7"/>
<stop offset="0.68" stop-color="#FFFFFE" stop-opacity="0.47"/>
<stop offset="0.93" stop-color="white" stop-opacity="0.18"/>
<stop offset="1" stop-color="white" stop-opacity="0.1"/>
</linearGradient>
<linearGradient id="paint14_linear_108_289" x1="31.9567" y1="46.4519" x2="31.9567" y2="6.12833" gradientUnits="userSpaceOnUse">
<stop stop-color="#FEFEFC"/>
<stop offset="0.09" stop-color="#FEFEFC" stop-opacity="0.96"/>
<stop offset="0.25" stop-color="#FEFEFC" stop-opacity="0.86"/>
<stop offset="0.44" stop-color="#FEFEFD" stop-opacity="0.7"/>
<stop offset="0.68" stop-color="#FFFFFE" stop-opacity="0.47"/>
<stop offset="0.93" stop-color="white" stop-opacity="0.18"/>
<stop offset="1" stop-color="white" stop-opacity="0.1"/>
</linearGradient>
<linearGradient id="paint15_linear_108_289" x1="270.378" y1="59.8795" x2="287.157" y2="78.3574" gradientUnits="userSpaceOnUse">
<stop stop-color="#735CD2"/>
<stop offset="1" stop-color="#8F6ACC"/>
</linearGradient>
<linearGradient id="paint16_linear_108_289" x1="271.349" y1="50.6003" x2="288.127" y2="69.0782" gradientUnits="userSpaceOnUse">
<stop stop-color="#735CD2"/>
<stop offset="1" stop-color="#8F6ACC"/>
</linearGradient>
</defs>
</svg>
