<svg width="224" height="198" viewBox="0 0 224 198" fill="none" xmlns="http://www.w3.org/2000/svg">
<path opacity="0.26" d="M199.931 92.1846C198.536 77.8109 190.701 65.3256 179.348 57.6352V41.1257C179.348 18.5069 161.738 0 140.188 0H139.967C118.415 0 100.805 18.5069 100.805 41.1257V60.047C91.2226 67.8001 84.7321 79.2304 83.4741 92.1864C83.327 93.7075 83.2526 95.2489 83.2507 96.8106V99.9903C83.2507 126.1 104.414 147.262 130.524 147.262H152.877C160.425 147.274 167.864 145.469 174.568 142.001C174.684 141.942 174.8 141.883 174.914 141.817C189.924 133.895 200.154 118.134 200.154 99.982V96.8023C200.154 95.2455 200.079 93.7063 199.931 92.1846ZM168.067 52.028C163.176 50.3722 158.045 49.5303 152.881 49.536H130.527C124.195 49.5275 117.925 50.7957 112.094 53.2648V45.4305C112.094 44.1223 112.138 42.8301 112.226 41.5539C112.78 33.6624 115.023 26.4686 119.016 21.0146C123.656 14.6802 130.652 10.6975 140.082 10.6975C157.047 10.6975 165.918 23.335 167.72 39.1809C167.953 41.2565 168.069 43.3437 168.066 45.4323L168.067 52.028Z" fill="url(#paint0_linear_108_222)"/>
<path opacity="0.19" d="M169.993 143.132C166.681 146.411 162.903 149.184 158.782 151.36C158.667 151.423 158.551 151.481 158.436 151.545C151.732 155.013 144.293 156.818 136.745 156.806H114.395C88.2856 156.806 67.1223 135.645 67.1223 109.534V106.354C67.1223 104.793 67.1968 103.252 67.3457 101.73C68.6037 88.7742 75.0942 77.3457 84.6767 69.5907V50.6694C84.6767 36.1674 91.9157 23.3554 102.792 16.0269C95.4544 23.5114 90.881 33.9698 90.881 45.4961V64.4174C81.2985 72.1705 74.808 83.6008 73.55 96.5568C73.4011 98.0779 73.3267 99.6193 73.3267 101.181V104.361C73.3267 130.47 94.4881 151.634 120.599 151.634H142.954C150.502 151.644 157.941 149.84 164.645 146.372C164.761 146.313 164.875 146.252 164.991 146.188C166.72 145.274 168.391 144.254 169.993 143.132Z" fill="url(#paint1_linear_108_222)"/>
<path d="M169.423 45.4896V65.2637H158.136V49.7953C158.138 47.7067 158.023 45.6196 157.791 43.5439C155.989 27.698 147.118 15.0586 130.152 15.0586C121.613 15.0586 115.067 18.3259 110.463 23.6424C109.983 24.1962 109.524 24.773 109.086 25.373C105.095 30.8288 102.849 38.0281 102.295 45.916C102.202 47.1915 102.161 48.4874 102.161 49.7925V65.2609H90.8811V45.4896C90.8811 33.9623 95.4554 23.5049 102.792 16.0203C109.854 8.81638 119.473 4.36572 130.041 4.36572H130.261C151.813 4.36572 169.423 22.8726 169.423 45.4896Z" fill="url(#paint2_linear_108_222)"/>
<path opacity="0.82" d="M169.424 48.7847V61.2137C165.904 59.0107 162.109 57.2832 158.136 56.0763V49.7954C158.138 47.7067 158.023 45.6196 157.79 43.5439C161.888 44.7537 165.802 46.5169 169.424 48.7847Z" fill="url(#paint3_linear_108_222)"/>
<path opacity="0.82" d="M158.136 49.7944C158.138 47.7057 158.023 45.6186 157.79 43.543L158.066 43.6242C158.115 44.5786 158.139 45.54 158.139 46.5085L158.136 49.7944Z" fill="url(#paint4_linear_108_222)"/>
<path d="M169.424 57.9279V61.2137C165.904 59.0108 162.109 57.2833 158.136 56.0764V52.7905C162.109 53.9975 165.904 55.7249 169.424 57.9279Z" fill="url(#paint5_linear_108_222)"/>
<path d="M190.226 101.172V104.352C190.226 120.406 182.225 134.589 169.993 143.133C168.389 144.254 166.717 145.275 164.986 146.189C164.87 146.249 164.755 146.309 164.64 146.373C157.936 149.84 150.497 151.645 142.95 151.634H120.598C94.488 151.634 73.3257 130.471 73.3257 104.361V101.182C73.3257 99.6225 73.4001 98.081 73.5491 96.5575C74.8071 83.6015 81.2976 72.173 90.88 64.4181C91.2332 64.1307 91.5907 63.8495 91.9525 63.5745C93.2406 62.5909 94.5789 61.675 95.962 60.8304C96.2826 60.6329 96.6053 60.44 96.9302 60.2517C104.121 56.0833 112.286 53.893 120.598 53.9034H142.953C145.967 53.902 148.974 54.1876 151.933 54.7562C158.194 55.962 164.145 58.4284 169.424 62.0054C180.777 69.6911 188.607 82.181 190.002 96.5529C190.15 98.0709 190.225 99.6108 190.226 101.172Z" fill="url(#paint6_linear_108_222)"/>
<path opacity="0.42" d="M190.226 101.173V104.353C190.226 122.505 179.997 138.267 164.986 146.188C166.686 144.619 168.401 142.801 169.883 140.706C182.587 122.702 176.305 85.7709 155.883 69.8502C135.441 53.912 112.17 59.1361 96.9312 60.2419C104.122 56.0755 112.288 53.8877 120.598 53.9009H142.952C167.504 53.9009 187.68 72.6155 190.002 96.5496C190.15 98.0706 190.225 99.6117 190.226 101.173Z" fill="url(#paint7_linear_108_222)"/>
<path d="M125.572 151.625H120.598C94.4889 151.625 73.3257 130.463 73.3257 104.352V101.173C73.3257 99.6129 73.4004 98.0715 73.55 96.5486C74.8541 83.1144 81.783 71.3241 91.9525 63.5664C84.1524 81.7659 82.4568 111.207 92.4325 129.661C102.182 147.694 118.355 150.443 125.572 151.625Z" fill="url(#paint8_linear_108_222)"/>
<path opacity="0.5" d="M137.221 151.625H120.598C94.488 151.625 73.3247 130.463 73.3247 104.352V101.172C73.3247 99.6126 73.3995 98.0712 73.549 96.5483C74.8532 83.1142 81.7821 71.3239 91.9516 63.5662C100.178 57.283 110.247 53.8868 120.598 53.9034H133.697C128.105 57.036 122.842 61.1193 122.169 67.2821C121.068 77.3889 133.707 80.3046 136.455 94.1411C140.106 112.543 120.654 122.087 123.884 136.998C125.359 143.803 130.815 148.282 137.221 151.625Z" fill="url(#paint9_linear_108_222)"/>
<path d="M142.543 120.878C142.649 121.31 142.655 121.761 142.562 122.195C142.469 122.63 142.277 123.038 142.003 123.388C141.729 123.738 141.378 124.021 140.979 124.216C140.579 124.41 140.14 124.511 139.695 124.511H123.571C123.126 124.511 122.687 124.41 122.287 124.216C121.887 124.021 121.537 123.738 121.263 123.388C120.988 123.038 120.797 122.63 120.704 122.195C120.61 121.761 120.617 121.31 120.723 120.878L124.734 104.568C124.862 104.049 124.845 103.505 124.686 102.995C124.527 102.484 124.231 102.027 123.831 101.673C122.539 100.537 121.511 99.132 120.82 97.5563C120.13 95.9806 119.793 94.2727 119.833 92.5528C119.966 86.4416 124.801 81.4557 130.823 81.0431C131.063 81.0255 131.305 81.0163 131.548 81.0145C133.954 80.9972 136.309 81.7159 138.295 83.0743C140.282 84.4327 141.806 86.3658 142.662 88.6146C143.519 90.8635 143.668 93.3205 143.09 95.6564C142.511 97.9923 141.232 100.095 139.424 101.684C139.026 102.037 138.732 102.493 138.575 103.002C138.418 103.51 138.403 104.052 138.532 104.568L142.543 120.878Z" fill="white"/>
<path d="M124.734 104.568L120.723 120.879C120.617 121.31 120.61 121.761 120.704 122.196C120.797 122.63 120.988 123.038 121.263 123.388C121.537 123.738 121.887 124.021 122.287 124.216C122.687 124.41 123.126 124.512 123.571 124.512H121.954C121.51 124.512 121.071 124.41 120.671 124.216C120.271 124.021 119.921 123.738 119.647 123.388C119.372 123.038 119.181 122.63 119.088 122.196C118.994 121.761 119.001 121.31 119.107 120.879L123.118 104.568C123.246 104.049 123.229 103.505 123.07 102.995C122.911 102.484 122.614 102.027 122.214 101.673C120.922 100.537 119.895 99.1318 119.204 97.5562C118.513 95.9806 118.176 94.2728 118.216 92.553C118.355 86.1991 123.575 81.0599 129.932 81.0156C130.234 81.0156 130.531 81.023 130.826 81.0442C124.804 81.4568 119.969 86.4428 119.836 92.5539C119.796 94.2739 120.132 95.9818 120.823 97.5575C121.514 99.1332 122.541 100.538 123.834 101.674C124.233 102.028 124.529 102.486 124.687 102.996C124.846 103.506 124.862 104.05 124.734 104.568Z" fill="url(#paint10_linear_108_222)"/>
<path opacity="0.82" d="M90.8801 52.4609C94.3087 49.4525 98.1547 46.9561 102.298 45.0493C102.21 46.3249 102.165 47.6171 102.165 48.9259V57.5374C98.3006 59.3293 94.6959 61.6358 91.4496 64.3943H90.8792L90.8801 52.4609Z" fill="url(#paint11_linear_108_222)"/>
<path d="M102.166 53.0459V57.2584C98.3621 59.1746 94.7871 61.5142 91.5087 64.2325H90.8801V60.3394C94.339 57.4688 98.1275 55.0204 102.166 53.0459Z" fill="url(#paint12_linear_108_222)"/>
<path opacity="0.18" d="M212.736 134.942C212.294 139.496 211.167 147.651 208.33 156.582C207.276 159.924 206.017 163.198 204.562 166.387C199.823 176.696 192.432 186.692 180.924 192.313C180.684 192.437 180.446 192.553 180.198 192.669C180.175 192.682 180.151 192.694 180.126 192.704C180.103 192.69 180.079 192.679 180.054 192.669C178.472 191.933 176.936 191.1 175.456 190.177C174.413 189.527 173.409 188.84 172.442 188.116C170.542 186.692 168.754 185.123 167.095 183.424C166.243 182.553 165.427 181.655 164.647 180.73C162.637 178.342 160.825 175.795 159.229 173.113C156.423 168.434 154.273 163.489 152.624 158.7C150.224 151.718 148.885 145.07 148.147 140.056C147.856 138.068 147.658 136.339 147.523 134.946C147.419 133.881 147.685 132.813 148.276 131.922C148.868 131.031 149.749 130.371 150.77 130.054L156.804 128.167L176.976 121.858L180.053 120.899L180.088 120.891L209.481 130.05C210.503 130.367 211.385 131.027 211.978 131.918C212.571 132.809 212.839 133.877 212.736 134.942Z" fill="#1F1E24"/>
<path d="M220.071 135.658H220.072C220.984 135.94 221.772 136.529 222.302 137.323C222.832 138.118 223.071 139.07 222.981 140.021C222.555 144.411 221.489 152.167 218.856 160.727L218.596 161.558L218.595 161.559C217.678 164.466 216.605 167.321 215.381 170.112L214.848 171.305C210.211 181.391 203.042 191.128 191.976 196.727L191.446 196.99L191.436 196.995C191.247 197.092 191.059 197.184 190.866 197.275C189.547 196.656 188.26 195.969 187.012 195.217L186.461 194.879L186.46 194.878C185.688 194.396 184.936 193.894 184.206 193.371L183.483 192.842C181.838 191.609 180.278 190.267 178.815 188.825L178.194 188.201V188.2L177.567 187.549C177.154 187.111 176.75 186.666 176.355 186.215L175.769 185.533C174.026 183.462 172.434 181.271 171.002 178.975L170.399 177.983L170.398 177.982L169.883 177.108C167.517 173.017 165.641 168.741 164.151 164.558L163.837 163.663C161.599 157.152 160.288 150.93 159.528 146.063L159.382 145.108C159.165 143.625 159 142.286 158.875 141.125L158.761 140.023L158.748 139.845C158.699 138.954 158.938 138.07 159.433 137.324C159.928 136.579 160.65 136.015 161.49 135.714L161.66 135.657H161.661L167.694 133.77L187.866 127.461L190.824 126.538L220.071 135.658Z" fill="white" stroke="url(#paint13_linear_108_222)"/>
<g opacity="0.43">
<path opacity="0.2" d="M215.444 148.569C218.081 148.569 220.219 146.432 220.219 143.795C220.219 141.158 218.081 139.02 215.444 139.02C212.807 139.02 210.67 141.158 210.67 143.795C210.67 146.432 212.807 148.569 215.444 148.569Z" fill="white"/>
<path opacity="0.2" d="M173.628 171.513C173.629 172.85 173.295 174.167 172.656 175.341C172.017 176.516 171.094 177.512 169.97 178.238C167.165 173.558 165.015 168.614 163.365 163.825C164.56 163.476 165.819 163.41 167.043 163.632C168.267 163.854 169.423 164.357 170.419 165.103C171.414 165.849 172.223 166.817 172.78 167.929C173.337 169.042 173.627 170.269 173.628 171.513ZM170.557 139.226C170.557 140.581 170.183 141.91 169.475 143.066C168.767 144.222 167.754 145.159 166.547 145.775C165.339 146.391 163.985 146.662 162.634 146.556C161.283 146.451 159.987 145.975 158.89 145.179C158.598 143.192 158.4 141.462 158.266 140.07C158.161 139.005 158.427 137.937 159.019 137.046C159.61 136.155 160.491 135.495 161.512 135.178L167.547 133.29C168.481 133.972 169.24 134.866 169.763 135.897C170.287 136.929 170.559 138.069 170.557 139.226Z" fill="white"/>
<path opacity="0.2" d="M198.566 185.36C201.437 185.36 203.765 183.032 203.765 180.161C203.765 177.29 201.437 174.963 198.566 174.963C195.695 174.963 193.368 177.29 193.368 180.161C193.368 183.032 195.695 185.36 198.566 185.36Z" fill="white"/>
<path opacity="0.2" d="M170.557 158.53C172.254 158.53 173.629 157.155 173.629 155.458C173.629 153.762 172.254 152.387 170.557 152.387C168.861 152.387 167.486 153.762 167.486 155.458C167.486 157.155 168.861 158.53 170.557 158.53Z" fill="white"/>
<path opacity="0.2" d="M202.708 145.368C204.404 145.368 205.78 143.993 205.78 142.297C205.78 140.6 204.404 139.225 202.708 139.225C201.011 139.225 199.636 140.6 199.636 142.297C199.636 143.993 201.011 145.368 202.708 145.368Z" fill="white"/>
<path opacity="0.2" d="M219.073 161.709C218.018 165.051 216.76 168.325 215.303 171.513C214.62 171.296 213.988 170.941 213.447 170.471C212.905 170 212.466 169.424 212.155 168.778C211.845 168.132 211.67 167.428 211.641 166.712C211.612 165.995 211.73 165.281 211.987 164.611C212.244 163.942 212.636 163.332 213.137 162.82C213.639 162.307 214.24 161.903 214.903 161.631C215.567 161.359 216.279 161.226 216.996 161.239C217.713 161.253 218.42 161.413 219.073 161.709ZM185.992 128.151C184.537 128.151 183.116 128.582 181.907 129.39C180.697 130.197 179.755 131.346 179.198 132.689C178.641 134.033 178.496 135.511 178.779 136.937C179.063 138.364 179.763 139.674 180.791 140.702C181.82 141.73 183.13 142.431 184.556 142.715C185.982 142.998 187.461 142.853 188.804 142.296C190.148 141.74 191.296 140.798 192.104 139.588C192.912 138.379 193.343 136.958 193.343 135.503C193.343 133.554 192.568 131.684 191.19 130.305C189.811 128.926 187.941 128.151 185.992 128.151ZM185.992 139.596C185.183 139.596 184.392 139.356 183.72 138.907C183.047 138.457 182.523 137.819 182.214 137.072C181.904 136.324 181.824 135.502 181.981 134.709C182.139 133.916 182.529 133.187 183.101 132.616C183.673 132.044 184.401 131.654 185.194 131.497C185.988 131.339 186.81 131.42 187.557 131.73C188.304 132.039 188.943 132.564 189.392 133.236C189.841 133.909 190.081 134.699 190.08 135.508C190.08 136.592 189.648 137.631 188.882 138.397C188.115 139.162 187.075 139.593 185.992 139.592V139.596ZM181.843 182.024C180.522 182.023 179.225 182.379 178.09 183.053C176.954 183.727 176.021 184.695 175.388 185.854C176.168 186.777 176.984 187.675 177.837 188.549C177.982 187.848 178.308 187.198 178.783 186.663C179.257 186.127 179.864 185.726 180.543 185.499C181.221 185.272 181.947 185.226 182.648 185.367C183.35 185.508 184.002 185.831 184.539 186.303C185.077 186.774 185.482 187.379 185.713 188.056C185.944 188.733 185.993 189.459 185.856 190.161C185.719 190.863 185.4 191.517 184.931 192.057C184.462 192.598 183.86 193.005 183.184 193.24C184.149 193.963 185.154 194.65 186.197 195.301C187.445 194.383 188.371 193.095 188.844 191.62C189.316 190.144 189.311 188.558 188.828 187.086C188.345 185.614 187.41 184.332 186.155 183.423C184.901 182.514 183.392 182.024 181.843 182.024Z" fill="white"/>
</g>
<path d="M208.19 160.191C208.19 160.56 208.18 160.921 208.149 161.281C207.63 169.824 200.908 176.683 192.439 177.433C191.917 177.484 191.393 177.509 190.869 177.507C190.711 177.507 190.552 177.507 190.393 177.497C187.701 177.429 185.062 176.733 182.686 175.466C180.171 174.106 178.027 172.15 176.44 169.771C175.102 167.763 174.204 165.493 173.804 163.113C173.634 162.181 173.548 161.235 173.55 160.287V160.194C173.549 157.539 174.16 154.92 175.333 152.538C176.507 150.156 178.212 148.076 180.317 146.458C182.422 144.841 184.871 143.728 187.475 143.208C190.078 142.687 192.767 142.771 195.332 143.455H195.343C199.029 144.441 202.287 146.615 204.61 149.641C206.934 152.668 208.194 156.376 208.194 160.192L208.19 160.191Z" fill="white"/>
<path d="M199.517 155.687L189.122 165.795C188.987 165.927 188.824 166.029 188.645 166.092C188.466 166.155 188.276 166.179 188.087 166.161C187.898 166.144 187.715 166.085 187.551 165.99C187.387 165.895 187.246 165.765 187.137 165.61L182.567 159.085" stroke="url(#paint14_linear_108_222)" stroke-width="7.33839" stroke-linecap="square" stroke-linejoin="round"/>
<path opacity="0.21" d="M199.53 149.421L179.358 167.836C178.29 166.233 177.573 164.422 177.255 162.522L194.427 146.836H194.435C196.296 147.331 198.032 148.211 199.53 149.421Z" fill="url(#paint15_linear_108_222)"/>
<path opacity="0.21" d="M204.691 160.191C204.691 160.486 204.683 160.773 204.658 161.06L190.492 174.001C188.344 173.946 186.238 173.391 184.342 172.379L203.593 154.792C204.322 156.498 204.695 158.335 204.691 160.191Z" fill="url(#paint16_linear_108_222)"/>
<path opacity="0.12" d="M78.8444 1.0957H18.37C8.50068 1.0957 0.5 9.09638 0.5 18.9657V18.9666C0.5 28.836 8.50068 36.8367 18.37 36.8367H78.8444C88.7137 36.8367 96.7144 28.836 96.7144 18.9666V18.9657C96.7144 9.09638 88.7137 1.0957 78.8444 1.0957Z" fill="url(#paint17_linear_108_222)"/>
<path d="M89.1218 14.2456H33.8642C24.8457 14.2456 17.5347 21.5564 17.5347 30.5747C17.5347 39.593 24.8457 46.9038 33.8642 46.9038H89.1218C98.1404 46.9038 105.451 39.593 105.451 30.5747C105.451 21.5564 98.1404 14.2456 89.1218 14.2456Z" fill="url(#paint18_linear_108_222)"/>
<path d="M38.7323 23.2354V37.9137M46.0709 30.574H31.3936M43.9213 35.764L33.5423 25.385M33.5423 35.764L43.9213 25.385M63.1878 23.2354V37.9137M70.5265 30.574H55.8491M68.3769 35.764L57.9988 25.385M57.9988 35.764L68.3769 25.385M87.6434 23.2354V37.9137M94.9821 30.574H80.3047M92.8324 35.764L82.4543 25.385M82.4543 35.764L92.8324 25.385" stroke="white" stroke-width="4.6772" stroke-linecap="round" stroke-linejoin="round"/>
<path d="M195.517 65.2629C196.133 65.225 196.748 65.1964 197.363 65.1641C197.376 65.1634 197.389 65.1653 197.401 65.1697C197.413 65.174 197.425 65.1808 197.434 65.1895C197.444 65.1982 197.452 65.2087 197.457 65.2204C197.463 65.2321 197.466 65.2448 197.467 65.2578C197.467 65.2708 197.466 65.2837 197.461 65.296C197.457 65.3082 197.45 65.3195 197.441 65.3291C197.433 65.3388 197.422 65.3466 197.41 65.3522C197.399 65.3577 197.386 65.361 197.373 65.3616H197.363C196.746 65.3293 196.131 65.3007 195.517 65.2629ZM200.686 65.0183L202.532 64.9509C202.573 64.9494 202.614 64.956 202.652 64.9703C202.691 64.9846 202.726 65.0064 202.756 65.0344C202.786 65.0624 202.811 65.096 202.828 65.1334C202.845 65.1708 202.855 65.2112 202.856 65.2523C202.858 65.2933 202.851 65.3343 202.837 65.3729C202.822 65.4114 202.801 65.4468 202.773 65.4769C202.745 65.507 202.711 65.5313 202.674 65.5485C202.636 65.5656 202.596 65.5752 202.555 65.5767H202.532L200.686 65.5093C200.621 65.5093 200.558 65.4834 200.512 65.4374C200.466 65.3914 200.44 65.3289 200.44 65.2638C200.44 65.1987 200.466 65.1362 200.512 65.0902C200.558 65.0441 200.621 65.0183 200.686 65.0183ZM205.918 65.1226C206.544 65.2207 207.163 65.356 207.772 65.5278C207.893 65.5627 207.994 65.6436 208.055 65.753C208.116 65.8625 208.131 65.9915 208.098 66.1121C208.064 66.2328 207.984 66.3352 207.875 66.3972C207.767 66.4593 207.638 66.4758 207.517 66.4434L207.491 66.4351C206.923 66.2435 206.346 66.0833 205.76 65.9551C205.657 65.928 205.567 65.8625 205.51 65.772C205.452 65.6814 205.431 65.5724 205.451 65.4671C205.471 65.3617 205.53 65.2678 205.616 65.2042C205.703 65.1406 205.81 65.1121 205.916 65.1244L205.918 65.1226ZM210.955 66.795C211.519 67.0916 212.066 67.4214 212.591 67.7826C212.721 67.8713 212.81 68.0077 212.839 68.162C212.868 68.3164 212.835 68.4759 212.746 68.6055C212.657 68.7351 212.521 68.8242 212.367 68.8532C212.212 68.8822 212.053 68.8487 211.923 68.7601L211.905 68.7462C211.427 68.3929 210.931 68.0656 210.418 67.766C210.289 67.6947 210.194 67.5751 210.153 67.4336C210.113 67.2921 210.13 67.1402 210.201 67.0115C210.273 66.8827 210.392 66.7876 210.534 66.747C210.675 66.7064 210.827 66.7237 210.956 66.795H210.955ZM215.215 70.0144C215.658 70.4777 216.074 70.9661 216.461 71.4774C216.568 71.62 216.614 71.7994 216.59 71.9762C216.565 72.153 216.471 72.3127 216.328 72.4202C216.185 72.5277 216.006 72.5741 215.829 72.5492C215.652 72.5244 215.493 72.4303 215.385 72.2878L215.376 72.2758C215.033 71.7942 214.663 71.332 214.268 70.8913C214.152 70.7654 214.09 70.5984 214.096 70.427C214.103 70.2555 214.177 70.0937 214.303 69.977C214.429 69.8604 214.596 69.7985 214.767 69.805C214.939 69.8115 215.101 69.8858 215.217 70.0117L215.215 70.0144ZM218.247 74.4411C218.518 75.0239 218.756 75.6217 218.959 76.2317C219.019 76.4126 219.005 76.61 218.92 76.7806C218.835 76.9512 218.685 77.0809 218.504 77.1413C218.324 77.2016 218.126 77.1876 217.956 77.1024C217.785 77.0171 217.655 76.8676 217.595 76.6867V76.6775C217.416 76.1167 217.205 75.5666 216.964 75.0299C216.891 74.8602 216.888 74.6689 216.954 74.4967C217.021 74.3246 217.152 74.1852 217.32 74.1083C217.487 74.0314 217.679 74.023 217.852 74.085C218.026 74.147 218.169 74.2745 218.25 74.4402L218.247 74.4411ZM219.699 79.6182C219.735 79.9381 219.762 80.2587 219.78 80.5799C219.788 80.7405 219.795 80.9011 219.799 81.0617C219.799 81.2214 219.805 81.3857 219.805 81.5416C219.805 81.7375 219.728 81.9253 219.589 82.0638C219.451 82.2023 219.263 82.28 219.067 82.28C218.871 82.28 218.683 82.2023 218.545 82.0638C218.406 81.9253 218.329 81.7375 218.329 81.5416V81.0986C218.329 80.9509 218.32 80.8051 218.312 80.6574C218.297 80.3639 218.274 80.071 218.243 79.7788C218.226 79.5879 218.285 79.3981 218.407 79.25C218.528 79.102 218.703 79.0074 218.894 78.9864C219.084 78.9654 219.275 79.0198 219.426 79.1378C219.577 79.2559 219.676 79.4283 219.701 79.6182H219.699ZM219.805 84.8653L219.799 86.7113C219.792 86.8994 219.713 87.0775 219.577 87.2081C219.442 87.3388 219.261 87.4118 219.073 87.4118C218.885 87.4118 218.704 87.3388 218.569 87.2081C218.433 87.0775 218.354 86.8994 218.347 86.7113L218.341 84.8653C218.34 84.671 218.416 84.4843 218.553 84.3463C218.69 84.2084 218.876 84.1305 219.071 84.1297C219.265 84.129 219.452 84.2055 219.59 84.3424C219.728 84.4793 219.806 84.6654 219.806 84.8598L219.805 84.8653ZM219.776 90.0359L219.757 91.8819C219.757 92.0634 219.684 92.2375 219.556 92.3658C219.428 92.4942 219.254 92.5663 219.072 92.5663C218.891 92.5663 218.717 92.4942 218.588 92.3658C218.46 92.2375 218.388 92.0634 218.388 91.8819L218.368 90.0359C218.373 89.8534 218.448 89.6798 218.578 89.5516C218.708 89.4234 218.882 89.3506 219.065 89.3487C219.248 89.3468 219.424 89.4159 219.556 89.5413C219.689 89.6668 219.768 89.8388 219.776 90.0212C219.776 90.0212 219.776 90.0322 219.776 90.0359ZM219.713 95.2065L219.684 97.0525C219.684 97.2146 219.619 97.37 219.505 97.4846C219.39 97.5992 219.235 97.6635 219.073 97.6635C218.911 97.6635 218.755 97.5992 218.641 97.4846C218.526 97.37 218.462 97.2146 218.462 97.0525L218.432 95.2065C218.435 95.0402 218.503 94.8817 218.62 94.7642C218.738 94.6468 218.897 94.5797 219.063 94.5771C219.23 94.5744 219.39 94.6365 219.512 94.7501C219.633 94.8638 219.706 95.0201 219.714 95.1862C219.713 95.1918 219.713 95.201 219.713 95.2065ZM219.617 100.377L219.575 102.223C219.575 102.356 219.522 102.484 219.428 102.578C219.333 102.672 219.206 102.725 219.073 102.725C218.939 102.725 218.812 102.672 218.718 102.578C218.623 102.484 218.57 102.356 218.57 102.223L218.528 100.377C218.526 100.306 218.539 100.234 218.565 100.168C218.591 100.101 218.629 100.04 218.679 99.9884C218.728 99.9367 218.787 99.8952 218.853 99.8663C218.918 99.8374 218.989 99.8217 219.06 99.8201C219.132 99.8185 219.203 99.8309 219.269 99.8568C219.336 99.8826 219.397 99.9214 219.449 99.9708C219.553 100.071 219.614 100.208 219.617 100.352V100.377ZM219.481 105.549C219.462 106.164 219.445 106.78 219.421 107.395C219.417 107.484 219.378 107.568 219.313 107.63C219.248 107.691 219.162 107.726 219.073 107.726C218.984 107.726 218.898 107.691 218.833 107.63C218.768 107.568 218.729 107.484 218.725 107.395C218.701 106.779 218.684 106.163 218.665 105.549C218.661 105.44 218.701 105.335 218.775 105.256C218.849 105.177 218.952 105.13 219.061 105.127C219.169 105.123 219.274 105.163 219.353 105.237C219.433 105.312 219.479 105.414 219.482 105.523C219.481 105.53 219.481 105.54 219.481 105.549ZM219.297 110.719L219.215 112.565C219.212 112.601 219.196 112.634 219.169 112.659C219.143 112.683 219.108 112.697 219.072 112.697C219.036 112.697 219.002 112.683 218.975 112.659C218.949 112.634 218.932 112.601 218.93 112.565L218.847 110.719C218.847 110.661 218.87 110.606 218.91 110.564C218.95 110.522 219.005 110.497 219.062 110.494C219.12 110.492 219.177 110.512 219.221 110.55C219.264 110.588 219.292 110.641 219.297 110.699C219.298 110.705 219.298 110.713 219.297 110.719ZM156.372 185.555C155.756 185.589 155.141 185.616 154.526 185.648C154.502 185.649 154.478 185.64 154.46 185.623C154.441 185.607 154.431 185.584 154.43 185.559C154.428 185.535 154.437 185.511 154.454 185.493C154.47 185.475 154.493 185.464 154.518 185.463H154.526C155.141 185.494 155.756 185.522 156.372 185.555ZM151.201 185.782L149.355 185.845C149.317 185.846 149.279 185.84 149.244 185.827C149.208 185.813 149.175 185.793 149.148 185.767C149.12 185.741 149.097 185.71 149.082 185.675C149.066 185.64 149.057 185.603 149.056 185.565C149.055 185.527 149.061 185.489 149.074 185.453C149.088 185.418 149.108 185.385 149.134 185.357C149.16 185.329 149.191 185.307 149.226 185.291C149.261 185.276 149.298 185.267 149.336 185.265H149.355L151.201 185.328C151.259 185.332 151.314 185.357 151.353 185.4C151.393 185.442 151.415 185.498 151.415 185.556C151.415 185.614 151.393 185.669 151.353 185.712C151.314 185.754 151.259 185.78 151.201 185.783V185.782ZM146.031 185.948L144.185 185.996C144.07 185.995 143.961 185.95 143.88 185.869C143.798 185.789 143.751 185.68 143.748 185.566C143.745 185.452 143.786 185.341 143.864 185.256C143.941 185.172 144.048 185.12 144.162 185.113H144.185L146.031 185.161C146.135 185.161 146.235 185.203 146.309 185.276C146.383 185.35 146.424 185.45 146.424 185.555C146.424 185.659 146.383 185.759 146.309 185.833C146.235 185.907 146.135 185.948 146.031 185.948ZM140.86 186.076L139.014 186.114C138.869 186.112 138.729 186.053 138.626 185.95C138.523 185.848 138.463 185.709 138.46 185.563C138.457 185.418 138.511 185.276 138.61 185.17C138.709 185.063 138.846 184.998 138.991 184.99H139.014L140.86 185.028C140.999 185.028 141.132 185.083 141.23 185.182C141.328 185.28 141.384 185.413 141.384 185.552C141.384 185.69 141.328 185.824 141.23 185.922C141.132 186.02 140.999 186.075 140.86 186.075V186.076ZM135.69 186.175L133.844 186.2C133.759 186.202 133.675 186.186 133.596 186.155C133.517 186.123 133.445 186.077 133.384 186.017C133.323 185.958 133.275 185.888 133.241 185.81C133.208 185.732 133.19 185.648 133.189 185.563C133.188 185.478 133.203 185.394 133.235 185.315C133.266 185.236 133.313 185.165 133.372 185.104C133.431 185.043 133.502 184.994 133.58 184.961C133.657 184.927 133.741 184.909 133.826 184.908H133.844L135.69 184.934C135.854 184.934 136.011 184.999 136.128 185.116C136.244 185.232 136.309 185.389 136.309 185.553C136.309 185.718 136.244 185.875 136.128 185.991C136.011 186.108 135.854 186.173 135.69 186.173V186.175ZM130.518 186.239L128.672 186.257C128.49 186.252 128.318 186.177 128.19 186.047C128.063 185.918 127.991 185.744 127.989 185.562C127.987 185.38 128.056 185.205 128.181 185.073C128.306 184.941 128.478 184.863 128.659 184.855H128.672L130.518 184.872C130.695 184.879 130.863 184.954 130.985 185.081C131.108 185.209 131.177 185.379 131.177 185.556C131.177 185.733 131.108 185.903 130.985 186.03C130.863 186.158 130.695 186.233 130.518 186.239ZM125.348 186.278L123.502 186.286C123.405 186.287 123.31 186.268 123.221 186.232C123.132 186.195 123.052 186.142 122.983 186.074C122.846 185.938 122.768 185.752 122.767 185.558C122.766 185.364 122.842 185.178 122.979 185.04C123.115 184.902 123.301 184.824 123.495 184.823H123.502L125.348 184.832C125.539 184.832 125.723 184.908 125.859 185.043C125.994 185.179 126.07 185.363 126.07 185.554C126.07 185.746 125.994 185.93 125.859 186.065C125.723 186.201 125.539 186.277 125.348 186.277V186.278ZM120.177 186.293H118.331C118.135 186.293 117.947 186.215 117.809 186.076C117.67 185.938 117.593 185.75 117.593 185.554C117.593 185.359 117.67 185.171 117.809 185.032C117.947 184.894 118.135 184.816 118.331 184.816H120.177C120.373 184.816 120.561 184.894 120.699 185.032C120.838 185.171 120.915 185.359 120.915 185.554C120.915 185.75 120.838 185.938 120.699 186.076C120.561 186.215 120.373 186.293 120.177 186.293ZM114.956 186.243C114.315 186.195 113.677 186.111 113.045 185.991C112.859 185.955 112.695 185.847 112.588 185.69C112.481 185.534 112.441 185.342 112.475 185.155C112.509 184.969 112.616 184.804 112.772 184.696C112.928 184.588 113.12 184.546 113.306 184.579C113.886 184.682 114.472 184.752 115.06 184.789C115.253 184.801 115.433 184.89 115.561 185.035C115.688 185.18 115.753 185.37 115.741 185.563C115.729 185.756 115.64 185.936 115.495 186.063C115.35 186.191 115.16 186.256 114.968 186.244L114.956 186.243ZM109.729 184.99C109.137 184.741 108.56 184.459 108.001 184.144C107.855 184.053 107.749 183.909 107.705 183.742C107.661 183.576 107.683 183.398 107.765 183.247C107.848 183.096 107.985 182.982 108.149 182.928C108.313 182.875 108.491 182.886 108.647 182.96C109.166 183.239 109.701 183.488 110.249 183.707C110.421 183.775 110.558 183.908 110.631 184.077C110.704 184.246 110.707 184.438 110.639 184.609C110.571 184.781 110.437 184.918 110.268 184.991C110.099 185.064 109.907 185.067 109.736 184.999H109.727L109.729 184.99ZM105.187 182.144C104.706 181.722 104.251 181.273 103.823 180.797C103.719 180.679 103.664 180.525 103.671 180.368C103.678 180.21 103.747 180.061 103.862 179.954C103.978 179.846 104.131 179.788 104.288 179.791C104.446 179.794 104.596 179.859 104.707 179.972C105.119 180.398 105.554 180.801 106.009 181.18C106.138 181.288 106.219 181.442 106.234 181.61C106.249 181.777 106.197 181.943 106.09 182.072C105.982 182.201 105.828 182.282 105.66 182.298C105.493 182.313 105.327 182.261 105.198 182.153L105.189 182.146L105.187 182.144ZM101.797 178.022C101.478 177.472 101.191 176.904 100.936 176.322C100.88 176.2 100.874 176.061 100.92 175.935C100.967 175.81 101.061 175.707 101.182 175.651C101.304 175.595 101.443 175.589 101.568 175.635C101.694 175.681 101.796 175.776 101.853 175.897C102.114 176.433 102.406 176.953 102.726 177.456C102.799 177.578 102.822 177.723 102.789 177.861C102.757 177.999 102.672 178.118 102.552 178.195C102.433 178.271 102.288 178.297 102.149 178.268C102.011 178.24 101.889 178.158 101.809 178.04L101.798 178.023L101.797 178.022ZM99.9173 173.062C99.7919 172.443 99.7019 171.818 99.6478 171.19C99.6369 171.092 99.6653 170.994 99.7269 170.917C99.7884 170.84 99.878 170.79 99.9759 170.78C100.074 170.769 100.172 170.797 100.249 170.859C100.326 170.92 100.375 171.01 100.386 171.108C100.469 171.703 100.586 172.293 100.736 172.875C100.751 172.929 100.756 172.985 100.749 173.041C100.743 173.096 100.725 173.15 100.697 173.198C100.669 173.247 100.632 173.289 100.588 173.323C100.543 173.357 100.493 173.382 100.438 173.396C100.384 173.41 100.328 173.413 100.273 173.404C100.217 173.396 100.164 173.377 100.117 173.348C100.069 173.319 100.028 173.28 99.9949 173.235C99.9622 173.19 99.939 173.138 99.9265 173.084L99.9219 173.064L99.9173 173.062ZM99.6552 167.829L99.6875 166.906L99.7244 165.983C99.7244 165.933 99.7443 165.885 99.7797 165.85C99.8151 165.814 99.8631 165.795 99.9131 165.795C99.9632 165.795 100.011 165.814 100.047 165.85C100.082 165.885 100.102 165.933 100.102 165.983L100.139 166.906L100.171 167.829C100.17 167.896 100.144 167.959 100.098 168.007C100.051 168.054 99.9883 168.082 99.9219 168.084C99.8556 168.087 99.7909 168.064 99.7412 168.019C99.6915 167.975 99.6607 167.914 99.6552 167.848V167.829ZM99.8693 162.659L99.9136 161.804L99.9579 162.659C99.9579 162.671 99.953 162.683 99.9444 162.691C99.9357 162.7 99.924 162.705 99.9117 162.705C99.8995 162.705 99.8878 162.7 99.8791 162.691C99.8705 162.683 99.8656 162.671 99.8656 162.659H99.8693Z" fill="url(#paint19_linear_108_222)"/>
<defs>
<linearGradient id="paint0_linear_108_222" x1="123.901" y1="209.565" x2="-86.8065" y2="126.772" gradientUnits="userSpaceOnUse">
<stop stop-color="#5B40D8"/>
<stop offset="1" stop-color="#BBADFF"/>
</linearGradient>
<linearGradient id="paint1_linear_108_222" x1="102.893" y1="216.366" x2="-86.3881" y2="147.905" gradientUnits="userSpaceOnUse">
<stop stop-color="#5B40D8"/>
<stop offset="1" stop-color="#BBADFF"/>
</linearGradient>
<linearGradient id="paint2_linear_108_222" x1="118.192" y1="91.0282" x2="2.08701" y2="16.9088" gradientUnits="userSpaceOnUse">
<stop stop-color="#5B40D8"/>
<stop offset="1" stop-color="#BBADFF"/>
</linearGradient>
<linearGradient id="paint3_linear_108_222" x1="161.835" y1="68.6893" x2="139.952" y2="61.5575" gradientUnits="userSpaceOnUse">
<stop stop-color="#5B40D8"/>
<stop offset="1" stop-color="#BBADFF"/>
</linearGradient>
<linearGradient id="paint4_linear_108_222" x1="157.965" y1="43.0547" x2="157.965" y2="50.9684" gradientUnits="userSpaceOnUse">
<stop stop-color="#DEE1E2"/>
<stop offset="1" stop-color="#B4BCBE"/>
</linearGradient>
<linearGradient id="paint5_linear_108_222" x1="162.061" y1="64.7774" x2="145.75" y2="53.9582" gradientUnits="userSpaceOnUse">
<stop stop-color="#5B40D8"/>
<stop offset="1" stop-color="#BBADFF"/>
</linearGradient>
<linearGradient id="paint6_linear_108_222" x1="113.975" y1="192.982" x2="-66.1269" y2="86.3507" gradientUnits="userSpaceOnUse">
<stop stop-color="#5B40D8"/>
<stop offset="1" stop-color="#BBADFF"/>
</linearGradient>
<linearGradient id="paint7_linear_108_222" x1="183.1" y1="120.548" x2="90.0908" y2="18.5384" gradientUnits="userSpaceOnUse">
<stop stop-color="#DEE1E2"/>
<stop offset="1" stop-color="#B4BCBE"/>
</linearGradient>
<linearGradient id="paint8_linear_108_222" x1="77.9093" y1="81.5389" x2="134.806" y2="184.261" gradientUnits="userSpaceOnUse">
<stop stop-color="#DEE1E2"/>
<stop offset="0.3" stop-color="#D7DBDC"/>
<stop offset="0.75" stop-color="#C3C9CB"/>
<stop offset="1" stop-color="#B4BCBE"/>
</linearGradient>
<linearGradient id="paint9_linear_108_222" x1="95.543" y1="192.969" x2="-24.7996" y2="154.021" gradientUnits="userSpaceOnUse">
<stop stop-color="#5B40D8"/>
<stop offset="1" stop-color="#BBADFF"/>
</linearGradient>
<linearGradient id="paint10_linear_108_222" x1="123.969" y1="78.242" x2="125.969" y2="126.813" gradientUnits="userSpaceOnUse">
<stop stop-color="#DEE1E2"/>
<stop offset="1" stop-color="#B4BCBE"/>
</linearGradient>
<linearGradient id="paint11_linear_108_222" x1="94.8499" y1="72.5787" x2="72.9588" y2="66.1825" gradientUnits="userSpaceOnUse">
<stop stop-color="#5B40D8"/>
<stop offset="1" stop-color="#BBADFF"/>
</linearGradient>
<linearGradient id="paint12_linear_108_222" x1="94.8044" y1="68.9654" x2="76.0093" y2="59.5802" gradientUnits="userSpaceOnUse">
<stop stop-color="#5B40D8"/>
<stop offset="1" stop-color="#BBADFF"/>
</linearGradient>
<linearGradient id="paint13_linear_108_222" x1="180.934" y1="228.212" x2="67.9996" y2="177.416" gradientUnits="userSpaceOnUse">
<stop stop-color="#5B40D8"/>
<stop offset="1" stop-color="#BBADFF"/>
</linearGradient>
<linearGradient id="paint14_linear_108_222" x1="188.461" y1="170.601" x2="166.968" y2="153.394" gradientUnits="userSpaceOnUse">
<stop stop-color="#5B40D8"/>
<stop offset="1" stop-color="#BBADFF"/>
</linearGradient>
<linearGradient id="paint15_linear_108_222" x1="200.762" y1="143.45" x2="180.081" y2="164.386" gradientUnits="userSpaceOnUse">
<stop stop-color="#FEFEFC"/>
<stop offset="1" stop-color="#C4EAFC" stop-opacity="0.1"/>
</linearGradient>
<linearGradient id="paint16_linear_108_222" x1="208.385" y1="152.665" x2="188.64" y2="172.651" gradientUnits="userSpaceOnUse">
<stop stop-color="#FEFEFC"/>
<stop offset="1" stop-color="#C4EAFC" stop-opacity="0.1"/>
</linearGradient>
<linearGradient id="paint17_linear_108_222" x1="-24.6303" y1="-15.9621" x2="65.4638" y2="27.0059" gradientUnits="userSpaceOnUse">
<stop stop-color="#735CD2" stop-opacity="0.2"/>
<stop offset="1" stop-color="#8F6ACC"/>
</linearGradient>
<linearGradient id="paint18_linear_108_222" x1="48.1057" y1="60.7207" x2="-17.8022" y2="-27.1003" gradientUnits="userSpaceOnUse">
<stop stop-color="#5B40D8"/>
<stop offset="1" stop-color="#BBADFF"/>
</linearGradient>
<linearGradient id="paint19_linear_108_222" x1="141.429" y1="237.63" x2="-60.1578" y2="138.821" gradientUnits="userSpaceOnUse">
<stop stop-color="#5B40D8"/>
<stop offset="1" stop-color="#BBADFF"/>
</linearGradient>
</defs>
</svg>
